<?xml version="1.0" encoding="UTF-8" standalone="no"?>
<!DOCTYPE svg PUBLIC "-//W3C//DTD SVG 1.1//EN"
 "http://www.w3.org/Graphics/SVG/1.1/DTD/svg11.dtd">
<!-- Generated by graphviz version 2.47.3 (20210619.1520)
 -->
<!-- Title: dependencies Pages: 1 -->
<svg width="1997pt" height="247pt"
 viewBox="0.00 0.00 1997.00 246.80" xmlns="http://www.w3.org/2000/svg" xmlns:xlink="http://www.w3.org/1999/xlink">
<g id="graph0" class="graph" transform="scale(1 1) rotate(0) translate(4 242.8)">
<title>dependencies</title>
<polygon fill="white" stroke="transparent" points="-4,4 -4,-242.8 1993,-242.8 1993,4 -4,4"/>
<text text-anchor="middle" x="994.5" y="-8.2" font-family="sans-serif" font-size="14.00">dependencies</text>
<g id="clust1" class="cluster">
<title>cluster_ProductConfigurationModule</title>
<polygon fill="none" stroke="black" stroke-dasharray="1,5" points="8,-32.8 8,-230.8 1981,-230.8 1981,-32.8 8,-32.8"/>
</g>
<g id="clust7" class="cluster">
<title>cluster_ProductConfigurationModule_exports</title>
<polygon fill="none" stroke="black" points="947,-170.8 947,-222.8 1388,-222.8 1388,-170.8 947,-170.8"/>
</g>
<g id="clust6" class="cluster">
<title>cluster_ProductConfigurationModule_imports</title>
<polygon fill="none" stroke="black" points="696,-40.8 696,-92.8 1973,-92.8 1973,-40.8 696,-40.8"/>
</g>
<g id="clust2" class="cluster">
<title>cluster_ProductConfigurationModule_declarations</title>
<polygon fill="none" stroke="black" points="16,-40.8 16,-92.8 688,-92.8 688,-40.8 16,-40.8"/>
</g>
<!-- ProductConfigurationComponent -->
<g id="node1" class="node">
<title>ProductConfigurationComponent</title>
<polygon fill="#ffffb3" stroke="black" points="679.93,-84.8 476.07,-84.8 476.07,-48.8 679.93,-48.8 679.93,-84.8"/>
<text text-anchor="middle" x="578" y="-62.6" font-family="Times,serif" font-size="14.00">ProductConfigurationComponent</text>
</g>
<!-- ProductConfigurationModule -->
<g id="node4" class="node">
<title>ProductConfigurationModule</title>
<polygon fill="#8dd3c7" stroke="black" points="1256.64,-149.8 1253.64,-153.8 1232.64,-153.8 1229.64,-149.8 1075.36,-149.8 1075.36,-113.8 1256.64,-113.8 1256.64,-149.8"/>
<text text-anchor="middle" x="1166" y="-127.6" font-family="Times,serif" font-size="14.00">ProductConfigurationModule</text>
</g>
<!-- ProductConfigurationComponent&#45;&gt;ProductConfigurationModule -->
<g id="edge1" class="edge">
<title>ProductConfigurationComponent&#45;&gt;ProductConfigurationModule</title>
<path fill="none" stroke="black" d="M578,-84.91C578,-104.14 578,-131.8 578,-131.8 578,-131.8 1065.09,-131.8 1065.09,-131.8"/>
<polygon fill="black" stroke="black" points="1065.09,-135.3 1075.09,-131.8 1065.09,-128.3 1065.09,-135.3"/>
</g>
<!-- NativeConfigurationComponent -->
<g id="node2" class="node">
<title>NativeConfigurationComponent</title>
<polygon fill="#ffffb3" stroke="black" points="458.69,-84.8 261.31,-84.8 261.31,-48.8 458.69,-48.8 458.69,-84.8"/>
<text text-anchor="middle" x="360" y="-62.6" font-family="Times,serif" font-size="14.00">NativeConfigurationComponent</text>
</g>
<!-- NativeConfigurationComponent&#45;&gt;ProductConfigurationModule -->
<g id="edge2" class="edge">
<title>NativeConfigurationComponent&#45;&gt;ProductConfigurationModule</title>
<path fill="none" stroke="black" d="M360,-85.08C360,-106.12 360,-137.8 360,-137.8 360,-137.8 1065.11,-137.8 1065.11,-137.8"/>
<polygon fill="black" stroke="black" points="1065.11,-141.3 1075.11,-137.8 1065.11,-134.3 1065.11,-141.3"/>
</g>
<!-- EmbeddedConfigurationComponent -->
<g id="node3" class="node">
<title>EmbeddedConfigurationComponent</title>
<polygon fill="#ffffb3" stroke="black" points="243.75,-84.8 24.25,-84.8 24.25,-48.8 243.75,-48.8 243.75,-84.8"/>
<text text-anchor="middle" x="134" y="-62.6" font-family="Times,serif" font-size="14.00">EmbeddedConfigurationComponent</text>
</g>
<!-- EmbeddedConfigurationComponent&#45;&gt;ProductConfigurationModule -->
<g id="edge3" class="edge">
<title>EmbeddedConfigurationComponent&#45;&gt;ProductConfigurationModule</title>
<path fill="none" stroke="black" d="M134,-85.05C134,-107.82 134,-143.8 134,-143.8 134,-143.8 1065.32,-143.8 1065.32,-143.8"/>
<polygon fill="black" stroke="black" points="1065.32,-147.3 1075.32,-143.8 1065.32,-140.3 1065.32,-147.3"/>
</g>
<!-- ProductConfigurationComponent  -->
<g id="node15" class="node">
<title>ProductConfigurationComponent </title>
<polygon fill="#fb8072" stroke="black" points="1380.43,-214.8 1173.57,-214.8 1173.57,-178.8 1380.43,-178.8 1380.43,-214.8"/>
<text text-anchor="middle" x="1277" y="-192.6" font-family="Times,serif" font-size="14.00">ProductConfigurationComponent </text>
</g>
<!-- ProductConfigurationModule&#45;&gt;ProductConfigurationComponent  -->
<g id="edge14" class="edge">
<title>ProductConfigurationModule&#45;&gt;ProductConfigurationComponent </title>
<path fill="none" stroke="black" stroke-dasharray="5,2" d="M1215.18,-149.91C1215.18,-149.91 1215.18,-168.79 1215.18,-168.79"/>
<polygon fill="black" stroke="black" points="1211.68,-168.79 1215.18,-178.79 1218.68,-168.79 1211.68,-168.79"/>
</g>
<!-- NativeConfigurationComponent  -->
<g id="node16" class="node">
<title>NativeConfigurationComponent </title>
<polygon fill="#fb8072" stroke="black" points="1155.19,-214.8 954.81,-214.8 954.81,-178.8 1155.19,-178.8 1155.19,-214.8"/>
<text text-anchor="middle" x="1055" y="-192.6" font-family="Times,serif" font-size="14.00">NativeConfigurationComponent </text>
</g>
<!-- ProductConfigurationModule&#45;&gt;NativeConfigurationComponent  -->
<g id="edge15" class="edge">
<title>ProductConfigurationModule&#45;&gt;NativeConfigurationComponent </title>
<path fill="none" stroke="black" stroke-dasharray="5,2" d="M1115.26,-149.91C1115.26,-149.91 1115.26,-168.79 1115.26,-168.79"/>
<polygon fill="black" stroke="black" points="1111.76,-168.79 1115.26,-178.79 1118.76,-168.79 1111.76,-168.79"/>
</g>
<!-- CommonModule -->
<g id="node5" class="node">
<title>CommonModule</title>
<polygon fill="#8dd3c7" stroke="black" points="1964.67,-84.8 1961.67,-88.8 1940.67,-88.8 1937.67,-84.8 1853.33,-84.8 1853.33,-48.8 1964.67,-48.8 1964.67,-84.8"/>
<text text-anchor="middle" x="1909" y="-62.6" font-family="Times,serif" font-size="14.00">CommonModule</text>
</g>
<!-- CommonModule&#45;&gt;ProductConfigurationModule -->
<g id="edge4" class="edge">
<title>CommonModule&#45;&gt;ProductConfigurationModule</title>
<path fill="none" stroke="black" d="M1909,-85.05C1909,-107.82 1909,-143.8 1909,-143.8 1909,-143.8 1266.73,-143.8 1266.73,-143.8"/>
<polygon fill="black" stroke="black" points="1266.73,-140.3 1256.73,-143.8 1266.73,-147.3 1266.73,-140.3"/>
</g>
<!-- PriceModule -->
<g id="node6" class="node">
<title>PriceModule</title>
<polygon fill="#8dd3c7" stroke="black" points="1835.31,-84.8 1832.31,-88.8 1811.31,-88.8 1808.31,-84.8 1746.69,-84.8 1746.69,-48.8 1835.31,-48.8 1835.31,-84.8"/>
<text text-anchor="middle" x="1791" y="-62.6" font-family="Times,serif" font-size="14.00">PriceModule</text>
</g>
<!-- PriceModule&#45;&gt;ProductConfigurationModule -->
<g id="edge5" class="edge">
<title>PriceModule&#45;&gt;ProductConfigurationModule</title>
<path fill="none" stroke="black" d="M1791,-85.08C1791,-106.12 1791,-137.8 1791,-137.8 1791,-137.8 1266.88,-137.8 1266.88,-137.8"/>
<polygon fill="black" stroke="black" points="1266.88,-134.3 1256.88,-137.8 1266.88,-141.3 1266.88,-134.3"/>
</g>
<!-- ButtonModule -->
<g id="node7" class="node">
<title>ButtonModule</title>
<polygon fill="#8dd3c7" stroke="black" points="1728.67,-84.8 1725.67,-88.8 1704.67,-88.8 1701.67,-84.8 1631.33,-84.8 1631.33,-48.8 1728.67,-48.8 1728.67,-84.8"/>
<text text-anchor="middle" x="1680" y="-62.6" font-family="Times,serif" font-size="14.00">ButtonModule</text>
</g>
<!-- ButtonModule&#45;&gt;ProductConfigurationModule -->
<g id="edge6" class="edge">
<title>ButtonModule&#45;&gt;ProductConfigurationModule</title>
<path fill="none" stroke="black" d="M1680,-84.91C1680,-104.14 1680,-131.8 1680,-131.8 1680,-131.8 1266.71,-131.8 1266.71,-131.8"/>
<polygon fill="black" stroke="black" points="1266.71,-128.3 1256.71,-131.8 1266.71,-135.3 1266.71,-128.3"/>
</g>
<!-- InputFieldModule -->
<g id="node8" class="node">
<title>InputFieldModule</title>
<polygon fill="#8dd3c7" stroke="black" points="1612.88,-84.8 1609.88,-88.8 1588.88,-88.8 1585.88,-84.8 1495.12,-84.8 1495.12,-48.8 1612.88,-48.8 1612.88,-84.8"/>
<text text-anchor="middle" x="1554" y="-62.6" font-family="Times,serif" font-size="14.00">InputFieldModule</text>
</g>
<!-- InputFieldModule&#45;&gt;ProductConfigurationModule -->
<g id="edge7" class="edge">
<title>InputFieldModule&#45;&gt;ProductConfigurationModule</title>
<path fill="none" stroke="black" d="M1554,-84.82C1554,-102.17 1554,-125.8 1554,-125.8 1554,-125.8 1266.97,-125.8 1266.97,-125.8"/>
<polygon fill="black" stroke="black" points="1266.97,-122.3 1256.97,-125.8 1266.97,-129.3 1266.97,-122.3"/>
</g>
<!-- FormsModule -->
<g id="node9" class="node">
<title>FormsModule</title>
<polygon fill="#8dd3c7" stroke="black" points="1476.83,-84.8 1473.83,-88.8 1452.83,-88.8 1449.83,-84.8 1381.17,-84.8 1381.17,-48.8 1476.83,-48.8 1476.83,-84.8"/>
<text text-anchor="middle" x="1429" y="-62.6" font-family="Times,serif" font-size="14.00">FormsModule</text>
</g>
<!-- FormsModule&#45;&gt;ProductConfigurationModule -->
<g id="edge8" class="edge">
<title>FormsModule&#45;&gt;ProductConfigurationModule</title>
<path fill="none" stroke="black" d="M1429,-85.04C1429,-100.37 1429,-119.8 1429,-119.8 1429,-119.8 1266.88,-119.8 1266.88,-119.8"/>
<polygon fill="black" stroke="black" points="1266.88,-116.3 1256.88,-119.8 1266.88,-123.3 1266.88,-116.3"/>
</g>
<!-- ApttusModule -->
<g id="node10" class="node">
<title>ApttusModule</title>
<polygon fill="#8dd3c7" stroke="black" points="1363.38,-84.8 1360.38,-88.8 1339.38,-88.8 1336.38,-84.8 1266.62,-84.8 1266.62,-48.8 1363.38,-48.8 1363.38,-84.8"/>
<text text-anchor="middle" x="1315" y="-62.6" font-family="Times,serif" font-size="14.00">ApttusModule</text>
</g>
<!-- ApttusModule&#45;&gt;ProductConfigurationModule -->
<g id="edge9" class="edge">
<title>ApttusModule&#45;&gt;ProductConfigurationModule</title>
<path fill="none" stroke="black" d="M1266.41,-66.8C1258.34,-66.8 1252.54,-66.8 1252.54,-66.8 1252.54,-66.8 1252.54,-103.69 1252.54,-103.69"/>
<polygon fill="black" stroke="black" points="1249.04,-103.69 1252.54,-113.69 1256.04,-103.69 1249.04,-103.69"/>
</g>
<!-- ConstraintPopoverModule -->
<g id="node11" class="node">
<title>ConstraintPopoverModule</title>
<polygon fill="#8dd3c7" stroke="black" points="1248.04,-84.8 1245.04,-88.8 1224.04,-88.8 1221.04,-84.8 1083.96,-84.8 1083.96,-48.8 1248.04,-48.8 1248.04,-84.8"/>
<text text-anchor="middle" x="1166" y="-62.6" font-family="Times,serif" font-size="14.00">ConstraintPopoverModule</text>
</g>
<!-- ConstraintPopoverModule&#45;&gt;ProductConfigurationModule -->
<g id="edge10" class="edge">
<title>ConstraintPopoverModule&#45;&gt;ProductConfigurationModule</title>
<path fill="none" stroke="black" d="M1166,-84.91C1166,-84.91 1166,-103.79 1166,-103.79"/>
<polygon fill="black" stroke="black" points="1162.5,-103.79 1166,-113.79 1169.5,-103.79 1162.5,-103.79"/>
</g>
<!-- IconModule -->
<g id="node12" class="node">
<title>IconModule</title>
<polygon fill="#8dd3c7" stroke="black" points="1066.43,-84.8 1063.43,-88.8 1042.43,-88.8 1039.43,-84.8 981.57,-84.8 981.57,-48.8 1066.43,-48.8 1066.43,-84.8"/>
<text text-anchor="middle" x="1024" y="-62.6" font-family="Times,serif" font-size="14.00">IconModule</text>
</g>
<!-- IconModule&#45;&gt;ProductConfigurationModule -->
<g id="edge11" class="edge">
<title>IconModule&#45;&gt;ProductConfigurationModule</title>
<path fill="none" stroke="black" d="M1066.31,-66.8C1073.9,-66.8 1079.46,-66.8 1079.46,-66.8 1079.46,-66.8 1079.46,-103.69 1079.46,-103.69"/>
<polygon fill="black" stroke="black" points="1075.96,-103.69 1079.46,-113.69 1082.96,-103.69 1075.96,-103.69"/>
</g>
<!-- ProductAttributeModule -->
<g id="node13" class="node">
<title>ProductAttributeModule</title>
<polygon fill="#8dd3c7" stroke="black" points="963.64,-84.8 960.64,-88.8 939.64,-88.8 936.64,-84.8 810.36,-84.8 810.36,-48.8 963.64,-48.8 963.64,-84.8"/>
<text text-anchor="middle" x="887" y="-62.6" font-family="Times,serif" font-size="14.00">ProductAttributeModule</text>
</g>
<!-- ProductAttributeModule&#45;&gt;ProductConfigurationModule -->
<g id="edge12" class="edge">
<title>ProductAttributeModule&#45;&gt;ProductConfigurationModule</title>
<path fill="none" stroke="black" d="M959.24,-85.04C959.24,-100.37 959.24,-119.8 959.24,-119.8 959.24,-119.8 1065.31,-119.8 1065.31,-119.8"/>
<polygon fill="black" stroke="black" points="1065.31,-123.3 1075.31,-119.8 1065.31,-116.3 1065.31,-123.3"/>
</g>
<!-- AlertModule -->
<g id="node14" class="node">
<title>AlertModule</title>
<polygon fill="#8dd3c7" stroke="black" points="792.31,-84.8 789.31,-88.8 768.31,-88.8 765.31,-84.8 703.69,-84.8 703.69,-48.8 792.31,-48.8 792.31,-84.8"/>
<text text-anchor="middle" x="748" y="-62.6" font-family="Times,serif" font-size="14.00">AlertModule</text>
</g>
<!-- AlertModule&#45;&gt;ProductConfigurationModule -->
<g id="edge13" class="edge">
<title>AlertModule&#45;&gt;ProductConfigurationModule</title>
<path fill="none" stroke="black" d="M748,-84.82C748,-102.17 748,-125.8 748,-125.8 748,-125.8 1065.3,-125.8 1065.3,-125.8"/>
<polygon fill="black" stroke="black" points="1065.3,-129.3 1075.3,-125.8 1065.3,-122.3 1065.3,-129.3"/>
</g>
</g>
</svg>
