<?xml version="1.0" encoding="UTF-8" standalone="no"?>
<!DOCTYPE svg PUBLIC "-//W3C//DTD SVG 1.1//EN"
 "http://www.w3.org/Graphics/SVG/1.1/DTD/svg11.dtd">
<!-- Generated by graphviz version 2.47.3 (20210619.1520)
 -->
<!-- Title: dependencies Pages: 1 -->
<svg width="760pt" height="247pt"
 viewBox="0.00 0.00 760.00 246.80" xmlns="http://www.w3.org/2000/svg" xmlns:xlink="http://www.w3.org/1999/xlink">
<g id="graph0" class="graph" transform="scale(1 1) rotate(0) translate(4 242.8)">
<title>dependencies</title>
<polygon fill="white" stroke="transparent" points="-4,4 -4,-242.8 756,-242.8 756,4 -4,4"/>
<text text-anchor="middle" x="376" y="-8.2" font-family="sans-serif" font-size="14.00">dependencies</text>
<g id="clust1" class="cluster">
<title>cluster_BreadcrumbModule</title>
<polygon fill="none" stroke="black" stroke-dasharray="1,5" points="8,-32.8 8,-230.8 744,-230.8 744,-32.8 8,-32.8"/>
</g>
<g id="clust2" class="cluster">
<title>cluster_BreadcrumbModule_declarations</title>
<polygon fill="none" stroke="black" points="570,-40.8 570,-92.8 736,-92.8 736,-40.8 570,-40.8"/>
</g>
<g id="clust5" class="cluster">
<title>cluster_BreadcrumbModule_exports</title>
<polygon fill="none" stroke="black" points="292,-170.8 292,-222.8 462,-222.8 462,-170.8 292,-170.8"/>
</g>
<g id="clust4" class="cluster">
<title>cluster_BreadcrumbModule_imports</title>
<polygon fill="none" stroke="black" points="16,-40.8 16,-92.8 562,-92.8 562,-40.8 16,-40.8"/>
</g>
<!-- BreadcrumbComponent -->
<g id="node1" class="node">
<title>BreadcrumbComponent</title>
<polygon fill="#ffffb3" stroke="black" points="728.03,-84.8 577.97,-84.8 577.97,-48.8 728.03,-48.8 728.03,-84.8"/>
<text text-anchor="middle" x="653" y="-62.6" font-family="Times,serif" font-size="14.00">BreadcrumbComponent</text>
</g>
<!-- BreadcrumbModule -->
<g id="node2" class="node">
<title>BreadcrumbModule</title>
<polygon fill="#8dd3c7" stroke="black" points="441.24,-149.8 438.24,-153.8 417.24,-153.8 414.24,-149.8 312.76,-149.8 312.76,-113.8 441.24,-113.8 441.24,-149.8"/>
<text text-anchor="middle" x="377" y="-127.6" font-family="Times,serif" font-size="14.00">BreadcrumbModule</text>
</g>
<!-- BreadcrumbComponent&#45;&gt;BreadcrumbModule -->
<g id="edge1" class="edge">
<title>BreadcrumbComponent&#45;&gt;BreadcrumbModule</title>
<path fill="none" stroke="black" d="M653,-85.08C653,-106.12 653,-137.8 653,-137.8 653,-137.8 451.36,-137.8 451.36,-137.8"/>
<polygon fill="black" stroke="black" points="451.36,-134.3 441.36,-137.8 451.36,-141.3 451.36,-134.3"/>
</g>
<!-- BreadcrumbComponent  -->
<g id="node7" class="node">
<title>BreadcrumbComponent </title>
<polygon fill="#fb8072" stroke="black" points="454.02,-214.8 299.98,-214.8 299.98,-178.8 454.02,-178.8 454.02,-214.8"/>
<text text-anchor="middle" x="377" y="-192.6" font-family="Times,serif" font-size="14.00">BreadcrumbComponent </text>
</g>
<!-- BreadcrumbModule&#45;&gt;BreadcrumbComponent  -->
<g id="edge6" class="edge">
<title>BreadcrumbModule&#45;&gt;BreadcrumbComponent </title>
<path fill="none" stroke="black" stroke-dasharray="5,2" d="M377,-149.91C377,-149.91 377,-168.79 377,-168.79"/>
<polygon fill="black" stroke="black" points="373.5,-168.79 377,-178.79 380.5,-168.79 373.5,-168.79"/>
</g>
<!-- CommonModule -->
<g id="node3" class="node">
<title>CommonModule</title>
<polygon fill="#8dd3c7" stroke="black" points="553.67,-84.8 550.67,-88.8 529.67,-88.8 526.67,-84.8 442.33,-84.8 442.33,-48.8 553.67,-48.8 553.67,-84.8"/>
<text text-anchor="middle" x="498" y="-62.6" font-family="Times,serif" font-size="14.00">CommonModule</text>
</g>
<!-- CommonModule&#45;&gt;BreadcrumbModule -->
<g id="edge2" class="edge">
<title>CommonModule&#45;&gt;BreadcrumbModule</title>
<path fill="none" stroke="black" d="M448.09,-84.82C448.09,-102.17 448.09,-125.8 448.09,-125.8 448.09,-125.8 447.41,-125.8 447.41,-125.8"/>
<polygon fill="black" stroke="black" points="451.27,-122.3 441.27,-125.8 451.27,-129.3 451.27,-122.3"/>
</g>
<!-- FormsModule -->
<g id="node4" class="node">
<title>FormsModule</title>
<polygon fill="#8dd3c7" stroke="black" points="424.83,-84.8 421.83,-88.8 400.83,-88.8 397.83,-84.8 329.17,-84.8 329.17,-48.8 424.83,-48.8 424.83,-84.8"/>
<text text-anchor="middle" x="377" y="-62.6" font-family="Times,serif" font-size="14.00">FormsModule</text>
</g>
<!-- FormsModule&#45;&gt;BreadcrumbModule -->
<g id="edge3" class="edge">
<title>FormsModule&#45;&gt;BreadcrumbModule</title>
<path fill="none" stroke="black" d="M377,-84.91C377,-84.91 377,-103.79 377,-103.79"/>
<polygon fill="black" stroke="black" points="373.5,-103.79 377,-113.79 380.5,-103.79 373.5,-103.79"/>
</g>
<!-- RouterModule -->
<g id="node5" class="node">
<title>RouterModule</title>
<polygon fill="#8dd3c7" stroke="black" points="311.65,-84.8 308.65,-88.8 287.65,-88.8 284.65,-84.8 214.35,-84.8 214.35,-48.8 311.65,-48.8 311.65,-84.8"/>
<text text-anchor="middle" x="263" y="-62.6" font-family="Times,serif" font-size="14.00">RouterModule</text>
</g>
<!-- RouterModule&#45;&gt;BreadcrumbModule -->
<g id="edge4" class="edge">
<title>RouterModule&#45;&gt;BreadcrumbModule</title>
<path fill="none" stroke="black" d="M305.91,-84.82C305.91,-102.17 305.91,-125.8 305.91,-125.8 305.91,-125.8 306.59,-125.8 306.59,-125.8"/>
<polygon fill="black" stroke="black" points="302.72,-129.3 312.72,-125.8 302.72,-122.3 302.72,-129.3"/>
</g>
<!-- TranslateModule.forChild() -->
<g id="node6" class="node">
<title>TranslateModule.forChild()</title>
<polygon fill="#8dd3c7" stroke="black" points="195.89,-84.8 192.89,-88.8 171.89,-88.8 168.89,-84.8 24.11,-84.8 24.11,-48.8 195.89,-48.8 195.89,-84.8"/>
<text text-anchor="middle" x="110" y="-62.6" font-family="Times,serif" font-size="14.00">TranslateModule.forChild()</text>
</g>
<!-- TranslateModule.forChild()&#45;&gt;BreadcrumbModule -->
<g id="edge5" class="edge">
<title>TranslateModule.forChild()&#45;&gt;BreadcrumbModule</title>
<path fill="none" stroke="black" d="M110,-85.08C110,-106.12 110,-137.8 110,-137.8 110,-137.8 302.71,-137.8 302.71,-137.8"/>
<polygon fill="black" stroke="black" points="302.71,-141.3 312.71,-137.8 302.71,-134.3 302.71,-141.3"/>
</g>
</g>
</svg>
