<?xml version="1.0" encoding="UTF-8" standalone="no"?>
<!DOCTYPE svg PUBLIC "-//W3C//DTD SVG 1.1//EN"
 "http://www.w3.org/Graphics/SVG/1.1/DTD/svg11.dtd">
<!-- Generated by graphviz version 2.47.3 (20210619.1520)
 -->
<!-- Title: dependencies Pages: 1 -->
<svg width="458pt" height="174pt"
 viewBox="0.00 0.00 458.00 173.80" xmlns="http://www.w3.org/2000/svg" xmlns:xlink="http://www.w3.org/1999/xlink">
<g id="graph0" class="graph" transform="scale(1 1) rotate(0) translate(4 169.8)">
<title>dependencies</title>
<polygon fill="white" stroke="transparent" points="-4,4 -4,-169.8 454,-169.8 454,4 -4,4"/>
<text text-anchor="middle" x="225" y="-8.2" font-family="sans-serif" font-size="14.00">dependencies</text>
<g id="clust1" class="cluster">
<title>cluster_CompareModule</title>
<polygon fill="none" stroke="black" stroke-dasharray="1,5" points="8,-32.8 8,-157.8 442,-157.8 442,-32.8 8,-32.8"/>
</g>
<g id="clust2" class="cluster">
<title>cluster_CompareModule_declarations</title>
<polygon fill="none" stroke="black" points="246,-40.8 246,-92.8 434,-92.8 434,-40.8 246,-40.8"/>
</g>
<g id="clust4" class="cluster">
<title>cluster_CompareModule_imports</title>
<polygon fill="none" stroke="black" points="16,-40.8 16,-92.8 238,-92.8 238,-40.8 16,-40.8"/>
</g>
<!-- CompareLayoutComponent -->
<g id="node1" class="node">
<title>CompareLayoutComponent</title>
<polygon fill="#ffffb3" stroke="black" points="426.31,-84.8 253.69,-84.8 253.69,-48.8 426.31,-48.8 426.31,-84.8"/>
<text text-anchor="middle" x="340" y="-62.6" font-family="Times,serif" font-size="14.00">CompareLayoutComponent</text>
</g>
<!-- CompareModule -->
<g id="node2" class="node">
<title>CompareModule</title>
<polygon fill="#8dd3c7" stroke="black" points="241.37,-149.8 238.37,-153.8 217.37,-153.8 214.37,-149.8 130.63,-149.8 130.63,-113.8 241.37,-113.8 241.37,-149.8"/>
<text text-anchor="middle" x="186" y="-127.6" font-family="Times,serif" font-size="14.00">CompareModule</text>
</g>
<!-- CompareLayoutComponent&#45;&gt;CompareModule -->
<g id="edge1" class="edge">
<title>CompareLayoutComponent&#45;&gt;CompareModule</title>
<path fill="none" stroke="black" d="M253.47,-66.8C242.93,-66.8 235.79,-66.8 235.79,-66.8 235.79,-66.8 235.79,-103.69 235.79,-103.69"/>
<polygon fill="black" stroke="black" points="232.29,-103.69 235.79,-113.69 239.29,-103.69 232.29,-103.69"/>
</g>
<!-- AlertModule -->
<g id="node3" class="node">
<title>AlertModule</title>
<polygon fill="#8dd3c7" stroke="black" points="230.31,-84.8 227.31,-88.8 206.31,-88.8 203.31,-84.8 141.69,-84.8 141.69,-48.8 230.31,-48.8 230.31,-84.8"/>
<text text-anchor="middle" x="186" y="-62.6" font-family="Times,serif" font-size="14.00">AlertModule</text>
</g>
<!-- AlertModule&#45;&gt;CompareModule -->
<g id="edge2" class="edge">
<title>AlertModule&#45;&gt;CompareModule</title>
<path fill="none" stroke="black" d="M186,-84.91C186,-84.91 186,-103.79 186,-103.79"/>
<polygon fill="black" stroke="black" points="182.5,-103.79 186,-113.79 189.5,-103.79 182.5,-103.79"/>
</g>
<!-- PricingModule -->
<g id="node4" class="node">
<title>PricingModule</title>
<polygon fill="#8dd3c7" stroke="black" points="123.99,-84.8 120.99,-88.8 99.99,-88.8 96.99,-84.8 24.01,-84.8 24.01,-48.8 123.99,-48.8 123.99,-84.8"/>
<text text-anchor="middle" x="74" y="-62.6" font-family="Times,serif" font-size="14.00">PricingModule</text>
</g>
<!-- PricingModule&#45;&gt;CompareModule -->
<g id="edge3" class="edge">
<title>PricingModule&#45;&gt;CompareModule</title>
<path fill="none" stroke="black" d="M124.21,-66.8C131.28,-66.8 136.21,-66.8 136.21,-66.8 136.21,-66.8 136.21,-103.69 136.21,-103.69"/>
<polygon fill="black" stroke="black" points="132.71,-103.69 136.21,-113.69 139.71,-103.69 132.71,-103.69"/>
</g>
</g>
</svg>
