<?xml version="1.0" encoding="UTF-8" standalone="no"?>
<!DOCTYPE svg PUBLIC "-//W3C//DTD SVG 1.1//EN"
 "http://www.w3.org/Graphics/SVG/1.1/DTD/svg11.dtd">
<!-- Generated by graphviz version 2.47.3 (20210619.1520)
 -->
<!-- Title: dependencies Pages: 1 -->
<svg width="924pt" height="247pt"
 viewBox="0.00 0.00 924.00 246.80" xmlns="http://www.w3.org/2000/svg" xmlns:xlink="http://www.w3.org/1999/xlink">
<g id="graph0" class="graph" transform="scale(1 1) rotate(0) translate(4 242.8)">
<title>dependencies</title>
<polygon fill="white" stroke="transparent" points="-4,4 -4,-242.8 920,-242.8 920,4 -4,4"/>
<text text-anchor="middle" x="458" y="-8.2" font-family="sans-serif" font-size="14.00">dependencies</text>
<g id="clust1" class="cluster">
<title>cluster_MiniProfileModule</title>
<polygon fill="none" stroke="black" stroke-dasharray="1,5" points="8,-32.8 8,-230.8 908,-230.8 908,-32.8 8,-32.8"/>
</g>
<g id="clust2" class="cluster">
<title>cluster_MiniProfileModule_declarations</title>
<polygon fill="none" stroke="black" points="738,-40.8 738,-92.8 900,-92.8 900,-40.8 738,-40.8"/>
</g>
<g id="clust5" class="cluster">
<title>cluster_MiniProfileModule_exports</title>
<polygon fill="none" stroke="black" points="405,-170.8 405,-222.8 571,-222.8 571,-170.8 405,-170.8"/>
</g>
<g id="clust4" class="cluster">
<title>cluster_MiniProfileModule_imports</title>
<polygon fill="none" stroke="black" points="16,-40.8 16,-92.8 730,-92.8 730,-40.8 16,-40.8"/>
</g>
<!-- MiniProfileComponent -->
<g id="node1" class="node">
<title>MiniProfileComponent</title>
<polygon fill="#ffffb3" stroke="black" points="892.16,-84.8 745.84,-84.8 745.84,-48.8 892.16,-48.8 892.16,-84.8"/>
<text text-anchor="middle" x="819" y="-62.6" font-family="Times,serif" font-size="14.00">MiniProfileComponent</text>
</g>
<!-- MiniProfileModule -->
<g id="node2" class="node">
<title>MiniProfileModule</title>
<polygon fill="#8dd3c7" stroke="black" points="550.38,-149.8 547.38,-153.8 526.38,-153.8 523.38,-149.8 425.62,-149.8 425.62,-113.8 550.38,-113.8 550.38,-149.8"/>
<text text-anchor="middle" x="488" y="-127.6" font-family="Times,serif" font-size="14.00">MiniProfileModule</text>
</g>
<!-- MiniProfileComponent&#45;&gt;MiniProfileModule -->
<g id="edge1" class="edge">
<title>MiniProfileComponent&#45;&gt;MiniProfileModule</title>
<path fill="none" stroke="black" d="M819,-85.08C819,-106.12 819,-137.8 819,-137.8 819,-137.8 560.65,-137.8 560.65,-137.8"/>
<polygon fill="black" stroke="black" points="560.65,-134.3 550.65,-137.8 560.65,-141.3 560.65,-134.3"/>
</g>
<!-- MiniProfileComponent  -->
<g id="node8" class="node">
<title>MiniProfileComponent </title>
<polygon fill="#fb8072" stroke="black" points="563.16,-214.8 412.84,-214.8 412.84,-178.8 563.16,-178.8 563.16,-214.8"/>
<text text-anchor="middle" x="488" y="-192.6" font-family="Times,serif" font-size="14.00">MiniProfileComponent </text>
</g>
<!-- MiniProfileModule&#45;&gt;MiniProfileComponent  -->
<g id="edge7" class="edge">
<title>MiniProfileModule&#45;&gt;MiniProfileComponent </title>
<path fill="none" stroke="black" stroke-dasharray="5,2" d="M488,-149.91C488,-149.91 488,-168.79 488,-168.79"/>
<polygon fill="black" stroke="black" points="484.5,-168.79 488,-178.79 491.5,-168.79 484.5,-168.79"/>
</g>
<!-- CommonModule -->
<g id="node3" class="node">
<title>CommonModule</title>
<polygon fill="#8dd3c7" stroke="black" points="721.67,-84.8 718.67,-88.8 697.67,-88.8 694.67,-84.8 610.33,-84.8 610.33,-48.8 721.67,-48.8 721.67,-84.8"/>
<text text-anchor="middle" x="666" y="-62.6" font-family="Times,serif" font-size="14.00">CommonModule</text>
</g>
<!-- CommonModule&#45;&gt;MiniProfileModule -->
<g id="edge2" class="edge">
<title>CommonModule&#45;&gt;MiniProfileModule</title>
<path fill="none" stroke="black" d="M666,-84.82C666,-102.17 666,-125.8 666,-125.8 666,-125.8 560.51,-125.8 560.51,-125.8"/>
<polygon fill="black" stroke="black" points="560.51,-122.3 550.51,-125.8 560.51,-129.3 560.51,-122.3"/>
</g>
<!-- FormsModule -->
<g id="node4" class="node">
<title>FormsModule</title>
<polygon fill="#8dd3c7" stroke="black" points="592.83,-84.8 589.83,-88.8 568.83,-88.8 565.83,-84.8 497.17,-84.8 497.17,-48.8 592.83,-48.8 592.83,-84.8"/>
<text text-anchor="middle" x="545" y="-62.6" font-family="Times,serif" font-size="14.00">FormsModule</text>
</g>
<!-- FormsModule&#45;&gt;MiniProfileModule -->
<g id="edge3" class="edge">
<title>FormsModule&#45;&gt;MiniProfileModule</title>
<path fill="none" stroke="black" d="M523.89,-84.91C523.89,-84.91 523.89,-103.79 523.89,-103.79"/>
<polygon fill="black" stroke="black" points="520.39,-103.79 523.89,-113.79 527.39,-103.79 520.39,-103.79"/>
</g>
<!-- LaddaModule -->
<g id="node5" class="node">
<title>LaddaModule</title>
<polygon fill="#8dd3c7" stroke="black" points="479.03,-84.8 476.03,-88.8 455.03,-88.8 452.03,-84.8 384.97,-84.8 384.97,-48.8 479.03,-48.8 479.03,-84.8"/>
<text text-anchor="middle" x="432" y="-62.6" font-family="Times,serif" font-size="14.00">LaddaModule</text>
</g>
<!-- LaddaModule&#45;&gt;MiniProfileModule -->
<g id="edge4" class="edge">
<title>LaddaModule&#45;&gt;MiniProfileModule</title>
<path fill="none" stroke="black" d="M452.41,-84.91C452.41,-84.91 452.41,-103.79 452.41,-103.79"/>
<polygon fill="black" stroke="black" points="448.91,-103.79 452.41,-113.79 455.91,-103.79 448.91,-103.79"/>
</g>
<!-- ModalModule.forRoot() -->
<g id="node6" class="node">
<title>ModalModule.forRoot()</title>
<polygon fill="#8dd3c7" stroke="black" points="366.47,-84.8 363.47,-88.8 342.47,-88.8 339.47,-84.8 213.53,-84.8 213.53,-48.8 366.47,-48.8 366.47,-84.8"/>
<text text-anchor="middle" x="290" y="-62.6" font-family="Times,serif" font-size="14.00">ModalModule.forRoot()</text>
</g>
<!-- ModalModule.forRoot()&#45;&gt;MiniProfileModule -->
<g id="edge5" class="edge">
<title>ModalModule.forRoot()&#45;&gt;MiniProfileModule</title>
<path fill="none" stroke="black" d="M290,-84.82C290,-102.17 290,-125.8 290,-125.8 290,-125.8 415.62,-125.8 415.62,-125.8"/>
<polygon fill="black" stroke="black" points="415.62,-129.3 425.62,-125.8 415.62,-122.3 415.62,-129.3"/>
</g>
<!-- TranslateModule.forChild() -->
<g id="node7" class="node">
<title>TranslateModule.forChild()</title>
<polygon fill="#8dd3c7" stroke="black" points="195.89,-84.8 192.89,-88.8 171.89,-88.8 168.89,-84.8 24.11,-84.8 24.11,-48.8 195.89,-48.8 195.89,-84.8"/>
<text text-anchor="middle" x="110" y="-62.6" font-family="Times,serif" font-size="14.00">TranslateModule.forChild()</text>
</g>
<!-- TranslateModule.forChild()&#45;&gt;MiniProfileModule -->
<g id="edge6" class="edge">
<title>TranslateModule.forChild()&#45;&gt;MiniProfileModule</title>
<path fill="none" stroke="black" d="M110,-85.08C110,-106.12 110,-137.8 110,-137.8 110,-137.8 415.58,-137.8 415.58,-137.8"/>
<polygon fill="black" stroke="black" points="415.58,-141.3 425.58,-137.8 415.58,-134.3 415.58,-141.3"/>
</g>
</g>
</svg>
