<?xml version="1.0" encoding="UTF-8" standalone="no"?>
<!DOCTYPE svg PUBLIC "-//W3C//DTD SVG 1.1//EN"
 "http://www.w3.org/Graphics/SVG/1.1/DTD/svg11.dtd">
<!-- Generated by graphviz version 2.47.3 (20210619.1520)
 -->
<!-- Title: dependencies Pages: 1 -->
<svg width="602pt" height="247pt"
 viewBox="0.00 0.00 602.00 246.80" xmlns="http://www.w3.org/2000/svg" xmlns:xlink="http://www.w3.org/1999/xlink">
<g id="graph0" class="graph" transform="scale(1 1) rotate(0) translate(4 242.8)">
<title>dependencies</title>
<polygon fill="white" stroke="transparent" points="-4,4 -4,-242.8 598,-242.8 598,4 -4,4"/>
<text text-anchor="middle" x="297" y="-8.2" font-family="sans-serif" font-size="14.00">dependencies</text>
<g id="clust1" class="cluster">
<title>cluster_PaymentModule</title>
<polygon fill="none" stroke="black" stroke-dasharray="1,5" points="8,-32.8 8,-230.8 586,-230.8 586,-32.8 8,-32.8"/>
</g>
<g id="clust2" class="cluster">
<title>cluster_PaymentModule_declarations</title>
<polygon fill="none" stroke="black" points="194,-40.8 194,-92.8 578,-92.8 578,-40.8 194,-40.8"/>
</g>
<g id="clust6" class="cluster">
<title>cluster_PaymentModule_exports</title>
<polygon fill="none" stroke="black" points="197,-170.8 197,-222.8 387,-222.8 387,-170.8 197,-170.8"/>
</g>
<g id="clust5" class="cluster">
<title>cluster_PaymentModule_imports</title>
<polygon fill="none" stroke="black" points="16,-40.8 16,-92.8 186,-92.8 186,-40.8 16,-40.8"/>
</g>
<!-- PaymentDetailsComponent -->
<g id="node1" class="node">
<title>PaymentDetailsComponent</title>
<polygon fill="#ffffb3" stroke="black" points="569.98,-84.8 400.02,-84.8 400.02,-48.8 569.98,-48.8 569.98,-84.8"/>
<text text-anchor="middle" x="485" y="-62.6" font-family="Times,serif" font-size="14.00">PaymentDetailsComponent</text>
</g>
<!-- PaymentModule -->
<g id="node3" class="node">
<title>PaymentModule</title>
<polygon fill="#8dd3c7" stroke="black" points="346.04,-149.8 343.04,-153.8 322.04,-153.8 319.04,-149.8 237.96,-149.8 237.96,-113.8 346.04,-113.8 346.04,-149.8"/>
<text text-anchor="middle" x="292" y="-127.6" font-family="Times,serif" font-size="14.00">PaymentModule</text>
</g>
<!-- PaymentDetailsComponent&#45;&gt;PaymentModule -->
<g id="edge1" class="edge">
<title>PaymentDetailsComponent&#45;&gt;PaymentModule</title>
<path fill="none" stroke="black" d="M485,-84.91C485,-104.14 485,-131.8 485,-131.8 485,-131.8 356.27,-131.8 356.27,-131.8"/>
<polygon fill="black" stroke="black" points="356.27,-128.3 346.27,-131.8 356.27,-135.3 356.27,-128.3"/>
</g>
<!-- PaymentMessageComponent -->
<g id="node2" class="node">
<title>PaymentMessageComponent</title>
<polygon fill="#ffffb3" stroke="black" points="381.8,-84.8 202.2,-84.8 202.2,-48.8 381.8,-48.8 381.8,-84.8"/>
<text text-anchor="middle" x="292" y="-62.6" font-family="Times,serif" font-size="14.00">PaymentMessageComponent</text>
</g>
<!-- PaymentMessageComponent&#45;&gt;PaymentModule -->
<g id="edge2" class="edge">
<title>PaymentMessageComponent&#45;&gt;PaymentModule</title>
<path fill="none" stroke="black" d="M292,-84.91C292,-84.91 292,-103.79 292,-103.79"/>
<polygon fill="black" stroke="black" points="288.5,-103.79 292,-113.79 295.5,-103.79 288.5,-103.79"/>
</g>
<!-- PaymentDetailsComponent  -->
<g id="node5" class="node">
<title>PaymentDetailsComponent </title>
<polygon fill="#fb8072" stroke="black" points="378.98,-214.8 205.02,-214.8 205.02,-178.8 378.98,-178.8 378.98,-214.8"/>
<text text-anchor="middle" x="292" y="-192.6" font-family="Times,serif" font-size="14.00">PaymentDetailsComponent </text>
</g>
<!-- PaymentModule&#45;&gt;PaymentDetailsComponent  -->
<g id="edge4" class="edge">
<title>PaymentModule&#45;&gt;PaymentDetailsComponent </title>
<path fill="none" stroke="black" stroke-dasharray="5,2" d="M292,-149.91C292,-149.91 292,-168.79 292,-168.79"/>
<polygon fill="black" stroke="black" points="288.5,-168.79 292,-178.79 295.5,-168.79 288.5,-168.79"/>
</g>
<!-- PaymentRoutingModule -->
<g id="node4" class="node">
<title>PaymentRoutingModule</title>
<polygon fill="#8dd3c7" stroke="black" points="177.66,-84.8 174.66,-88.8 153.66,-88.8 150.66,-84.8 24.34,-84.8 24.34,-48.8 177.66,-48.8 177.66,-84.8"/>
<text text-anchor="middle" x="101" y="-62.6" font-family="Times,serif" font-size="14.00">PaymentRoutingModule</text>
</g>
<!-- PaymentRoutingModule&#45;&gt;PaymentModule -->
<g id="edge3" class="edge">
<title>PaymentRoutingModule&#45;&gt;PaymentModule</title>
<path fill="none" stroke="black" d="M101,-84.91C101,-104.14 101,-131.8 101,-131.8 101,-131.8 227.78,-131.8 227.78,-131.8"/>
<polygon fill="black" stroke="black" points="227.78,-135.3 237.78,-131.8 227.78,-128.3 227.78,-135.3"/>
</g>
</g>
</svg>
