<?xml version="1.0" encoding="UTF-8" standalone="no"?>
<!DOCTYPE svg PUBLIC "-//W3C//DTD SVG 1.1//EN"
 "http://www.w3.org/Graphics/SVG/1.1/DTD/svg11.dtd">
<!-- Generated by graphviz version 2.47.3 (20210619.1520)
 -->
<!-- Title: dependencies Pages: 1 -->
<svg width="633pt" height="174pt"
 viewBox="0.00 0.00 633.00 173.80" xmlns="http://www.w3.org/2000/svg" xmlns:xlink="http://www.w3.org/1999/xlink">
<g id="graph0" class="graph" transform="scale(1 1) rotate(0) translate(4 169.8)">
<title>dependencies</title>
<polygon fill="white" stroke="transparent" points="-4,4 -4,-169.8 629,-169.8 629,4 -4,4"/>
<text text-anchor="middle" x="312.5" y="-8.2" font-family="sans-serif" font-size="14.00">dependencies</text>
<g id="clust1" class="cluster">
<title>cluster_FavoriteModule</title>
<polygon fill="none" stroke="black" stroke-dasharray="1,5" points="8,-32.8 8,-157.8 617,-157.8 617,-32.8 8,-32.8"/>
</g>
<g id="clust2" class="cluster">
<title>cluster_FavoriteModule_declarations</title>
<polygon fill="none" stroke="black" points="425,-40.8 425,-92.8 609,-92.8 609,-40.8 425,-40.8"/>
</g>
<g id="clust4" class="cluster">
<title>cluster_FavoriteModule_imports</title>
<polygon fill="none" stroke="black" points="16,-40.8 16,-92.8 417,-92.8 417,-40.8 16,-40.8"/>
</g>
<!-- FavoriteDetailsComponent -->
<g id="node1" class="node">
<title>FavoriteDetailsComponent</title>
<polygon fill="#ffffb3" stroke="black" points="600.64,-84.8 433.36,-84.8 433.36,-48.8 600.64,-48.8 600.64,-84.8"/>
<text text-anchor="middle" x="517" y="-62.6" font-family="Times,serif" font-size="14.00">FavoriteDetailsComponent</text>
</g>
<!-- FavoriteModule -->
<g id="node2" class="node">
<title>FavoriteModule</title>
<polygon fill="#8dd3c7" stroke="black" points="344.2,-149.8 341.2,-153.8 320.2,-153.8 317.2,-149.8 237.8,-149.8 237.8,-113.8 344.2,-113.8 344.2,-149.8"/>
<text text-anchor="middle" x="291" y="-127.6" font-family="Times,serif" font-size="14.00">FavoriteModule</text>
</g>
<!-- FavoriteDetailsComponent&#45;&gt;FavoriteModule -->
<g id="edge1" class="edge">
<title>FavoriteDetailsComponent&#45;&gt;FavoriteModule</title>
<path fill="none" stroke="black" d="M517,-84.91C517,-104.14 517,-131.8 517,-131.8 517,-131.8 354.27,-131.8 354.27,-131.8"/>
<polygon fill="black" stroke="black" points="354.27,-128.3 344.27,-131.8 354.27,-135.3 354.27,-128.3"/>
</g>
<!-- AlertModule -->
<g id="node3" class="node">
<title>AlertModule</title>
<polygon fill="#8dd3c7" stroke="black" points="409.31,-84.8 406.31,-88.8 385.31,-88.8 382.31,-84.8 320.69,-84.8 320.69,-48.8 409.31,-48.8 409.31,-84.8"/>
<text text-anchor="middle" x="365" y="-62.6" font-family="Times,serif" font-size="14.00">AlertModule</text>
</g>
<!-- AlertModule&#45;&gt;FavoriteModule -->
<g id="edge2" class="edge">
<title>AlertModule&#45;&gt;FavoriteModule</title>
<path fill="none" stroke="black" d="M332.47,-84.91C332.47,-84.91 332.47,-103.79 332.47,-103.79"/>
<polygon fill="black" stroke="black" points="328.97,-103.79 332.47,-113.79 335.97,-103.79 328.97,-103.79"/>
</g>
<!-- LineItemTableRowModule -->
<g id="node4" class="node">
<title>LineItemTableRowModule</title>
<polygon fill="#8dd3c7" stroke="black" points="302.68,-84.8 299.68,-88.8 278.68,-88.8 275.68,-84.8 133.32,-84.8 133.32,-48.8 302.68,-48.8 302.68,-84.8"/>
<text text-anchor="middle" x="218" y="-62.6" font-family="Times,serif" font-size="14.00">LineItemTableRowModule</text>
</g>
<!-- LineItemTableRowModule&#45;&gt;FavoriteModule -->
<g id="edge3" class="edge">
<title>LineItemTableRowModule&#45;&gt;FavoriteModule</title>
<path fill="none" stroke="black" d="M270.24,-84.91C270.24,-84.91 270.24,-103.79 270.24,-103.79"/>
<polygon fill="black" stroke="black" points="266.74,-103.79 270.24,-113.79 273.74,-103.79 266.74,-103.79"/>
</g>
<!-- TableModule -->
<g id="node5" class="node">
<title>TableModule</title>
<polygon fill="#8dd3c7" stroke="black" points="115.92,-84.8 112.92,-88.8 91.92,-88.8 88.92,-84.8 24.08,-84.8 24.08,-48.8 115.92,-48.8 115.92,-84.8"/>
<text text-anchor="middle" x="70" y="-62.6" font-family="Times,serif" font-size="14.00">TableModule</text>
</g>
<!-- TableModule&#45;&gt;FavoriteModule -->
<g id="edge4" class="edge">
<title>TableModule&#45;&gt;FavoriteModule</title>
<path fill="none" stroke="black" d="M70,-84.91C70,-104.14 70,-131.8 70,-131.8 70,-131.8 227.78,-131.8 227.78,-131.8"/>
<polygon fill="black" stroke="black" points="227.78,-135.3 237.78,-131.8 227.78,-128.3 227.78,-135.3"/>
</g>
</g>
</svg>
