<?xml version="1.0" encoding="UTF-8" standalone="no"?>
<!DOCTYPE svg PUBLIC "-//W3C//DTD SVG 1.1//EN"
 "http://www.w3.org/Graphics/SVG/1.1/DTD/svg11.dtd">
<!-- Generated by graphviz version 2.47.3 (20210619.1520)
 -->
<!-- Title: dependencies Pages: 1 -->
<svg width="504pt" height="247pt"
 viewBox="0.00 0.00 504.00 246.80" xmlns="http://www.w3.org/2000/svg" xmlns:xlink="http://www.w3.org/1999/xlink">
<g id="graph0" class="graph" transform="scale(1 1) rotate(0) translate(4 242.8)">
<title>dependencies</title>
<polygon fill="white" stroke="transparent" points="-4,4 -4,-242.8 500,-242.8 500,4 -4,4"/>
<text text-anchor="middle" x="248" y="-8.2" font-family="sans-serif" font-size="14.00">dependencies</text>
<g id="clust1" class="cluster">
<title>cluster_ProductAttributeModule</title>
<polygon fill="none" stroke="black" stroke-dasharray="1,5" points="8,-32.8 8,-230.8 488,-230.8 488,-32.8 8,-32.8"/>
</g>
<g id="clust5" class="cluster">
<title>cluster_ProductAttributeModule_exports</title>
<polygon fill="none" stroke="black" points="119,-170.8 119,-222.8 313,-222.8 313,-170.8 119,-170.8"/>
</g>
<g id="clust2" class="cluster">
<title>cluster_ProductAttributeModule_declarations</title>
<polygon fill="none" stroke="black" points="288,-40.8 288,-92.8 480,-92.8 480,-40.8 288,-40.8"/>
</g>
<g id="clust4" class="cluster">
<title>cluster_ProductAttributeModule_imports</title>
<polygon fill="none" stroke="black" points="16,-40.8 16,-92.8 280,-92.8 280,-40.8 16,-40.8"/>
</g>
<!-- ProductAttributeComponent -->
<g id="node1" class="node">
<title>ProductAttributeComponent</title>
<polygon fill="#ffffb3" stroke="black" points="471.93,-84.8 296.07,-84.8 296.07,-48.8 471.93,-48.8 471.93,-84.8"/>
<text text-anchor="middle" x="384" y="-62.6" font-family="Times,serif" font-size="14.00">ProductAttributeComponent</text>
</g>
<!-- ProductAttributeModule -->
<g id="node2" class="node">
<title>ProductAttributeModule</title>
<polygon fill="#8dd3c7" stroke="black" points="292.64,-149.8 289.64,-153.8 268.64,-153.8 265.64,-149.8 139.36,-149.8 139.36,-113.8 292.64,-113.8 292.64,-149.8"/>
<text text-anchor="middle" x="216" y="-127.6" font-family="Times,serif" font-size="14.00">ProductAttributeModule</text>
</g>
<!-- ProductAttributeComponent&#45;&gt;ProductAttributeModule -->
<g id="edge1" class="edge">
<title>ProductAttributeComponent&#45;&gt;ProductAttributeModule</title>
<path fill="none" stroke="black" d="M300.88,-84.91C300.88,-104.14 300.88,-131.8 300.88,-131.8 300.88,-131.8 300.06,-131.8 300.06,-131.8"/>
<polygon fill="black" stroke="black" points="302.74,-128.3 292.74,-131.8 302.74,-135.3 302.74,-128.3"/>
</g>
<!-- ProductAttributeComponent  -->
<g id="node5" class="node">
<title>ProductAttributeComponent </title>
<polygon fill="#fb8072" stroke="black" points="305.43,-214.8 126.57,-214.8 126.57,-178.8 305.43,-178.8 305.43,-214.8"/>
<text text-anchor="middle" x="216" y="-192.6" font-family="Times,serif" font-size="14.00">ProductAttributeComponent </text>
</g>
<!-- ProductAttributeModule&#45;&gt;ProductAttributeComponent  -->
<g id="edge4" class="edge">
<title>ProductAttributeModule&#45;&gt;ProductAttributeComponent </title>
<path fill="none" stroke="black" stroke-dasharray="5,2" d="M216,-149.91C216,-149.91 216,-168.79 216,-168.79"/>
<polygon fill="black" stroke="black" points="212.5,-168.79 216,-178.79 219.5,-168.79 212.5,-168.79"/>
</g>
<!-- CommonModule -->
<g id="node3" class="node">
<title>CommonModule</title>
<polygon fill="#8dd3c7" stroke="black" points="271.67,-84.8 268.67,-88.8 247.67,-88.8 244.67,-84.8 160.33,-84.8 160.33,-48.8 271.67,-48.8 271.67,-84.8"/>
<text text-anchor="middle" x="216" y="-62.6" font-family="Times,serif" font-size="14.00">CommonModule</text>
</g>
<!-- CommonModule&#45;&gt;ProductAttributeModule -->
<g id="edge2" class="edge">
<title>CommonModule&#45;&gt;ProductAttributeModule</title>
<path fill="none" stroke="black" d="M216,-84.91C216,-84.91 216,-103.79 216,-103.79"/>
<polygon fill="black" stroke="black" points="212.5,-103.79 216,-113.79 219.5,-103.79 212.5,-103.79"/>
</g>
<!-- InputFieldModule -->
<g id="node4" class="node">
<title>InputFieldModule</title>
<polygon fill="#8dd3c7" stroke="black" points="141.88,-84.8 138.88,-88.8 117.88,-88.8 114.88,-84.8 24.12,-84.8 24.12,-48.8 141.88,-48.8 141.88,-84.8"/>
<text text-anchor="middle" x="83" y="-62.6" font-family="Times,serif" font-size="14.00">InputFieldModule</text>
</g>
<!-- InputFieldModule&#45;&gt;ProductAttributeModule -->
<g id="edge3" class="edge">
<title>InputFieldModule&#45;&gt;ProductAttributeModule</title>
<path fill="none" stroke="black" d="M132.86,-84.91C132.86,-104.14 132.86,-131.8 132.86,-131.8 132.86,-131.8 133.48,-131.8 133.48,-131.8"/>
<polygon fill="black" stroke="black" points="129.11,-135.3 139.11,-131.8 129.11,-128.3 129.11,-135.3"/>
</g>
</g>
</svg>
