<?xml version="1.0" encoding="UTF-8" standalone="no"?>
<!DOCTYPE svg PUBLIC "-//W3C//DTD SVG 1.1//EN"
 "http://www.w3.org/Graphics/SVG/1.1/DTD/svg11.dtd">
<!-- Generated by graphviz version 2.47.3 (20210619.1520)
 -->
<!-- Title: dependencies Pages: 1 -->
<svg width="612pt" height="247pt"
 viewBox="0.00 0.00 612.00 246.80" xmlns="http://www.w3.org/2000/svg" xmlns:xlink="http://www.w3.org/1999/xlink">
<g id="graph0" class="graph" transform="scale(1 1) rotate(0) translate(4 242.8)">
<title>dependencies</title>
<polygon fill="white" stroke="transparent" points="-4,4 -4,-242.8 608,-242.8 608,4 -4,4"/>
<text text-anchor="middle" x="302" y="-8.2" font-family="sans-serif" font-size="14.00">dependencies</text>
<g id="clust1" class="cluster">
<title>cluster_ChartModule</title>
<polygon fill="none" stroke="black" stroke-dasharray="1,5" points="8,-32.8 8,-230.8 596,-230.8 596,-32.8 8,-32.8"/>
</g>
<g id="clust4" class="cluster">
<title>cluster_ChartModule_imports</title>
<polygon fill="none" stroke="black" points="152,-40.8 152,-92.8 588,-92.8 588,-40.8 152,-40.8"/>
</g>
<g id="clust5" class="cluster">
<title>cluster_ChartModule_exports</title>
<polygon fill="none" stroke="black" points="257,-170.8 257,-222.8 389,-222.8 389,-170.8 257,-170.8"/>
</g>
<g id="clust2" class="cluster">
<title>cluster_ChartModule_declarations</title>
<polygon fill="none" stroke="black" points="16,-40.8 16,-92.8 144,-92.8 144,-40.8 16,-40.8"/>
</g>
<!-- ChartComponent -->
<g id="node1" class="node">
<title>ChartComponent</title>
<polygon fill="#ffffb3" stroke="black" points="136.44,-84.8 23.56,-84.8 23.56,-48.8 136.44,-48.8 136.44,-84.8"/>
<text text-anchor="middle" x="80" y="-62.6" font-family="Times,serif" font-size="14.00">ChartComponent</text>
</g>
<!-- ChartModule -->
<g id="node2" class="node">
<title>ChartModule</title>
<polygon fill="#8dd3c7" stroke="black" points="368.15,-149.8 365.15,-153.8 344.15,-153.8 341.15,-149.8 277.85,-149.8 277.85,-113.8 368.15,-113.8 368.15,-149.8"/>
<text text-anchor="middle" x="323" y="-127.6" font-family="Times,serif" font-size="14.00">ChartModule</text>
</g>
<!-- ChartComponent&#45;&gt;ChartModule -->
<g id="edge1" class="edge">
<title>ChartComponent&#45;&gt;ChartModule</title>
<path fill="none" stroke="black" d="M80,-84.91C80,-104.14 80,-131.8 80,-131.8 80,-131.8 267.58,-131.8 267.58,-131.8"/>
<polygon fill="black" stroke="black" points="267.58,-135.3 277.58,-131.8 267.58,-128.3 267.58,-135.3"/>
</g>
<!-- ChartComponent  -->
<g id="node6" class="node">
<title>ChartComponent </title>
<polygon fill="#fb8072" stroke="black" points="380.93,-214.8 265.07,-214.8 265.07,-178.8 380.93,-178.8 380.93,-214.8"/>
<text text-anchor="middle" x="323" y="-192.6" font-family="Times,serif" font-size="14.00">ChartComponent </text>
</g>
<!-- ChartModule&#45;&gt;ChartComponent  -->
<g id="edge5" class="edge">
<title>ChartModule&#45;&gt;ChartComponent </title>
<path fill="none" stroke="black" stroke-dasharray="5,2" d="M323,-149.91C323,-149.91 323,-168.79 323,-168.79"/>
<polygon fill="black" stroke="black" points="319.5,-168.79 323,-178.79 326.5,-168.79 319.5,-168.79"/>
</g>
<!-- CommonModule -->
<g id="node3" class="node">
<title>CommonModule</title>
<polygon fill="#8dd3c7" stroke="black" points="579.67,-84.8 576.67,-88.8 555.67,-88.8 552.67,-84.8 468.33,-84.8 468.33,-48.8 579.67,-48.8 579.67,-84.8"/>
<text text-anchor="middle" x="524" y="-62.6" font-family="Times,serif" font-size="14.00">CommonModule</text>
</g>
<!-- CommonModule&#45;&gt;ChartModule -->
<g id="edge2" class="edge">
<title>CommonModule&#45;&gt;ChartModule</title>
<path fill="none" stroke="black" d="M524,-84.91C524,-104.14 524,-131.8 524,-131.8 524,-131.8 378.36,-131.8 378.36,-131.8"/>
<polygon fill="black" stroke="black" points="378.36,-128.3 368.36,-131.8 378.36,-135.3 378.36,-128.3"/>
</g>
<!-- PricingModule -->
<g id="node4" class="node">
<title>PricingModule</title>
<polygon fill="#8dd3c7" stroke="black" points="449.99,-84.8 446.99,-88.8 425.99,-88.8 422.99,-84.8 350.01,-84.8 350.01,-48.8 449.99,-48.8 449.99,-84.8"/>
<text text-anchor="middle" x="400" y="-62.6" font-family="Times,serif" font-size="14.00">PricingModule</text>
</g>
<!-- PricingModule&#45;&gt;ChartModule -->
<g id="edge3" class="edge">
<title>PricingModule&#45;&gt;ChartModule</title>
<path fill="none" stroke="black" d="M359.17,-84.91C359.17,-84.91 359.17,-103.79 359.17,-103.79"/>
<polygon fill="black" stroke="black" points="355.67,-103.79 359.17,-113.79 362.67,-103.79 355.67,-103.79"/>
</g>
<!-- TranslateModule.forChild() -->
<g id="node5" class="node">
<title>TranslateModule.forChild()</title>
<polygon fill="#8dd3c7" stroke="black" points="331.89,-84.8 328.89,-88.8 307.89,-88.8 304.89,-84.8 160.11,-84.8 160.11,-48.8 331.89,-48.8 331.89,-84.8"/>
<text text-anchor="middle" x="246" y="-62.6" font-family="Times,serif" font-size="14.00">TranslateModule.forChild()</text>
</g>
<!-- TranslateModule.forChild()&#45;&gt;ChartModule -->
<g id="edge4" class="edge">
<title>TranslateModule.forChild()&#45;&gt;ChartModule</title>
<path fill="none" stroke="black" d="M304.81,-84.91C304.81,-84.91 304.81,-103.79 304.81,-103.79"/>
<polygon fill="black" stroke="black" points="301.31,-103.79 304.81,-113.79 308.31,-103.79 301.31,-103.79"/>
</g>
</g>
</svg>
