<?xml version="1.0" encoding="UTF-8" standalone="no"?>
<!DOCTYPE svg PUBLIC "-//W3C//DTD SVG 1.1//EN"
 "http://www.w3.org/Graphics/SVG/1.1/DTD/svg11.dtd">
<!-- Generated by graphviz version 2.47.3 (20210619.1520)
 -->
<!-- Title: dependencies Pages: 1 -->
<svg width="633pt" height="174pt"
 viewBox="0.00 0.00 633.00 173.80" xmlns="http://www.w3.org/2000/svg" xmlns:xlink="http://www.w3.org/1999/xlink">
<g id="graph0" class="graph" transform="scale(1 1) rotate(0) translate(4 169.8)">
<title>dependencies</title>
<polygon fill="white" stroke="transparent" points="-4,4 -4,-169.8 629,-169.8 629,4 -4,4"/>
<text text-anchor="middle" x="312.5" y="-8.2" font-family="sans-serif" font-size="14.00">dependencies</text>
<g id="clust1" class="cluster">
<title>cluster_DashboardModule</title>
<polygon fill="none" stroke="black" stroke-dasharray="1,5" points="8,-32.8 8,-157.8 617,-157.8 617,-32.8 8,-32.8"/>
</g>
<g id="clust4" class="cluster">
<title>cluster_DashboardModule_imports</title>
<polygon fill="none" stroke="black" points="212,-40.8 212,-92.8 609,-92.8 609,-40.8 212,-40.8"/>
</g>
<g id="clust2" class="cluster">
<title>cluster_DashboardModule_declarations</title>
<polygon fill="none" stroke="black" points="16,-40.8 16,-92.8 204,-92.8 204,-40.8 16,-40.8"/>
</g>
<!-- DashboardViewComponent -->
<g id="node1" class="node">
<title>DashboardViewComponent</title>
<polygon fill="#ffffb3" stroke="black" points="196.29,-84.8 23.71,-84.8 23.71,-48.8 196.29,-48.8 196.29,-84.8"/>
<text text-anchor="middle" x="110" y="-62.6" font-family="Times,serif" font-size="14.00">DashboardViewComponent</text>
</g>
<!-- DashboardModule -->
<g id="node2" class="node">
<title>DashboardModule</title>
<polygon fill="#8dd3c7" stroke="black" points="399.19,-149.8 396.19,-153.8 375.19,-153.8 372.19,-149.8 278.81,-149.8 278.81,-113.8 399.19,-113.8 399.19,-149.8"/>
<text text-anchor="middle" x="339" y="-127.6" font-family="Times,serif" font-size="14.00">DashboardModule</text>
</g>
<!-- DashboardViewComponent&#45;&gt;DashboardModule -->
<g id="edge1" class="edge">
<title>DashboardViewComponent&#45;&gt;DashboardModule</title>
<path fill="none" stroke="black" d="M110,-84.91C110,-104.14 110,-131.8 110,-131.8 110,-131.8 268.83,-131.8 268.83,-131.8"/>
<polygon fill="black" stroke="black" points="268.83,-135.3 278.83,-131.8 268.83,-128.3 268.83,-135.3"/>
</g>
<!-- AlertModule -->
<g id="node3" class="node">
<title>AlertModule</title>
<polygon fill="#8dd3c7" stroke="black" points="601.31,-84.8 598.31,-88.8 577.31,-88.8 574.31,-84.8 512.69,-84.8 512.69,-48.8 601.31,-48.8 601.31,-84.8"/>
<text text-anchor="middle" x="557" y="-62.6" font-family="Times,serif" font-size="14.00">AlertModule</text>
</g>
<!-- AlertModule&#45;&gt;DashboardModule -->
<g id="edge2" class="edge">
<title>AlertModule&#45;&gt;DashboardModule</title>
<path fill="none" stroke="black" d="M557,-84.91C557,-104.14 557,-131.8 557,-131.8 557,-131.8 409.15,-131.8 409.15,-131.8"/>
<polygon fill="black" stroke="black" points="409.15,-128.3 399.15,-131.8 409.15,-135.3 409.15,-128.3"/>
</g>
<!-- DashboardRoutingModule -->
<g id="node4" class="node">
<title>DashboardRoutingModule</title>
<polygon fill="#8dd3c7" stroke="black" points="494.81,-84.8 491.81,-88.8 470.81,-88.8 467.81,-84.8 329.19,-84.8 329.19,-48.8 494.81,-48.8 494.81,-84.8"/>
<text text-anchor="middle" x="412" y="-62.6" font-family="Times,serif" font-size="14.00">DashboardRoutingModule</text>
</g>
<!-- DashboardRoutingModule&#45;&gt;DashboardModule -->
<g id="edge3" class="edge">
<title>DashboardRoutingModule&#45;&gt;DashboardModule</title>
<path fill="none" stroke="black" d="M364.22,-84.91C364.22,-84.91 364.22,-103.79 364.22,-103.79"/>
<polygon fill="black" stroke="black" points="360.72,-103.79 364.22,-113.79 367.72,-103.79 360.72,-103.79"/>
</g>
<!-- TableModule -->
<g id="node5" class="node">
<title>TableModule</title>
<polygon fill="#8dd3c7" stroke="black" points="311.92,-84.8 308.92,-88.8 287.92,-88.8 284.92,-84.8 220.08,-84.8 220.08,-48.8 311.92,-48.8 311.92,-84.8"/>
<text text-anchor="middle" x="266" y="-62.6" font-family="Times,serif" font-size="14.00">TableModule</text>
</g>
<!-- TableModule&#45;&gt;DashboardModule -->
<g id="edge4" class="edge">
<title>TableModule&#45;&gt;DashboardModule</title>
<path fill="none" stroke="black" d="M295.31,-84.91C295.31,-84.91 295.31,-103.79 295.31,-103.79"/>
<polygon fill="black" stroke="black" points="291.81,-103.79 295.31,-113.79 298.81,-103.79 291.81,-103.79"/>
</g>
</g>
</svg>
