<?xml version="1.0" encoding="UTF-8" standalone="no"?>
<!DOCTYPE svg PUBLIC "-//W3C//DTD SVG 1.1//EN"
 "http://www.w3.org/Graphics/SVG/1.1/DTD/svg11.dtd">
<!-- Generated by graphviz version 2.47.3 (20210619.1520)
 -->
<!-- Title: dependencies Pages: 1 -->
<svg width="2189pt" height="174pt"
 viewBox="0.00 0.00 2189.00 173.80" xmlns="http://www.w3.org/2000/svg" xmlns:xlink="http://www.w3.org/1999/xlink">
<g id="graph0" class="graph" transform="scale(1 1) rotate(0) translate(4 169.8)">
<title>dependencies</title>
<polygon fill="white" stroke="transparent" points="-4,4 -4,-169.8 2185,-169.8 2185,4 -4,4"/>
<text text-anchor="middle" x="1090.5" y="-8.2" font-family="sans-serif" font-size="14.00">dependencies</text>
<g id="clust1" class="cluster">
<title>cluster_ApttusModalModule</title>
<polygon fill="none" stroke="black" stroke-dasharray="1,5" points="8,-32.8 8,-157.8 2173,-157.8 2173,-32.8 8,-32.8"/>
</g>
<g id="clust2" class="cluster">
<title>cluster_ApttusModalModule_declarations</title>
<polygon fill="none" stroke="black" points="1353,-40.8 1353,-92.8 2165,-92.8 2165,-40.8 1353,-40.8"/>
</g>
<g id="clust7" class="cluster">
<title>cluster_ApttusModalModule_imports</title>
<polygon fill="none" stroke="black" points="16,-40.8 16,-92.8 1345,-92.8 1345,-40.8 16,-40.8"/>
</g>
<!-- RenewModalComponent -->
<g id="node1" class="node">
<title>RenewModalComponent</title>
<polygon fill="#ffffb3" stroke="black" points="2157.25,-84.8 2000.75,-84.8 2000.75,-48.8 2157.25,-48.8 2157.25,-84.8"/>
<text text-anchor="middle" x="2079" y="-62.6" font-family="Times,serif" font-size="14.00">RenewModalComponent</text>
</g>
<!-- ApttusModalModule -->
<g id="node5" class="node">
<title>ApttusModalModule</title>
<polygon fill="#8dd3c7" stroke="black" points="1035.93,-149.8 1032.93,-153.8 1011.93,-153.8 1008.93,-149.8 902.07,-149.8 902.07,-113.8 1035.93,-113.8 1035.93,-149.8"/>
<text text-anchor="middle" x="969" y="-127.6" font-family="Times,serif" font-size="14.00">ApttusModalModule</text>
</g>
<!-- RenewModalComponent&#45;&gt;ApttusModalModule -->
<g id="edge1" class="edge">
<title>RenewModalComponent&#45;&gt;ApttusModalModule</title>
<path fill="none" stroke="black" d="M2079,-84.89C2079,-107.93 2079,-144.8 2079,-144.8 2079,-144.8 1045.94,-144.8 1045.94,-144.8"/>
<polygon fill="black" stroke="black" points="1045.94,-141.3 1035.94,-144.8 1045.94,-148.3 1045.94,-141.3"/>
</g>
<!-- TerminateModalComponent -->
<g id="node2" class="node">
<title>TerminateModalComponent</title>
<polygon fill="#ffffb3" stroke="black" points="1982.91,-84.8 1807.09,-84.8 1807.09,-48.8 1982.91,-48.8 1982.91,-84.8"/>
<text text-anchor="middle" x="1895" y="-62.6" font-family="Times,serif" font-size="14.00">TerminateModalComponent</text>
</g>
<!-- TerminateModalComponent&#45;&gt;ApttusModalModule -->
<g id="edge2" class="edge">
<title>TerminateModalComponent&#45;&gt;ApttusModalModule</title>
<path fill="none" stroke="black" d="M1895,-85.08C1895,-106.12 1895,-137.8 1895,-137.8 1895,-137.8 1045.97,-137.8 1045.97,-137.8"/>
<polygon fill="black" stroke="black" points="1045.97,-134.3 1035.97,-137.8 1045.97,-141.3 1045.97,-134.3"/>
</g>
<!-- BuyMoreModalComponent -->
<g id="node3" class="node">
<title>BuyMoreModalComponent</title>
<polygon fill="#ffffb3" stroke="black" points="1789.54,-84.8 1618.46,-84.8 1618.46,-48.8 1789.54,-48.8 1789.54,-84.8"/>
<text text-anchor="middle" x="1704" y="-62.6" font-family="Times,serif" font-size="14.00">BuyMoreModalComponent</text>
</g>
<!-- BuyMoreModalComponent&#45;&gt;ApttusModalModule -->
<g id="edge3" class="edge">
<title>BuyMoreModalComponent&#45;&gt;ApttusModalModule</title>
<path fill="none" stroke="black" d="M1704,-84.91C1704,-104.14 1704,-131.8 1704,-131.8 1704,-131.8 1045.85,-131.8 1045.85,-131.8"/>
<polygon fill="black" stroke="black" points="1045.85,-128.3 1035.85,-131.8 1045.85,-135.3 1045.85,-128.3"/>
</g>
<!-- ChangeConfigurationModalComponent -->
<g id="node4" class="node">
<title>ChangeConfigurationModalComponent</title>
<polygon fill="#ffffb3" stroke="black" points="1600.69,-84.8 1361.31,-84.8 1361.31,-48.8 1600.69,-48.8 1600.69,-84.8"/>
<text text-anchor="middle" x="1481" y="-62.6" font-family="Times,serif" font-size="14.00">ChangeConfigurationModalComponent</text>
</g>
<!-- ChangeConfigurationModalComponent&#45;&gt;ApttusModalModule -->
<g id="edge4" class="edge">
<title>ChangeConfigurationModalComponent&#45;&gt;ApttusModalModule</title>
<path fill="none" stroke="black" d="M1481,-84.82C1481,-102.17 1481,-125.8 1481,-125.8 1481,-125.8 1045.94,-125.8 1045.94,-125.8"/>
<polygon fill="black" stroke="black" points="1045.94,-122.3 1035.94,-125.8 1045.94,-129.3 1045.94,-122.3"/>
</g>
<!-- CommonModule -->
<g id="node6" class="node">
<title>CommonModule</title>
<polygon fill="#8dd3c7" stroke="black" points="1336.67,-84.8 1333.67,-88.8 1312.67,-88.8 1309.67,-84.8 1225.33,-84.8 1225.33,-48.8 1336.67,-48.8 1336.67,-84.8"/>
<text text-anchor="middle" x="1281" y="-62.6" font-family="Times,serif" font-size="14.00">CommonModule</text>
</g>
<!-- CommonModule&#45;&gt;ApttusModalModule -->
<g id="edge5" class="edge">
<title>CommonModule&#45;&gt;ApttusModalModule</title>
<path fill="none" stroke="black" d="M1281,-85.04C1281,-100.37 1281,-119.8 1281,-119.8 1281,-119.8 1045.93,-119.8 1045.93,-119.8"/>
<polygon fill="black" stroke="black" points="1045.93,-116.3 1035.93,-119.8 1045.93,-123.3 1045.93,-116.3"/>
</g>
<!-- TranslateModule.forChild() -->
<g id="node7" class="node">
<title>TranslateModule.forChild()</title>
<polygon fill="#8dd3c7" stroke="black" points="1206.89,-84.8 1203.89,-88.8 1182.89,-88.8 1179.89,-84.8 1035.11,-84.8 1035.11,-48.8 1206.89,-48.8 1206.89,-84.8"/>
<text text-anchor="middle" x="1121" y="-62.6" font-family="Times,serif" font-size="14.00">TranslateModule.forChild()</text>
</g>
<!-- TranslateModule.forChild()&#45;&gt;ApttusModalModule -->
<g id="edge6" class="edge">
<title>TranslateModule.forChild()&#45;&gt;ApttusModalModule</title>
<path fill="none" stroke="black" d="M1034.98,-66.8C1029.34,-66.8 1025.86,-66.8 1025.86,-66.8 1025.86,-66.8 1025.86,-103.69 1025.86,-103.69"/>
<polygon fill="black" stroke="black" points="1022.36,-103.69 1025.86,-113.69 1029.36,-103.69 1022.36,-103.69"/>
</g>
<!-- FormsModule -->
<g id="node8" class="node">
<title>FormsModule</title>
<polygon fill="#8dd3c7" stroke="black" points="1016.83,-84.8 1013.83,-88.8 992.83,-88.8 989.83,-84.8 921.17,-84.8 921.17,-48.8 1016.83,-48.8 1016.83,-84.8"/>
<text text-anchor="middle" x="969" y="-62.6" font-family="Times,serif" font-size="14.00">FormsModule</text>
</g>
<!-- FormsModule&#45;&gt;ApttusModalModule -->
<g id="edge7" class="edge">
<title>FormsModule&#45;&gt;ApttusModalModule</title>
<path fill="none" stroke="black" d="M969,-84.91C969,-84.91 969,-103.79 969,-103.79"/>
<polygon fill="black" stroke="black" points="965.5,-103.79 969,-113.79 972.5,-103.79 965.5,-103.79"/>
</g>
<!-- LaddaModule -->
<g id="node9" class="node">
<title>LaddaModule</title>
<polygon fill="#8dd3c7" stroke="black" points="903.03,-84.8 900.03,-88.8 879.03,-88.8 876.03,-84.8 808.97,-84.8 808.97,-48.8 903.03,-48.8 903.03,-84.8"/>
<text text-anchor="middle" x="856" y="-62.6" font-family="Times,serif" font-size="14.00">LaddaModule</text>
</g>
<!-- LaddaModule&#45;&gt;ApttusModalModule -->
<g id="edge8" class="edge">
<title>LaddaModule&#45;&gt;ApttusModalModule</title>
<path fill="none" stroke="black" d="M903.26,-66.8C908.67,-66.8 912.3,-66.8 912.3,-66.8 912.3,-66.8 912.3,-103.69 912.3,-103.69"/>
<polygon fill="black" stroke="black" points="908.8,-103.69 912.3,-113.69 915.8,-103.69 908.8,-103.69"/>
</g>
<!-- PricingModule -->
<g id="node10" class="node">
<title>PricingModule</title>
<polygon fill="#8dd3c7" stroke="black" points="790.99,-84.8 787.99,-88.8 766.99,-88.8 763.99,-84.8 691.01,-84.8 691.01,-48.8 790.99,-48.8 790.99,-84.8"/>
<text text-anchor="middle" x="741" y="-62.6" font-family="Times,serif" font-size="14.00">PricingModule</text>
</g>
<!-- PricingModule&#45;&gt;ApttusModalModule -->
<g id="edge9" class="edge">
<title>PricingModule&#45;&gt;ApttusModalModule</title>
<path fill="none" stroke="black" d="M741,-85.04C741,-100.37 741,-119.8 741,-119.8 741,-119.8 892.13,-119.8 892.13,-119.8"/>
<polygon fill="black" stroke="black" points="892.13,-123.3 902.13,-119.8 892.13,-116.3 892.13,-123.3"/>
</g>
<!-- BsDatepickerModule.forRoot() -->
<g id="node11" class="node">
<title>BsDatepickerModule.forRoot()</title>
<polygon fill="#8dd3c7" stroke="black" points="673.11,-84.8 670.11,-88.8 649.11,-88.8 646.11,-84.8 480.89,-84.8 480.89,-48.8 673.11,-48.8 673.11,-84.8"/>
<text text-anchor="middle" x="577" y="-62.6" font-family="Times,serif" font-size="14.00">BsDatepickerModule.forRoot()</text>
</g>
<!-- BsDatepickerModule.forRoot()&#45;&gt;ApttusModalModule -->
<g id="edge10" class="edge">
<title>BsDatepickerModule.forRoot()&#45;&gt;ApttusModalModule</title>
<path fill="none" stroke="black" d="M577,-84.82C577,-102.17 577,-125.8 577,-125.8 577,-125.8 892.06,-125.8 892.06,-125.8"/>
<polygon fill="black" stroke="black" points="892.06,-129.3 902.06,-125.8 892.06,-122.3 892.06,-129.3"/>
</g>
<!-- TooltipModule.forRoot() -->
<g id="node12" class="node">
<title>TooltipModule.forRoot()</title>
<polygon fill="#8dd3c7" stroke="black" points="462.64,-84.8 459.64,-88.8 438.64,-88.8 435.64,-84.8 305.36,-84.8 305.36,-48.8 462.64,-48.8 462.64,-84.8"/>
<text text-anchor="middle" x="384" y="-62.6" font-family="Times,serif" font-size="14.00">TooltipModule.forRoot()</text>
</g>
<!-- TooltipModule.forRoot()&#45;&gt;ApttusModalModule -->
<g id="edge11" class="edge">
<title>TooltipModule.forRoot()&#45;&gt;ApttusModalModule</title>
<path fill="none" stroke="black" d="M384,-84.91C384,-104.14 384,-131.8 384,-131.8 384,-131.8 892.18,-131.8 892.18,-131.8"/>
<polygon fill="black" stroke="black" points="892.18,-135.3 902.18,-131.8 892.18,-128.3 892.18,-135.3"/>
</g>
<!-- OutputFieldModule -->
<g id="node13" class="node">
<title>OutputFieldModule</title>
<polygon fill="#8dd3c7" stroke="black" points="287.72,-84.8 284.72,-88.8 263.72,-88.8 260.72,-84.8 160.28,-84.8 160.28,-48.8 287.72,-48.8 287.72,-84.8"/>
<text text-anchor="middle" x="224" y="-62.6" font-family="Times,serif" font-size="14.00">OutputFieldModule</text>
</g>
<!-- OutputFieldModule&#45;&gt;ApttusModalModule -->
<g id="edge12" class="edge">
<title>OutputFieldModule&#45;&gt;ApttusModalModule</title>
<path fill="none" stroke="black" d="M224,-85.08C224,-106.12 224,-137.8 224,-137.8 224,-137.8 892.23,-137.8 892.23,-137.8"/>
<polygon fill="black" stroke="black" points="892.23,-141.3 902.23,-137.8 892.23,-134.3 892.23,-141.3"/>
</g>
<!-- InputFieldModule -->
<g id="node14" class="node">
<title>InputFieldModule</title>
<polygon fill="#8dd3c7" stroke="black" points="141.88,-84.8 138.88,-88.8 117.88,-88.8 114.88,-84.8 24.12,-84.8 24.12,-48.8 141.88,-48.8 141.88,-84.8"/>
<text text-anchor="middle" x="83" y="-62.6" font-family="Times,serif" font-size="14.00">InputFieldModule</text>
</g>
<!-- InputFieldModule&#45;&gt;ApttusModalModule -->
<g id="edge13" class="edge">
<title>InputFieldModule&#45;&gt;ApttusModalModule</title>
<path fill="none" stroke="black" d="M83,-84.89C83,-107.93 83,-144.8 83,-144.8 83,-144.8 892.04,-144.8 892.04,-144.8"/>
<polygon fill="black" stroke="black" points="892.04,-148.3 902.04,-144.8 892.04,-141.3 892.04,-148.3"/>
</g>
</g>
</svg>
