<?xml version="1.0" encoding="UTF-8" standalone="no"?>
<!DOCTYPE svg PUBLIC "-//W3C//DTD SVG 1.1//EN"
 "http://www.w3.org/Graphics/SVG/1.1/DTD/svg11.dtd">
<!-- Generated by graphviz version 2.47.3 (20210619.1520)
 -->
<!-- Title: dependencies Pages: 1 -->
<svg width="284pt" height="174pt"
 viewBox="0.00 0.00 284.00 173.80" xmlns="http://www.w3.org/2000/svg" xmlns:xlink="http://www.w3.org/1999/xlink">
<g id="graph0" class="graph" transform="scale(1 1) rotate(0) translate(4 169.8)">
<title>dependencies</title>
<polygon fill="white" stroke="transparent" points="-4,4 -4,-169.8 280,-169.8 280,4 -4,4"/>
<text text-anchor="middle" x="138" y="-8.2" font-family="sans-serif" font-size="14.00">dependencies</text>
<g id="clust1" class="cluster">
<title>cluster_HomeModule</title>
<polygon fill="none" stroke="black" stroke-dasharray="1,5" points="8,-32.8 8,-157.8 268,-157.8 268,-32.8 8,-32.8"/>
</g>
<g id="clust2" class="cluster">
<title>cluster_HomeModule_declarations</title>
<polygon fill="none" stroke="black" points="128,-40.8 128,-92.8 260,-92.8 260,-40.8 128,-40.8"/>
</g>
<g id="clust4" class="cluster">
<title>cluster_HomeModule_imports</title>
<polygon fill="none" stroke="black" points="16,-40.8 16,-92.8 120,-92.8 120,-40.8 16,-40.8"/>
</g>
<!-- HomeComponent -->
<g id="node1" class="node">
<title>HomeComponent</title>
<polygon fill="#ffffb3" stroke="black" points="251.55,-84.8 136.45,-84.8 136.45,-48.8 251.55,-48.8 251.55,-84.8"/>
<text text-anchor="middle" x="194" y="-62.6" font-family="Times,serif" font-size="14.00">HomeComponent</text>
</g>
<!-- HomeModule -->
<g id="node2" class="node">
<title>HomeModule</title>
<polygon fill="#8dd3c7" stroke="black" points="177.76,-149.8 174.76,-153.8 153.76,-153.8 150.76,-149.8 84.24,-149.8 84.24,-113.8 177.76,-113.8 177.76,-149.8"/>
<text text-anchor="middle" x="131" y="-127.6" font-family="Times,serif" font-size="14.00">HomeModule</text>
</g>
<!-- HomeComponent&#45;&gt;HomeModule -->
<g id="edge1" class="edge">
<title>HomeComponent&#45;&gt;HomeModule</title>
<path fill="none" stroke="black" d="M157.05,-84.91C157.05,-84.91 157.05,-103.79 157.05,-103.79"/>
<polygon fill="black" stroke="black" points="153.55,-103.79 157.05,-113.79 160.55,-103.79 153.55,-103.79"/>
</g>
<!-- AlertModule -->
<g id="node3" class="node">
<title>AlertModule</title>
<polygon fill="#8dd3c7" stroke="black" points="112.31,-84.8 109.31,-88.8 88.31,-88.8 85.31,-84.8 23.69,-84.8 23.69,-48.8 112.31,-48.8 112.31,-84.8"/>
<text text-anchor="middle" x="68" y="-62.6" font-family="Times,serif" font-size="14.00">AlertModule</text>
</g>
<!-- AlertModule&#45;&gt;HomeModule -->
<g id="edge2" class="edge">
<title>AlertModule&#45;&gt;HomeModule</title>
<path fill="none" stroke="black" d="M98.14,-84.91C98.14,-84.91 98.14,-103.79 98.14,-103.79"/>
<polygon fill="black" stroke="black" points="94.64,-103.79 98.14,-113.79 101.64,-103.79 94.64,-103.79"/>
</g>
</g>
</svg>
