<?xml version="1.0" encoding="UTF-8" standalone="no"?>
<!DOCTYPE svg PUBLIC "-//W3C//DTD SVG 1.1//EN"
 "http://www.w3.org/Graphics/SVG/1.1/DTD/svg11.dtd">
<!-- Generated by graphviz version 2.47.3 (20210619.1520)
 -->
<!-- Title: dependencies Pages: 1 -->
<svg width="1576pt" height="247pt"
 viewBox="0.00 0.00 1576.00 246.80" xmlns="http://www.w3.org/2000/svg" xmlns:xlink="http://www.w3.org/1999/xlink">
<g id="graph0" class="graph" transform="scale(1 1) rotate(0) translate(4 242.8)">
<title>dependencies</title>
<polygon fill="white" stroke="transparent" points="-4,4 -4,-242.8 1572,-242.8 1572,4 -4,4"/>
<text text-anchor="middle" x="784" y="-8.2" font-family="sans-serif" font-size="14.00">dependencies</text>
<g id="clust1" class="cluster">
<title>cluster_MiniCartModule</title>
<polygon fill="none" stroke="black" stroke-dasharray="1,5" points="8,-32.8 8,-230.8 1560,-230.8 1560,-32.8 8,-32.8"/>
</g>
<g id="clust5" class="cluster">
<title>cluster_MiniCartModule_exports</title>
<polygon fill="none" stroke="black" points="802,-170.8 802,-222.8 954,-222.8 954,-170.8 802,-170.8"/>
</g>
<g id="clust2" class="cluster">
<title>cluster_MiniCartModule_declarations</title>
<polygon fill="none" stroke="black" points="1404,-40.8 1404,-92.8 1552,-92.8 1552,-40.8 1404,-40.8"/>
</g>
<g id="clust4" class="cluster">
<title>cluster_MiniCartModule_imports</title>
<polygon fill="none" stroke="black" points="16,-40.8 16,-92.8 1396,-92.8 1396,-40.8 16,-40.8"/>
</g>
<!-- MiniCartComponent -->
<g id="node1" class="node">
<title>MiniCartComponent</title>
<polygon fill="#ffffb3" stroke="black" points="1544.16,-84.8 1411.84,-84.8 1411.84,-48.8 1544.16,-48.8 1544.16,-84.8"/>
<text text-anchor="middle" x="1478" y="-62.6" font-family="Times,serif" font-size="14.00">MiniCartComponent</text>
</g>
<!-- MiniCartModule -->
<g id="node2" class="node">
<title>MiniCartModule</title>
<polygon fill="#8dd3c7" stroke="black" points="933.38,-149.8 930.38,-153.8 909.38,-153.8 906.38,-149.8 822.62,-149.8 822.62,-113.8 933.38,-113.8 933.38,-149.8"/>
<text text-anchor="middle" x="878" y="-127.6" font-family="Times,serif" font-size="14.00">MiniCartModule</text>
</g>
<!-- MiniCartComponent&#45;&gt;MiniCartModule -->
<g id="edge1" class="edge">
<title>MiniCartComponent&#45;&gt;MiniCartModule</title>
<path fill="none" stroke="black" d="M1478,-85.05C1478,-107.82 1478,-143.8 1478,-143.8 1478,-143.8 943.64,-143.8 943.64,-143.8"/>
<polygon fill="black" stroke="black" points="943.64,-140.3 933.64,-143.8 943.64,-147.3 943.64,-140.3"/>
</g>
<!-- MiniCartComponent  -->
<g id="node13" class="node">
<title>MiniCartComponent </title>
<polygon fill="#fb8072" stroke="black" points="946.16,-214.8 809.84,-214.8 809.84,-178.8 946.16,-178.8 946.16,-214.8"/>
<text text-anchor="middle" x="878" y="-192.6" font-family="Times,serif" font-size="14.00">MiniCartComponent </text>
</g>
<!-- MiniCartModule&#45;&gt;MiniCartComponent  -->
<g id="edge12" class="edge">
<title>MiniCartModule&#45;&gt;MiniCartComponent </title>
<path fill="none" stroke="black" stroke-dasharray="5,2" d="M878,-149.91C878,-149.91 878,-168.79 878,-168.79"/>
<polygon fill="black" stroke="black" points="874.5,-168.79 878,-178.79 881.5,-168.79 874.5,-168.79"/>
</g>
<!-- CommonModule -->
<g id="node3" class="node">
<title>CommonModule</title>
<polygon fill="#8dd3c7" stroke="black" points="1387.67,-84.8 1384.67,-88.8 1363.67,-88.8 1360.67,-84.8 1276.33,-84.8 1276.33,-48.8 1387.67,-48.8 1387.67,-84.8"/>
<text text-anchor="middle" x="1332" y="-62.6" font-family="Times,serif" font-size="14.00">CommonModule</text>
</g>
<!-- CommonModule&#45;&gt;MiniCartModule -->
<g id="edge2" class="edge">
<title>CommonModule&#45;&gt;MiniCartModule</title>
<path fill="none" stroke="black" d="M1332,-85.08C1332,-106.12 1332,-137.8 1332,-137.8 1332,-137.8 943.67,-137.8 943.67,-137.8"/>
<polygon fill="black" stroke="black" points="943.67,-134.3 933.67,-137.8 943.67,-141.3 943.67,-134.3"/>
</g>
<!-- FormsModule -->
<g id="node4" class="node">
<title>FormsModule</title>
<polygon fill="#8dd3c7" stroke="black" points="1258.83,-84.8 1255.83,-88.8 1234.83,-88.8 1231.83,-84.8 1163.17,-84.8 1163.17,-48.8 1258.83,-48.8 1258.83,-84.8"/>
<text text-anchor="middle" x="1211" y="-62.6" font-family="Times,serif" font-size="14.00">FormsModule</text>
</g>
<!-- FormsModule&#45;&gt;MiniCartModule -->
<g id="edge3" class="edge">
<title>FormsModule&#45;&gt;MiniCartModule</title>
<path fill="none" stroke="black" d="M1211,-84.91C1211,-104.14 1211,-131.8 1211,-131.8 1211,-131.8 943.74,-131.8 943.74,-131.8"/>
<polygon fill="black" stroke="black" points="943.74,-128.3 933.74,-131.8 943.74,-135.3 943.74,-128.3"/>
</g>
<!-- LaddaModule -->
<g id="node5" class="node">
<title>LaddaModule</title>
<polygon fill="#8dd3c7" stroke="black" points="1145.03,-84.8 1142.03,-88.8 1121.03,-88.8 1118.03,-84.8 1050.97,-84.8 1050.97,-48.8 1145.03,-48.8 1145.03,-84.8"/>
<text text-anchor="middle" x="1098" y="-62.6" font-family="Times,serif" font-size="14.00">LaddaModule</text>
</g>
<!-- LaddaModule&#45;&gt;MiniCartModule -->
<g id="edge4" class="edge">
<title>LaddaModule&#45;&gt;MiniCartModule</title>
<path fill="none" stroke="black" d="M1098,-84.82C1098,-102.17 1098,-125.8 1098,-125.8 1098,-125.8 943.52,-125.8 943.52,-125.8"/>
<polygon fill="black" stroke="black" points="943.52,-122.3 933.52,-125.8 943.52,-129.3 943.52,-122.3"/>
</g>
<!-- PriceModule -->
<g id="node6" class="node">
<title>PriceModule</title>
<polygon fill="#8dd3c7" stroke="black" points="1033.31,-84.8 1030.31,-88.8 1009.31,-88.8 1006.31,-84.8 944.69,-84.8 944.69,-48.8 1033.31,-48.8 1033.31,-84.8"/>
<text text-anchor="middle" x="989" y="-62.6" font-family="Times,serif" font-size="14.00">PriceModule</text>
</g>
<!-- PriceModule&#45;&gt;MiniCartModule -->
<g id="edge5" class="edge">
<title>PriceModule&#45;&gt;MiniCartModule</title>
<path fill="none" stroke="black" d="M989.62,-85.04C989.62,-100.37 989.62,-119.8 989.62,-119.8 989.62,-119.8 943.48,-119.8 943.48,-119.8"/>
<polygon fill="black" stroke="black" points="943.48,-116.3 933.48,-119.8 943.48,-123.3 943.48,-116.3"/>
</g>
<!-- ApttusModule -->
<g id="node7" class="node">
<title>ApttusModule</title>
<polygon fill="#8dd3c7" stroke="black" points="926.38,-84.8 923.38,-88.8 902.38,-88.8 899.38,-84.8 829.62,-84.8 829.62,-48.8 926.38,-48.8 926.38,-84.8"/>
<text text-anchor="middle" x="878" y="-62.6" font-family="Times,serif" font-size="14.00">ApttusModule</text>
</g>
<!-- ApttusModule&#45;&gt;MiniCartModule -->
<g id="edge6" class="edge">
<title>ApttusModule&#45;&gt;MiniCartModule</title>
<path fill="none" stroke="black" d="M878,-84.91C878,-84.91 878,-103.79 878,-103.79"/>
<polygon fill="black" stroke="black" points="874.5,-103.79 878,-113.79 881.5,-103.79 874.5,-103.79"/>
</g>
<!-- RouterModule -->
<g id="node8" class="node">
<title>RouterModule</title>
<polygon fill="#8dd3c7" stroke="black" points="811.65,-84.8 808.65,-88.8 787.65,-88.8 784.65,-84.8 714.35,-84.8 714.35,-48.8 811.65,-48.8 811.65,-84.8"/>
<text text-anchor="middle" x="763" y="-62.6" font-family="Times,serif" font-size="14.00">RouterModule</text>
</g>
<!-- RouterModule&#45;&gt;MiniCartModule -->
<g id="edge7" class="edge">
<title>RouterModule&#45;&gt;MiniCartModule</title>
<path fill="none" stroke="black" d="M762.05,-85.04C762.05,-100.37 762.05,-119.8 762.05,-119.8 762.05,-119.8 812.4,-119.8 812.4,-119.8"/>
<polygon fill="black" stroke="black" points="812.4,-123.3 822.4,-119.8 812.4,-116.3 812.4,-123.3"/>
</g>
<!-- InputFieldModule -->
<g id="node9" class="node">
<title>InputFieldModule</title>
<polygon fill="#8dd3c7" stroke="black" points="695.88,-84.8 692.88,-88.8 671.88,-88.8 668.88,-84.8 578.12,-84.8 578.12,-48.8 695.88,-48.8 695.88,-84.8"/>
<text text-anchor="middle" x="637" y="-62.6" font-family="Times,serif" font-size="14.00">InputFieldModule</text>
</g>
<!-- InputFieldModule&#45;&gt;MiniCartModule -->
<g id="edge8" class="edge">
<title>InputFieldModule&#45;&gt;MiniCartModule</title>
<path fill="none" stroke="black" d="M637,-84.82C637,-102.17 637,-125.8 637,-125.8 637,-125.8 812.41,-125.8 812.41,-125.8"/>
<polygon fill="black" stroke="black" points="812.41,-129.3 822.41,-125.8 812.41,-122.3 812.41,-129.3"/>
</g>
<!-- TranslateModule.forChild() -->
<g id="node10" class="node">
<title>TranslateModule.forChild()</title>
<polygon fill="#8dd3c7" stroke="black" points="559.89,-84.8 556.89,-88.8 535.89,-88.8 532.89,-84.8 388.11,-84.8 388.11,-48.8 559.89,-48.8 559.89,-84.8"/>
<text text-anchor="middle" x="474" y="-62.6" font-family="Times,serif" font-size="14.00">TranslateModule.forChild()</text>
</g>
<!-- TranslateModule.forChild()&#45;&gt;MiniCartModule -->
<g id="edge9" class="edge">
<title>TranslateModule.forChild()&#45;&gt;MiniCartModule</title>
<path fill="none" stroke="black" d="M474,-84.91C474,-104.14 474,-131.8 474,-131.8 474,-131.8 812.25,-131.8 812.25,-131.8"/>
<polygon fill="black" stroke="black" points="812.25,-135.3 822.25,-131.8 812.25,-128.3 812.25,-135.3"/>
</g>
<!-- ModalModule.forRoot() -->
<g id="node11" class="node">
<title>ModalModule.forRoot()</title>
<polygon fill="#8dd3c7" stroke="black" points="370.47,-84.8 367.47,-88.8 346.47,-88.8 343.47,-84.8 217.53,-84.8 217.53,-48.8 370.47,-48.8 370.47,-84.8"/>
<text text-anchor="middle" x="294" y="-62.6" font-family="Times,serif" font-size="14.00">ModalModule.forRoot()</text>
</g>
<!-- ModalModule.forRoot()&#45;&gt;MiniCartModule -->
<g id="edge10" class="edge">
<title>ModalModule.forRoot()&#45;&gt;MiniCartModule</title>
<path fill="none" stroke="black" d="M294,-85.08C294,-106.12 294,-137.8 294,-137.8 294,-137.8 812.53,-137.8 812.53,-137.8"/>
<polygon fill="black" stroke="black" points="812.53,-141.3 822.53,-137.8 812.53,-134.3 812.53,-141.3"/>
</g>
<!-- ToastrModule.forRoot(args) -->
<g id="node12" class="node">
<title>ToastrModule.forRoot(args)</title>
<polygon fill="#8dd3c7" stroke="black" points="199.5,-84.8 196.5,-88.8 175.5,-88.8 172.5,-84.8 24.5,-84.8 24.5,-48.8 199.5,-48.8 199.5,-84.8"/>
<text text-anchor="middle" x="112" y="-62.6" font-family="Times,serif" font-size="14.00">ToastrModule.forRoot(args)</text>
</g>
<!-- ToastrModule.forRoot(args)&#45;&gt;MiniCartModule -->
<g id="edge11" class="edge">
<title>ToastrModule.forRoot(args)&#45;&gt;MiniCartModule</title>
<path fill="none" stroke="black" d="M112,-85.05C112,-107.82 112,-143.8 112,-143.8 112,-143.8 812.6,-143.8 812.6,-143.8"/>
<polygon fill="black" stroke="black" points="812.6,-147.3 822.6,-143.8 812.6,-140.3 812.6,-147.3"/>
</g>
</g>
</svg>
