<?xml version="1.0" encoding="UTF-8" standalone="no"?>
<!DOCTYPE svg PUBLIC "-//W3C//DTD SVG 1.1//EN"
 "http://www.w3.org/Graphics/SVG/1.1/DTD/svg11.dtd">
<!-- Generated by graphviz version 2.47.3 (20210619.1520)
 -->
<!-- Title: dependencies Pages: 1 -->
<svg width="970pt" height="174pt"
 viewBox="0.00 0.00 970.00 173.80" xmlns="http://www.w3.org/2000/svg" xmlns:xlink="http://www.w3.org/1999/xlink">
<g id="graph0" class="graph" transform="scale(1 1) rotate(0) translate(4 169.8)">
<title>dependencies</title>
<polygon fill="white" stroke="transparent" points="-4,4 -4,-169.8 966,-169.8 966,4 -4,4"/>
<text text-anchor="middle" x="481" y="-8.2" font-family="sans-serif" font-size="14.00">dependencies</text>
<g id="clust1" class="cluster">
<title>cluster_FavoritesModule</title>
<polygon fill="none" stroke="black" stroke-dasharray="1,5" points="8,-32.8 8,-157.8 954,-157.8 954,-32.8 8,-32.8"/>
</g>
<g id="clust5" class="cluster">
<title>cluster_FavoritesModule_imports</title>
<polygon fill="none" stroke="black" points="370,-40.8 370,-92.8 946,-92.8 946,-40.8 370,-40.8"/>
</g>
<g id="clust2" class="cluster">
<title>cluster_FavoritesModule_declarations</title>
<polygon fill="none" stroke="black" points="16,-40.8 16,-92.8 362,-92.8 362,-40.8 16,-40.8"/>
</g>
<!-- FavoriteDetailComponent -->
<g id="node1" class="node">
<title>FavoriteDetailComponent</title>
<polygon fill="#ffffb3" stroke="black" points="354.19,-84.8 191.81,-84.8 191.81,-48.8 354.19,-48.8 354.19,-84.8"/>
<text text-anchor="middle" x="273" y="-62.6" font-family="Times,serif" font-size="14.00">FavoriteDetailComponent</text>
</g>
<!-- FavoritesModule -->
<g id="node3" class="node">
<title>FavoritesModule</title>
<polygon fill="#8dd3c7" stroke="black" points="553.65,-149.8 550.65,-153.8 529.65,-153.8 526.65,-149.8 442.35,-149.8 442.35,-113.8 553.65,-113.8 553.65,-149.8"/>
<text text-anchor="middle" x="498" y="-127.6" font-family="Times,serif" font-size="14.00">FavoritesModule</text>
</g>
<!-- FavoriteDetailComponent&#45;&gt;FavoritesModule -->
<g id="edge1" class="edge">
<title>FavoriteDetailComponent&#45;&gt;FavoritesModule</title>
<path fill="none" stroke="black" d="M273,-84.82C273,-102.17 273,-125.8 273,-125.8 273,-125.8 432.09,-125.8 432.09,-125.8"/>
<polygon fill="black" stroke="black" points="432.09,-129.3 442.09,-125.8 432.09,-122.3 432.09,-129.3"/>
</g>
<!-- FavoriteListComponent -->
<g id="node2" class="node">
<title>FavoriteListComponent</title>
<polygon fill="#ffffb3" stroke="black" points="173.76,-84.8 24.24,-84.8 24.24,-48.8 173.76,-48.8 173.76,-84.8"/>
<text text-anchor="middle" x="99" y="-62.6" font-family="Times,serif" font-size="14.00">FavoriteListComponent</text>
</g>
<!-- FavoriteListComponent&#45;&gt;FavoritesModule -->
<g id="edge2" class="edge">
<title>FavoriteListComponent&#45;&gt;FavoritesModule</title>
<path fill="none" stroke="black" d="M99,-85.08C99,-106.12 99,-137.8 99,-137.8 99,-137.8 432.1,-137.8 432.1,-137.8"/>
<polygon fill="black" stroke="black" points="432.1,-141.3 442.1,-137.8 432.1,-134.3 432.1,-141.3"/>
</g>
<!-- AlertModule -->
<g id="node4" class="node">
<title>AlertModule</title>
<polygon fill="#8dd3c7" stroke="black" points="938.31,-84.8 935.31,-88.8 914.31,-88.8 911.31,-84.8 849.69,-84.8 849.69,-48.8 938.31,-48.8 938.31,-84.8"/>
<text text-anchor="middle" x="894" y="-62.6" font-family="Times,serif" font-size="14.00">AlertModule</text>
</g>
<!-- AlertModule&#45;&gt;FavoritesModule -->
<g id="edge3" class="edge">
<title>AlertModule&#45;&gt;FavoritesModule</title>
<path fill="none" stroke="black" d="M894,-85.08C894,-106.12 894,-137.8 894,-137.8 894,-137.8 563.9,-137.8 563.9,-137.8"/>
<polygon fill="black" stroke="black" points="563.9,-134.3 553.9,-137.8 563.9,-141.3 563.9,-134.3"/>
</g>
<!-- FavoritesRoutingModule -->
<g id="node5" class="node">
<title>FavoritesRoutingModule</title>
<polygon fill="#8dd3c7" stroke="black" points="831.27,-84.8 828.27,-88.8 807.27,-88.8 804.27,-84.8 674.73,-84.8 674.73,-48.8 831.27,-48.8 831.27,-84.8"/>
<text text-anchor="middle" x="753" y="-62.6" font-family="Times,serif" font-size="14.00">FavoritesRoutingModule</text>
</g>
<!-- FavoritesRoutingModule&#45;&gt;FavoritesModule -->
<g id="edge4" class="edge">
<title>FavoritesRoutingModule&#45;&gt;FavoritesModule</title>
<path fill="none" stroke="black" d="M753,-84.82C753,-102.17 753,-125.8 753,-125.8 753,-125.8 563.96,-125.8 563.96,-125.8"/>
<polygon fill="black" stroke="black" points="563.96,-122.3 553.96,-125.8 563.96,-129.3 563.96,-122.3"/>
</g>
<!-- LineItemTableRowModule -->
<g id="node6" class="node">
<title>LineItemTableRowModule</title>
<polygon fill="#8dd3c7" stroke="black" points="656.68,-84.8 653.68,-88.8 632.68,-88.8 629.68,-84.8 487.32,-84.8 487.32,-48.8 656.68,-48.8 656.68,-84.8"/>
<text text-anchor="middle" x="572" y="-62.6" font-family="Times,serif" font-size="14.00">LineItemTableRowModule</text>
</g>
<!-- LineItemTableRowModule&#45;&gt;FavoritesModule -->
<g id="edge5" class="edge">
<title>LineItemTableRowModule&#45;&gt;FavoritesModule</title>
<path fill="none" stroke="black" d="M520.62,-84.91C520.62,-84.91 520.62,-103.79 520.62,-103.79"/>
<polygon fill="black" stroke="black" points="517.12,-103.79 520.62,-113.79 524.12,-103.79 517.12,-103.79"/>
</g>
<!-- TableModule -->
<g id="node7" class="node">
<title>TableModule</title>
<polygon fill="#8dd3c7" stroke="black" points="469.92,-84.8 466.92,-88.8 445.92,-88.8 442.92,-84.8 378.08,-84.8 378.08,-48.8 469.92,-48.8 469.92,-84.8"/>
<text text-anchor="middle" x="424" y="-62.6" font-family="Times,serif" font-size="14.00">TableModule</text>
</g>
<!-- TableModule&#45;&gt;FavoritesModule -->
<g id="edge6" class="edge">
<title>TableModule&#45;&gt;FavoritesModule</title>
<path fill="none" stroke="black" d="M455.94,-84.91C455.94,-84.91 455.94,-103.79 455.94,-103.79"/>
<polygon fill="black" stroke="black" points="452.44,-103.79 455.94,-113.79 459.44,-103.79 452.44,-103.79"/>
</g>
</g>
</svg>
