<?xml version="1.0" encoding="UTF-8" standalone="no"?>
<!DOCTYPE svg PUBLIC "-//W3C//DTD SVG 1.1//EN"
 "http://www.w3.org/Graphics/SVG/1.1/DTD/svg11.dtd">
<!-- Generated by graphviz version 2.47.3 (20210619.1520)
 -->
<!-- Title: dependencies Pages: 1 -->
<svg width="698pt" height="247pt"
 viewBox="0.00 0.00 698.00 246.80" xmlns="http://www.w3.org/2000/svg" xmlns:xlink="http://www.w3.org/1999/xlink">
<g id="graph0" class="graph" transform="scale(1 1) rotate(0) translate(4 242.8)">
<title>dependencies</title>
<polygon fill="white" stroke="transparent" points="-4,4 -4,-242.8 694,-242.8 694,4 -4,4"/>
<text text-anchor="middle" x="345" y="-8.2" font-family="sans-serif" font-size="14.00">dependencies</text>
<g id="clust1" class="cluster">
<title>cluster_ProductCompareModule</title>
<polygon fill="none" stroke="black" stroke-dasharray="1,5" points="8,-32.8 8,-230.8 682,-230.8 682,-32.8 8,-32.8"/>
</g>
<g id="clust6" class="cluster">
<title>cluster_ProductCompareModule_exports</title>
<polygon fill="none" stroke="black" points="284,-170.8 284,-222.8 480,-222.8 480,-170.8 284,-170.8"/>
</g>
<g id="clust5" class="cluster">
<title>cluster_ProductCompareModule_imports</title>
<polygon fill="none" stroke="black" points="398,-40.8 398,-92.8 674,-92.8 674,-40.8 398,-40.8"/>
</g>
<g id="clust2" class="cluster">
<title>cluster_ProductCompareModule_declarations</title>
<polygon fill="none" stroke="black" points="16,-40.8 16,-92.8 390,-92.8 390,-40.8 16,-40.8"/>
</g>
<!-- ProductCompareComponent -->
<g id="node1" class="node">
<title>ProductCompareComponent</title>
<polygon fill="#ffffb3" stroke="black" points="382.2,-84.8 205.8,-84.8 205.8,-48.8 382.2,-48.8 382.2,-84.8"/>
<text text-anchor="middle" x="294" y="-62.6" font-family="Times,serif" font-size="14.00">ProductCompareComponent</text>
</g>
<!-- ProductCompareModule -->
<g id="node3" class="node">
<title>ProductCompareModule</title>
<polygon fill="#8dd3c7" stroke="black" points="459.42,-149.8 456.42,-153.8 435.42,-153.8 432.42,-149.8 304.58,-149.8 304.58,-113.8 459.42,-113.8 459.42,-149.8"/>
<text text-anchor="middle" x="382" y="-127.6" font-family="Times,serif" font-size="14.00">ProductCompareModule</text>
</g>
<!-- ProductCompareComponent&#45;&gt;ProductCompareModule -->
<g id="edge1" class="edge">
<title>ProductCompareComponent&#45;&gt;ProductCompareModule</title>
<path fill="none" stroke="black" d="M343.45,-84.91C343.45,-84.91 343.45,-103.79 343.45,-103.79"/>
<polygon fill="black" stroke="black" points="339.95,-103.79 343.45,-113.79 346.95,-103.79 339.95,-103.79"/>
</g>
<!-- CompareTableComponent -->
<g id="node2" class="node">
<title>CompareTableComponent</title>
<polygon fill="#ffffb3" stroke="black" points="188.02,-84.8 23.98,-84.8 23.98,-48.8 188.02,-48.8 188.02,-84.8"/>
<text text-anchor="middle" x="106" y="-62.6" font-family="Times,serif" font-size="14.00">CompareTableComponent</text>
</g>
<!-- CompareTableComponent&#45;&gt;ProductCompareModule -->
<g id="edge2" class="edge">
<title>CompareTableComponent&#45;&gt;ProductCompareModule</title>
<path fill="none" stroke="black" d="M106,-84.91C106,-104.14 106,-131.8 106,-131.8 106,-131.8 294.75,-131.8 294.75,-131.8"/>
<polygon fill="black" stroke="black" points="294.75,-135.3 304.75,-131.8 294.75,-128.3 294.75,-135.3"/>
</g>
<!-- ProductCompareComponent  -->
<g id="node6" class="node">
<title>ProductCompareComponent </title>
<polygon fill="#fb8072" stroke="black" points="471.7,-214.8 292.3,-214.8 292.3,-178.8 471.7,-178.8 471.7,-214.8"/>
<text text-anchor="middle" x="382" y="-192.6" font-family="Times,serif" font-size="14.00">ProductCompareComponent </text>
</g>
<!-- ProductCompareModule&#45;&gt;ProductCompareComponent  -->
<g id="edge5" class="edge">
<title>ProductCompareModule&#45;&gt;ProductCompareComponent </title>
<path fill="none" stroke="black" stroke-dasharray="5,2" d="M382,-149.91C382,-149.91 382,-168.79 382,-168.79"/>
<polygon fill="black" stroke="black" points="378.5,-168.79 382,-178.79 385.5,-168.79 378.5,-168.79"/>
</g>
<!-- CommonModule -->
<g id="node4" class="node">
<title>CommonModule</title>
<polygon fill="#8dd3c7" stroke="black" points="665.67,-84.8 662.67,-88.8 641.67,-88.8 638.67,-84.8 554.33,-84.8 554.33,-48.8 665.67,-48.8 665.67,-84.8"/>
<text text-anchor="middle" x="610" y="-62.6" font-family="Times,serif" font-size="14.00">CommonModule</text>
</g>
<!-- CommonModule&#45;&gt;ProductCompareModule -->
<g id="edge3" class="edge">
<title>CommonModule&#45;&gt;ProductCompareModule</title>
<path fill="none" stroke="black" d="M610,-84.91C610,-104.14 610,-131.8 610,-131.8 610,-131.8 469.51,-131.8 469.51,-131.8"/>
<polygon fill="black" stroke="black" points="469.51,-128.3 459.51,-131.8 469.51,-135.3 469.51,-128.3"/>
</g>
<!-- ProductCardModule -->
<g id="node5" class="node">
<title>ProductCardModule</title>
<polygon fill="#8dd3c7" stroke="black" points="536.31,-84.8 533.31,-88.8 512.31,-88.8 509.31,-84.8 405.69,-84.8 405.69,-48.8 536.31,-48.8 536.31,-84.8"/>
<text text-anchor="middle" x="471" y="-62.6" font-family="Times,serif" font-size="14.00">ProductCardModule</text>
</g>
<!-- ProductCardModule&#45;&gt;ProductCompareModule -->
<g id="edge4" class="edge">
<title>ProductCardModule&#45;&gt;ProductCompareModule</title>
<path fill="none" stroke="black" d="M432.53,-84.91C432.53,-84.91 432.53,-103.79 432.53,-103.79"/>
<polygon fill="black" stroke="black" points="429.03,-103.79 432.53,-113.79 436.03,-103.79 429.03,-103.79"/>
</g>
</g>
</svg>
