<?xml version="1.0" encoding="UTF-8" standalone="no"?>
<!DOCTYPE svg PUBLIC "-//W3C//DTD SVG 1.1//EN"
 "http://www.w3.org/Graphics/SVG/1.1/DTD/svg11.dtd">
<!-- Generated by graphviz version 2.47.3 (20210619.1520)
 -->
<!-- Title: dependencies Pages: 1 -->
<svg width="1307pt" height="174pt"
 viewBox="0.00 0.00 1307.00 173.80" xmlns="http://www.w3.org/2000/svg" xmlns:xlink="http://www.w3.org/1999/xlink">
<g id="graph0" class="graph" transform="scale(1 1) rotate(0) translate(4 169.8)">
<title>dependencies</title>
<polygon fill="white" stroke="transparent" points="-4,4 -4,-169.8 1303,-169.8 1303,4 -4,4"/>
<text text-anchor="middle" x="649.5" y="-8.2" font-family="sans-serif" font-size="14.00">dependencies</text>
<g id="clust1" class="cluster">
<title>cluster_OrdersModule</title>
<polygon fill="none" stroke="black" stroke-dasharray="1,5" points="8,-32.8 8,-157.8 1291,-157.8 1291,-32.8 8,-32.8"/>
</g>
<g id="clust5" class="cluster">
<title>cluster_OrdersModule_imports</title>
<polygon fill="none" stroke="black" points="342,-40.8 342,-92.8 1283,-92.8 1283,-40.8 342,-40.8"/>
</g>
<g id="clust2" class="cluster">
<title>cluster_OrdersModule_declarations</title>
<polygon fill="none" stroke="black" points="16,-40.8 16,-92.8 334,-92.8 334,-40.8 16,-40.8"/>
</g>
<!-- OrderDetailComponent -->
<g id="node1" class="node">
<title>OrderDetailComponent</title>
<polygon fill="#ffffb3" stroke="black" points="326.18,-84.8 177.82,-84.8 177.82,-48.8 326.18,-48.8 326.18,-84.8"/>
<text text-anchor="middle" x="252" y="-62.6" font-family="Times,serif" font-size="14.00">OrderDetailComponent</text>
</g>
<!-- OrdersModule -->
<g id="node3" class="node">
<title>OrdersModule</title>
<polygon fill="#8dd3c7" stroke="black" points="680.64,-149.8 677.64,-153.8 656.64,-153.8 653.64,-149.8 583.36,-149.8 583.36,-113.8 680.64,-113.8 680.64,-149.8"/>
<text text-anchor="middle" x="632" y="-127.6" font-family="Times,serif" font-size="14.00">OrdersModule</text>
</g>
<!-- OrderDetailComponent&#45;&gt;OrdersModule -->
<g id="edge1" class="edge">
<title>OrderDetailComponent&#45;&gt;OrdersModule</title>
<path fill="none" stroke="black" d="M252,-84.93C252,-105.37 252,-135.8 252,-135.8 252,-135.8 573.1,-135.8 573.1,-135.8"/>
<polygon fill="black" stroke="black" points="573.1,-139.3 583.1,-135.8 573.1,-132.3 573.1,-139.3"/>
</g>
<!-- OrderListComponent -->
<g id="node2" class="node">
<title>OrderListComponent</title>
<polygon fill="#ffffb3" stroke="black" points="159.75,-84.8 24.25,-84.8 24.25,-48.8 159.75,-48.8 159.75,-84.8"/>
<text text-anchor="middle" x="92" y="-62.6" font-family="Times,serif" font-size="14.00">OrderListComponent</text>
</g>
<!-- OrderListComponent&#45;&gt;OrdersModule -->
<g id="edge2" class="edge">
<title>OrderListComponent&#45;&gt;OrdersModule</title>
<path fill="none" stroke="black" d="M92,-84.81C92,-107.29 92,-142.8 92,-142.8 92,-142.8 573.13,-142.8 573.13,-142.8"/>
<polygon fill="black" stroke="black" points="573.13,-146.3 583.13,-142.8 573.13,-139.3 573.13,-146.3"/>
</g>
<!-- AlertModule -->
<g id="node4" class="node">
<title>AlertModule</title>
<polygon fill="#8dd3c7" stroke="black" points="1275.31,-84.8 1272.31,-88.8 1251.31,-88.8 1248.31,-84.8 1186.69,-84.8 1186.69,-48.8 1275.31,-48.8 1275.31,-84.8"/>
<text text-anchor="middle" x="1231" y="-62.6" font-family="Times,serif" font-size="14.00">AlertModule</text>
</g>
<!-- AlertModule&#45;&gt;OrdersModule -->
<g id="edge3" class="edge">
<title>AlertModule&#45;&gt;OrdersModule</title>
<path fill="none" stroke="black" d="M1231,-84.81C1231,-107.29 1231,-142.8 1231,-142.8 1231,-142.8 690.76,-142.8 690.76,-142.8"/>
<polygon fill="black" stroke="black" points="690.76,-139.3 680.76,-142.8 690.76,-146.3 690.76,-139.3"/>
</g>
<!-- DataFilterModule -->
<g id="node5" class="node">
<title>DataFilterModule</title>
<polygon fill="#8dd3c7" stroke="black" points="1169.31,-84.8 1166.31,-88.8 1145.31,-88.8 1142.31,-84.8 1052.69,-84.8 1052.69,-48.8 1169.31,-48.8 1169.31,-84.8"/>
<text text-anchor="middle" x="1111" y="-62.6" font-family="Times,serif" font-size="14.00">DataFilterModule</text>
</g>
<!-- DataFilterModule&#45;&gt;OrdersModule -->
<g id="edge4" class="edge">
<title>DataFilterModule&#45;&gt;OrdersModule</title>
<path fill="none" stroke="black" d="M1111,-84.93C1111,-105.37 1111,-135.8 1111,-135.8 1111,-135.8 691.01,-135.8 691.01,-135.8"/>
<polygon fill="black" stroke="black" points="691.01,-132.3 681.01,-135.8 691.01,-139.3 691.01,-132.3"/>
</g>
<!-- LineItemTableRowModule -->
<g id="node6" class="node">
<title>LineItemTableRowModule</title>
<polygon fill="#8dd3c7" stroke="black" points="1034.68,-84.8 1031.68,-88.8 1010.68,-88.8 1007.68,-84.8 865.32,-84.8 865.32,-48.8 1034.68,-48.8 1034.68,-84.8"/>
<text text-anchor="middle" x="950" y="-62.6" font-family="Times,serif" font-size="14.00">LineItemTableRowModule</text>
</g>
<!-- LineItemTableRowModule&#45;&gt;OrdersModule -->
<g id="edge5" class="edge">
<title>LineItemTableRowModule&#45;&gt;OrdersModule</title>
<path fill="none" stroke="black" d="M950,-85.07C950,-103.36 950,-128.8 950,-128.8 950,-128.8 690.64,-128.8 690.64,-128.8"/>
<polygon fill="black" stroke="black" points="690.64,-125.3 680.64,-128.8 690.64,-132.3 690.64,-125.3"/>
</g>
<!-- OrdersRoutingModule -->
<g id="node7" class="node">
<title>OrdersRoutingModule</title>
<polygon fill="#8dd3c7" stroke="black" points="847.25,-84.8 844.25,-88.8 823.25,-88.8 820.25,-84.8 704.75,-84.8 704.75,-48.8 847.25,-48.8 847.25,-84.8"/>
<text text-anchor="middle" x="776" y="-62.6" font-family="Times,serif" font-size="14.00">OrdersRoutingModule</text>
</g>
<!-- OrdersRoutingModule&#45;&gt;OrdersModule -->
<g id="edge6" class="edge">
<title>OrdersRoutingModule&#45;&gt;OrdersModule</title>
<path fill="none" stroke="black" d="M776,-84.81C776,-100.85 776,-121.8 776,-121.8 776,-121.8 690.75,-121.8 690.75,-121.8"/>
<polygon fill="black" stroke="black" points="690.75,-118.3 680.75,-121.8 690.75,-125.3 690.75,-118.3"/>
</g>
<!-- PaymentModule -->
<g id="node8" class="node">
<title>PaymentModule</title>
<polygon fill="#8dd3c7" stroke="black" points="686.04,-84.8 683.04,-88.8 662.04,-88.8 659.04,-84.8 577.96,-84.8 577.96,-48.8 686.04,-48.8 686.04,-84.8"/>
<text text-anchor="middle" x="632" y="-62.6" font-family="Times,serif" font-size="14.00">PaymentModule</text>
</g>
<!-- PaymentModule&#45;&gt;OrdersModule -->
<g id="edge7" class="edge">
<title>PaymentModule&#45;&gt;OrdersModule</title>
<path fill="none" stroke="black" d="M632,-84.91C632,-84.91 632,-103.79 632,-103.79"/>
<polygon fill="black" stroke="black" points="628.5,-103.79 632,-113.79 635.5,-103.79 628.5,-103.79"/>
</g>
<!-- PricingModule -->
<g id="node9" class="node">
<title>PricingModule</title>
<polygon fill="#8dd3c7" stroke="black" points="559.99,-84.8 556.99,-88.8 535.99,-88.8 532.99,-84.8 460.01,-84.8 460.01,-48.8 559.99,-48.8 559.99,-84.8"/>
<text text-anchor="middle" x="510" y="-62.6" font-family="Times,serif" font-size="14.00">PricingModule</text>
</g>
<!-- PricingModule&#45;&gt;OrdersModule -->
<g id="edge8" class="edge">
<title>PricingModule&#45;&gt;OrdersModule</title>
<path fill="none" stroke="black" d="M510,-84.81C510,-100.85 510,-121.8 510,-121.8 510,-121.8 573.08,-121.8 573.08,-121.8"/>
<polygon fill="black" stroke="black" points="573.08,-125.3 583.08,-121.8 573.08,-118.3 573.08,-125.3"/>
</g>
<!-- TableModule -->
<g id="node10" class="node">
<title>TableModule</title>
<polygon fill="#8dd3c7" stroke="black" points="441.92,-84.8 438.92,-88.8 417.92,-88.8 414.92,-84.8 350.08,-84.8 350.08,-48.8 441.92,-48.8 441.92,-84.8"/>
<text text-anchor="middle" x="396" y="-62.6" font-family="Times,serif" font-size="14.00">TableModule</text>
</g>
<!-- TableModule&#45;&gt;OrdersModule -->
<g id="edge9" class="edge">
<title>TableModule&#45;&gt;OrdersModule</title>
<path fill="none" stroke="black" d="M396,-85.07C396,-103.36 396,-128.8 396,-128.8 396,-128.8 573.1,-128.8 573.1,-128.8"/>
<polygon fill="black" stroke="black" points="573.1,-132.3 583.1,-128.8 573.1,-125.3 573.1,-132.3"/>
</g>
</g>
</svg>
