<?xml version="1.0" encoding="UTF-8" standalone="no"?>
<!DOCTYPE svg PUBLIC "-//W3C//DTD SVG 1.1//EN"
 "http://www.w3.org/Graphics/SVG/1.1/DTD/svg11.dtd">
<!-- Generated by graphviz version 2.47.3 (20210619.1520)
 -->
<!-- Title: dependencies Pages: 1 -->
<svg width="1307pt" height="174pt"
 viewBox="0.00 0.00 1307.00 173.80" xmlns="http://www.w3.org/2000/svg" xmlns:xlink="http://www.w3.org/1999/xlink">
<g id="graph0" class="graph" transform="scale(1 1) rotate(0) translate(4 169.8)">
<title>dependencies</title>
<polygon fill="white" stroke="transparent" points="-4,4 -4,-169.8 1303,-169.8 1303,4 -4,4"/>
<text text-anchor="middle" x="649.5" y="-8.2" font-family="sans-serif" font-size="14.00">dependencies</text>
<g id="clust1" class="cluster">
<title>cluster_OrdersModule</title>
<polygon fill="none" stroke="black" stroke-dasharray="1,5" points="8,-32.8 8,-157.8 1291,-157.8 1291,-32.8 8,-32.8"/>
</g>
<g id="clust2" class="cluster">
<title>cluster_OrdersModule_declarations</title>
<polygon fill="none" stroke="black" points="965,-40.8 965,-92.8 1283,-92.8 1283,-40.8 965,-40.8"/>
</g>
<g id="clust5" class="cluster">
<title>cluster_OrdersModule_imports</title>
<polygon fill="none" stroke="black" points="16,-40.8 16,-92.8 957,-92.8 957,-40.8 16,-40.8"/>
</g>
<!-- OrderDetailComponent -->
<g id="node1" class="node">
<title>OrderDetailComponent</title>
<polygon fill="#ffffb3" stroke="black" points="1275.18,-84.8 1126.82,-84.8 1126.82,-48.8 1275.18,-48.8 1275.18,-84.8"/>
<text text-anchor="middle" x="1201" y="-62.6" font-family="Times,serif" font-size="14.00">OrderDetailComponent</text>
</g>
<!-- OrdersModule -->
<g id="node3" class="node">
<title>OrdersModule</title>
<polygon fill="#8dd3c7" stroke="black" points="672.64,-149.8 669.64,-153.8 648.64,-153.8 645.64,-149.8 575.36,-149.8 575.36,-113.8 672.64,-113.8 672.64,-149.8"/>
<text text-anchor="middle" x="624" y="-127.6" font-family="Times,serif" font-size="14.00">OrdersModule</text>
</g>
<!-- OrderDetailComponent&#45;&gt;OrdersModule -->
<g id="edge1" class="edge">
<title>OrderDetailComponent&#45;&gt;OrdersModule</title>
<path fill="none" stroke="black" d="M1201,-84.81C1201,-107.29 1201,-142.8 1201,-142.8 1201,-142.8 682.7,-142.8 682.7,-142.8"/>
<polygon fill="black" stroke="black" points="682.7,-139.3 672.7,-142.8 682.7,-146.3 682.7,-139.3"/>
</g>
<!-- OrderListComponent -->
<g id="node2" class="node">
<title>OrderListComponent</title>
<polygon fill="#ffffb3" stroke="black" points="1108.75,-84.8 973.25,-84.8 973.25,-48.8 1108.75,-48.8 1108.75,-84.8"/>
<text text-anchor="middle" x="1041" y="-62.6" font-family="Times,serif" font-size="14.00">OrderListComponent</text>
</g>
<!-- OrderListComponent&#45;&gt;OrdersModule -->
<g id="edge2" class="edge">
<title>OrderListComponent&#45;&gt;OrdersModule</title>
<path fill="none" stroke="black" d="M1041,-84.93C1041,-105.37 1041,-135.8 1041,-135.8 1041,-135.8 682.65,-135.8 682.65,-135.8"/>
<polygon fill="black" stroke="black" points="682.65,-132.3 672.65,-135.8 682.65,-139.3 682.65,-132.3"/>
</g>
<!-- AlertModule -->
<g id="node4" class="node">
<title>AlertModule</title>
<polygon fill="#8dd3c7" stroke="black" points="949.31,-84.8 946.31,-88.8 925.31,-88.8 922.31,-84.8 860.69,-84.8 860.69,-48.8 949.31,-48.8 949.31,-84.8"/>
<text text-anchor="middle" x="905" y="-62.6" font-family="Times,serif" font-size="14.00">AlertModule</text>
</g>
<!-- AlertModule&#45;&gt;OrdersModule -->
<g id="edge3" class="edge">
<title>AlertModule&#45;&gt;OrdersModule</title>
<path fill="none" stroke="black" d="M905,-85.07C905,-103.36 905,-128.8 905,-128.8 905,-128.8 682.95,-128.8 682.95,-128.8"/>
<polygon fill="black" stroke="black" points="682.95,-125.3 672.95,-128.8 682.95,-132.3 682.95,-125.3"/>
</g>
<!-- DataFilterModule -->
<g id="node5" class="node">
<title>DataFilterModule</title>
<polygon fill="#8dd3c7" stroke="black" points="843.31,-84.8 840.31,-88.8 819.31,-88.8 816.31,-84.8 726.69,-84.8 726.69,-48.8 843.31,-48.8 843.31,-84.8"/>
<text text-anchor="middle" x="785" y="-62.6" font-family="Times,serif" font-size="14.00">DataFilterModule</text>
</g>
<!-- DataFilterModule&#45;&gt;OrdersModule -->
<g id="edge4" class="edge">
<title>DataFilterModule&#45;&gt;OrdersModule</title>
<path fill="none" stroke="black" d="M785,-84.81C785,-100.85 785,-121.8 785,-121.8 785,-121.8 682.74,-121.8 682.74,-121.8"/>
<polygon fill="black" stroke="black" points="682.74,-118.3 672.74,-121.8 682.74,-125.3 682.74,-118.3"/>
</g>
<!-- LineItemTableRowModule -->
<g id="node6" class="node">
<title>LineItemTableRowModule</title>
<polygon fill="#8dd3c7" stroke="black" points="708.68,-84.8 705.68,-88.8 684.68,-88.8 681.68,-84.8 539.32,-84.8 539.32,-48.8 708.68,-48.8 708.68,-84.8"/>
<text text-anchor="middle" x="624" y="-62.6" font-family="Times,serif" font-size="14.00">LineItemTableRowModule</text>
</g>
<!-- LineItemTableRowModule&#45;&gt;OrdersModule -->
<g id="edge5" class="edge">
<title>LineItemTableRowModule&#45;&gt;OrdersModule</title>
<path fill="none" stroke="black" d="M624,-84.91C624,-84.91 624,-103.79 624,-103.79"/>
<polygon fill="black" stroke="black" points="620.5,-103.79 624,-113.79 627.5,-103.79 620.5,-103.79"/>
</g>
<!-- OrdersRoutingModule -->
<g id="node7" class="node">
<title>OrdersRoutingModule</title>
<polygon fill="#8dd3c7" stroke="black" points="521.25,-84.8 518.25,-88.8 497.25,-88.8 494.25,-84.8 378.75,-84.8 378.75,-48.8 521.25,-48.8 521.25,-84.8"/>
<text text-anchor="middle" x="450" y="-62.6" font-family="Times,serif" font-size="14.00">OrdersRoutingModule</text>
</g>
<!-- OrdersRoutingModule&#45;&gt;OrdersModule -->
<g id="edge6" class="edge">
<title>OrdersRoutingModule&#45;&gt;OrdersModule</title>
<path fill="none" stroke="black" d="M450,-84.81C450,-100.85 450,-121.8 450,-121.8 450,-121.8 565.07,-121.8 565.07,-121.8"/>
<polygon fill="black" stroke="black" points="565.07,-125.3 575.07,-121.8 565.07,-118.3 565.07,-125.3"/>
</g>
<!-- PaymentModule -->
<g id="node8" class="node">
<title>PaymentModule</title>
<polygon fill="#8dd3c7" stroke="black" points="360.04,-84.8 357.04,-88.8 336.04,-88.8 333.04,-84.8 251.96,-84.8 251.96,-48.8 360.04,-48.8 360.04,-84.8"/>
<text text-anchor="middle" x="306" y="-62.6" font-family="Times,serif" font-size="14.00">PaymentModule</text>
</g>
<!-- PaymentModule&#45;&gt;OrdersModule -->
<g id="edge7" class="edge">
<title>PaymentModule&#45;&gt;OrdersModule</title>
<path fill="none" stroke="black" d="M306,-85.07C306,-103.36 306,-128.8 306,-128.8 306,-128.8 565.36,-128.8 565.36,-128.8"/>
<polygon fill="black" stroke="black" points="565.36,-132.3 575.36,-128.8 565.36,-125.3 565.36,-132.3"/>
</g>
<!-- PricingModule -->
<g id="node9" class="node">
<title>PricingModule</title>
<polygon fill="#8dd3c7" stroke="black" points="233.99,-84.8 230.99,-88.8 209.99,-88.8 206.99,-84.8 134.01,-84.8 134.01,-48.8 233.99,-48.8 233.99,-84.8"/>
<text text-anchor="middle" x="184" y="-62.6" font-family="Times,serif" font-size="14.00">PricingModule</text>
</g>
<!-- PricingModule&#45;&gt;OrdersModule -->
<g id="edge8" class="edge">
<title>PricingModule&#45;&gt;OrdersModule</title>
<path fill="none" stroke="black" d="M184,-84.93C184,-105.37 184,-135.8 184,-135.8 184,-135.8 565.23,-135.8 565.23,-135.8"/>
<polygon fill="black" stroke="black" points="565.23,-139.3 575.23,-135.8 565.23,-132.3 565.23,-139.3"/>
</g>
<!-- TableModule -->
<g id="node10" class="node">
<title>TableModule</title>
<polygon fill="#8dd3c7" stroke="black" points="115.92,-84.8 112.92,-88.8 91.92,-88.8 88.92,-84.8 24.08,-84.8 24.08,-48.8 115.92,-48.8 115.92,-84.8"/>
<text text-anchor="middle" x="70" y="-62.6" font-family="Times,serif" font-size="14.00">TableModule</text>
</g>
<!-- TableModule&#45;&gt;OrdersModule -->
<g id="edge9" class="edge">
<title>TableModule&#45;&gt;OrdersModule</title>
<path fill="none" stroke="black" d="M70,-84.81C70,-107.29 70,-142.8 70,-142.8 70,-142.8 565.32,-142.8 565.32,-142.8"/>
<polygon fill="black" stroke="black" points="565.32,-146.3 575.32,-142.8 565.32,-139.3 565.32,-146.3"/>
</g>
</g>
</svg>
