<?xml version="1.0" encoding="UTF-8" standalone="no"?>
<!DOCTYPE svg PUBLIC "-//W3C//DTD SVG 1.1//EN"
 "http://www.w3.org/Graphics/SVG/1.1/DTD/svg11.dtd">
<!-- Generated by graphviz version 2.47.3 (20210619.1520)
 -->
<!-- Title: dependencies Pages: 1 -->
<svg width="633pt" height="174pt"
 viewBox="0.00 0.00 633.00 173.80" xmlns="http://www.w3.org/2000/svg" xmlns:xlink="http://www.w3.org/1999/xlink">
<g id="graph0" class="graph" transform="scale(1 1) rotate(0) translate(4 169.8)">
<title>dependencies</title>
<polygon fill="white" stroke="transparent" points="-4,4 -4,-169.8 629,-169.8 629,4 -4,4"/>
<text text-anchor="middle" x="312.5" y="-8.2" font-family="sans-serif" font-size="14.00">dependencies</text>
<g id="clust1" class="cluster">
<title>cluster_DashboardModule</title>
<polygon fill="none" stroke="black" stroke-dasharray="1,5" points="8,-32.8 8,-157.8 617,-157.8 617,-32.8 8,-32.8"/>
</g>
<g id="clust2" class="cluster">
<title>cluster_DashboardModule_declarations</title>
<polygon fill="none" stroke="black" points="421,-40.8 421,-92.8 609,-92.8 609,-40.8 421,-40.8"/>
</g>
<g id="clust4" class="cluster">
<title>cluster_DashboardModule_imports</title>
<polygon fill="none" stroke="black" points="16,-40.8 16,-92.8 413,-92.8 413,-40.8 16,-40.8"/>
</g>
<!-- DashboardViewComponent -->
<g id="node1" class="node">
<title>DashboardViewComponent</title>
<polygon fill="#ffffb3" stroke="black" points="601.29,-84.8 428.71,-84.8 428.71,-48.8 601.29,-48.8 601.29,-84.8"/>
<text text-anchor="middle" x="515" y="-62.6" font-family="Times,serif" font-size="14.00">DashboardViewComponent</text>
</g>
<!-- DashboardModule -->
<g id="node2" class="node">
<title>DashboardModule</title>
<polygon fill="#8dd3c7" stroke="black" points="348.19,-149.8 345.19,-153.8 324.19,-153.8 321.19,-149.8 227.81,-149.8 227.81,-113.8 348.19,-113.8 348.19,-149.8"/>
<text text-anchor="middle" x="288" y="-127.6" font-family="Times,serif" font-size="14.00">DashboardModule</text>
</g>
<!-- DashboardViewComponent&#45;&gt;DashboardModule -->
<g id="edge1" class="edge">
<title>DashboardViewComponent&#45;&gt;DashboardModule</title>
<path fill="none" stroke="black" d="M515,-84.91C515,-104.14 515,-131.8 515,-131.8 515,-131.8 358.24,-131.8 358.24,-131.8"/>
<polygon fill="black" stroke="black" points="358.24,-128.3 348.24,-131.8 358.24,-135.3 358.24,-128.3"/>
</g>
<!-- AlertModule -->
<g id="node3" class="node">
<title>AlertModule</title>
<polygon fill="#8dd3c7" stroke="black" points="405.31,-84.8 402.31,-88.8 381.31,-88.8 378.31,-84.8 316.69,-84.8 316.69,-48.8 405.31,-48.8 405.31,-84.8"/>
<text text-anchor="middle" x="361" y="-62.6" font-family="Times,serif" font-size="14.00">AlertModule</text>
</g>
<!-- AlertModule&#45;&gt;DashboardModule -->
<g id="edge2" class="edge">
<title>AlertModule&#45;&gt;DashboardModule</title>
<path fill="none" stroke="black" d="M332.47,-84.91C332.47,-84.91 332.47,-103.79 332.47,-103.79"/>
<polygon fill="black" stroke="black" points="328.97,-103.79 332.47,-113.79 335.97,-103.79 328.97,-103.79"/>
</g>
<!-- DashboardRoutingModule -->
<g id="node4" class="node">
<title>DashboardRoutingModule</title>
<polygon fill="#8dd3c7" stroke="black" points="298.81,-84.8 295.81,-88.8 274.81,-88.8 271.81,-84.8 133.19,-84.8 133.19,-48.8 298.81,-48.8 298.81,-84.8"/>
<text text-anchor="middle" x="216" y="-62.6" font-family="Times,serif" font-size="14.00">DashboardRoutingModule</text>
</g>
<!-- DashboardRoutingModule&#45;&gt;DashboardModule -->
<g id="edge3" class="edge">
<title>DashboardRoutingModule&#45;&gt;DashboardModule</title>
<path fill="none" stroke="black" d="M263.28,-84.91C263.28,-84.91 263.28,-103.79 263.28,-103.79"/>
<polygon fill="black" stroke="black" points="259.78,-103.79 263.28,-113.79 266.78,-103.79 259.78,-103.79"/>
</g>
<!-- TableModule -->
<g id="node5" class="node">
<title>TableModule</title>
<polygon fill="#8dd3c7" stroke="black" points="115.92,-84.8 112.92,-88.8 91.92,-88.8 88.92,-84.8 24.08,-84.8 24.08,-48.8 115.92,-48.8 115.92,-84.8"/>
<text text-anchor="middle" x="70" y="-62.6" font-family="Times,serif" font-size="14.00">TableModule</text>
</g>
<!-- TableModule&#45;&gt;DashboardModule -->
<g id="edge4" class="edge">
<title>TableModule&#45;&gt;DashboardModule</title>
<path fill="none" stroke="black" d="M70,-84.91C70,-104.14 70,-131.8 70,-131.8 70,-131.8 217.85,-131.8 217.85,-131.8"/>
<polygon fill="black" stroke="black" points="217.85,-135.3 227.85,-131.8 217.85,-128.3 217.85,-135.3"/>
</g>
</g>
</svg>
