<?xml version="1.0" encoding="UTF-8" standalone="no"?>
<!DOCTYPE svg PUBLIC "-//W3C//DTD SVG 1.1//EN"
 "http://www.w3.org/Graphics/SVG/1.1/DTD/svg11.dtd">
<!-- Generated by graphviz version 2.47.3 (20210619.1520)
 -->
<!-- Title: dependencies Pages: 1 -->
<svg width="1184pt" height="247pt"
 viewBox="0.00 0.00 1184.00 246.80" xmlns="http://www.w3.org/2000/svg" xmlns:xlink="http://www.w3.org/1999/xlink">
<g id="graph0" class="graph" transform="scale(1 1) rotate(0) translate(4 242.8)">
<title>dependencies</title>
<polygon fill="white" stroke="transparent" points="-4,4 -4,-242.8 1180,-242.8 1180,4 -4,4"/>
<text text-anchor="middle" x="588" y="-8.2" font-family="sans-serif" font-size="14.00">dependencies</text>
<g id="clust1" class="cluster">
<title>cluster_InputDateModule</title>
<polygon fill="none" stroke="black" stroke-dasharray="1,5" points="8,-32.8 8,-230.8 1168,-230.8 1168,-32.8 8,-32.8"/>
</g>
<g id="clust4" class="cluster">
<title>cluster_InputDateModule_imports</title>
<polygon fill="none" stroke="black" points="178,-40.8 178,-92.8 1160,-92.8 1160,-40.8 178,-40.8"/>
</g>
<g id="clust2" class="cluster">
<title>cluster_InputDateModule_declarations</title>
<polygon fill="none" stroke="black" points="16,-40.8 16,-92.8 170,-92.8 170,-40.8 16,-40.8"/>
</g>
<g id="clust5" class="cluster">
<title>cluster_InputDateModule_exports</title>
<polygon fill="none" stroke="black" points="540,-170.8 540,-222.8 696,-222.8 696,-170.8 540,-170.8"/>
</g>
<!-- InputDateComponent -->
<g id="node1" class="node">
<title>InputDateComponent</title>
<polygon fill="#ffffb3" stroke="black" points="161.81,-84.8 24.19,-84.8 24.19,-48.8 161.81,-48.8 161.81,-84.8"/>
<text text-anchor="middle" x="93" y="-62.6" font-family="Times,serif" font-size="14.00">InputDateComponent</text>
</g>
<!-- InputDateModule -->
<g id="node2" class="node">
<title>InputDateModule</title>
<polygon fill="#8dd3c7" stroke="black" points="675.53,-149.8 672.53,-153.8 651.53,-153.8 648.53,-149.8 560.47,-149.8 560.47,-113.8 675.53,-113.8 675.53,-149.8"/>
<text text-anchor="middle" x="618" y="-127.6" font-family="Times,serif" font-size="14.00">InputDateModule</text>
</g>
<!-- InputDateComponent&#45;&gt;InputDateModule -->
<g id="edge1" class="edge">
<title>InputDateComponent&#45;&gt;InputDateModule</title>
<path fill="none" stroke="black" d="M93,-85.09C93,-107.01 93,-140.8 93,-140.8 93,-140.8 550.31,-140.8 550.31,-140.8"/>
<polygon fill="black" stroke="black" points="550.31,-144.3 560.31,-140.8 550.31,-137.3 550.31,-144.3"/>
</g>
<!-- InputDateComponent  -->
<g id="node9" class="node">
<title>InputDateComponent </title>
<polygon fill="#fb8072" stroke="black" points="688.31,-214.8 547.69,-214.8 547.69,-178.8 688.31,-178.8 688.31,-214.8"/>
<text text-anchor="middle" x="618" y="-192.6" font-family="Times,serif" font-size="14.00">InputDateComponent </text>
</g>
<!-- InputDateModule&#45;&gt;InputDateComponent  -->
<g id="edge8" class="edge">
<title>InputDateModule&#45;&gt;InputDateComponent </title>
<path fill="none" stroke="black" stroke-dasharray="5,2" d="M618,-149.91C618,-149.91 618,-168.79 618,-168.79"/>
<polygon fill="black" stroke="black" points="614.5,-168.79 618,-178.79 621.5,-168.79 614.5,-168.79"/>
</g>
<!-- CommonModule -->
<g id="node3" class="node">
<title>CommonModule</title>
<polygon fill="#8dd3c7" stroke="black" points="1151.67,-84.8 1148.67,-88.8 1127.67,-88.8 1124.67,-84.8 1040.33,-84.8 1040.33,-48.8 1151.67,-48.8 1151.67,-84.8"/>
<text text-anchor="middle" x="1096" y="-62.6" font-family="Times,serif" font-size="14.00">CommonModule</text>
</g>
<!-- CommonModule&#45;&gt;InputDateModule -->
<g id="edge2" class="edge">
<title>CommonModule&#45;&gt;InputDateModule</title>
<path fill="none" stroke="black" d="M1096,-85.09C1096,-107.01 1096,-140.8 1096,-140.8 1096,-140.8 685.66,-140.8 685.66,-140.8"/>
<polygon fill="black" stroke="black" points="685.66,-137.3 675.66,-140.8 685.66,-144.3 685.66,-137.3"/>
</g>
<!-- FormsModule -->
<g id="node4" class="node">
<title>FormsModule</title>
<polygon fill="#8dd3c7" stroke="black" points="1022.83,-84.8 1019.83,-88.8 998.83,-88.8 995.83,-84.8 927.17,-84.8 927.17,-48.8 1022.83,-48.8 1022.83,-84.8"/>
<text text-anchor="middle" x="975" y="-62.6" font-family="Times,serif" font-size="14.00">FormsModule</text>
</g>
<!-- FormsModule&#45;&gt;InputDateModule -->
<g id="edge3" class="edge">
<title>FormsModule&#45;&gt;InputDateModule</title>
<path fill="none" stroke="black" d="M975,-84.91C975,-104.14 975,-131.8 975,-131.8 975,-131.8 685.75,-131.8 685.75,-131.8"/>
<polygon fill="black" stroke="black" points="685.76,-128.3 675.75,-131.8 685.75,-135.3 685.76,-128.3"/>
</g>
<!-- DatepickerModule.forRoot() -->
<g id="node5" class="node">
<title>DatepickerModule.forRoot()</title>
<polygon fill="#8dd3c7" stroke="black" points="909.83,-84.8 906.83,-88.8 885.83,-88.8 882.83,-84.8 732.17,-84.8 732.17,-48.8 909.83,-48.8 909.83,-84.8"/>
<text text-anchor="middle" x="821" y="-62.6" font-family="Times,serif" font-size="14.00">DatepickerModule.forRoot()</text>
</g>
<!-- DatepickerModule.forRoot()&#45;&gt;InputDateModule -->
<g id="edge4" class="edge">
<title>DatepickerModule.forRoot()&#45;&gt;InputDateModule</title>
<path fill="none" stroke="black" d="M821,-84.83C821,-101.2 821,-122.8 821,-122.8 821,-122.8 685.63,-122.8 685.63,-122.8"/>
<polygon fill="black" stroke="black" points="685.63,-119.3 675.63,-122.8 685.63,-126.3 685.63,-119.3"/>
</g>
<!-- BsDatepickerModule.forRoot() -->
<g id="node6" class="node">
<title>BsDatepickerModule.forRoot()</title>
<polygon fill="#8dd3c7" stroke="black" points="714.11,-84.8 711.11,-88.8 690.11,-88.8 687.11,-84.8 521.89,-84.8 521.89,-48.8 714.11,-48.8 714.11,-84.8"/>
<text text-anchor="middle" x="618" y="-62.6" font-family="Times,serif" font-size="14.00">BsDatepickerModule.forRoot()</text>
</g>
<!-- BsDatepickerModule.forRoot()&#45;&gt;InputDateModule -->
<g id="edge5" class="edge">
<title>BsDatepickerModule.forRoot()&#45;&gt;InputDateModule</title>
<path fill="none" stroke="black" d="M618,-84.91C618,-84.91 618,-103.79 618,-103.79"/>
<polygon fill="black" stroke="black" points="614.5,-103.79 618,-113.79 621.5,-103.79 614.5,-103.79"/>
</g>
<!-- TranslateModule.forChild() -->
<g id="node7" class="node">
<title>TranslateModule.forChild()</title>
<polygon fill="#8dd3c7" stroke="black" points="503.89,-84.8 500.89,-88.8 479.89,-88.8 476.89,-84.8 332.11,-84.8 332.11,-48.8 503.89,-48.8 503.89,-84.8"/>
<text text-anchor="middle" x="418" y="-62.6" font-family="Times,serif" font-size="14.00">TranslateModule.forChild()</text>
</g>
<!-- TranslateModule.forChild()&#45;&gt;InputDateModule -->
<g id="edge6" class="edge">
<title>TranslateModule.forChild()&#45;&gt;InputDateModule</title>
<path fill="none" stroke="black" d="M418,-84.83C418,-101.2 418,-122.8 418,-122.8 418,-122.8 550.42,-122.8 550.42,-122.8"/>
<polygon fill="black" stroke="black" points="550.42,-126.3 560.42,-122.8 550.42,-119.3 550.42,-126.3"/>
</g>
<!-- OutputFieldModule -->
<g id="node8" class="node">
<title>OutputFieldModule</title>
<polygon fill="#8dd3c7" stroke="black" points="313.72,-84.8 310.72,-88.8 289.72,-88.8 286.72,-84.8 186.28,-84.8 186.28,-48.8 313.72,-48.8 313.72,-84.8"/>
<text text-anchor="middle" x="250" y="-62.6" font-family="Times,serif" font-size="14.00">OutputFieldModule</text>
</g>
<!-- OutputFieldModule&#45;&gt;InputDateModule -->
<g id="edge7" class="edge">
<title>OutputFieldModule&#45;&gt;InputDateModule</title>
<path fill="none" stroke="black" d="M250,-84.91C250,-104.14 250,-131.8 250,-131.8 250,-131.8 550.1,-131.8 550.1,-131.8"/>
<polygon fill="black" stroke="black" points="550.1,-135.3 560.1,-131.8 550.1,-128.3 550.1,-135.3"/>
</g>
</g>
</svg>
