<?xml version="1.0" encoding="UTF-8" standalone="no"?>
<!DOCTYPE svg PUBLIC "-//W3C//DTD SVG 1.1//EN"
 "http://www.w3.org/Graphics/SVG/1.1/DTD/svg11.dtd">
<!-- Generated by graphviz version 2.47.3 (20210619.1520)
 -->
<!-- Title: dependencies Pages: 1 -->
<svg width="534pt" height="174pt"
 viewBox="0.00 0.00 534.00 173.80" xmlns="http://www.w3.org/2000/svg" xmlns:xlink="http://www.w3.org/1999/xlink">
<g id="graph0" class="graph" transform="scale(1 1) rotate(0) translate(4 169.8)">
<title>dependencies</title>
<polygon fill="white" stroke="transparent" points="-4,4 -4,-169.8 530,-169.8 530,4 -4,4"/>
<text text-anchor="middle" x="263" y="-8.2" font-family="sans-serif" font-size="14.00">dependencies</text>
<g id="clust1" class="cluster">
<title>cluster_UserModule</title>
<polygon fill="none" stroke="black" stroke-dasharray="1,5" points="8,-32.8 8,-157.8 518,-157.8 518,-32.8 8,-32.8"/>
</g>
<g id="clust5" class="cluster">
<title>cluster_UserModule_imports</title>
<polygon fill="none" stroke="black" points="362,-40.8 362,-92.8 510,-92.8 510,-40.8 362,-40.8"/>
</g>
<g id="clust2" class="cluster">
<title>cluster_UserModule_declarations</title>
<polygon fill="none" stroke="black" points="16,-40.8 16,-92.8 354,-92.8 354,-40.8 16,-40.8"/>
</g>
<!-- ChangePasswordComponent -->
<g id="node1" class="node">
<title>ChangePasswordComponent</title>
<polygon fill="#ffffb3" stroke="black" points="345.75,-84.8 168.25,-84.8 168.25,-48.8 345.75,-48.8 345.75,-84.8"/>
<text text-anchor="middle" x="257" y="-62.6" font-family="Times,serif" font-size="14.00">ChangePasswordComponent</text>
</g>
<!-- UserModule -->
<g id="node3" class="node">
<title>UserModule</title>
<polygon fill="#8dd3c7" stroke="black" points="299.98,-149.8 296.98,-153.8 275.98,-153.8 272.98,-149.8 214.02,-149.8 214.02,-113.8 299.98,-113.8 299.98,-149.8"/>
<text text-anchor="middle" x="257" y="-127.6" font-family="Times,serif" font-size="14.00">UserModule</text>
</g>
<!-- ChangePasswordComponent&#45;&gt;UserModule -->
<g id="edge1" class="edge">
<title>ChangePasswordComponent&#45;&gt;UserModule</title>
<path fill="none" stroke="black" d="M257,-84.91C257,-84.91 257,-103.79 257,-103.79"/>
<polygon fill="black" stroke="black" points="253.5,-103.79 257,-113.79 260.5,-103.79 253.5,-103.79"/>
</g>
<!-- SettingsComponent -->
<g id="node2" class="node">
<title>SettingsComponent</title>
<polygon fill="#ffffb3" stroke="black" points="150.45,-84.8 23.55,-84.8 23.55,-48.8 150.45,-48.8 150.45,-84.8"/>
<text text-anchor="middle" x="87" y="-62.6" font-family="Times,serif" font-size="14.00">SettingsComponent</text>
</g>
<!-- SettingsComponent&#45;&gt;UserModule -->
<g id="edge2" class="edge">
<title>SettingsComponent&#45;&gt;UserModule</title>
<path fill="none" stroke="black" d="M87,-84.91C87,-104.14 87,-131.8 87,-131.8 87,-131.8 203.66,-131.8 203.66,-131.8"/>
<polygon fill="black" stroke="black" points="203.66,-135.3 213.66,-131.8 203.66,-128.3 203.66,-135.3"/>
</g>
<!-- UserRoutingModule -->
<g id="node4" class="node">
<title>UserRoutingModule</title>
<polygon fill="#8dd3c7" stroke="black" points="501.59,-84.8 498.59,-88.8 477.59,-88.8 474.59,-84.8 370.41,-84.8 370.41,-48.8 501.59,-48.8 501.59,-84.8"/>
<text text-anchor="middle" x="436" y="-62.6" font-family="Times,serif" font-size="14.00">UserRoutingModule</text>
</g>
<!-- UserRoutingModule&#45;&gt;UserModule -->
<g id="edge3" class="edge">
<title>UserRoutingModule&#45;&gt;UserModule</title>
<path fill="none" stroke="black" d="M436,-84.91C436,-104.14 436,-131.8 436,-131.8 436,-131.8 310.33,-131.8 310.33,-131.8"/>
<polygon fill="black" stroke="black" points="310.33,-128.3 300.33,-131.8 310.33,-135.3 310.33,-128.3"/>
</g>
</g>
</svg>
