<?xml version="1.0" encoding="UTF-8" standalone="no"?>
<!DOCTYPE svg PUBLIC "-//W3C//DTD SVG 1.1//EN"
 "http://www.w3.org/Graphics/SVG/1.1/DTD/svg11.dtd">
<!-- Generated by graphviz version 2.47.3 (20210619.1520)
 -->
<!-- Title: dependencies Pages: 1 -->
<svg width="442pt" height="247pt"
 viewBox="0.00 0.00 442.00 246.80" xmlns="http://www.w3.org/2000/svg" xmlns:xlink="http://www.w3.org/1999/xlink">
<g id="graph0" class="graph" transform="scale(1 1) rotate(0) translate(4 242.8)">
<title>dependencies</title>
<polygon fill="white" stroke="transparent" points="-4,4 -4,-242.8 438,-242.8 438,4 -4,4"/>
<text text-anchor="middle" x="217" y="-8.2" font-family="sans-serif" font-size="14.00">dependencies</text>
<g id="clust1" class="cluster">
<title>cluster_IconModule</title>
<polygon fill="none" stroke="black" stroke-dasharray="1,5" points="8,-32.8 8,-230.8 426,-230.8 426,-32.8 8,-32.8"/>
</g>
<g id="clust6" class="cluster">
<title>cluster_IconModule_exports</title>
<polygon fill="none" stroke="black" points="80,-170.8 80,-222.8 354,-222.8 354,-170.8 80,-170.8"/>
</g>
<g id="clust5" class="cluster">
<title>cluster_IconModule_imports</title>
<polygon fill="none" stroke="black" points="290,-40.8 290,-92.8 418,-92.8 418,-40.8 290,-40.8"/>
</g>
<g id="clust2" class="cluster">
<title>cluster_IconModule_declarations</title>
<polygon fill="none" stroke="black" points="16,-40.8 16,-92.8 282,-92.8 282,-40.8 16,-40.8"/>
</g>
<!-- SpinnerComponent -->
<g id="node1" class="node">
<title>SpinnerComponent</title>
<polygon fill="#ffffb3" stroke="black" points="274.38,-84.8 149.62,-84.8 149.62,-48.8 274.38,-48.8 274.38,-84.8"/>
<text text-anchor="middle" x="212" y="-62.6" font-family="Times,serif" font-size="14.00">SpinnerComponent</text>
</g>
<!-- IconModule -->
<g id="node3" class="node">
<title>IconModule</title>
<polygon fill="#8dd3c7" stroke="black" points="254.43,-149.8 251.43,-153.8 230.43,-153.8 227.43,-149.8 169.57,-149.8 169.57,-113.8 254.43,-113.8 254.43,-149.8"/>
<text text-anchor="middle" x="212" y="-127.6" font-family="Times,serif" font-size="14.00">IconModule</text>
</g>
<!-- SpinnerComponent&#45;&gt;IconModule -->
<g id="edge1" class="edge">
<title>SpinnerComponent&#45;&gt;IconModule</title>
<path fill="none" stroke="black" d="M212,-84.91C212,-84.91 212,-103.79 212,-103.79"/>
<polygon fill="black" stroke="black" points="208.5,-103.79 212,-113.79 215.5,-103.79 208.5,-103.79"/>
</g>
<!-- DotsComponent -->
<g id="node2" class="node">
<title>DotsComponent</title>
<polygon fill="#ffffb3" stroke="black" points="131.77,-84.8 24.23,-84.8 24.23,-48.8 131.77,-48.8 131.77,-84.8"/>
<text text-anchor="middle" x="78" y="-62.6" font-family="Times,serif" font-size="14.00">DotsComponent</text>
</g>
<!-- DotsComponent&#45;&gt;IconModule -->
<g id="edge2" class="edge">
<title>DotsComponent&#45;&gt;IconModule</title>
<path fill="none" stroke="black" d="M110.12,-84.91C110.12,-104.14 110.12,-131.8 110.12,-131.8 110.12,-131.8 159.68,-131.8 159.68,-131.8"/>
<polygon fill="black" stroke="black" points="159.68,-135.3 169.68,-131.8 159.68,-128.3 159.68,-135.3"/>
</g>
<!-- SpinnerComponent  -->
<g id="node5" class="node">
<title>SpinnerComponent </title>
<polygon fill="#fb8072" stroke="black" points="346.38,-214.8 217.62,-214.8 217.62,-178.8 346.38,-178.8 346.38,-214.8"/>
<text text-anchor="middle" x="282" y="-192.6" font-family="Times,serif" font-size="14.00">SpinnerComponent </text>
</g>
<!-- IconModule&#45;&gt;SpinnerComponent  -->
<g id="edge4" class="edge">
<title>IconModule&#45;&gt;SpinnerComponent </title>
<path fill="none" stroke="black" stroke-dasharray="5,2" d="M236.01,-149.91C236.01,-149.91 236.01,-168.79 236.01,-168.79"/>
<polygon fill="black" stroke="black" points="232.51,-168.79 236.01,-178.79 239.51,-168.79 232.51,-168.79"/>
</g>
<!-- DotsComponent  -->
<g id="node6" class="node">
<title>DotsComponent </title>
<polygon fill="#fb8072" stroke="black" points="199.77,-214.8 88.23,-214.8 88.23,-178.8 199.77,-178.8 199.77,-214.8"/>
<text text-anchor="middle" x="144" y="-192.6" font-family="Times,serif" font-size="14.00">DotsComponent </text>
</g>
<!-- IconModule&#45;&gt;DotsComponent  -->
<g id="edge5" class="edge">
<title>IconModule&#45;&gt;DotsComponent </title>
<path fill="none" stroke="black" stroke-dasharray="5,2" d="M184.71,-149.91C184.71,-149.91 184.71,-168.79 184.71,-168.79"/>
<polygon fill="black" stroke="black" points="181.21,-168.79 184.71,-178.79 188.21,-168.79 181.21,-168.79"/>
</g>
<!-- CommonModule -->
<g id="node4" class="node">
<title>CommonModule</title>
<polygon fill="#8dd3c7" stroke="black" points="409.67,-84.8 406.67,-88.8 385.67,-88.8 382.67,-84.8 298.33,-84.8 298.33,-48.8 409.67,-48.8 409.67,-84.8"/>
<text text-anchor="middle" x="354" y="-62.6" font-family="Times,serif" font-size="14.00">CommonModule</text>
</g>
<!-- CommonModule&#45;&gt;IconModule -->
<g id="edge3" class="edge">
<title>CommonModule&#45;&gt;IconModule</title>
<path fill="none" stroke="black" d="M322.18,-84.91C322.18,-104.14 322.18,-131.8 322.18,-131.8 322.18,-131.8 264.28,-131.8 264.28,-131.8"/>
<polygon fill="black" stroke="black" points="264.28,-128.3 254.28,-131.8 264.28,-135.3 264.28,-128.3"/>
</g>
</g>
</svg>
