<?xml version="1.0" encoding="UTF-8" standalone="no"?>
<!DOCTYPE svg PUBLIC "-//W3C//DTD SVG 1.1//EN"
 "http://www.w3.org/Graphics/SVG/1.1/DTD/svg11.dtd">
<!-- Generated by graphviz version 2.47.3 (20210619.1520)
 -->
<!-- Title: dependencies Pages: 1 -->
<svg width="1327pt" height="247pt"
 viewBox="0.00 0.00 1327.00 246.80" xmlns="http://www.w3.org/2000/svg" xmlns:xlink="http://www.w3.org/1999/xlink">
<g id="graph0" class="graph" transform="scale(1 1) rotate(0) translate(4 242.8)">
<title>dependencies</title>
<polygon fill="white" stroke="transparent" points="-4,4 -4,-242.8 1323,-242.8 1323,4 -4,4"/>
<text text-anchor="middle" x="659.5" y="-8.2" font-family="sans-serif" font-size="14.00">dependencies</text>
<g id="clust1" class="cluster">
<title>cluster_ProductCardModule</title>
<polygon fill="none" stroke="black" stroke-dasharray="1,5" points="8,-32.8 8,-230.8 1311,-230.8 1311,-32.8 8,-32.8"/>
</g>
<g id="clust5" class="cluster">
<title>cluster_ProductCardModule_imports</title>
<polygon fill="none" stroke="black" points="414,-40.8 414,-92.8 1303,-92.8 1303,-40.8 414,-40.8"/>
</g>
<g id="clust6" class="cluster">
<title>cluster_ProductCardModule_exports</title>
<polygon fill="none" stroke="black" points="565,-170.8 565,-222.8 961,-222.8 961,-170.8 565,-170.8"/>
</g>
<g id="clust2" class="cluster">
<title>cluster_ProductCardModule_declarations</title>
<polygon fill="none" stroke="black" points="16,-40.8 16,-92.8 406,-92.8 406,-40.8 16,-40.8"/>
</g>
<!-- ProductCardComponent -->
<g id="node1" class="node">
<title>ProductCardComponent</title>
<polygon fill="#ffffb3" stroke="black" points="398.09,-84.8 245.91,-84.8 245.91,-48.8 398.09,-48.8 398.09,-84.8"/>
<text text-anchor="middle" x="322" y="-62.6" font-family="Times,serif" font-size="14.00">ProductCardComponent</text>
</g>
<!-- ProductCardModule -->
<g id="node3" class="node">
<title>ProductCardModule</title>
<polygon fill="#8dd3c7" stroke="black" points="840.31,-149.8 837.31,-153.8 816.31,-153.8 813.31,-149.8 709.69,-149.8 709.69,-113.8 840.31,-113.8 840.31,-149.8"/>
<text text-anchor="middle" x="775" y="-127.6" font-family="Times,serif" font-size="14.00">ProductCardModule</text>
</g>
<!-- ProductCardComponent&#45;&gt;ProductCardModule -->
<g id="edge1" class="edge">
<title>ProductCardComponent&#45;&gt;ProductCardModule</title>
<path fill="none" stroke="black" d="M322,-84.91C322,-104.14 322,-131.8 322,-131.8 322,-131.8 699.61,-131.8 699.61,-131.8"/>
<polygon fill="black" stroke="black" points="699.61,-135.3 709.61,-131.8 699.61,-128.3 699.61,-135.3"/>
</g>
<!-- CompareProductCardComponent -->
<g id="node2" class="node">
<title>CompareProductCardComponent</title>
<polygon fill="#ffffb3" stroke="black" points="227.91,-84.8 24.09,-84.8 24.09,-48.8 227.91,-48.8 227.91,-84.8"/>
<text text-anchor="middle" x="126" y="-62.6" font-family="Times,serif" font-size="14.00">CompareProductCardComponent</text>
</g>
<!-- CompareProductCardComponent&#45;&gt;ProductCardModule -->
<g id="edge2" class="edge">
<title>CompareProductCardComponent&#45;&gt;ProductCardModule</title>
<path fill="none" stroke="black" d="M126,-85.09C126,-107.01 126,-140.8 126,-140.8 126,-140.8 699.8,-140.8 699.8,-140.8"/>
<polygon fill="black" stroke="black" points="699.8,-144.3 709.8,-140.8 699.8,-137.3 699.8,-144.3"/>
</g>
<!-- ProductCardComponent  -->
<g id="node11" class="node">
<title>ProductCardComponent </title>
<polygon fill="#fb8072" stroke="black" points="952.59,-214.8 797.41,-214.8 797.41,-178.8 952.59,-178.8 952.59,-214.8"/>
<text text-anchor="middle" x="875" y="-192.6" font-family="Times,serif" font-size="14.00">ProductCardComponent </text>
</g>
<!-- ProductCardModule&#45;&gt;ProductCardComponent  -->
<g id="edge10" class="edge">
<title>ProductCardModule&#45;&gt;ProductCardComponent </title>
<path fill="none" stroke="black" stroke-dasharray="5,2" d="M818.68,-149.91C818.68,-149.91 818.68,-168.79 818.68,-168.79"/>
<polygon fill="black" stroke="black" points="815.18,-168.79 818.68,-178.79 822.18,-168.79 815.18,-168.79"/>
</g>
<!-- CompareProductCardComponent  -->
<g id="node12" class="node">
<title>CompareProductCardComponent </title>
<polygon fill="#fb8072" stroke="black" points="779.41,-214.8 572.59,-214.8 572.59,-178.8 779.41,-178.8 779.41,-214.8"/>
<text text-anchor="middle" x="676" y="-192.6" font-family="Times,serif" font-size="14.00">CompareProductCardComponent </text>
</g>
<!-- ProductCardModule&#45;&gt;CompareProductCardComponent  -->
<g id="edge11" class="edge">
<title>ProductCardModule&#45;&gt;CompareProductCardComponent </title>
<path fill="none" stroke="black" stroke-dasharray="5,2" d="M744.65,-149.91C744.65,-149.91 744.65,-168.79 744.65,-168.79"/>
<polygon fill="black" stroke="black" points="741.15,-168.79 744.65,-178.79 748.15,-168.79 741.15,-168.79"/>
</g>
<!-- CommonModule -->
<g id="node4" class="node">
<title>CommonModule</title>
<polygon fill="#8dd3c7" stroke="black" points="1294.67,-84.8 1291.67,-88.8 1270.67,-88.8 1267.67,-84.8 1183.33,-84.8 1183.33,-48.8 1294.67,-48.8 1294.67,-84.8"/>
<text text-anchor="middle" x="1239" y="-62.6" font-family="Times,serif" font-size="14.00">CommonModule</text>
</g>
<!-- CommonModule&#45;&gt;ProductCardModule -->
<g id="edge3" class="edge">
<title>CommonModule&#45;&gt;ProductCardModule</title>
<path fill="none" stroke="black" d="M1239,-85.09C1239,-107.01 1239,-140.8 1239,-140.8 1239,-140.8 850.5,-140.8 850.5,-140.8"/>
<polygon fill="black" stroke="black" points="850.5,-137.3 840.5,-140.8 850.5,-144.3 850.5,-137.3"/>
</g>
<!-- ButtonModule -->
<g id="node5" class="node">
<title>ButtonModule</title>
<polygon fill="#8dd3c7" stroke="black" points="1164.67,-84.8 1161.67,-88.8 1140.67,-88.8 1137.67,-84.8 1067.33,-84.8 1067.33,-48.8 1164.67,-48.8 1164.67,-84.8"/>
<text text-anchor="middle" x="1116" y="-62.6" font-family="Times,serif" font-size="14.00">ButtonModule</text>
</g>
<!-- ButtonModule&#45;&gt;ProductCardModule -->
<g id="edge4" class="edge">
<title>ButtonModule&#45;&gt;ProductCardModule</title>
<path fill="none" stroke="black" d="M1116,-84.91C1116,-104.14 1116,-131.8 1116,-131.8 1116,-131.8 850.34,-131.8 850.34,-131.8"/>
<polygon fill="black" stroke="black" points="850.34,-128.3 840.34,-131.8 850.34,-135.3 850.34,-128.3"/>
</g>
<!-- PriceModule -->
<g id="node6" class="node">
<title>PriceModule</title>
<polygon fill="#8dd3c7" stroke="black" points="1049.31,-84.8 1046.31,-88.8 1025.31,-88.8 1022.31,-84.8 960.69,-84.8 960.69,-48.8 1049.31,-48.8 1049.31,-84.8"/>
<text text-anchor="middle" x="1005" y="-62.6" font-family="Times,serif" font-size="14.00">PriceModule</text>
</g>
<!-- PriceModule&#45;&gt;ProductCardModule -->
<g id="edge5" class="edge">
<title>PriceModule&#45;&gt;ProductCardModule</title>
<path fill="none" stroke="black" d="M1005,-84.83C1005,-101.2 1005,-122.8 1005,-122.8 1005,-122.8 850.29,-122.8 850.29,-122.8"/>
<polygon fill="black" stroke="black" points="850.29,-119.3 840.29,-122.8 850.29,-126.3 850.29,-119.3"/>
</g>
<!-- TooltipModule -->
<g id="node7" class="node">
<title>TooltipModule</title>
<polygon fill="#8dd3c7" stroke="black" points="942.27,-84.8 939.27,-88.8 918.27,-88.8 915.27,-84.8 841.73,-84.8 841.73,-48.8 942.27,-48.8 942.27,-84.8"/>
<text text-anchor="middle" x="892" y="-62.6" font-family="Times,serif" font-size="14.00">TooltipModule</text>
</g>
<!-- TooltipModule&#45;&gt;ProductCardModule -->
<g id="edge6" class="edge">
<title>TooltipModule&#45;&gt;ProductCardModule</title>
<path fill="none" stroke="black" d="M841.63,-66.8C835.86,-66.8 831.99,-66.8 831.99,-66.8 831.99,-66.8 831.99,-103.69 831.99,-103.69"/>
<polygon fill="black" stroke="black" points="828.49,-103.69 831.99,-113.69 835.49,-103.69 828.49,-103.69"/>
</g>
<!-- RouterModule -->
<g id="node8" class="node">
<title>RouterModule</title>
<polygon fill="#8dd3c7" stroke="black" points="823.65,-84.8 820.65,-88.8 799.65,-88.8 796.65,-84.8 726.35,-84.8 726.35,-48.8 823.65,-48.8 823.65,-84.8"/>
<text text-anchor="middle" x="775" y="-62.6" font-family="Times,serif" font-size="14.00">RouterModule</text>
</g>
<!-- RouterModule&#45;&gt;ProductCardModule -->
<g id="edge7" class="edge">
<title>RouterModule&#45;&gt;ProductCardModule</title>
<path fill="none" stroke="black" d="M775,-84.91C775,-84.91 775,-103.79 775,-103.79"/>
<polygon fill="black" stroke="black" points="771.5,-103.79 775,-113.79 778.5,-103.79 771.5,-103.79"/>
</g>
<!-- ApttusModule -->
<g id="node9" class="node">
<title>ApttusModule</title>
<polygon fill="#8dd3c7" stroke="black" points="708.38,-84.8 705.38,-88.8 684.38,-88.8 681.38,-84.8 611.62,-84.8 611.62,-48.8 708.38,-48.8 708.38,-84.8"/>
<text text-anchor="middle" x="660" y="-62.6" font-family="Times,serif" font-size="14.00">ApttusModule</text>
</g>
<!-- ApttusModule&#45;&gt;ProductCardModule -->
<g id="edge8" class="edge">
<title>ApttusModule&#45;&gt;ProductCardModule</title>
<path fill="none" stroke="black" d="M708.43,-66.8C714.15,-66.8 718.01,-66.8 718.01,-66.8 718.01,-66.8 718.01,-103.69 718.01,-103.69"/>
<polygon fill="black" stroke="black" points="714.51,-103.69 718.01,-113.69 721.51,-103.69 714.51,-103.69"/>
</g>
<!-- TranslateModule.forChild() -->
<g id="node10" class="node">
<title>TranslateModule.forChild()</title>
<polygon fill="#8dd3c7" stroke="black" points="593.89,-84.8 590.89,-88.8 569.89,-88.8 566.89,-84.8 422.11,-84.8 422.11,-48.8 593.89,-48.8 593.89,-84.8"/>
<text text-anchor="middle" x="508" y="-62.6" font-family="Times,serif" font-size="14.00">TranslateModule.forChild()</text>
</g>
<!-- TranslateModule.forChild()&#45;&gt;ProductCardModule -->
<g id="edge9" class="edge">
<title>TranslateModule.forChild()&#45;&gt;ProductCardModule</title>
<path fill="none" stroke="black" d="M583.25,-84.83C583.25,-101.2 583.25,-122.8 583.25,-122.8 583.25,-122.8 699.81,-122.8 699.81,-122.8"/>
<polygon fill="black" stroke="black" points="699.81,-126.3 709.81,-122.8 699.81,-119.3 699.81,-126.3"/>
</g>
</g>
</svg>
