<?xml version="1.0" encoding="UTF-8" standalone="no"?>
<!DOCTYPE svg PUBLIC "-//W3C//DTD SVG 1.1//EN"
 "http://www.w3.org/Graphics/SVG/1.1/DTD/svg11.dtd">
<!-- Generated by graphviz version 2.47.3 (20210619.1520)
 -->
<!-- Title: dependencies Pages: 1 -->
<svg width="1184pt" height="247pt"
 viewBox="0.00 0.00 1184.00 246.80" xmlns="http://www.w3.org/2000/svg" xmlns:xlink="http://www.w3.org/1999/xlink">
<g id="graph0" class="graph" transform="scale(1 1) rotate(0) translate(4 242.8)">
<title>dependencies</title>
<polygon fill="white" stroke="transparent" points="-4,4 -4,-242.8 1180,-242.8 1180,4 -4,4"/>
<text text-anchor="middle" x="588" y="-8.2" font-family="sans-serif" font-size="14.00">dependencies</text>
<g id="clust1" class="cluster">
<title>cluster_PromotionModule</title>
<polygon fill="none" stroke="black" stroke-dasharray="1,5" points="8,-32.8 8,-230.8 1168,-230.8 1168,-32.8 8,-32.8"/>
</g>
<g id="clust5" class="cluster">
<title>cluster_PromotionModule_exports</title>
<polygon fill="none" stroke="black" points="540,-170.8 540,-222.8 700,-222.8 700,-170.8 540,-170.8"/>
</g>
<g id="clust4" class="cluster">
<title>cluster_PromotionModule_imports</title>
<polygon fill="none" stroke="black" points="180,-40.8 180,-92.8 1160,-92.8 1160,-40.8 180,-40.8"/>
</g>
<g id="clust2" class="cluster">
<title>cluster_PromotionModule_declarations</title>
<polygon fill="none" stroke="black" points="16,-40.8 16,-92.8 172,-92.8 172,-40.8 16,-40.8"/>
</g>
<!-- PromotionComponent -->
<g id="node1" class="node">
<title>PromotionComponent</title>
<polygon fill="#ffffb3" stroke="black" points="164.45,-84.8 23.55,-84.8 23.55,-48.8 164.45,-48.8 164.45,-84.8"/>
<text text-anchor="middle" x="94" y="-62.6" font-family="Times,serif" font-size="14.00">PromotionComponent</text>
</g>
<!-- PromotionModule -->
<g id="node2" class="node">
<title>PromotionModule</title>
<polygon fill="#8dd3c7" stroke="black" points="679.17,-149.8 676.17,-153.8 655.17,-153.8 652.17,-149.8 560.83,-149.8 560.83,-113.8 679.17,-113.8 679.17,-149.8"/>
<text text-anchor="middle" x="620" y="-127.6" font-family="Times,serif" font-size="14.00">PromotionModule</text>
</g>
<!-- PromotionComponent&#45;&gt;PromotionModule -->
<g id="edge1" class="edge">
<title>PromotionComponent&#45;&gt;PromotionModule</title>
<path fill="none" stroke="black" d="M94,-85.09C94,-107.01 94,-140.8 94,-140.8 94,-140.8 550.68,-140.8 550.68,-140.8"/>
<polygon fill="black" stroke="black" points="550.68,-144.3 560.68,-140.8 550.68,-137.3 550.68,-144.3"/>
</g>
<!-- PromotionComponent  -->
<g id="node10" class="node">
<title>PromotionComponent </title>
<polygon fill="#fb8072" stroke="black" points="691.95,-214.8 548.05,-214.8 548.05,-178.8 691.95,-178.8 691.95,-214.8"/>
<text text-anchor="middle" x="620" y="-192.6" font-family="Times,serif" font-size="14.00">PromotionComponent </text>
</g>
<!-- PromotionModule&#45;&gt;PromotionComponent  -->
<g id="edge9" class="edge">
<title>PromotionModule&#45;&gt;PromotionComponent </title>
<path fill="none" stroke="black" stroke-dasharray="5,2" d="M620,-149.91C620,-149.91 620,-168.79 620,-168.79"/>
<polygon fill="black" stroke="black" points="616.5,-168.79 620,-178.79 623.5,-168.79 616.5,-168.79"/>
</g>
<!-- CommonModule -->
<g id="node3" class="node">
<title>CommonModule</title>
<polygon fill="#8dd3c7" stroke="black" points="1151.67,-84.8 1148.67,-88.8 1127.67,-88.8 1124.67,-84.8 1040.33,-84.8 1040.33,-48.8 1151.67,-48.8 1151.67,-84.8"/>
<text text-anchor="middle" x="1096" y="-62.6" font-family="Times,serif" font-size="14.00">CommonModule</text>
</g>
<!-- CommonModule&#45;&gt;PromotionModule -->
<g id="edge2" class="edge">
<title>CommonModule&#45;&gt;PromotionModule</title>
<path fill="none" stroke="black" d="M1096,-85.09C1096,-107.01 1096,-140.8 1096,-140.8 1096,-140.8 689.32,-140.8 689.32,-140.8"/>
<polygon fill="black" stroke="black" points="689.32,-137.3 679.32,-140.8 689.32,-144.3 689.32,-137.3"/>
</g>
<!-- PromotionModalModule -->
<g id="node4" class="node">
<title>PromotionModalModule</title>
<polygon fill="#8dd3c7" stroke="black" points="1022.71,-84.8 1019.71,-88.8 998.71,-88.8 995.71,-84.8 867.29,-84.8 867.29,-48.8 1022.71,-48.8 1022.71,-84.8"/>
<text text-anchor="middle" x="945" y="-62.6" font-family="Times,serif" font-size="14.00">PromotionModalModule</text>
</g>
<!-- PromotionModalModule&#45;&gt;PromotionModule -->
<g id="edge3" class="edge">
<title>PromotionModalModule&#45;&gt;PromotionModule</title>
<path fill="none" stroke="black" d="M945,-84.91C945,-104.14 945,-131.8 945,-131.8 945,-131.8 689.23,-131.8 689.23,-131.8"/>
<polygon fill="black" stroke="black" points="689.23,-128.3 679.23,-131.8 689.23,-135.3 689.23,-128.3"/>
</g>
<!-- FormsModule -->
<g id="node5" class="node">
<title>FormsModule</title>
<polygon fill="#8dd3c7" stroke="black" points="849.83,-84.8 846.83,-88.8 825.83,-88.8 822.83,-84.8 754.17,-84.8 754.17,-48.8 849.83,-48.8 849.83,-84.8"/>
<text text-anchor="middle" x="802" y="-62.6" font-family="Times,serif" font-size="14.00">FormsModule</text>
</g>
<!-- FormsModule&#45;&gt;PromotionModule -->
<g id="edge4" class="edge">
<title>FormsModule&#45;&gt;PromotionModule</title>
<path fill="none" stroke="black" d="M802,-84.83C802,-101.2 802,-122.8 802,-122.8 802,-122.8 689.34,-122.8 689.34,-122.8"/>
<polygon fill="black" stroke="black" points="689.34,-119.3 679.34,-122.8 689.34,-126.3 689.34,-119.3"/>
</g>
<!-- PricingModule -->
<g id="node6" class="node">
<title>PricingModule</title>
<polygon fill="#8dd3c7" stroke="black" points="735.99,-84.8 732.99,-88.8 711.99,-88.8 708.99,-84.8 636.01,-84.8 636.01,-48.8 735.99,-48.8 735.99,-84.8"/>
<text text-anchor="middle" x="686" y="-62.6" font-family="Times,serif" font-size="14.00">PricingModule</text>
</g>
<!-- PricingModule&#45;&gt;PromotionModule -->
<g id="edge5" class="edge">
<title>PricingModule&#45;&gt;PromotionModule</title>
<path fill="none" stroke="black" d="M657.67,-84.91C657.67,-84.91 657.67,-103.79 657.67,-103.79"/>
<polygon fill="black" stroke="black" points="654.17,-103.79 657.67,-113.79 661.17,-103.79 654.17,-103.79"/>
</g>
<!-- OutputFieldModule -->
<g id="node7" class="node">
<title>OutputFieldModule</title>
<polygon fill="#8dd3c7" stroke="black" points="617.72,-84.8 614.72,-88.8 593.72,-88.8 590.72,-84.8 490.28,-84.8 490.28,-48.8 617.72,-48.8 617.72,-84.8"/>
<text text-anchor="middle" x="554" y="-62.6" font-family="Times,serif" font-size="14.00">OutputFieldModule</text>
</g>
<!-- OutputFieldModule&#45;&gt;PromotionModule -->
<g id="edge6" class="edge">
<title>OutputFieldModule&#45;&gt;PromotionModule</title>
<path fill="none" stroke="black" d="M589.14,-84.91C589.14,-84.91 589.14,-103.79 589.14,-103.79"/>
<polygon fill="black" stroke="black" points="585.64,-103.79 589.14,-113.79 592.64,-103.79 585.64,-103.79"/>
</g>
<!-- LaddaModule -->
<g id="node8" class="node">
<title>LaddaModule</title>
<polygon fill="#8dd3c7" stroke="black" points="472.03,-84.8 469.03,-88.8 448.03,-88.8 445.03,-84.8 377.97,-84.8 377.97,-48.8 472.03,-48.8 472.03,-84.8"/>
<text text-anchor="middle" x="425" y="-62.6" font-family="Times,serif" font-size="14.00">LaddaModule</text>
</g>
<!-- LaddaModule&#45;&gt;PromotionModule -->
<g id="edge7" class="edge">
<title>LaddaModule&#45;&gt;PromotionModule</title>
<path fill="none" stroke="black" d="M425,-84.83C425,-101.2 425,-122.8 425,-122.8 425,-122.8 550.7,-122.8 550.7,-122.8"/>
<polygon fill="black" stroke="black" points="550.7,-126.3 560.7,-122.8 550.7,-119.3 550.7,-126.3"/>
</g>
<!-- TranslateModule.forChild() -->
<g id="node9" class="node">
<title>TranslateModule.forChild()</title>
<polygon fill="#8dd3c7" stroke="black" points="359.89,-84.8 356.89,-88.8 335.89,-88.8 332.89,-84.8 188.11,-84.8 188.11,-48.8 359.89,-48.8 359.89,-84.8"/>
<text text-anchor="middle" x="274" y="-62.6" font-family="Times,serif" font-size="14.00">TranslateModule.forChild()</text>
</g>
<!-- TranslateModule.forChild()&#45;&gt;PromotionModule -->
<g id="edge8" class="edge">
<title>TranslateModule.forChild()&#45;&gt;PromotionModule</title>
<path fill="none" stroke="black" d="M274,-84.91C274,-104.14 274,-131.8 274,-131.8 274,-131.8 550.52,-131.8 550.52,-131.8"/>
<polygon fill="black" stroke="black" points="550.52,-135.3 560.52,-131.8 550.52,-128.3 550.52,-135.3"/>
</g>
</g>
</svg>
