<?xml version="1.0" encoding="UTF-8" standalone="no"?>
<!DOCTYPE svg PUBLIC "-//W3C//DTD SVG 1.1//EN"
 "http://www.w3.org/Graphics/SVG/1.1/DTD/svg11.dtd">
<!-- Generated by graphviz version 2.47.3 (20210619.1520)
 -->
<!-- Title: dependencies Pages: 1 -->
<svg width="420pt" height="247pt"
 viewBox="0.00 0.00 420.00 246.80" xmlns="http://www.w3.org/2000/svg" xmlns:xlink="http://www.w3.org/1999/xlink">
<g id="graph0" class="graph" transform="scale(1 1) rotate(0) translate(4 242.8)">
<title>dependencies</title>
<polygon fill="white" stroke="transparent" points="-4,4 -4,-242.8 416,-242.8 416,4 -4,4"/>
<text text-anchor="middle" x="206" y="-8.2" font-family="sans-serif" font-size="14.00">dependencies</text>
<g id="clust1" class="cluster">
<title>cluster_PriceModule</title>
<polygon fill="none" stroke="black" stroke-dasharray="1,5" points="8,-32.8 8,-230.8 404,-230.8 404,-32.8 8,-32.8"/>
</g>
<g id="clust2" class="cluster">
<title>cluster_PriceModule_declarations</title>
<polygon fill="none" stroke="black" points="270,-40.8 270,-92.8 396,-92.8 396,-40.8 270,-40.8"/>
</g>
<g id="clust5" class="cluster">
<title>cluster_PriceModule_exports</title>
<polygon fill="none" stroke="black" points="133,-170.8 133,-222.8 263,-222.8 263,-170.8 133,-170.8"/>
</g>
<g id="clust4" class="cluster">
<title>cluster_PriceModule_imports</title>
<polygon fill="none" stroke="black" points="16,-40.8 16,-92.8 262,-92.8 262,-40.8 16,-40.8"/>
</g>
<!-- PriceComponent -->
<g id="node1" class="node">
<title>PriceComponent</title>
<polygon fill="#ffffb3" stroke="black" points="388.1,-84.8 277.9,-84.8 277.9,-48.8 388.1,-48.8 388.1,-84.8"/>
<text text-anchor="middle" x="333" y="-62.6" font-family="Times,serif" font-size="14.00">PriceComponent</text>
</g>
<!-- PriceModule -->
<g id="node2" class="node">
<title>PriceModule</title>
<polygon fill="#8dd3c7" stroke="black" points="242.31,-149.8 239.31,-153.8 218.31,-153.8 215.31,-149.8 153.69,-149.8 153.69,-113.8 242.31,-113.8 242.31,-149.8"/>
<text text-anchor="middle" x="198" y="-127.6" font-family="Times,serif" font-size="14.00">PriceModule</text>
</g>
<!-- PriceComponent&#45;&gt;PriceModule -->
<g id="edge1" class="edge">
<title>PriceComponent&#45;&gt;PriceModule</title>
<path fill="none" stroke="black" d="M333,-84.91C333,-104.14 333,-131.8 333,-131.8 333,-131.8 252.2,-131.8 252.2,-131.8"/>
<polygon fill="black" stroke="black" points="252.2,-128.3 242.2,-131.8 252.2,-135.3 252.2,-128.3"/>
</g>
<!-- PriceComponent  -->
<g id="node5" class="node">
<title>PriceComponent </title>
<polygon fill="#fb8072" stroke="black" points="254.6,-214.8 141.4,-214.8 141.4,-178.8 254.6,-178.8 254.6,-214.8"/>
<text text-anchor="middle" x="198" y="-192.6" font-family="Times,serif" font-size="14.00">PriceComponent </text>
</g>
<!-- PriceModule&#45;&gt;PriceComponent  -->
<g id="edge4" class="edge">
<title>PriceModule&#45;&gt;PriceComponent </title>
<path fill="none" stroke="black" stroke-dasharray="5,2" d="M198,-149.91C198,-149.91 198,-168.79 198,-168.79"/>
<polygon fill="black" stroke="black" points="194.5,-168.79 198,-178.79 201.5,-168.79 194.5,-168.79"/>
</g>
<!-- CommonModule -->
<g id="node3" class="node">
<title>CommonModule</title>
<polygon fill="#8dd3c7" stroke="black" points="253.67,-84.8 250.67,-88.8 229.67,-88.8 226.67,-84.8 142.33,-84.8 142.33,-48.8 253.67,-48.8 253.67,-84.8"/>
<text text-anchor="middle" x="198" y="-62.6" font-family="Times,serif" font-size="14.00">CommonModule</text>
</g>
<!-- CommonModule&#45;&gt;PriceModule -->
<g id="edge2" class="edge">
<title>CommonModule&#45;&gt;PriceModule</title>
<path fill="none" stroke="black" d="M198,-84.91C198,-84.91 198,-103.79 198,-103.79"/>
<polygon fill="black" stroke="black" points="194.5,-103.79 198,-113.79 201.5,-103.79 194.5,-103.79"/>
</g>
<!-- PricingModule -->
<g id="node4" class="node">
<title>PricingModule</title>
<polygon fill="#8dd3c7" stroke="black" points="123.99,-84.8 120.99,-88.8 99.99,-88.8 96.99,-84.8 24.01,-84.8 24.01,-48.8 123.99,-48.8 123.99,-84.8"/>
<text text-anchor="middle" x="74" y="-62.6" font-family="Times,serif" font-size="14.00">PricingModule</text>
</g>
<!-- PricingModule&#45;&gt;PriceModule -->
<g id="edge3" class="edge">
<title>PricingModule&#45;&gt;PriceModule</title>
<path fill="none" stroke="black" d="M74,-84.91C74,-104.14 74,-131.8 74,-131.8 74,-131.8 143.58,-131.8 143.58,-131.8"/>
<polygon fill="black" stroke="black" points="143.58,-135.3 153.58,-131.8 143.58,-128.3 143.58,-135.3"/>
</g>
</g>
</svg>
