<?xml version="1.0" encoding="UTF-8" standalone="no"?>
<!DOCTYPE svg PUBLIC "-//W3C//DTD SVG 1.1//EN"
 "http://www.w3.org/Graphics/SVG/1.1/DTD/svg11.dtd">
<!-- Generated by graphviz version 2.47.3 (20210619.1520)
 -->
<!-- Title: dependencies Pages: 1 -->
<svg width="367pt" height="247pt"
 viewBox="0.00 0.00 367.00 246.80" xmlns="http://www.w3.org/2000/svg" xmlns:xlink="http://www.w3.org/1999/xlink">
<g id="graph0" class="graph" transform="scale(1 1) rotate(0) translate(4 242.8)">
<title>dependencies</title>
<polygon fill="white" stroke="transparent" points="-4,4 -4,-242.8 363,-242.8 363,4 -4,4"/>
<text text-anchor="middle" x="179.5" y="-8.2" font-family="sans-serif" font-size="14.00">dependencies</text>
<g id="clust1" class="cluster">
<title>cluster_FavoriteRoutingModule</title>
<polygon fill="none" stroke="black" stroke-dasharray="1,5" points="8,-32.8 8,-230.8 351,-230.8 351,-32.8 8,-32.8"/>
</g>
<g id="clust3" class="cluster">
<title>cluster_FavoriteRoutingModule_imports</title>
<polygon fill="none" stroke="black" points="16,-40.8 16,-92.8 343,-92.8 343,-40.8 16,-40.8"/>
</g>
<g id="clust4" class="cluster">
<title>cluster_FavoriteRoutingModule_exports</title>
<polygon fill="none" stroke="black" points="132,-170.8 132,-222.8 250,-222.8 250,-170.8 132,-170.8"/>
</g>
<!-- CommonModule -->
<g id="node1" class="node">
<title>CommonModule</title>
<polygon fill="#8dd3c7" stroke="black" points="334.67,-84.8 331.67,-88.8 310.67,-88.8 307.67,-84.8 223.33,-84.8 223.33,-48.8 334.67,-48.8 334.67,-84.8"/>
<text text-anchor="middle" x="279" y="-62.6" font-family="Times,serif" font-size="14.00">CommonModule</text>
</g>
<!-- FavoriteRoutingModule -->
<g id="node3" class="node">
<title>FavoriteRoutingModule</title>
<polygon fill="#8dd3c7" stroke="black" points="266.82,-149.8 263.82,-153.8 242.82,-153.8 239.82,-149.8 115.18,-149.8 115.18,-113.8 266.82,-113.8 266.82,-149.8"/>
<text text-anchor="middle" x="191" y="-127.6" font-family="Times,serif" font-size="14.00">FavoriteRoutingModule</text>
</g>
<!-- CommonModule&#45;&gt;FavoriteRoutingModule -->
<g id="edge1" class="edge">
<title>CommonModule&#45;&gt;FavoriteRoutingModule</title>
<path fill="none" stroke="black" d="M244.91,-84.91C244.91,-84.91 244.91,-103.79 244.91,-103.79"/>
<polygon fill="black" stroke="black" points="241.41,-103.79 244.91,-113.79 248.41,-103.79 241.41,-103.79"/>
</g>
<!-- RouterModule.forChild(args) -->
<g id="node2" class="node">
<title>RouterModule.forChild(args)</title>
<polygon fill="#8dd3c7" stroke="black" points="205.73,-84.8 202.73,-88.8 181.73,-88.8 178.73,-84.8 24.27,-84.8 24.27,-48.8 205.73,-48.8 205.73,-84.8"/>
<text text-anchor="middle" x="115" y="-62.6" font-family="Times,serif" font-size="14.00">RouterModule.forChild(args)</text>
</g>
<!-- RouterModule.forChild(args)&#45;&gt;FavoriteRoutingModule -->
<g id="edge2" class="edge">
<title>RouterModule.forChild(args)&#45;&gt;FavoriteRoutingModule</title>
<path fill="none" stroke="black" d="M160.48,-84.91C160.48,-84.91 160.48,-103.79 160.48,-103.79"/>
<polygon fill="black" stroke="black" points="156.98,-103.79 160.48,-113.79 163.98,-103.79 156.98,-103.79"/>
</g>
<!-- RouterModule  -->
<g id="node4" class="node">
<title>RouterModule </title>
<polygon fill="#fb8072" stroke="black" points="241.65,-214.8 140.35,-214.8 140.35,-178.8 241.65,-178.8 241.65,-214.8"/>
<text text-anchor="middle" x="191" y="-192.6" font-family="Times,serif" font-size="14.00">RouterModule </text>
</g>
<!-- FavoriteRoutingModule&#45;&gt;RouterModule  -->
<g id="edge3" class="edge">
<title>FavoriteRoutingModule&#45;&gt;RouterModule </title>
<path fill="none" stroke="black" stroke-dasharray="5,2" d="M191,-149.91C191,-149.91 191,-168.79 191,-168.79"/>
<polygon fill="black" stroke="black" points="187.5,-168.79 191,-178.79 194.5,-168.79 187.5,-168.79"/>
</g>
</g>
</svg>
