<?xml version="1.0" encoding="UTF-8" standalone="no"?>
<!DOCTYPE svg PUBLIC "-//W3C//DTD SVG 1.1//EN"
 "http://www.w3.org/Graphics/SVG/1.1/DTD/svg11.dtd">
<!-- Generated by graphviz version 2.47.3 (20210619.1520)
 -->
<!-- Title: dependencies Pages: 1 -->
<svg width="3111pt" height="247pt"
 viewBox="0.00 0.00 3111.00 246.80" xmlns="http://www.w3.org/2000/svg" xmlns:xlink="http://www.w3.org/1999/xlink">
<g id="graph0" class="graph" transform="scale(1 1) rotate(0) translate(4 242.8)">
<title>dependencies</title>
<polygon fill="white" stroke="transparent" points="-4,4 -4,-242.8 3107,-242.8 3107,4 -4,4"/>
<text text-anchor="middle" x="1551.5" y="-8.2" font-family="sans-serif" font-size="14.00">dependencies</text>
<g id="clust1" class="cluster">
<title>cluster_DetailsModule</title>
<polygon fill="none" stroke="black" stroke-dasharray="1,5" points="8,-32.8 8,-230.8 3095,-230.8 3095,-32.8 8,-32.8"/>
</g>
<g id="clust2" class="cluster">
<title>cluster_DetailsModule_declarations</title>
<polygon fill="none" stroke="black" points="2735,-40.8 2735,-92.8 3087,-92.8 3087,-40.8 2735,-40.8"/>
</g>
<g id="clust6" class="cluster">
<title>cluster_DetailsModule_exports</title>
<polygon fill="none" stroke="black" points="1543,-170.8 1543,-222.8 1903,-222.8 1903,-170.8 1543,-170.8"/>
</g>
<g id="clust5" class="cluster">
<title>cluster_DetailsModule_imports</title>
<polygon fill="none" stroke="black" points="16,-40.8 16,-92.8 2727,-92.8 2727,-40.8 16,-40.8"/>
</g>
<!-- DetailsLayoutComponent -->
<g id="node1" class="node">
<title>DetailsLayoutComponent</title>
<polygon fill="#ffffb3" stroke="black" points="3079.14,-84.8 2918.86,-84.8 2918.86,-48.8 3079.14,-48.8 3079.14,-84.8"/>
<text text-anchor="middle" x="2999" y="-62.6" font-family="Times,serif" font-size="14.00">DetailsLayoutComponent</text>
</g>
<!-- DetailsModule -->
<g id="node3" class="node">
<title>DetailsModule</title>
<polygon fill="#8dd3c7" stroke="black" points="1771.7,-149.8 1768.7,-153.8 1747.7,-153.8 1744.7,-149.8 1672.3,-149.8 1672.3,-113.8 1771.7,-113.8 1771.7,-149.8"/>
<text text-anchor="middle" x="1722" y="-127.6" font-family="Times,serif" font-size="14.00">DetailsModule</text>
</g>
<!-- DetailsLayoutComponent&#45;&gt;DetailsModule -->
<g id="edge1" class="edge">
<title>DetailsLayoutComponent&#45;&gt;DetailsModule</title>
<path fill="none" stroke="black" d="M2999,-84.95C2999,-108.56 2999,-146.8 2999,-146.8 2999,-146.8 1781.67,-146.8 1781.67,-146.8"/>
<polygon fill="black" stroke="black" points="1781.67,-143.3 1771.67,-146.8 1781.67,-150.3 1781.67,-143.3"/>
</g>
<!-- DetailSectionComponent -->
<g id="node2" class="node">
<title>DetailSectionComponent</title>
<polygon fill="#ffffb3" stroke="black" points="2900.53,-84.8 2743.47,-84.8 2743.47,-48.8 2900.53,-48.8 2900.53,-84.8"/>
<text text-anchor="middle" x="2822" y="-62.6" font-family="Times,serif" font-size="14.00">DetailSectionComponent</text>
</g>
<!-- DetailSectionComponent&#45;&gt;DetailsModule -->
<g id="edge2" class="edge">
<title>DetailSectionComponent&#45;&gt;DetailsModule</title>
<path fill="none" stroke="black" d="M2822,-84.81C2822,-107.29 2822,-142.8 2822,-142.8 2822,-142.8 1781.76,-142.8 1781.76,-142.8"/>
<polygon fill="black" stroke="black" points="1781.76,-139.3 1771.76,-142.8 1781.76,-146.3 1781.76,-139.3"/>
</g>
<!-- DetailsLayoutComponent  -->
<g id="node22" class="node">
<title>DetailsLayoutComponent </title>
<polygon fill="#fb8072" stroke="black" points="1895.14,-214.8 1730.86,-214.8 1730.86,-178.8 1895.14,-178.8 1895.14,-214.8"/>
<text text-anchor="middle" x="1813" y="-192.6" font-family="Times,serif" font-size="14.00">DetailsLayoutComponent </text>
</g>
<!-- DetailsModule&#45;&gt;DetailsLayoutComponent  -->
<g id="edge21" class="edge">
<title>DetailsModule&#45;&gt;DetailsLayoutComponent </title>
<path fill="none" stroke="black" stroke-dasharray="5,2" d="M1751.26,-149.91C1751.26,-149.91 1751.26,-168.79 1751.26,-168.79"/>
<polygon fill="black" stroke="black" points="1747.76,-168.79 1751.26,-178.79 1754.76,-168.79 1747.76,-168.79"/>
</g>
<!-- DetailSectionComponent  -->
<g id="node23" class="node">
<title>DetailSectionComponent </title>
<polygon fill="#fb8072" stroke="black" points="1712.53,-214.8 1551.47,-214.8 1551.47,-178.8 1712.53,-178.8 1712.53,-214.8"/>
<text text-anchor="middle" x="1632" y="-192.6" font-family="Times,serif" font-size="14.00">DetailSectionComponent </text>
</g>
<!-- DetailsModule&#45;&gt;DetailSectionComponent  -->
<g id="edge22" class="edge">
<title>DetailsModule&#45;&gt;DetailSectionComponent </title>
<path fill="none" stroke="black" stroke-dasharray="5,2" d="M1692.46,-149.91C1692.46,-149.91 1692.46,-168.79 1692.46,-168.79"/>
<polygon fill="black" stroke="black" points="1688.96,-168.79 1692.46,-178.79 1695.96,-168.79 1688.96,-168.79"/>
</g>
<!-- CommonModule -->
<g id="node4" class="node">
<title>CommonModule</title>
<polygon fill="#8dd3c7" stroke="black" points="2718.67,-84.8 2715.67,-88.8 2694.67,-88.8 2691.67,-84.8 2607.33,-84.8 2607.33,-48.8 2718.67,-48.8 2718.67,-84.8"/>
<text text-anchor="middle" x="2663" y="-62.6" font-family="Times,serif" font-size="14.00">CommonModule</text>
</g>
<!-- CommonModule&#45;&gt;DetailsModule -->
<g id="edge3" class="edge">
<title>CommonModule&#45;&gt;DetailsModule</title>
<path fill="none" stroke="black" d="M2663,-84.84C2663,-106.46 2663,-139.8 2663,-139.8 2663,-139.8 1781.93,-139.8 1781.93,-139.8"/>
<polygon fill="black" stroke="black" points="1781.93,-136.3 1771.93,-139.8 1781.93,-143.3 1781.93,-136.3"/>
</g>
<!-- BreadcrumbModule -->
<g id="node5" class="node">
<title>BreadcrumbModule</title>
<polygon fill="#8dd3c7" stroke="black" points="2589.24,-84.8 2586.24,-88.8 2565.24,-88.8 2562.24,-84.8 2460.76,-84.8 2460.76,-48.8 2589.24,-48.8 2589.24,-84.8"/>
<text text-anchor="middle" x="2525" y="-62.6" font-family="Times,serif" font-size="14.00">BreadcrumbModule</text>
</g>
<!-- BreadcrumbModule&#45;&gt;DetailsModule -->
<g id="edge4" class="edge">
<title>BreadcrumbModule&#45;&gt;DetailsModule</title>
<path fill="none" stroke="black" d="M2525,-84.93C2525,-105.37 2525,-135.8 2525,-135.8 2525,-135.8 1781.63,-135.8 1781.63,-135.8"/>
<polygon fill="black" stroke="black" points="1781.63,-132.3 1771.63,-135.8 1781.63,-139.3 1781.63,-132.3"/>
</g>
<!-- ApttusModule -->
<g id="node6" class="node">
<title>ApttusModule</title>
<polygon fill="#8dd3c7" stroke="black" points="2442.38,-84.8 2439.38,-88.8 2418.38,-88.8 2415.38,-84.8 2345.62,-84.8 2345.62,-48.8 2442.38,-48.8 2442.38,-84.8"/>
<text text-anchor="middle" x="2394" y="-62.6" font-family="Times,serif" font-size="14.00">ApttusModule</text>
</g>
<!-- ApttusModule&#45;&gt;DetailsModule -->
<g id="edge5" class="edge">
<title>ApttusModule&#45;&gt;DetailsModule</title>
<path fill="none" stroke="black" d="M2394,-84.91C2394,-104.14 2394,-131.8 2394,-131.8 2394,-131.8 1781.69,-131.8 1781.69,-131.8"/>
<polygon fill="black" stroke="black" points="1781.69,-128.3 1771.69,-131.8 1781.69,-135.3 1781.69,-128.3"/>
</g>
<!-- IconModule -->
<g id="node7" class="node">
<title>IconModule</title>
<polygon fill="#8dd3c7" stroke="black" points="2327.43,-84.8 2324.43,-88.8 2303.43,-88.8 2300.43,-84.8 2242.57,-84.8 2242.57,-48.8 2327.43,-48.8 2327.43,-84.8"/>
<text text-anchor="middle" x="2285" y="-62.6" font-family="Times,serif" font-size="14.00">IconModule</text>
</g>
<!-- IconModule&#45;&gt;DetailsModule -->
<g id="edge6" class="edge">
<title>IconModule&#45;&gt;DetailsModule</title>
<path fill="none" stroke="black" d="M2285,-85.07C2285,-103.36 2285,-128.8 2285,-128.8 2285,-128.8 1781.96,-128.8 1781.96,-128.8"/>
<polygon fill="black" stroke="black" points="1781.96,-125.3 1771.96,-128.8 1781.96,-132.3 1781.96,-125.3"/>
</g>
<!-- InputDateModule -->
<g id="node8" class="node">
<title>InputDateModule</title>
<polygon fill="#8dd3c7" stroke="black" points="2224.53,-84.8 2221.53,-88.8 2200.53,-88.8 2197.53,-84.8 2109.47,-84.8 2109.47,-48.8 2224.53,-48.8 2224.53,-84.8"/>
<text text-anchor="middle" x="2167" y="-62.6" font-family="Times,serif" font-size="14.00">InputDateModule</text>
</g>
<!-- InputDateModule&#45;&gt;DetailsModule -->
<g id="edge7" class="edge">
<title>InputDateModule&#45;&gt;DetailsModule</title>
<path fill="none" stroke="black" d="M2167,-84.83C2167,-101.86 2167,-124.8 2167,-124.8 2167,-124.8 1781.75,-124.8 1781.75,-124.8"/>
<polygon fill="black" stroke="black" points="1781.75,-121.3 1771.75,-124.8 1781.75,-128.3 1781.75,-121.3"/>
</g>
<!-- PriceModule -->
<g id="node9" class="node">
<title>PriceModule</title>
<polygon fill="#8dd3c7" stroke="black" points="2091.31,-84.8 2088.31,-88.8 2067.31,-88.8 2064.31,-84.8 2002.69,-84.8 2002.69,-48.8 2091.31,-48.8 2091.31,-84.8"/>
<text text-anchor="middle" x="2047" y="-62.6" font-family="Times,serif" font-size="14.00">PriceModule</text>
</g>
<!-- PriceModule&#45;&gt;DetailsModule -->
<g id="edge8" class="edge">
<title>PriceModule&#45;&gt;DetailsModule</title>
<path fill="none" stroke="black" d="M2047,-84.81C2047,-100.85 2047,-121.8 2047,-121.8 2047,-121.8 1781.71,-121.8 1781.71,-121.8"/>
<polygon fill="black" stroke="black" points="1781.71,-118.3 1771.71,-121.8 1781.71,-125.3 1781.71,-118.3"/>
</g>
<!-- PromotionModule -->
<g id="node10" class="node">
<title>PromotionModule</title>
<polygon fill="#8dd3c7" stroke="black" points="1985.17,-84.8 1982.17,-88.8 1961.17,-88.8 1958.17,-84.8 1866.83,-84.8 1866.83,-48.8 1985.17,-48.8 1985.17,-84.8"/>
<text text-anchor="middle" x="1926" y="-62.6" font-family="Times,serif" font-size="14.00">PromotionModule</text>
</g>
<!-- PromotionModule&#45;&gt;DetailsModule -->
<g id="edge9" class="edge">
<title>PromotionModule&#45;&gt;DetailsModule</title>
<path fill="none" stroke="black" d="M1880.87,-84.92C1880.87,-99.58 1880.87,-117.8 1880.87,-117.8 1880.87,-117.8 1781.83,-117.8 1781.83,-117.8"/>
<polygon fill="black" stroke="black" points="1781.83,-114.3 1771.83,-117.8 1781.83,-121.3 1781.83,-114.3"/>
</g>
<!-- PricingModule -->
<g id="node11" class="node">
<title>PricingModule</title>
<polygon fill="#8dd3c7" stroke="black" points="1848.99,-84.8 1845.99,-88.8 1824.99,-88.8 1821.99,-84.8 1749.01,-84.8 1749.01,-48.8 1848.99,-48.8 1848.99,-84.8"/>
<text text-anchor="middle" x="1799" y="-62.6" font-family="Times,serif" font-size="14.00">PricingModule</text>
</g>
<!-- PricingModule&#45;&gt;DetailsModule -->
<g id="edge10" class="edge">
<title>PricingModule&#45;&gt;DetailsModule</title>
<path fill="none" stroke="black" d="M1760.3,-84.91C1760.3,-84.91 1760.3,-103.79 1760.3,-103.79"/>
<polygon fill="black" stroke="black" points="1756.8,-103.79 1760.3,-113.79 1763.8,-103.79 1756.8,-103.79"/>
</g>
<!-- TranslateModule.forChild() -->
<g id="node12" class="node">
<title>TranslateModule.forChild()</title>
<polygon fill="#8dd3c7" stroke="black" points="1730.89,-84.8 1727.89,-88.8 1706.89,-88.8 1703.89,-84.8 1559.11,-84.8 1559.11,-48.8 1730.89,-48.8 1730.89,-84.8"/>
<text text-anchor="middle" x="1645" y="-62.6" font-family="Times,serif" font-size="14.00">TranslateModule.forChild()</text>
</g>
<!-- TranslateModule.forChild()&#45;&gt;DetailsModule -->
<g id="edge11" class="edge">
<title>TranslateModule.forChild()&#45;&gt;DetailsModule</title>
<path fill="none" stroke="black" d="M1701.67,-84.91C1701.67,-84.91 1701.67,-103.79 1701.67,-103.79"/>
<polygon fill="black" stroke="black" points="1698.17,-103.79 1701.67,-113.79 1705.17,-103.79 1698.17,-103.79"/>
</g>
<!-- ConfigurationSummaryModule -->
<g id="node13" class="node">
<title>ConfigurationSummaryModule</title>
<polygon fill="#8dd3c7" stroke="black" points="1541.03,-84.8 1538.03,-88.8 1517.03,-88.8 1514.03,-84.8 1348.97,-84.8 1348.97,-48.8 1541.03,-48.8 1541.03,-84.8"/>
<text text-anchor="middle" x="1445" y="-62.6" font-family="Times,serif" font-size="14.00">ConfigurationSummaryModule</text>
</g>
<!-- ConfigurationSummaryModule&#45;&gt;DetailsModule -->
<g id="edge12" class="edge">
<title>ConfigurationSummaryModule&#45;&gt;DetailsModule</title>
<path fill="none" stroke="black" d="M1445,-84.92C1445,-99.58 1445,-117.8 1445,-117.8 1445,-117.8 1662.16,-117.8 1662.16,-117.8"/>
<polygon fill="black" stroke="black" points="1662.16,-121.3 1672.16,-117.8 1662.16,-114.3 1662.16,-121.3"/>
</g>
<!-- FormsModule -->
<g id="node14" class="node">
<title>FormsModule</title>
<polygon fill="#8dd3c7" stroke="black" points="1330.83,-84.8 1327.83,-88.8 1306.83,-88.8 1303.83,-84.8 1235.17,-84.8 1235.17,-48.8 1330.83,-48.8 1330.83,-84.8"/>
<text text-anchor="middle" x="1283" y="-62.6" font-family="Times,serif" font-size="14.00">FormsModule</text>
</g>
<!-- FormsModule&#45;&gt;DetailsModule -->
<g id="edge13" class="edge">
<title>FormsModule&#45;&gt;DetailsModule</title>
<path fill="none" stroke="black" d="M1283,-84.81C1283,-100.85 1283,-121.8 1283,-121.8 1283,-121.8 1662.07,-121.8 1662.07,-121.8"/>
<polygon fill="black" stroke="black" points="1662.07,-125.3 1672.07,-121.8 1662.07,-118.3 1662.07,-125.3"/>
</g>
<!-- InputFieldModule -->
<g id="node15" class="node">
<title>InputFieldModule</title>
<polygon fill="#8dd3c7" stroke="black" points="1216.88,-84.8 1213.88,-88.8 1192.88,-88.8 1189.88,-84.8 1099.12,-84.8 1099.12,-48.8 1216.88,-48.8 1216.88,-84.8"/>
<text text-anchor="middle" x="1158" y="-62.6" font-family="Times,serif" font-size="14.00">InputFieldModule</text>
</g>
<!-- InputFieldModule&#45;&gt;DetailsModule -->
<g id="edge14" class="edge">
<title>InputFieldModule&#45;&gt;DetailsModule</title>
<path fill="none" stroke="black" d="M1158,-84.83C1158,-101.86 1158,-124.8 1158,-124.8 1158,-124.8 1661.95,-124.8 1661.95,-124.8"/>
<polygon fill="black" stroke="black" points="1661.95,-128.3 1671.95,-124.8 1661.95,-121.3 1661.95,-128.3"/>
</g>
<!-- DatepickerModule.forRoot() -->
<g id="node16" class="node">
<title>DatepickerModule.forRoot()</title>
<polygon fill="#8dd3c7" stroke="black" points="1080.83,-84.8 1077.83,-88.8 1056.83,-88.8 1053.83,-84.8 903.17,-84.8 903.17,-48.8 1080.83,-48.8 1080.83,-84.8"/>
<text text-anchor="middle" x="992" y="-62.6" font-family="Times,serif" font-size="14.00">DatepickerModule.forRoot()</text>
</g>
<!-- DatepickerModule.forRoot()&#45;&gt;DetailsModule -->
<g id="edge15" class="edge">
<title>DatepickerModule.forRoot()&#45;&gt;DetailsModule</title>
<path fill="none" stroke="black" d="M992,-85.07C992,-103.36 992,-128.8 992,-128.8 992,-128.8 1662.4,-128.8 1662.4,-128.8"/>
<polygon fill="black" stroke="black" points="1662.4,-132.3 1672.4,-128.8 1662.4,-125.3 1662.4,-132.3"/>
</g>
<!-- BsDatepickerModule.forRoot() -->
<g id="node17" class="node">
<title>BsDatepickerModule.forRoot()</title>
<polygon fill="#8dd3c7" stroke="black" points="885.11,-84.8 882.11,-88.8 861.11,-88.8 858.11,-84.8 692.89,-84.8 692.89,-48.8 885.11,-48.8 885.11,-84.8"/>
<text text-anchor="middle" x="789" y="-62.6" font-family="Times,serif" font-size="14.00">BsDatepickerModule.forRoot()</text>
</g>
<!-- BsDatepickerModule.forRoot()&#45;&gt;DetailsModule -->
<g id="edge16" class="edge">
<title>BsDatepickerModule.forRoot()&#45;&gt;DetailsModule</title>
<path fill="none" stroke="black" d="M789,-84.91C789,-104.14 789,-131.8 789,-131.8 789,-131.8 1662.17,-131.8 1662.17,-131.8"/>
<polygon fill="black" stroke="black" points="1662.17,-135.3 1672.17,-131.8 1662.17,-128.3 1662.17,-135.3"/>
</g>
<!-- AddressModule -->
<g id="node18" class="node">
<title>AddressModule</title>
<polygon fill="#8dd3c7" stroke="black" points="674.92,-84.8 671.92,-88.8 650.92,-88.8 647.92,-84.8 569.08,-84.8 569.08,-48.8 674.92,-48.8 674.92,-84.8"/>
<text text-anchor="middle" x="622" y="-62.6" font-family="Times,serif" font-size="14.00">AddressModule</text>
</g>
<!-- AddressModule&#45;&gt;DetailsModule -->
<g id="edge17" class="edge">
<title>AddressModule&#45;&gt;DetailsModule</title>
<path fill="none" stroke="black" d="M622,-84.93C622,-105.37 622,-135.8 622,-135.8 622,-135.8 1662.24,-135.8 1662.24,-135.8"/>
<polygon fill="black" stroke="black" points="1662.24,-139.3 1672.24,-135.8 1662.24,-132.3 1662.24,-139.3"/>
</g>
<!-- TooltipModule.forRoot() -->
<g id="node19" class="node">
<title>TooltipModule.forRoot()</title>
<polygon fill="#8dd3c7" stroke="black" points="551.64,-84.8 548.64,-88.8 527.64,-88.8 524.64,-84.8 394.36,-84.8 394.36,-48.8 551.64,-48.8 551.64,-84.8"/>
<text text-anchor="middle" x="473" y="-62.6" font-family="Times,serif" font-size="14.00">TooltipModule.forRoot()</text>
</g>
<!-- TooltipModule.forRoot()&#45;&gt;DetailsModule -->
<g id="edge18" class="edge">
<title>TooltipModule.forRoot()&#45;&gt;DetailsModule</title>
<path fill="none" stroke="black" d="M473,-84.84C473,-106.46 473,-139.8 473,-139.8 473,-139.8 1662.27,-139.8 1662.27,-139.8"/>
<polygon fill="black" stroke="black" points="1662.27,-143.3 1672.27,-139.8 1662.27,-136.3 1662.27,-143.3"/>
</g>
<!-- BsDropdownModule.forRoot() -->
<g id="node20" class="node">
<title>BsDropdownModule.forRoot()</title>
<polygon fill="#8dd3c7" stroke="black" points="376.07,-84.8 373.07,-88.8 352.07,-88.8 349.07,-84.8 185.93,-84.8 185.93,-48.8 376.07,-48.8 376.07,-84.8"/>
<text text-anchor="middle" x="281" y="-62.6" font-family="Times,serif" font-size="14.00">BsDropdownModule.forRoot()</text>
</g>
<!-- BsDropdownModule.forRoot()&#45;&gt;DetailsModule -->
<g id="edge19" class="edge">
<title>BsDropdownModule.forRoot()&#45;&gt;DetailsModule</title>
<path fill="none" stroke="black" d="M281,-84.81C281,-107.29 281,-142.8 281,-142.8 281,-142.8 1662.4,-142.8 1662.4,-142.8"/>
<polygon fill="black" stroke="black" points="1662.4,-146.3 1672.4,-142.8 1662.4,-139.3 1662.4,-146.3"/>
</g>
<!-- ConstraintRuleModule -->
<g id="node21" class="node">
<title>ConstraintRuleModule</title>
<polygon fill="#8dd3c7" stroke="black" points="168.32,-84.8 165.32,-88.8 144.32,-88.8 141.32,-84.8 23.68,-84.8 23.68,-48.8 168.32,-48.8 168.32,-84.8"/>
<text text-anchor="middle" x="96" y="-62.6" font-family="Times,serif" font-size="14.00">ConstraintRuleModule</text>
</g>
<!-- ConstraintRuleModule&#45;&gt;DetailsModule -->
<g id="edge20" class="edge">
<title>ConstraintRuleModule&#45;&gt;DetailsModule</title>
<path fill="none" stroke="black" d="M96,-84.95C96,-108.56 96,-146.8 96,-146.8 96,-146.8 1662,-146.8 1662,-146.8"/>
<polygon fill="black" stroke="black" points="1662,-150.3 1672,-146.8 1662,-143.3 1662,-150.3"/>
</g>
</g>
</svg>
