<?xml version="1.0" encoding="UTF-8" standalone="no"?>
<!DOCTYPE svg PUBLIC "-//W3C//DTD SVG 1.1//EN"
 "http://www.w3.org/Graphics/SVG/1.1/DTD/svg11.dtd">
<!-- Generated by graphviz version 2.47.3 (20210619.1520)
 -->
<!-- Title: dependencies Pages: 1 -->
<svg width="2413pt" height="247pt"
 viewBox="0.00 0.00 2413.00 246.80" xmlns="http://www.w3.org/2000/svg" xmlns:xlink="http://www.w3.org/1999/xlink">
<g id="graph0" class="graph" transform="scale(1 1) rotate(0) translate(4 242.8)">
<title>dependencies</title>
<polygon fill="white" stroke="transparent" points="-4,4 -4,-242.8 2409,-242.8 2409,4 -4,4"/>
<text text-anchor="middle" x="1202.5" y="-8.2" font-family="sans-serif" font-size="14.00">dependencies</text>
<g id="clust1" class="cluster">
<title>cluster_AssetListModule</title>
<polygon fill="none" stroke="black" stroke-dasharray="1,5" points="8,-32.8 8,-230.8 2397,-230.8 2397,-32.8 8,-32.8"/>
</g>
<g id="clust2" class="cluster">
<title>cluster_AssetListModule_declarations</title>
<polygon fill="none" stroke="black" points="1417,-40.8 1417,-92.8 2389,-92.8 2389,-40.8 1417,-40.8"/>
</g>
<g id="clust9" class="cluster">
<title>cluster_AssetListModule_exports</title>
<polygon fill="none" stroke="black" points="1033,-170.8 1033,-222.8 1187,-222.8 1187,-170.8 1033,-170.8"/>
</g>
<g id="clust8" class="cluster">
<title>cluster_AssetListModule_imports</title>
<polygon fill="none" stroke="black" points="16,-40.8 16,-92.8 1409,-92.8 1409,-40.8 16,-40.8"/>
</g>
<!-- AssetListComponent -->
<g id="node1" class="node">
<title>AssetListComponent</title>
<polygon fill="#ffffb3" stroke="black" points="2381.21,-84.8 2246.79,-84.8 2246.79,-48.8 2381.21,-48.8 2381.21,-84.8"/>
<text text-anchor="middle" x="2314" y="-62.6" font-family="Times,serif" font-size="14.00">AssetListComponent</text>
</g>
<!-- AssetListModule -->
<g id="node6" class="node">
<title>AssetListModule</title>
<polygon fill="#8dd3c7" stroke="black" points="1166.43,-149.8 1163.43,-153.8 1142.43,-153.8 1139.43,-149.8 1053.57,-149.8 1053.57,-113.8 1166.43,-113.8 1166.43,-149.8"/>
<text text-anchor="middle" x="1110" y="-127.6" font-family="Times,serif" font-size="14.00">AssetListModule</text>
</g>
<!-- AssetListComponent&#45;&gt;AssetListModule -->
<g id="edge1" class="edge">
<title>AssetListComponent&#45;&gt;AssetListModule</title>
<path fill="none" stroke="black" d="M2314,-84.89C2314,-107.93 2314,-144.8 2314,-144.8 2314,-144.8 1176.46,-144.8 1176.46,-144.8"/>
<polygon fill="black" stroke="black" points="1176.46,-141.3 1166.46,-144.8 1176.46,-148.3 1176.46,-141.3"/>
</g>
<!-- AssetListHeaderComponent -->
<g id="node2" class="node">
<title>AssetListHeaderComponent</title>
<polygon fill="#ffffb3" stroke="black" points="2229.12,-84.8 2054.88,-84.8 2054.88,-48.8 2229.12,-48.8 2229.12,-84.8"/>
<text text-anchor="middle" x="2142" y="-62.6" font-family="Times,serif" font-size="14.00">AssetListHeaderComponent</text>
</g>
<!-- AssetListHeaderComponent&#45;&gt;AssetListModule -->
<g id="edge2" class="edge">
<title>AssetListHeaderComponent&#45;&gt;AssetListModule</title>
<path fill="none" stroke="black" d="M2142,-84.84C2142,-106.46 2142,-139.8 2142,-139.8 2142,-139.8 1176.22,-139.8 1176.22,-139.8"/>
<polygon fill="black" stroke="black" points="1176.22,-136.3 1166.22,-139.8 1176.22,-143.3 1176.22,-136.3"/>
</g>
<!-- AssetAccordionComponent -->
<g id="node3" class="node">
<title>AssetAccordionComponent</title>
<polygon fill="#ffffb3" stroke="black" points="2036.52,-84.8 1865.48,-84.8 1865.48,-48.8 2036.52,-48.8 2036.52,-84.8"/>
<text text-anchor="middle" x="1951" y="-62.6" font-family="Times,serif" font-size="14.00">AssetAccordionComponent</text>
</g>
<!-- AssetAccordionComponent&#45;&gt;AssetListModule -->
<g id="edge3" class="edge">
<title>AssetAccordionComponent&#45;&gt;AssetListModule</title>
<path fill="none" stroke="black" d="M1951,-85.02C1951,-105.17 1951,-134.8 1951,-134.8 1951,-134.8 1176.49,-134.8 1176.49,-134.8"/>
<polygon fill="black" stroke="black" points="1176.49,-131.3 1166.49,-134.8 1176.49,-138.3 1176.49,-131.3"/>
</g>
<!-- AssetAccordionGroupComponent -->
<g id="node4" class="node">
<title>AssetAccordionGroupComponent</title>
<polygon fill="#ffffb3" stroke="black" points="1847.79,-84.8 1640.21,-84.8 1640.21,-48.8 1847.79,-48.8 1847.79,-84.8"/>
<text text-anchor="middle" x="1744" y="-62.6" font-family="Times,serif" font-size="14.00">AssetAccordionGroupComponent</text>
</g>
<!-- AssetAccordionGroupComponent&#45;&gt;AssetListModule -->
<g id="edge4" class="edge">
<title>AssetAccordionGroupComponent&#45;&gt;AssetListModule</title>
<path fill="none" stroke="black" d="M1744,-85.02C1744,-103.63 1744,-129.8 1744,-129.8 1744,-129.8 1176.26,-129.8 1176.26,-129.8"/>
<polygon fill="black" stroke="black" points="1176.26,-126.3 1166.26,-129.8 1176.26,-133.3 1176.26,-126.3"/>
</g>
<!-- AssetAccordionItemComponent -->
<g id="node5" class="node">
<title>AssetAccordionItemComponent</title>
<polygon fill="#ffffb3" stroke="black" points="1622.68,-84.8 1425.32,-84.8 1425.32,-48.8 1622.68,-48.8 1622.68,-84.8"/>
<text text-anchor="middle" x="1524" y="-62.6" font-family="Times,serif" font-size="14.00">AssetAccordionItemComponent</text>
</g>
<!-- AssetAccordionItemComponent&#45;&gt;AssetListModule -->
<g id="edge5" class="edge">
<title>AssetAccordionItemComponent&#45;&gt;AssetListModule</title>
<path fill="none" stroke="black" d="M1524,-84.83C1524,-101.86 1524,-124.8 1524,-124.8 1524,-124.8 1176.26,-124.8 1176.26,-124.8"/>
<polygon fill="black" stroke="black" points="1176.26,-121.3 1166.26,-124.8 1176.26,-128.3 1176.26,-121.3"/>
</g>
<!-- AssetListComponent  -->
<g id="node17" class="node">
<title>AssetListComponent </title>
<polygon fill="#fb8072" stroke="black" points="1178.71,-214.8 1041.29,-214.8 1041.29,-178.8 1178.71,-178.8 1178.71,-214.8"/>
<text text-anchor="middle" x="1110" y="-192.6" font-family="Times,serif" font-size="14.00">AssetListComponent </text>
</g>
<!-- AssetListModule&#45;&gt;AssetListComponent  -->
<g id="edge16" class="edge">
<title>AssetListModule&#45;&gt;AssetListComponent </title>
<path fill="none" stroke="black" stroke-dasharray="5,2" d="M1110,-149.91C1110,-149.91 1110,-168.79 1110,-168.79"/>
<polygon fill="black" stroke="black" points="1106.5,-168.79 1110,-178.79 1113.5,-168.79 1106.5,-168.79"/>
</g>
<!-- CommonModule -->
<g id="node7" class="node">
<title>CommonModule</title>
<polygon fill="#8dd3c7" stroke="black" points="1400.67,-84.8 1397.67,-88.8 1376.67,-88.8 1373.67,-84.8 1289.33,-84.8 1289.33,-48.8 1400.67,-48.8 1400.67,-84.8"/>
<text text-anchor="middle" x="1345" y="-62.6" font-family="Times,serif" font-size="14.00">CommonModule</text>
</g>
<!-- CommonModule&#45;&gt;AssetListModule -->
<g id="edge6" class="edge">
<title>CommonModule&#45;&gt;AssetListModule</title>
<path fill="none" stroke="black" d="M1345,-85.04C1345,-100.37 1345,-119.8 1345,-119.8 1345,-119.8 1176.29,-119.8 1176.29,-119.8"/>
<polygon fill="black" stroke="black" points="1176.29,-116.3 1166.29,-119.8 1176.29,-123.3 1176.29,-116.3"/>
</g>
<!-- FormsModule -->
<g id="node8" class="node">
<title>FormsModule</title>
<polygon fill="#8dd3c7" stroke="black" points="1271.83,-84.8 1268.83,-88.8 1247.83,-88.8 1244.83,-84.8 1176.17,-84.8 1176.17,-48.8 1271.83,-48.8 1271.83,-84.8"/>
<text text-anchor="middle" x="1224" y="-62.6" font-family="Times,serif" font-size="14.00">FormsModule</text>
</g>
<!-- FormsModule&#45;&gt;AssetListModule -->
<g id="edge7" class="edge">
<title>FormsModule&#45;&gt;AssetListModule</title>
<path fill="none" stroke="black" d="M1176.17,-66.8C1168.23,-66.8 1162.52,-66.8 1162.52,-66.8 1162.52,-66.8 1162.52,-103.69 1162.52,-103.69"/>
<polygon fill="black" stroke="black" points="1159.02,-103.69 1162.52,-113.69 1166.02,-103.69 1159.02,-103.69"/>
</g>
<!-- ButtonModule -->
<g id="node9" class="node">
<title>ButtonModule</title>
<polygon fill="#8dd3c7" stroke="black" points="1158.67,-84.8 1155.67,-88.8 1134.67,-88.8 1131.67,-84.8 1061.33,-84.8 1061.33,-48.8 1158.67,-48.8 1158.67,-84.8"/>
<text text-anchor="middle" x="1110" y="-62.6" font-family="Times,serif" font-size="14.00">ButtonModule</text>
</g>
<!-- ButtonModule&#45;&gt;AssetListModule -->
<g id="edge8" class="edge">
<title>ButtonModule&#45;&gt;AssetListModule</title>
<path fill="none" stroke="black" d="M1110,-84.91C1110,-84.91 1110,-103.79 1110,-103.79"/>
<polygon fill="black" stroke="black" points="1106.5,-103.79 1110,-113.79 1113.5,-103.79 1106.5,-103.79"/>
</g>
<!-- ApttusModalModule -->
<g id="node10" class="node">
<title>ApttusModalModule</title>
<polygon fill="#8dd3c7" stroke="black" points="1042.93,-84.8 1039.93,-88.8 1018.93,-88.8 1015.93,-84.8 909.07,-84.8 909.07,-48.8 1042.93,-48.8 1042.93,-84.8"/>
<text text-anchor="middle" x="976" y="-62.6" font-family="Times,serif" font-size="14.00">ApttusModalModule</text>
</g>
<!-- ApttusModalModule&#45;&gt;AssetListModule -->
<g id="edge9" class="edge">
<title>ApttusModalModule&#45;&gt;AssetListModule</title>
<path fill="none" stroke="black" d="M1042.91,-66.8C1051.56,-66.8 1057.48,-66.8 1057.48,-66.8 1057.48,-66.8 1057.48,-103.69 1057.48,-103.69"/>
<polygon fill="black" stroke="black" points="1053.98,-103.69 1057.48,-113.69 1060.98,-103.69 1053.98,-103.69"/>
</g>
<!-- IconModule -->
<g id="node11" class="node">
<title>IconModule</title>
<polygon fill="#8dd3c7" stroke="black" points="891.43,-84.8 888.43,-88.8 867.43,-88.8 864.43,-84.8 806.57,-84.8 806.57,-48.8 891.43,-48.8 891.43,-84.8"/>
<text text-anchor="middle" x="849" y="-62.6" font-family="Times,serif" font-size="14.00">IconModule</text>
</g>
<!-- IconModule&#45;&gt;AssetListModule -->
<g id="edge10" class="edge">
<title>IconModule&#45;&gt;AssetListModule</title>
<path fill="none" stroke="black" d="M849,-85.04C849,-100.37 849,-119.8 849,-119.8 849,-119.8 1043.69,-119.8 1043.69,-119.8"/>
<polygon fill="black" stroke="black" points="1043.69,-123.3 1053.69,-119.8 1043.69,-116.3 1043.69,-123.3"/>
</g>
<!-- TooltipModule -->
<g id="node12" class="node">
<title>TooltipModule</title>
<polygon fill="#8dd3c7" stroke="black" points="788.27,-84.8 785.27,-88.8 764.27,-88.8 761.27,-84.8 687.73,-84.8 687.73,-48.8 788.27,-48.8 788.27,-84.8"/>
<text text-anchor="middle" x="738" y="-62.6" font-family="Times,serif" font-size="14.00">TooltipModule</text>
</g>
<!-- TooltipModule&#45;&gt;AssetListModule -->
<g id="edge11" class="edge">
<title>TooltipModule&#45;&gt;AssetListModule</title>
<path fill="none" stroke="black" d="M738,-84.83C738,-101.86 738,-124.8 738,-124.8 738,-124.8 1043.5,-124.8 1043.5,-124.8"/>
<polygon fill="black" stroke="black" points="1043.5,-128.3 1053.5,-124.8 1043.5,-121.3 1043.5,-128.3"/>
</g>
<!-- PricingModule -->
<g id="node13" class="node">
<title>PricingModule</title>
<polygon fill="#8dd3c7" stroke="black" points="669.99,-84.8 666.99,-88.8 645.99,-88.8 642.99,-84.8 570.01,-84.8 570.01,-48.8 669.99,-48.8 669.99,-84.8"/>
<text text-anchor="middle" x="620" y="-62.6" font-family="Times,serif" font-size="14.00">PricingModule</text>
</g>
<!-- PricingModule&#45;&gt;AssetListModule -->
<g id="edge12" class="edge">
<title>PricingModule&#45;&gt;AssetListModule</title>
<path fill="none" stroke="black" d="M620,-85.02C620,-103.63 620,-129.8 620,-129.8 620,-129.8 1043.31,-129.8 1043.31,-129.8"/>
<polygon fill="black" stroke="black" points="1043.31,-133.3 1053.31,-129.8 1043.31,-126.3 1043.31,-133.3"/>
</g>
<!-- ConfigurationSummaryModule -->
<g id="node14" class="node">
<title>ConfigurationSummaryModule</title>
<polygon fill="#8dd3c7" stroke="black" points="552.03,-84.8 549.03,-88.8 528.03,-88.8 525.03,-84.8 359.97,-84.8 359.97,-48.8 552.03,-48.8 552.03,-84.8"/>
<text text-anchor="middle" x="456" y="-62.6" font-family="Times,serif" font-size="14.00">ConfigurationSummaryModule</text>
</g>
<!-- ConfigurationSummaryModule&#45;&gt;AssetListModule -->
<g id="edge13" class="edge">
<title>ConfigurationSummaryModule&#45;&gt;AssetListModule</title>
<path fill="none" stroke="black" d="M456,-85.02C456,-105.17 456,-134.8 456,-134.8 456,-134.8 1043.67,-134.8 1043.67,-134.8"/>
<polygon fill="black" stroke="black" points="1043.67,-138.3 1053.67,-134.8 1043.67,-131.3 1043.67,-138.3"/>
</g>
<!-- TranslateModule.forChild() -->
<g id="node15" class="node">
<title>TranslateModule.forChild()</title>
<polygon fill="#8dd3c7" stroke="black" points="341.89,-84.8 338.89,-88.8 317.89,-88.8 314.89,-84.8 170.11,-84.8 170.11,-48.8 341.89,-48.8 341.89,-84.8"/>
<text text-anchor="middle" x="256" y="-62.6" font-family="Times,serif" font-size="14.00">TranslateModule.forChild()</text>
</g>
<!-- TranslateModule.forChild()&#45;&gt;AssetListModule -->
<g id="edge14" class="edge">
<title>TranslateModule.forChild()&#45;&gt;AssetListModule</title>
<path fill="none" stroke="black" d="M256,-84.84C256,-106.46 256,-139.8 256,-139.8 256,-139.8 1043.64,-139.8 1043.64,-139.8"/>
<polygon fill="black" stroke="black" points="1043.64,-143.3 1053.64,-139.8 1043.64,-136.3 1043.64,-143.3"/>
</g>
<!-- OutputFieldModule -->
<g id="node16" class="node">
<title>OutputFieldModule</title>
<polygon fill="#8dd3c7" stroke="black" points="151.72,-84.8 148.72,-88.8 127.72,-88.8 124.72,-84.8 24.28,-84.8 24.28,-48.8 151.72,-48.8 151.72,-84.8"/>
<text text-anchor="middle" x="88" y="-62.6" font-family="Times,serif" font-size="14.00">OutputFieldModule</text>
</g>
<!-- OutputFieldModule&#45;&gt;AssetListModule -->
<g id="edge15" class="edge">
<title>OutputFieldModule&#45;&gt;AssetListModule</title>
<path fill="none" stroke="black" d="M88,-84.89C88,-107.93 88,-144.8 88,-144.8 88,-144.8 1043.6,-144.8 1043.6,-144.8"/>
<polygon fill="black" stroke="black" points="1043.6,-148.3 1053.6,-144.8 1043.6,-141.3 1043.6,-148.3"/>
</g>
</g>
</svg>
