<?xml version="1.0" encoding="UTF-8" standalone="no"?>
<!DOCTYPE svg PUBLIC "-//W3C//DTD SVG 1.1//EN"
 "http://www.w3.org/Graphics/SVG/1.1/DTD/svg11.dtd">
<!-- Generated by graphviz version 2.47.3 (20210619.1520)
 -->
<!-- Title: dependencies Pages: 1 -->
<svg width="448pt" height="247pt"
 viewBox="0.00 0.00 448.00 246.80" xmlns="http://www.w3.org/2000/svg" xmlns:xlink="http://www.w3.org/1999/xlink">
<g id="graph0" class="graph" transform="scale(1 1) rotate(0) translate(4 242.8)">
<title>dependencies</title>
<polygon fill="white" stroke="transparent" points="-4,4 -4,-242.8 444,-242.8 444,4 -4,4"/>
<text text-anchor="middle" x="220" y="-8.2" font-family="sans-serif" font-size="14.00">dependencies</text>
<g id="clust1" class="cluster">
<title>cluster_JumbotronModule</title>
<polygon fill="none" stroke="black" stroke-dasharray="1,5" points="8,-32.8 8,-230.8 432,-230.8 432,-32.8 8,-32.8"/>
</g>
<g id="clust2" class="cluster">
<title>cluster_JumbotronModule_declarations</title>
<polygon fill="none" stroke="black" points="266,-40.8 266,-92.8 424,-92.8 424,-40.8 266,-40.8"/>
</g>
<g id="clust4" class="cluster">
<title>cluster_JumbotronModule_imports</title>
<polygon fill="none" stroke="black" points="16,-40.8 16,-92.8 258,-92.8 258,-40.8 16,-40.8"/>
</g>
<g id="clust5" class="cluster">
<title>cluster_JumbotronModule_exports</title>
<polygon fill="none" stroke="black" points="114,-170.8 114,-222.8 274,-222.8 274,-170.8 114,-170.8"/>
</g>
<!-- JumbotronComponent -->
<g id="node1" class="node">
<title>JumbotronComponent</title>
<polygon fill="#ffffb3" stroke="black" points="415.72,-84.8 274.28,-84.8 274.28,-48.8 415.72,-48.8 415.72,-84.8"/>
<text text-anchor="middle" x="345" y="-62.6" font-family="Times,serif" font-size="14.00">JumbotronComponent</text>
</g>
<!-- JumbotronModule -->
<g id="node2" class="node">
<title>JumbotronModule</title>
<polygon fill="#8dd3c7" stroke="black" points="253.94,-149.8 250.94,-153.8 229.94,-153.8 226.94,-149.8 134.06,-149.8 134.06,-113.8 253.94,-113.8 253.94,-149.8"/>
<text text-anchor="middle" x="194" y="-127.6" font-family="Times,serif" font-size="14.00">JumbotronModule</text>
</g>
<!-- JumbotronComponent&#45;&gt;JumbotronModule -->
<g id="edge1" class="edge">
<title>JumbotronComponent&#45;&gt;JumbotronModule</title>
<path fill="none" stroke="black" d="M345,-84.91C345,-104.14 345,-131.8 345,-131.8 345,-131.8 264.11,-131.8 264.11,-131.8"/>
<polygon fill="black" stroke="black" points="264.11,-128.3 254.11,-131.8 264.11,-135.3 264.11,-128.3"/>
</g>
<!-- JumbotronComponent  -->
<g id="node5" class="node">
<title>JumbotronComponent </title>
<polygon fill="#fb8072" stroke="black" points="266.22,-214.8 121.78,-214.8 121.78,-178.8 266.22,-178.8 266.22,-214.8"/>
<text text-anchor="middle" x="194" y="-192.6" font-family="Times,serif" font-size="14.00">JumbotronComponent </text>
</g>
<!-- JumbotronModule&#45;&gt;JumbotronComponent  -->
<g id="edge4" class="edge">
<title>JumbotronModule&#45;&gt;JumbotronComponent </title>
<path fill="none" stroke="black" stroke-dasharray="5,2" d="M194,-149.91C194,-149.91 194,-168.79 194,-168.79"/>
<polygon fill="black" stroke="black" points="190.5,-168.79 194,-178.79 197.5,-168.79 190.5,-168.79"/>
</g>
<!-- CommonModule -->
<g id="node3" class="node">
<title>CommonModule</title>
<polygon fill="#8dd3c7" stroke="black" points="249.67,-84.8 246.67,-88.8 225.67,-88.8 222.67,-84.8 138.33,-84.8 138.33,-48.8 249.67,-48.8 249.67,-84.8"/>
<text text-anchor="middle" x="194" y="-62.6" font-family="Times,serif" font-size="14.00">CommonModule</text>
</g>
<!-- CommonModule&#45;&gt;JumbotronModule -->
<g id="edge2" class="edge">
<title>CommonModule&#45;&gt;JumbotronModule</title>
<path fill="none" stroke="black" d="M194,-84.91C194,-84.91 194,-103.79 194,-103.79"/>
<polygon fill="black" stroke="black" points="190.5,-103.79 194,-113.79 197.5,-103.79 190.5,-103.79"/>
</g>
<!-- ApttusModule -->
<g id="node4" class="node">
<title>ApttusModule</title>
<polygon fill="#8dd3c7" stroke="black" points="120.38,-84.8 117.38,-88.8 96.38,-88.8 93.38,-84.8 23.62,-84.8 23.62,-48.8 120.38,-48.8 120.38,-84.8"/>
<text text-anchor="middle" x="72" y="-62.6" font-family="Times,serif" font-size="14.00">ApttusModule</text>
</g>
<!-- ApttusModule&#45;&gt;JumbotronModule -->
<g id="edge3" class="edge">
<title>ApttusModule&#45;&gt;JumbotronModule</title>
<path fill="none" stroke="black" d="M72,-84.91C72,-104.14 72,-131.8 72,-131.8 72,-131.8 124.07,-131.8 124.07,-131.8"/>
<polygon fill="black" stroke="black" points="124.07,-135.3 134.07,-131.8 124.07,-128.3 124.07,-135.3"/>
</g>
</g>
</svg>
