<?xml version="1.0" encoding="UTF-8" standalone="no"?>
<!DOCTYPE svg PUBLIC "-//W3C//DTD SVG 1.1//EN"
 "http://www.w3.org/Graphics/SVG/1.1/DTD/svg11.dtd">
<!-- Generated by graphviz version 2.47.3 (20210619.1520)
 -->
<!-- Title: dependencies Pages: 1 -->
<svg width="1741pt" height="247pt"
 viewBox="0.00 0.00 1741.00 246.80" xmlns="http://www.w3.org/2000/svg" xmlns:xlink="http://www.w3.org/1999/xlink">
<g id="graph0" class="graph" transform="scale(1 1) rotate(0) translate(4 242.8)">
<title>dependencies</title>
<polygon fill="white" stroke="transparent" points="-4,4 -4,-242.8 1737,-242.8 1737,4 -4,4"/>
<text text-anchor="middle" x="866.5" y="-8.2" font-family="sans-serif" font-size="14.00">dependencies</text>
<g id="clust1" class="cluster">
<title>cluster_PricingModule</title>
<polygon fill="none" stroke="black" stroke-dasharray="1,5" points="8,-32.8 8,-230.8 1725,-230.8 1725,-32.8 8,-32.8"/>
</g>
<g id="clust16" class="cluster">
<title>cluster_PricingModule_exports</title>
<polygon fill="none" stroke="black" points="16,-170.8 16,-222.8 1717,-222.8 1717,-170.8 16,-170.8"/>
</g>
<g id="clust2" class="cluster">
<title>cluster_PricingModule_declarations</title>
<polygon fill="none" stroke="black" points="40,-40.8 40,-92.8 1702,-92.8 1702,-40.8 40,-40.8"/>
</g>
<!-- AttributeValuePricePipe -->
<g id="node1" class="node">
<title>AttributeValuePricePipe</title>
<polygon fill="#ffffb3" stroke="black" points="1693.62,-84.8 1540.38,-84.8 1540.38,-48.8 1693.62,-48.8 1693.62,-84.8"/>
<text text-anchor="middle" x="1617" y="-62.6" font-family="Times,serif" font-size="14.00">AttributeValuePricePipe</text>
</g>
<!-- PricingModule -->
<g id="node13" class="node">
<title>PricingModule</title>
<polygon fill="#8dd3c7" stroke="black" points="837.99,-149.8 834.99,-153.8 813.99,-153.8 810.99,-149.8 738.01,-149.8 738.01,-113.8 837.99,-113.8 837.99,-149.8"/>
<text text-anchor="middle" x="788" y="-127.6" font-family="Times,serif" font-size="14.00">PricingModule</text>
</g>
<!-- AttributeValuePricePipe&#45;&gt;PricingModule -->
<g id="edge1" class="edge">
<title>AttributeValuePricePipe&#45;&gt;PricingModule</title>
<path fill="none" stroke="black" d="M1545.81,-84.91C1545.81,-104.14 1545.81,-131.8 1545.81,-131.8 1545.81,-131.8 848.02,-131.8 848.02,-131.8"/>
<polygon fill="black" stroke="black" points="848.02,-128.3 838.02,-131.8 848.02,-135.3 848.02,-128.3"/>
</g>
<!-- CartItemPricePipe -->
<g id="node2" class="node">
<title>CartItemPricePipe</title>
<polygon fill="#ffffb3" stroke="black" points="1521.91,-84.8 1402.09,-84.8 1402.09,-48.8 1521.91,-48.8 1521.91,-84.8"/>
<text text-anchor="middle" x="1462" y="-62.6" font-family="Times,serif" font-size="14.00">CartItemPricePipe</text>
</g>
<!-- CartItemPricePipe&#45;&gt;PricingModule -->
<g id="edge2" class="edge">
<title>CartItemPricePipe&#45;&gt;PricingModule</title>
<path fill="none" stroke="black" d="M1406.42,-85.07C1406.42,-103.36 1406.42,-128.8 1406.42,-128.8 1406.42,-128.8 848.08,-128.8 848.08,-128.8"/>
<polygon fill="black" stroke="black" points="848.08,-125.3 838.08,-128.8 848.08,-132.3 848.08,-125.3"/>
</g>
<!-- CartPricePipe -->
<g id="node3" class="node">
<title>CartPricePipe</title>
<polygon fill="#ffffb3" stroke="black" points="1383.75,-84.8 1290.25,-84.8 1290.25,-48.8 1383.75,-48.8 1383.75,-84.8"/>
<text text-anchor="middle" x="1337" y="-62.6" font-family="Times,serif" font-size="14.00">CartPricePipe</text>
</g>
<!-- CartPricePipe&#45;&gt;PricingModule -->
<g id="edge3" class="edge">
<title>CartPricePipe&#45;&gt;PricingModule</title>
<path fill="none" stroke="black" d="M1354.38,-84.82C1354.38,-102.17 1354.38,-125.8 1354.38,-125.8 1354.38,-125.8 848.26,-125.8 848.26,-125.8"/>
<polygon fill="black" stroke="black" points="848.26,-122.3 838.26,-125.8 848.26,-129.3 848.26,-122.3"/>
</g>
<!-- ConvertCurrencyPipe -->
<g id="node4" class="node">
<title>ConvertCurrencyPipe</title>
<polygon fill="#ffffb3" stroke="black" points="1272.08,-84.8 1133.92,-84.8 1133.92,-48.8 1272.08,-48.8 1272.08,-84.8"/>
<text text-anchor="middle" x="1203" y="-62.6" font-family="Times,serif" font-size="14.00">ConvertCurrencyPipe</text>
</g>
<!-- ConvertCurrencyPipe&#45;&gt;PricingModule -->
<g id="edge4" class="edge">
<title>ConvertCurrencyPipe&#45;&gt;PricingModule</title>
<path fill="none" stroke="black" d="M1226.76,-84.83C1226.76,-101.2 1226.76,-122.8 1226.76,-122.8 1226.76,-122.8 848.33,-122.8 848.33,-122.8"/>
<polygon fill="black" stroke="black" points="848.33,-119.3 838.33,-122.8 848.33,-126.3 848.33,-119.3"/>
</g>
<!-- LineItemPricePipe -->
<g id="node5" class="node">
<title>LineItemPricePipe</title>
<polygon fill="#ffffb3" stroke="black" points="1115.47,-84.8 994.53,-84.8 994.53,-48.8 1115.47,-48.8 1115.47,-84.8"/>
<text text-anchor="middle" x="1055" y="-62.6" font-family="Times,serif" font-size="14.00">LineItemPricePipe</text>
</g>
<!-- LineItemPricePipe&#45;&gt;PricingModule -->
<g id="edge5" class="edge">
<title>LineItemPricePipe&#45;&gt;PricingModule</title>
<path fill="none" stroke="black" d="M1075.16,-85.04C1075.16,-100.37 1075.16,-119.8 1075.16,-119.8 1075.16,-119.8 848.02,-119.8 848.02,-119.8"/>
<polygon fill="black" stroke="black" points="848.02,-116.3 838.02,-119.8 848.02,-123.3 848.02,-116.3"/>
</g>
<!-- LocalCurrencyPipe -->
<g id="node6" class="node">
<title>LocalCurrencyPipe</title>
<polygon fill="#ffffb3" stroke="black" points="976.35,-84.8 851.65,-84.8 851.65,-48.8 976.35,-48.8 976.35,-84.8"/>
<text text-anchor="middle" x="914" y="-62.6" font-family="Times,serif" font-size="14.00">LocalCurrencyPipe</text>
</g>
<!-- LocalCurrencyPipe&#45;&gt;PricingModule -->
<g id="edge6" class="edge">
<title>LocalCurrencyPipe&#45;&gt;PricingModule</title>
<path fill="none" stroke="black" d="M913.88,-84.85C913.88,-99.17 913.88,-116.8 913.88,-116.8 913.88,-116.8 848.11,-116.8 848.11,-116.8"/>
<polygon fill="black" stroke="black" points="848.11,-113.3 838.11,-116.8 848.11,-120.3 848.11,-113.3"/>
</g>
<!-- OptionPricePipe -->
<g id="node7" class="node">
<title>OptionPricePipe</title>
<polygon fill="#ffffb3" stroke="black" points="833.04,-84.8 724.96,-84.8 724.96,-48.8 833.04,-48.8 833.04,-84.8"/>
<text text-anchor="middle" x="779" y="-62.6" font-family="Times,serif" font-size="14.00">OptionPricePipe</text>
</g>
<!-- OptionPricePipe&#45;&gt;PricingModule -->
<g id="edge7" class="edge">
<title>OptionPricePipe&#45;&gt;PricingModule</title>
<path fill="none" stroke="black" d="M785.64,-84.91C785.64,-84.91 785.64,-103.79 785.64,-103.79"/>
<polygon fill="black" stroke="black" points="782.14,-103.79 785.64,-113.79 789.14,-103.79 782.14,-103.79"/>
</g>
<!-- OrderLineItemPricePipe -->
<g id="node8" class="node">
<title>OrderLineItemPricePipe</title>
<polygon fill="#ffffb3" stroke="black" points="706.61,-84.8 553.39,-84.8 553.39,-48.8 706.61,-48.8 706.61,-84.8"/>
<text text-anchor="middle" x="630" y="-62.6" font-family="Times,serif" font-size="14.00">OrderLineItemPricePipe</text>
</g>
<!-- OrderLineItemPricePipe&#45;&gt;PricingModule -->
<g id="edge8" class="edge">
<title>OrderLineItemPricePipe&#45;&gt;PricingModule</title>
<path fill="none" stroke="black" d="M703.18,-84.92C703.18,-99.58 703.18,-117.8 703.18,-117.8 703.18,-117.8 727.68,-117.8 727.68,-117.8"/>
<polygon fill="black" stroke="black" points="727.68,-121.3 737.68,-117.8 727.68,-114.3 727.68,-121.3"/>
</g>
<!-- OrderPricePipe -->
<g id="node9" class="node">
<title>OrderPricePipe</title>
<polygon fill="#ffffb3" stroke="black" points="535.29,-84.8 432.71,-84.8 432.71,-48.8 535.29,-48.8 535.29,-84.8"/>
<text text-anchor="middle" x="484" y="-62.6" font-family="Times,serif" font-size="14.00">OrderPricePipe</text>
</g>
<!-- OrderPricePipe&#45;&gt;PricingModule -->
<g id="edge9" class="edge">
<title>OrderPricePipe&#45;&gt;PricingModule</title>
<path fill="none" stroke="black" d="M530.02,-85.08C530.02,-100.75 530.02,-120.8 530.02,-120.8 530.02,-120.8 727.95,-120.8 727.95,-120.8"/>
<polygon fill="black" stroke="black" points="727.95,-124.3 737.95,-120.8 727.95,-117.3 727.95,-124.3"/>
</g>
<!-- PriceMatrixFilter -->
<g id="node10" class="node">
<title>PriceMatrixFilter</title>
<polygon fill="#ffffb3" stroke="black" points="414.69,-84.8 301.31,-84.8 301.31,-48.8 414.69,-48.8 414.69,-84.8"/>
<text text-anchor="middle" x="358" y="-62.6" font-family="Times,serif" font-size="14.00">PriceMatrixFilter</text>
</g>
<!-- PriceMatrixFilter&#45;&gt;PricingModule -->
<g id="edge10" class="edge">
<title>PriceMatrixFilter&#45;&gt;PricingModule</title>
<path fill="none" stroke="black" d="M407.97,-84.84C407.97,-101.53 407.97,-123.8 407.97,-123.8 407.97,-123.8 727.93,-123.8 727.93,-123.8"/>
<polygon fill="black" stroke="black" points="727.93,-127.3 737.93,-123.8 727.93,-120.3 727.93,-127.3"/>
</g>
<!-- ProductPricePipe -->
<g id="node11" class="node">
<title>ProductPricePipe</title>
<polygon fill="#ffffb3" stroke="black" points="283.7,-84.8 170.3,-84.8 170.3,-48.8 283.7,-48.8 283.7,-84.8"/>
<text text-anchor="middle" x="227" y="-62.6" font-family="Times,serif" font-size="14.00">ProductPricePipe</text>
</g>
<!-- ProductPricePipe&#45;&gt;PricingModule -->
<g id="edge11" class="edge">
<title>ProductPricePipe&#45;&gt;PricingModule</title>
<path fill="none" stroke="black" d="M274.97,-85.1C274.97,-103.07 274.97,-127.8 274.97,-127.8 274.97,-127.8 727.87,-127.8 727.87,-127.8"/>
<polygon fill="black" stroke="black" points="727.87,-131.3 737.87,-127.8 727.87,-124.3 727.87,-131.3"/>
</g>
<!-- QuotePricePipe -->
<g id="node12" class="node">
<title>QuotePricePipe</title>
<polygon fill="#ffffb3" stroke="black" points="151.86,-84.8 48.14,-84.8 48.14,-48.8 151.86,-48.8 151.86,-84.8"/>
<text text-anchor="middle" x="100" y="-62.6" font-family="Times,serif" font-size="14.00">QuotePricePipe</text>
</g>
<!-- QuotePricePipe&#45;&gt;PricingModule -->
<g id="edge12" class="edge">
<title>QuotePricePipe&#45;&gt;PricingModule</title>
<path fill="none" stroke="black" d="M140.67,-84.97C140.67,-103.89 140.67,-130.8 140.67,-130.8 140.67,-130.8 727.74,-130.8 727.74,-130.8"/>
<polygon fill="black" stroke="black" points="727.74,-134.3 737.74,-130.8 727.74,-127.3 727.74,-134.3"/>
</g>
<!-- AttributeValuePricePipe  -->
<g id="node14" class="node">
<title>AttributeValuePricePipe </title>
<polygon fill="#fb8072" stroke="black" points="1708.62,-214.8 1551.38,-214.8 1551.38,-178.8 1708.62,-178.8 1708.62,-214.8"/>
<text text-anchor="middle" x="1630" y="-192.6" font-family="Times,serif" font-size="14.00">AttributeValuePricePipe </text>
</g>
<!-- PricingModule&#45;&gt;AttributeValuePricePipe  -->
<g id="edge13" class="edge">
<title>PricingModule&#45;&gt;AttributeValuePricePipe </title>
<path fill="none" stroke="black" stroke-dasharray="5,2" d="M838.02,-134.8C1018.08,-134.8 1622.62,-134.8 1622.62,-134.8 1622.62,-134.8 1622.62,-168.53 1622.62,-168.53"/>
<polygon fill="black" stroke="black" points="1619.13,-168.53 1622.62,-178.53 1626.13,-168.53 1619.13,-168.53"/>
</g>
<!-- CartItemPricePipe  -->
<g id="node15" class="node">
<title>CartItemPricePipe </title>
<polygon fill="#fb8072" stroke="black" points="1533.41,-214.8 1410.59,-214.8 1410.59,-178.8 1533.41,-178.8 1533.41,-214.8"/>
<text text-anchor="middle" x="1472" y="-192.6" font-family="Times,serif" font-size="14.00">CartItemPricePipe </text>
</g>
<!-- PricingModule&#45;&gt;CartItemPricePipe  -->
<g id="edge14" class="edge">
<title>PricingModule&#45;&gt;CartItemPricePipe </title>
<path fill="none" stroke="black" stroke-dasharray="5,2" d="M838.14,-137.8C995.02,-137.8 1466.12,-137.8 1466.12,-137.8 1466.12,-137.8 1466.12,-168.78 1466.12,-168.78"/>
<polygon fill="black" stroke="black" points="1462.63,-168.78 1466.12,-178.78 1469.63,-168.78 1462.63,-168.78"/>
</g>
<!-- CartPricePipe  -->
<g id="node16" class="node">
<title>CartPricePipe </title>
<polygon fill="#fb8072" stroke="black" points="1392.75,-214.8 1295.25,-214.8 1295.25,-178.8 1392.75,-178.8 1392.75,-214.8"/>
<text text-anchor="middle" x="1344" y="-192.6" font-family="Times,serif" font-size="14.00">CartPricePipe </text>
</g>
<!-- PricingModule&#45;&gt;CartPricePipe  -->
<g id="edge15" class="edge">
<title>PricingModule&#45;&gt;CartPricePipe </title>
<path fill="none" stroke="black" stroke-dasharray="5,2" d="M838.03,-140.8C971.3,-140.8 1324.87,-140.8 1324.87,-140.8 1324.87,-140.8 1324.87,-168.77 1324.87,-168.77"/>
<polygon fill="black" stroke="black" points="1321.37,-168.77 1324.87,-178.77 1328.37,-168.77 1321.37,-168.77"/>
</g>
<!-- ConvertCurrencyPipe  -->
<g id="node17" class="node">
<title>ConvertCurrencyPipe </title>
<polygon fill="#fb8072" stroke="black" points="1277.58,-214.8 1136.42,-214.8 1136.42,-178.8 1277.58,-178.8 1277.58,-214.8"/>
<text text-anchor="middle" x="1207" y="-192.6" font-family="Times,serif" font-size="14.00">ConvertCurrencyPipe </text>
</g>
<!-- PricingModule&#45;&gt;ConvertCurrencyPipe  -->
<g id="edge16" class="edge">
<title>PricingModule&#45;&gt;ConvertCurrencyPipe </title>
<path fill="none" stroke="black" stroke-dasharray="5,2" d="M838.24,-143.8C944.31,-143.8 1181.49,-143.8 1181.49,-143.8 1181.49,-143.8 1181.49,-168.56 1181.49,-168.56"/>
<polygon fill="black" stroke="black" points="1177.99,-168.56 1181.49,-178.56 1184.99,-168.56 1177.99,-168.56"/>
</g>
<!-- LineItemPricePipe  -->
<g id="node18" class="node">
<title>LineItemPricePipe </title>
<polygon fill="#fb8072" stroke="black" points="1118.47,-214.8 993.53,-214.8 993.53,-178.8 1118.47,-178.8 1118.47,-214.8"/>
<text text-anchor="middle" x="1056" y="-192.6" font-family="Times,serif" font-size="14.00">LineItemPricePipe </text>
</g>
<!-- PricingModule&#45;&gt;LineItemPricePipe  -->
<g id="edge17" class="edge">
<title>PricingModule&#45;&gt;LineItemPricePipe </title>
<path fill="none" stroke="black" stroke-dasharray="5,2" d="M838.25,-146.8C910.42,-146.8 1034.84,-146.8 1034.84,-146.8 1034.84,-146.8 1034.84,-168.75 1034.84,-168.75"/>
<polygon fill="black" stroke="black" points="1031.34,-168.75 1034.84,-178.75 1038.34,-168.75 1031.34,-168.75"/>
</g>
<!-- LocalCurrencyPipe  -->
<g id="node19" class="node">
<title>LocalCurrencyPipe </title>
<polygon fill="#fb8072" stroke="black" points="976.35,-214.8 847.65,-214.8 847.65,-178.8 976.35,-178.8 976.35,-214.8"/>
<text text-anchor="middle" x="912" y="-192.6" font-family="Times,serif" font-size="14.00">LocalCurrencyPipe </text>
</g>
<!-- PricingModule&#45;&gt;LocalCurrencyPipe  -->
<g id="edge18" class="edge">
<title>PricingModule&#45;&gt;LocalCurrencyPipe </title>
<path fill="none" stroke="black" stroke-dasharray="5,2" d="M834.01,-149.91C834.01,-169.14 834.01,-196.8 834.01,-196.8 834.01,-196.8 837.59,-196.8 837.59,-196.8"/>
<polygon fill="black" stroke="black" points="837.59,-200.3 847.59,-196.8 837.59,-193.3 837.59,-200.3"/>
</g>
<!-- OptionPricePipe  -->
<g id="node20" class="node">
<title>OptionPricePipe </title>
<polygon fill="#fb8072" stroke="black" points="830.04,-214.8 717.96,-214.8 717.96,-178.8 830.04,-178.8 830.04,-214.8"/>
<text text-anchor="middle" x="774" y="-192.6" font-family="Times,serif" font-size="14.00">OptionPricePipe </text>
</g>
<!-- PricingModule&#45;&gt;OptionPricePipe  -->
<g id="edge19" class="edge">
<title>PricingModule&#45;&gt;OptionPricePipe </title>
<path fill="none" stroke="black" stroke-dasharray="5,2" d="M784.01,-149.91C784.01,-149.91 784.01,-168.79 784.01,-168.79"/>
<polygon fill="black" stroke="black" points="780.51,-168.79 784.01,-178.79 787.51,-168.79 780.51,-168.79"/>
</g>
<!-- OrderLineItemPricePipe  -->
<g id="node21" class="node">
<title>OrderLineItemPricePipe </title>
<polygon fill="#fb8072" stroke="black" points="699.61,-214.8 542.39,-214.8 542.39,-178.8 699.61,-178.8 699.61,-214.8"/>
<text text-anchor="middle" x="621" y="-192.6" font-family="Times,serif" font-size="14.00">OrderLineItemPricePipe </text>
</g>
<!-- PricingModule&#45;&gt;OrderLineItemPricePipe  -->
<g id="edge20" class="edge">
<title>PricingModule&#45;&gt;OrderLineItemPricePipe </title>
<path fill="none" stroke="black" stroke-dasharray="5,2" d="M737.75,-146.8C690.3,-146.8 626.38,-146.8 626.38,-146.8 626.38,-146.8 626.38,-168.75 626.38,-168.75"/>
<polygon fill="black" stroke="black" points="622.88,-168.75 626.38,-178.75 629.88,-168.75 622.88,-168.75"/>
</g>
<!-- OrderPricePipe  -->
<g id="node22" class="node">
<title>OrderPricePipe </title>
<polygon fill="#fb8072" stroke="black" points="524.79,-214.8 419.21,-214.8 419.21,-178.8 524.79,-178.8 524.79,-214.8"/>
<text text-anchor="middle" x="472" y="-192.6" font-family="Times,serif" font-size="14.00">OrderPricePipe </text>
</g>
<!-- PricingModule&#45;&gt;OrderPricePipe  -->
<g id="edge21" class="edge">
<title>PricingModule&#45;&gt;OrderPricePipe </title>
<path fill="none" stroke="black" stroke-dasharray="5,2" d="M737.99,-143.8C650.5,-143.8 478.88,-143.8 478.88,-143.8 478.88,-143.8 478.88,-168.56 478.88,-168.56"/>
<polygon fill="black" stroke="black" points="475.38,-168.56 478.88,-178.56 482.38,-168.56 475.38,-168.56"/>
</g>
<!-- PriceMatrixFilter  -->
<g id="node23" class="node">
<title>PriceMatrixFilter </title>
<polygon fill="#fb8072" stroke="black" points="401.19,-214.8 284.81,-214.8 284.81,-178.8 401.19,-178.8 401.19,-214.8"/>
<text text-anchor="middle" x="343" y="-192.6" font-family="Times,serif" font-size="14.00">PriceMatrixFilter </text>
</g>
<!-- PricingModule&#45;&gt;PriceMatrixFilter  -->
<g id="edge22" class="edge">
<title>PricingModule&#45;&gt;PriceMatrixFilter </title>
<path fill="none" stroke="black" stroke-dasharray="5,2" d="M737.91,-140.8C623.23,-140.8 351.38,-140.8 351.38,-140.8 351.38,-140.8 351.38,-168.77 351.38,-168.77"/>
<polygon fill="black" stroke="black" points="347.88,-168.77 351.38,-178.77 354.88,-168.77 347.88,-168.77"/>
</g>
<!-- ProductPricePipe  -->
<g id="node24" class="node">
<title>ProductPricePipe </title>
<polygon fill="#fb8072" stroke="black" points="266.2,-214.8 149.8,-214.8 149.8,-178.8 266.2,-178.8 266.2,-214.8"/>
<text text-anchor="middle" x="208" y="-192.6" font-family="Times,serif" font-size="14.00">ProductPricePipe </text>
</g>
<!-- PricingModule&#45;&gt;ProductPricePipe  -->
<g id="edge23" class="edge">
<title>PricingModule&#45;&gt;ProductPricePipe </title>
<path fill="none" stroke="black" stroke-dasharray="5,2" d="M737.95,-136.8C598.95,-136.8 218.38,-136.8 218.38,-136.8 218.38,-136.8 218.38,-168.8 218.38,-168.8"/>
<polygon fill="black" stroke="black" points="214.88,-168.8 218.38,-178.8 221.88,-168.8 214.88,-168.8"/>
</g>
<!-- QuotePricePipe  -->
<g id="node25" class="node">
<title>QuotePricePipe </title>
<polygon fill="#fb8072" stroke="black" points="131.86,-214.8 24.14,-214.8 24.14,-178.8 131.86,-178.8 131.86,-214.8"/>
<text text-anchor="middle" x="78" y="-192.6" font-family="Times,serif" font-size="14.00">QuotePricePipe </text>
</g>
<!-- PricingModule&#45;&gt;QuotePricePipe  -->
<g id="edge24" class="edge">
<title>PricingModule&#45;&gt;QuotePricePipe </title>
<path fill="none" stroke="black" stroke-dasharray="5,2" d="M737.79,-133.8C577.72,-133.8 89.88,-133.8 89.88,-133.8 89.88,-133.8 89.88,-168.58 89.88,-168.58"/>
<polygon fill="black" stroke="black" points="86.38,-168.58 89.88,-178.58 93.38,-168.58 86.38,-168.58"/>
</g>
</g>
</svg>
