<?xml version="1.0" encoding="UTF-8" standalone="no"?>
<!DOCTYPE svg PUBLIC "-//W3C//DTD SVG 1.1//EN"
 "http://www.w3.org/Graphics/SVG/1.1/DTD/svg11.dtd">
<!-- Generated by graphviz version 2.47.3 (20210619.1520)
 -->
<!-- Title: dependencies Pages: 1 -->
<svg width="688pt" height="174pt"
 viewBox="0.00 0.00 688.00 173.80" xmlns="http://www.w3.org/2000/svg" xmlns:xlink="http://www.w3.org/1999/xlink">
<g id="graph0" class="graph" transform="scale(1 1) rotate(0) translate(4 169.8)">
<title>dependencies</title>
<polygon fill="white" stroke="transparent" points="-4,4 -4,-169.8 684,-169.8 684,4 -4,4"/>
<text text-anchor="middle" x="340" y="-8.2" font-family="sans-serif" font-size="14.00">dependencies</text>
<g id="clust1" class="cluster">
<title>cluster_CartModule</title>
<polygon fill="none" stroke="black" stroke-dasharray="1,5" points="8,-32.8 8,-157.8 672,-157.8 672,-32.8 8,-32.8"/>
</g>
<g id="clust6" class="cluster">
<title>cluster_CartModule_imports</title>
<polygon fill="none" stroke="black" points="456,-40.8 456,-92.8 664,-92.8 664,-40.8 456,-40.8"/>
</g>
<g id="clust2" class="cluster">
<title>cluster_CartModule_declarations</title>
<polygon fill="none" stroke="black" points="16,-40.8 16,-92.8 448,-92.8 448,-40.8 16,-40.8"/>
</g>
<!-- CardFormComponent -->
<g id="node1" class="node">
<title>CardFormComponent</title>
<polygon fill="#ffffb3" stroke="black" points="440.38,-84.8 301.62,-84.8 301.62,-48.8 440.38,-48.8 440.38,-84.8"/>
<text text-anchor="middle" x="371" y="-62.6" font-family="Times,serif" font-size="14.00">CardFormComponent</text>
</g>
<!-- CartModule -->
<g id="node4" class="node">
<title>CartModule</title>
<polygon fill="#8dd3c7" stroke="black" points="342.65,-149.8 339.65,-153.8 318.65,-153.8 315.65,-149.8 259.35,-149.8 259.35,-113.8 342.65,-113.8 342.65,-149.8"/>
<text text-anchor="middle" x="301" y="-127.6" font-family="Times,serif" font-size="14.00">CartModule</text>
</g>
<!-- CardFormComponent&#45;&gt;CartModule -->
<g id="edge1" class="edge">
<title>CardFormComponent&#45;&gt;CartModule</title>
<path fill="none" stroke="black" d="M322.19,-84.91C322.19,-84.91 322.19,-103.79 322.19,-103.79"/>
<polygon fill="black" stroke="black" points="318.69,-103.79 322.19,-113.79 325.69,-103.79 318.69,-103.79"/>
</g>
<!-- CartComponent -->
<g id="node2" class="node">
<title>CartComponent</title>
<polygon fill="#ffffb3" stroke="black" points="283.94,-84.8 178.06,-84.8 178.06,-48.8 283.94,-48.8 283.94,-84.8"/>
<text text-anchor="middle" x="231" y="-62.6" font-family="Times,serif" font-size="14.00">CartComponent</text>
</g>
<!-- CartComponent&#45;&gt;CartModule -->
<g id="edge2" class="edge">
<title>CartComponent&#45;&gt;CartModule</title>
<path fill="none" stroke="black" d="M271.45,-84.91C271.45,-84.91 271.45,-103.79 271.45,-103.79"/>
<polygon fill="black" stroke="black" points="267.95,-103.79 271.45,-113.79 274.95,-103.79 267.95,-103.79"/>
</g>
<!-- SummaryComponent -->
<g id="node3" class="node">
<title>SummaryComponent</title>
<polygon fill="#ffffb3" stroke="black" points="159.77,-84.8 24.23,-84.8 24.23,-48.8 159.77,-48.8 159.77,-84.8"/>
<text text-anchor="middle" x="92" y="-62.6" font-family="Times,serif" font-size="14.00">SummaryComponent</text>
</g>
<!-- SummaryComponent&#45;&gt;CartModule -->
<g id="edge3" class="edge">
<title>SummaryComponent&#45;&gt;CartModule</title>
<path fill="none" stroke="black" d="M92,-84.91C92,-104.14 92,-131.8 92,-131.8 92,-131.8 249.21,-131.8 249.21,-131.8"/>
<polygon fill="black" stroke="black" points="249.21,-135.3 259.21,-131.8 249.21,-128.3 249.21,-135.3"/>
</g>
<!-- ConfigurationSummaryModule -->
<g id="node5" class="node">
<title>ConfigurationSummaryModule</title>
<polygon fill="#8dd3c7" stroke="black" points="656.03,-84.8 653.03,-88.8 632.03,-88.8 629.03,-84.8 463.97,-84.8 463.97,-48.8 656.03,-48.8 656.03,-84.8"/>
<text text-anchor="middle" x="560" y="-62.6" font-family="Times,serif" font-size="14.00">ConfigurationSummaryModule</text>
</g>
<!-- ConfigurationSummaryModule&#45;&gt;CartModule -->
<g id="edge4" class="edge">
<title>ConfigurationSummaryModule&#45;&gt;CartModule</title>
<path fill="none" stroke="black" d="M560,-84.91C560,-104.14 560,-131.8 560,-131.8 560,-131.8 352.9,-131.8 352.9,-131.8"/>
<polygon fill="black" stroke="black" points="352.9,-128.3 342.9,-131.8 352.9,-135.3 352.9,-128.3"/>
</g>
</g>
</svg>
