<?xml version="1.0" encoding="UTF-8" standalone="no"?>
<!DOCTYPE svg PUBLIC "-//W3C//DTD SVG 1.1//EN"
 "http://www.w3.org/Graphics/SVG/1.1/DTD/svg11.dtd">
<!-- Generated by graphviz version 2.47.3 (20210619.1520)
 -->
<!-- Title: dependencies Pages: 1 -->
<svg width="688pt" height="174pt"
 viewBox="0.00 0.00 688.00 173.80" xmlns="http://www.w3.org/2000/svg" xmlns:xlink="http://www.w3.org/1999/xlink">
<g id="graph0" class="graph" transform="scale(1 1) rotate(0) translate(4 169.8)">
<title>dependencies</title>
<polygon fill="white" stroke="transparent" points="-4,4 -4,-169.8 684,-169.8 684,4 -4,4"/>
<text text-anchor="middle" x="340" y="-8.2" font-family="sans-serif" font-size="14.00">dependencies</text>
<g id="clust1" class="cluster">
<title>cluster_CartModule</title>
<polygon fill="none" stroke="black" stroke-dasharray="1,5" points="8,-32.8 8,-157.8 672,-157.8 672,-32.8 8,-32.8"/>
</g>
<g id="clust2" class="cluster">
<title>cluster_CartModule_declarations</title>
<polygon fill="none" stroke="black" points="232,-40.8 232,-92.8 664,-92.8 664,-40.8 232,-40.8"/>
</g>
<g id="clust6" class="cluster">
<title>cluster_CartModule_imports</title>
<polygon fill="none" stroke="black" points="16,-40.8 16,-92.8 224,-92.8 224,-40.8 16,-40.8"/>
</g>
<!-- CardFormComponent -->
<g id="node1" class="node">
<title>CardFormComponent</title>
<polygon fill="#ffffb3" stroke="black" points="656.38,-84.8 517.62,-84.8 517.62,-48.8 656.38,-48.8 656.38,-84.8"/>
<text text-anchor="middle" x="587" y="-62.6" font-family="Times,serif" font-size="14.00">CardFormComponent</text>
</g>
<!-- CartModule -->
<g id="node4" class="node">
<title>CartModule</title>
<polygon fill="#8dd3c7" stroke="black" points="418.65,-149.8 415.65,-153.8 394.65,-153.8 391.65,-149.8 335.35,-149.8 335.35,-113.8 418.65,-113.8 418.65,-149.8"/>
<text text-anchor="middle" x="377" y="-127.6" font-family="Times,serif" font-size="14.00">CartModule</text>
</g>
<!-- CardFormComponent&#45;&gt;CartModule -->
<g id="edge1" class="edge">
<title>CardFormComponent&#45;&gt;CartModule</title>
<path fill="none" stroke="black" d="M587,-84.91C587,-104.14 587,-131.8 587,-131.8 587,-131.8 428.74,-131.8 428.74,-131.8"/>
<polygon fill="black" stroke="black" points="428.74,-128.3 418.74,-131.8 428.74,-135.3 428.74,-128.3"/>
</g>
<!-- CartComponent -->
<g id="node2" class="node">
<title>CartComponent</title>
<polygon fill="#ffffb3" stroke="black" points="499.94,-84.8 394.06,-84.8 394.06,-48.8 499.94,-48.8 499.94,-84.8"/>
<text text-anchor="middle" x="447" y="-62.6" font-family="Times,serif" font-size="14.00">CartComponent</text>
</g>
<!-- CartComponent&#45;&gt;CartModule -->
<g id="edge2" class="edge">
<title>CartComponent&#45;&gt;CartModule</title>
<path fill="none" stroke="black" d="M406.55,-84.91C406.55,-84.91 406.55,-103.79 406.55,-103.79"/>
<polygon fill="black" stroke="black" points="403.05,-103.79 406.55,-113.79 410.05,-103.79 403.05,-103.79"/>
</g>
<!-- SummaryComponent -->
<g id="node3" class="node">
<title>SummaryComponent</title>
<polygon fill="#ffffb3" stroke="black" points="375.77,-84.8 240.23,-84.8 240.23,-48.8 375.77,-48.8 375.77,-84.8"/>
<text text-anchor="middle" x="308" y="-62.6" font-family="Times,serif" font-size="14.00">SummaryComponent</text>
</g>
<!-- SummaryComponent&#45;&gt;CartModule -->
<g id="edge3" class="edge">
<title>SummaryComponent&#45;&gt;CartModule</title>
<path fill="none" stroke="black" d="M355.53,-84.91C355.53,-84.91 355.53,-103.79 355.53,-103.79"/>
<polygon fill="black" stroke="black" points="352.03,-103.79 355.53,-113.79 359.03,-103.79 352.03,-103.79"/>
</g>
<!-- ConfigurationSummaryModule -->
<g id="node5" class="node">
<title>ConfigurationSummaryModule</title>
<polygon fill="#8dd3c7" stroke="black" points="216.03,-84.8 213.03,-88.8 192.03,-88.8 189.03,-84.8 23.97,-84.8 23.97,-48.8 216.03,-48.8 216.03,-84.8"/>
<text text-anchor="middle" x="120" y="-62.6" font-family="Times,serif" font-size="14.00">ConfigurationSummaryModule</text>
</g>
<!-- ConfigurationSummaryModule&#45;&gt;CartModule -->
<g id="edge4" class="edge">
<title>ConfigurationSummaryModule&#45;&gt;CartModule</title>
<path fill="none" stroke="black" d="M120,-84.91C120,-104.14 120,-131.8 120,-131.8 120,-131.8 325.14,-131.8 325.14,-131.8"/>
<polygon fill="black" stroke="black" points="325.14,-135.3 335.14,-131.8 325.14,-128.3 325.14,-135.3"/>
</g>
</g>
</svg>
