<?xml version="1.0" encoding="UTF-8" standalone="no"?>
<!DOCTYPE svg PUBLIC "-//W3C//DTD SVG 1.1//EN"
 "http://www.w3.org/Graphics/SVG/1.1/DTD/svg11.dtd">
<!-- Generated by graphviz version 2.47.3 (20210619.1520)
 -->
<!-- Title: dependencies Pages: 1 -->
<svg width="1458pt" height="174pt"
 viewBox="0.00 0.00 1458.00 173.80" xmlns="http://www.w3.org/2000/svg" xmlns:xlink="http://www.w3.org/1999/xlink">
<g id="graph0" class="graph" transform="scale(1 1) rotate(0) translate(4 169.8)">
<title>dependencies</title>
<polygon fill="white" stroke="transparent" points="-4,4 -4,-169.8 1454,-169.8 1454,4 -4,4"/>
<text text-anchor="middle" x="725" y="-8.2" font-family="sans-serif" font-size="14.00">dependencies</text>
<g id="clust1" class="cluster">
<title>cluster_QuotesModule</title>
<polygon fill="none" stroke="black" stroke-dasharray="1,5" points="8,-32.8 8,-157.8 1442,-157.8 1442,-32.8 8,-32.8"/>
</g>
<g id="clust2" class="cluster">
<title>cluster_QuotesModule_declarations</title>
<polygon fill="none" stroke="black" points="734,-40.8 734,-92.8 1434,-92.8 1434,-40.8 734,-40.8"/>
</g>
<g id="clust7" class="cluster">
<title>cluster_QuotesModule_imports</title>
<polygon fill="none" stroke="black" points="16,-40.8 16,-92.8 726,-92.8 726,-40.8 16,-40.8"/>
</g>
<!-- CreateQuoteComponent -->
<g id="node1" class="node">
<title>CreateQuoteComponent</title>
<polygon fill="#ffffb3" stroke="black" points="1426.08,-84.8 1273.92,-84.8 1273.92,-48.8 1426.08,-48.8 1426.08,-84.8"/>
<text text-anchor="middle" x="1350" y="-62.6" font-family="Times,serif" font-size="14.00">CreateQuoteComponent</text>
</g>
<!-- QuotesModule -->
<g id="node5" class="node">
<title>QuotesModule</title>
<polygon fill="#8dd3c7" stroke="black" points="709.71,-149.8 706.71,-153.8 685.71,-153.8 682.71,-149.8 610.29,-149.8 610.29,-113.8 709.71,-113.8 709.71,-149.8"/>
<text text-anchor="middle" x="660" y="-127.6" font-family="Times,serif" font-size="14.00">QuotesModule</text>
</g>
<!-- CreateQuoteComponent&#45;&gt;QuotesModule -->
<g id="edge1" class="edge">
<title>CreateQuoteComponent&#45;&gt;QuotesModule</title>
<path fill="none" stroke="black" d="M1350,-84.81C1350,-107.29 1350,-142.8 1350,-142.8 1350,-142.8 719.62,-142.8 719.62,-142.8"/>
<polygon fill="black" stroke="black" points="719.62,-139.3 709.62,-142.8 719.62,-146.3 719.62,-139.3"/>
</g>
<!-- QuoteDetailComponent -->
<g id="node2" class="node">
<title>QuoteDetailComponent</title>
<polygon fill="#ffffb3" stroke="black" points="1255.75,-84.8 1106.25,-84.8 1106.25,-48.8 1255.75,-48.8 1255.75,-84.8"/>
<text text-anchor="middle" x="1181" y="-62.6" font-family="Times,serif" font-size="14.00">QuoteDetailComponent</text>
</g>
<!-- QuoteDetailComponent&#45;&gt;QuotesModule -->
<g id="edge2" class="edge">
<title>QuoteDetailComponent&#45;&gt;QuotesModule</title>
<path fill="none" stroke="black" d="M1181,-84.93C1181,-105.37 1181,-135.8 1181,-135.8 1181,-135.8 719.96,-135.8 719.96,-135.8"/>
<polygon fill="black" stroke="black" points="719.96,-132.3 709.96,-135.8 719.96,-139.3 719.96,-132.3"/>
</g>
<!-- QuoteListComponent -->
<g id="node3" class="node">
<title>QuoteListComponent</title>
<polygon fill="#ffffb3" stroke="black" points="1087.82,-84.8 950.18,-84.8 950.18,-48.8 1087.82,-48.8 1087.82,-84.8"/>
<text text-anchor="middle" x="1019" y="-62.6" font-family="Times,serif" font-size="14.00">QuoteListComponent</text>
</g>
<!-- QuoteListComponent&#45;&gt;QuotesModule -->
<g id="edge3" class="edge">
<title>QuoteListComponent&#45;&gt;QuotesModule</title>
<path fill="none" stroke="black" d="M1019,-85.07C1019,-103.36 1019,-128.8 1019,-128.8 1019,-128.8 719.92,-128.8 719.92,-128.8"/>
<polygon fill="black" stroke="black" points="719.92,-125.3 709.92,-128.8 719.92,-132.3 719.92,-125.3"/>
</g>
<!-- RequestQuoteFormComponent -->
<g id="node4" class="node">
<title>RequestQuoteFormComponent</title>
<polygon fill="#ffffb3" stroke="black" points="932.48,-84.8 741.52,-84.8 741.52,-48.8 932.48,-48.8 932.48,-84.8"/>
<text text-anchor="middle" x="837" y="-62.6" font-family="Times,serif" font-size="14.00">RequestQuoteFormComponent</text>
</g>
<!-- RequestQuoteFormComponent&#45;&gt;QuotesModule -->
<g id="edge4" class="edge">
<title>RequestQuoteFormComponent&#45;&gt;QuotesModule</title>
<path fill="none" stroke="black" d="M837,-84.81C837,-100.85 837,-121.8 837,-121.8 837,-121.8 719.78,-121.8 719.78,-121.8"/>
<polygon fill="black" stroke="black" points="719.78,-118.3 709.78,-121.8 719.78,-125.3 719.78,-118.3"/>
</g>
<!-- DataFilterModule -->
<g id="node6" class="node">
<title>DataFilterModule</title>
<polygon fill="#8dd3c7" stroke="black" points="718.31,-84.8 715.31,-88.8 694.31,-88.8 691.31,-84.8 601.69,-84.8 601.69,-48.8 718.31,-48.8 718.31,-84.8"/>
<text text-anchor="middle" x="660" y="-62.6" font-family="Times,serif" font-size="14.00">DataFilterModule</text>
</g>
<!-- DataFilterModule&#45;&gt;QuotesModule -->
<g id="edge5" class="edge">
<title>DataFilterModule&#45;&gt;QuotesModule</title>
<path fill="none" stroke="black" d="M660,-84.91C660,-84.91 660,-103.79 660,-103.79"/>
<polygon fill="black" stroke="black" points="656.5,-103.79 660,-113.79 663.5,-103.79 656.5,-103.79"/>
</g>
<!-- LineItemTableRowModule -->
<g id="node7" class="node">
<title>LineItemTableRowModule</title>
<polygon fill="#8dd3c7" stroke="black" points="583.68,-84.8 580.68,-88.8 559.68,-88.8 556.68,-84.8 414.32,-84.8 414.32,-48.8 583.68,-48.8 583.68,-84.8"/>
<text text-anchor="middle" x="499" y="-62.6" font-family="Times,serif" font-size="14.00">LineItemTableRowModule</text>
</g>
<!-- LineItemTableRowModule&#45;&gt;QuotesModule -->
<g id="edge6" class="edge">
<title>LineItemTableRowModule&#45;&gt;QuotesModule</title>
<path fill="none" stroke="black" d="M499,-84.81C499,-100.85 499,-121.8 499,-121.8 499,-121.8 600.38,-121.8 600.38,-121.8"/>
<polygon fill="black" stroke="black" points="600.38,-125.3 610.38,-121.8 600.38,-118.3 600.38,-125.3"/>
</g>
<!-- PricingModule -->
<g id="node8" class="node">
<title>PricingModule</title>
<polygon fill="#8dd3c7" stroke="black" points="395.99,-84.8 392.99,-88.8 371.99,-88.8 368.99,-84.8 296.01,-84.8 296.01,-48.8 395.99,-48.8 395.99,-84.8"/>
<text text-anchor="middle" x="346" y="-62.6" font-family="Times,serif" font-size="14.00">PricingModule</text>
</g>
<!-- PricingModule&#45;&gt;QuotesModule -->
<g id="edge7" class="edge">
<title>PricingModule&#45;&gt;QuotesModule</title>
<path fill="none" stroke="black" d="M346,-85.07C346,-103.36 346,-128.8 346,-128.8 346,-128.8 600.25,-128.8 600.25,-128.8"/>
<polygon fill="black" stroke="black" points="600.25,-132.3 610.25,-128.8 600.25,-125.3 600.25,-132.3"/>
</g>
<!-- QuotesRoutingModule -->
<g id="node9" class="node">
<title>QuotesRoutingModule</title>
<polygon fill="#8dd3c7" stroke="black" points="278.32,-84.8 275.32,-88.8 254.32,-88.8 251.32,-84.8 133.68,-84.8 133.68,-48.8 278.32,-48.8 278.32,-84.8"/>
<text text-anchor="middle" x="206" y="-62.6" font-family="Times,serif" font-size="14.00">QuotesRoutingModule</text>
</g>
<!-- QuotesRoutingModule&#45;&gt;QuotesModule -->
<g id="edge8" class="edge">
<title>QuotesRoutingModule&#45;&gt;QuotesModule</title>
<path fill="none" stroke="black" d="M206,-84.93C206,-105.37 206,-135.8 206,-135.8 206,-135.8 600.12,-135.8 600.12,-135.8"/>
<polygon fill="black" stroke="black" points="600.12,-139.3 610.12,-135.8 600.12,-132.3 600.12,-139.3"/>
</g>
<!-- TableModule -->
<g id="node10" class="node">
<title>TableModule</title>
<polygon fill="#8dd3c7" stroke="black" points="115.92,-84.8 112.92,-88.8 91.92,-88.8 88.92,-84.8 24.08,-84.8 24.08,-48.8 115.92,-48.8 115.92,-84.8"/>
<text text-anchor="middle" x="70" y="-62.6" font-family="Times,serif" font-size="14.00">TableModule</text>
</g>
<!-- TableModule&#45;&gt;QuotesModule -->
<g id="edge9" class="edge">
<title>TableModule&#45;&gt;QuotesModule</title>
<path fill="none" stroke="black" d="M70,-84.81C70,-107.29 70,-142.8 70,-142.8 70,-142.8 600.21,-142.8 600.21,-142.8"/>
<polygon fill="black" stroke="black" points="600.21,-146.3 610.21,-142.8 600.21,-139.3 600.21,-146.3"/>
</g>
</g>
</svg>
