<?xml version="1.0" encoding="UTF-8" standalone="no"?>
<!DOCTYPE svg PUBLIC "-//W3C//DTD SVG 1.1//EN"
 "http://www.w3.org/Graphics/SVG/1.1/DTD/svg11.dtd">
<!-- Generated by graphviz version 2.47.3 (20210619.1520)
 -->
<!-- Title: dependencies Pages: 1 -->
<svg width="694pt" height="174pt"
 viewBox="0.00 0.00 694.00 173.80" xmlns="http://www.w3.org/2000/svg" xmlns:xlink="http://www.w3.org/1999/xlink">
<g id="graph0" class="graph" transform="scale(1 1) rotate(0) translate(4 169.8)">
<title>dependencies</title>
<polygon fill="white" stroke="transparent" points="-4,4 -4,-169.8 690,-169.8 690,4 -4,4"/>
<text text-anchor="middle" x="343" y="-8.2" font-family="sans-serif" font-size="14.00">dependencies</text>
<g id="clust1" class="cluster">
<title>cluster_QuoteModule</title>
<polygon fill="none" stroke="black" stroke-dasharray="1,5" points="8,-32.8 8,-157.8 678,-157.8 678,-32.8 8,-32.8"/>
</g>
<g id="clust2" class="cluster">
<title>cluster_QuoteModule_declarations</title>
<polygon fill="none" stroke="black" points="328,-40.8 328,-92.8 670,-92.8 670,-40.8 328,-40.8"/>
</g>
<g id="clust5" class="cluster">
<title>cluster_QuoteModule_imports</title>
<polygon fill="none" stroke="black" points="16,-40.8 16,-92.8 320,-92.8 320,-40.8 16,-40.8"/>
</g>
<!-- CreateQuoteComponent -->
<g id="node1" class="node">
<title>CreateQuoteComponent</title>
<polygon fill="#ffffb3" stroke="black" points="662.08,-84.8 509.92,-84.8 509.92,-48.8 662.08,-48.8 662.08,-84.8"/>
<text text-anchor="middle" x="586" y="-62.6" font-family="Times,serif" font-size="14.00">CreateQuoteComponent</text>
</g>
<!-- QuoteModule -->
<g id="node3" class="node">
<title>QuoteModule</title>
<polygon fill="#8dd3c7" stroke="black" points="366.76,-149.8 363.76,-153.8 342.76,-153.8 339.76,-149.8 273.24,-149.8 273.24,-113.8 366.76,-113.8 366.76,-149.8"/>
<text text-anchor="middle" x="320" y="-127.6" font-family="Times,serif" font-size="14.00">QuoteModule</text>
</g>
<!-- CreateQuoteComponent&#45;&gt;QuoteModule -->
<g id="edge1" class="edge">
<title>CreateQuoteComponent&#45;&gt;QuoteModule</title>
<path fill="none" stroke="black" d="M586,-84.91C586,-104.14 586,-131.8 586,-131.8 586,-131.8 376.94,-131.8 376.94,-131.8"/>
<polygon fill="black" stroke="black" points="376.94,-128.3 366.94,-131.8 376.94,-135.3 376.94,-128.3"/>
</g>
<!-- QuoteDetailsComponent -->
<g id="node2" class="node">
<title>QuoteDetailsComponent</title>
<polygon fill="#ffffb3" stroke="black" points="491.7,-84.8 336.3,-84.8 336.3,-48.8 491.7,-48.8 491.7,-84.8"/>
<text text-anchor="middle" x="414" y="-62.6" font-family="Times,serif" font-size="14.00">QuoteDetailsComponent</text>
</g>
<!-- QuoteDetailsComponent&#45;&gt;QuoteModule -->
<g id="edge2" class="edge">
<title>QuoteDetailsComponent&#45;&gt;QuoteModule</title>
<path fill="none" stroke="black" d="M351.64,-84.91C351.64,-84.91 351.64,-103.79 351.64,-103.79"/>
<polygon fill="black" stroke="black" points="348.14,-103.79 351.64,-113.79 355.14,-103.79 348.14,-103.79"/>
</g>
<!-- LineItemTableRowModule -->
<g id="node4" class="node">
<title>LineItemTableRowModule</title>
<polygon fill="#8dd3c7" stroke="black" points="311.68,-84.8 308.68,-88.8 287.68,-88.8 284.68,-84.8 142.32,-84.8 142.32,-48.8 311.68,-48.8 311.68,-84.8"/>
<text text-anchor="middle" x="227" y="-62.6" font-family="Times,serif" font-size="14.00">LineItemTableRowModule</text>
</g>
<!-- LineItemTableRowModule&#45;&gt;QuoteModule -->
<g id="edge3" class="edge">
<title>LineItemTableRowModule&#45;&gt;QuoteModule</title>
<path fill="none" stroke="black" d="M292.35,-84.91C292.35,-84.91 292.35,-103.79 292.35,-103.79"/>
<polygon fill="black" stroke="black" points="288.85,-103.79 292.35,-113.79 295.85,-103.79 288.85,-103.79"/>
</g>
<!-- PricingModule -->
<g id="node5" class="node">
<title>PricingModule</title>
<polygon fill="#8dd3c7" stroke="black" points="123.99,-84.8 120.99,-88.8 99.99,-88.8 96.99,-84.8 24.01,-84.8 24.01,-48.8 123.99,-48.8 123.99,-84.8"/>
<text text-anchor="middle" x="74" y="-62.6" font-family="Times,serif" font-size="14.00">PricingModule</text>
</g>
<!-- PricingModule&#45;&gt;QuoteModule -->
<g id="edge4" class="edge">
<title>PricingModule&#45;&gt;QuoteModule</title>
<path fill="none" stroke="black" d="M74,-84.91C74,-104.14 74,-131.8 74,-131.8 74,-131.8 263.15,-131.8 263.15,-131.8"/>
<polygon fill="black" stroke="black" points="263.15,-135.3 273.15,-131.8 263.15,-128.3 263.15,-135.3"/>
</g>
</g>
</svg>
