<?xml version="1.0" encoding="UTF-8" standalone="no"?>
<!DOCTYPE svg PUBLIC "-//W3C//DTD SVG 1.1//EN"
 "http://www.w3.org/Graphics/SVG/1.1/DTD/svg11.dtd">
<!-- Generated by graphviz version 2.47.3 (20210619.1520)
 -->
<!-- Title: dependencies Pages: 1 -->
<svg width="902pt" height="174pt"
 viewBox="0.00 0.00 902.00 173.80" xmlns="http://www.w3.org/2000/svg" xmlns:xlink="http://www.w3.org/1999/xlink">
<g id="graph0" class="graph" transform="scale(1 1) rotate(0) translate(4 169.8)">
<title>dependencies</title>
<polygon fill="white" stroke="transparent" points="-4,4 -4,-169.8 898,-169.8 898,4 -4,4"/>
<text text-anchor="middle" x="447" y="-8.2" font-family="sans-serif" font-size="14.00">dependencies</text>
<g id="clust1" class="cluster">
<title>cluster_QuoteModule</title>
<polygon fill="none" stroke="black" stroke-dasharray="1,5" points="8,-32.8 8,-157.8 886,-157.8 886,-32.8 8,-32.8"/>
</g>
<g id="clust6" class="cluster">
<title>cluster_QuoteModule_imports</title>
<polygon fill="none" stroke="black" points="574,-40.8 574,-92.8 878,-92.8 878,-40.8 574,-40.8"/>
</g>
<g id="clust2" class="cluster">
<title>cluster_QuoteModule_declarations</title>
<polygon fill="none" stroke="black" points="16,-40.8 16,-92.8 566,-92.8 566,-40.8 16,-40.8"/>
</g>
<!-- CreateQuoteComponent -->
<g id="node1" class="node">
<title>CreateQuoteComponent</title>
<polygon fill="#ffffb3" stroke="black" points="558.08,-84.8 405.92,-84.8 405.92,-48.8 558.08,-48.8 558.08,-84.8"/>
<text text-anchor="middle" x="482" y="-62.6" font-family="Times,serif" font-size="14.00">CreateQuoteComponent</text>
</g>
<!-- QuoteModule -->
<g id="node4" class="node">
<title>QuoteModule</title>
<polygon fill="#8dd3c7" stroke="black" points="528.76,-149.8 525.76,-153.8 504.76,-153.8 501.76,-149.8 435.24,-149.8 435.24,-113.8 528.76,-113.8 528.76,-149.8"/>
<text text-anchor="middle" x="482" y="-127.6" font-family="Times,serif" font-size="14.00">QuoteModule</text>
</g>
<!-- CreateQuoteComponent&#45;&gt;QuoteModule -->
<g id="edge1" class="edge">
<title>CreateQuoteComponent&#45;&gt;QuoteModule</title>
<path fill="none" stroke="black" d="M482,-84.91C482,-84.91 482,-103.79 482,-103.79"/>
<polygon fill="black" stroke="black" points="478.5,-103.79 482,-113.79 485.5,-103.79 478.5,-103.79"/>
</g>
<!-- QuoteDetailsComponent -->
<g id="node2" class="node">
<title>QuoteDetailsComponent</title>
<polygon fill="#ffffb3" stroke="black" points="387.7,-84.8 232.3,-84.8 232.3,-48.8 387.7,-48.8 387.7,-84.8"/>
<text text-anchor="middle" x="310" y="-62.6" font-family="Times,serif" font-size="14.00">QuoteDetailsComponent</text>
</g>
<!-- QuoteDetailsComponent&#45;&gt;QuoteModule -->
<g id="edge2" class="edge">
<title>QuoteDetailsComponent&#45;&gt;QuoteModule</title>
<path fill="none" stroke="black" d="M310,-84.82C310,-102.17 310,-125.8 310,-125.8 310,-125.8 425,-125.8 425,-125.8"/>
<polygon fill="black" stroke="black" points="425,-129.3 435,-125.8 425,-122.3 425,-129.3"/>
</g>
<!-- RequestQuoteFormComponent -->
<g id="node3" class="node">
<title>RequestQuoteFormComponent</title>
<polygon fill="#ffffb3" stroke="black" points="214.48,-84.8 23.52,-84.8 23.52,-48.8 214.48,-48.8 214.48,-84.8"/>
<text text-anchor="middle" x="119" y="-62.6" font-family="Times,serif" font-size="14.00">RequestQuoteFormComponent</text>
</g>
<!-- RequestQuoteFormComponent&#45;&gt;QuoteModule -->
<g id="edge3" class="edge">
<title>RequestQuoteFormComponent&#45;&gt;QuoteModule</title>
<path fill="none" stroke="black" d="M119,-85.08C119,-106.12 119,-137.8 119,-137.8 119,-137.8 424.92,-137.8 424.92,-137.8"/>
<polygon fill="black" stroke="black" points="424.92,-141.3 434.92,-137.8 424.92,-134.3 424.92,-141.3"/>
</g>
<!-- LineItemTableRowModule -->
<g id="node5" class="node">
<title>LineItemTableRowModule</title>
<polygon fill="#8dd3c7" stroke="black" points="869.68,-84.8 866.68,-88.8 845.68,-88.8 842.68,-84.8 700.32,-84.8 700.32,-48.8 869.68,-48.8 869.68,-84.8"/>
<text text-anchor="middle" x="785" y="-62.6" font-family="Times,serif" font-size="14.00">LineItemTableRowModule</text>
</g>
<!-- LineItemTableRowModule&#45;&gt;QuoteModule -->
<g id="edge4" class="edge">
<title>LineItemTableRowModule&#45;&gt;QuoteModule</title>
<path fill="none" stroke="black" d="M785,-85.08C785,-106.12 785,-137.8 785,-137.8 785,-137.8 539.01,-137.8 539.01,-137.8"/>
<polygon fill="black" stroke="black" points="539.01,-134.3 529.01,-137.8 539.01,-141.3 539.01,-134.3"/>
</g>
<!-- PricingModule -->
<g id="node6" class="node">
<title>PricingModule</title>
<polygon fill="#8dd3c7" stroke="black" points="681.99,-84.8 678.99,-88.8 657.99,-88.8 654.99,-84.8 582.01,-84.8 582.01,-48.8 681.99,-48.8 681.99,-84.8"/>
<text text-anchor="middle" x="632" y="-62.6" font-family="Times,serif" font-size="14.00">PricingModule</text>
</g>
<!-- PricingModule&#45;&gt;QuoteModule -->
<g id="edge5" class="edge">
<title>PricingModule&#45;&gt;QuoteModule</title>
<path fill="none" stroke="black" d="M632,-84.82C632,-102.17 632,-125.8 632,-125.8 632,-125.8 539.05,-125.8 539.05,-125.8"/>
<polygon fill="black" stroke="black" points="539.05,-122.3 529.05,-125.8 539.05,-129.3 539.05,-122.3"/>
</g>
</g>
</svg>
