<?xml version="1.0" encoding="UTF-8" standalone="no"?>
<!DOCTYPE svg PUBLIC "-//W3C//DTD SVG 1.1//EN"
 "http://www.w3.org/Graphics/SVG/1.1/DTD/svg11.dtd">
<!-- Generated by graphviz version 2.47.3 (20210619.1520)
 -->
<!-- Title: dependencies Pages: 1 -->
<svg width="604pt" height="247pt"
 viewBox="0.00 0.00 604.00 246.80" xmlns="http://www.w3.org/2000/svg" xmlns:xlink="http://www.w3.org/1999/xlink">
<g id="graph0" class="graph" transform="scale(1 1) rotate(0) translate(4 242.8)">
<title>dependencies</title>
<polygon fill="white" stroke="transparent" points="-4,4 -4,-242.8 600,-242.8 600,4 -4,4"/>
<text text-anchor="middle" x="298" y="-8.2" font-family="sans-serif" font-size="14.00">dependencies</text>
<g id="clust1" class="cluster">
<title>cluster_FilesModule</title>
<polygon fill="none" stroke="black" stroke-dasharray="1,5" points="8,-32.8 8,-230.8 588,-230.8 588,-32.8 8,-32.8"/>
</g>
<g id="clust4" class="cluster">
<title>cluster_FilesModule_imports</title>
<polygon fill="none" stroke="black" points="148,-40.8 148,-92.8 580,-92.8 580,-40.8 148,-40.8"/>
</g>
<g id="clust5" class="cluster">
<title>cluster_FilesModule_exports</title>
<polygon fill="none" stroke="black" points="254,-170.8 254,-222.8 382,-222.8 382,-170.8 254,-170.8"/>
</g>
<g id="clust2" class="cluster">
<title>cluster_FilesModule_declarations</title>
<polygon fill="none" stroke="black" points="16,-40.8 16,-92.8 140,-92.8 140,-40.8 16,-40.8"/>
</g>
<!-- FilesComponent -->
<g id="node1" class="node">
<title>FilesComponent</title>
<polygon fill="#ffffb3" stroke="black" points="132.06,-84.8 23.94,-84.8 23.94,-48.8 132.06,-48.8 132.06,-84.8"/>
<text text-anchor="middle" x="78" y="-62.6" font-family="Times,serif" font-size="14.00">FilesComponent</text>
</g>
<!-- FilesModule -->
<g id="node2" class="node">
<title>FilesModule</title>
<polygon fill="#8dd3c7" stroke="black" points="361.27,-149.8 358.27,-153.8 337.27,-153.8 334.27,-149.8 274.73,-149.8 274.73,-113.8 361.27,-113.8 361.27,-149.8"/>
<text text-anchor="middle" x="318" y="-127.6" font-family="Times,serif" font-size="14.00">FilesModule</text>
</g>
<!-- FilesComponent&#45;&gt;FilesModule -->
<g id="edge1" class="edge">
<title>FilesComponent&#45;&gt;FilesModule</title>
<path fill="none" stroke="black" d="M78,-84.91C78,-104.14 78,-131.8 78,-131.8 78,-131.8 264.54,-131.8 264.54,-131.8"/>
<polygon fill="black" stroke="black" points="264.54,-135.3 274.54,-131.8 264.54,-128.3 264.54,-135.3"/>
</g>
<!-- FilesComponent  -->
<g id="node6" class="node">
<title>FilesComponent </title>
<polygon fill="#fb8072" stroke="black" points="374.06,-214.8 261.94,-214.8 261.94,-178.8 374.06,-178.8 374.06,-214.8"/>
<text text-anchor="middle" x="318" y="-192.6" font-family="Times,serif" font-size="14.00">FilesComponent </text>
</g>
<!-- FilesModule&#45;&gt;FilesComponent  -->
<g id="edge5" class="edge">
<title>FilesModule&#45;&gt;FilesComponent </title>
<path fill="none" stroke="black" stroke-dasharray="5,2" d="M318,-149.91C318,-149.91 318,-168.79 318,-168.79"/>
<polygon fill="black" stroke="black" points="314.5,-168.79 318,-178.79 321.5,-168.79 314.5,-168.79"/>
</g>
<!-- CommonModule -->
<g id="node3" class="node">
<title>CommonModule</title>
<polygon fill="#8dd3c7" stroke="black" points="571.67,-84.8 568.67,-88.8 547.67,-88.8 544.67,-84.8 460.33,-84.8 460.33,-48.8 571.67,-48.8 571.67,-84.8"/>
<text text-anchor="middle" x="516" y="-62.6" font-family="Times,serif" font-size="14.00">CommonModule</text>
</g>
<!-- CommonModule&#45;&gt;FilesModule -->
<g id="edge2" class="edge">
<title>CommonModule&#45;&gt;FilesModule</title>
<path fill="none" stroke="black" d="M516,-84.91C516,-104.14 516,-131.8 516,-131.8 516,-131.8 371.45,-131.8 371.45,-131.8"/>
<polygon fill="black" stroke="black" points="371.45,-128.3 361.45,-131.8 371.45,-135.3 371.45,-128.3"/>
</g>
<!-- ApttusModule -->
<g id="node4" class="node">
<title>ApttusModule</title>
<polygon fill="#8dd3c7" stroke="black" points="442.38,-84.8 439.38,-88.8 418.38,-88.8 415.38,-84.8 345.62,-84.8 345.62,-48.8 442.38,-48.8 442.38,-84.8"/>
<text text-anchor="middle" x="394" y="-62.6" font-family="Times,serif" font-size="14.00">ApttusModule</text>
</g>
<!-- ApttusModule&#45;&gt;FilesModule -->
<g id="edge3" class="edge">
<title>ApttusModule&#45;&gt;FilesModule</title>
<path fill="none" stroke="black" d="M353.47,-84.91C353.47,-84.91 353.47,-103.79 353.47,-103.79"/>
<polygon fill="black" stroke="black" points="349.97,-103.79 353.47,-113.79 356.97,-103.79 349.97,-103.79"/>
</g>
<!-- TranslateModule.forChild() -->
<g id="node5" class="node">
<title>TranslateModule.forChild()</title>
<polygon fill="#8dd3c7" stroke="black" points="327.89,-84.8 324.89,-88.8 303.89,-88.8 300.89,-84.8 156.11,-84.8 156.11,-48.8 327.89,-48.8 327.89,-84.8"/>
<text text-anchor="middle" x="242" y="-62.6" font-family="Times,serif" font-size="14.00">TranslateModule.forChild()</text>
</g>
<!-- TranslateModule.forChild()&#45;&gt;FilesModule -->
<g id="edge4" class="edge">
<title>TranslateModule.forChild()&#45;&gt;FilesModule</title>
<path fill="none" stroke="black" d="M301.28,-84.91C301.28,-84.91 301.28,-103.79 301.28,-103.79"/>
<polygon fill="black" stroke="black" points="297.78,-103.79 301.28,-113.79 304.78,-103.79 297.78,-103.79"/>
</g>
</g>
</svg>
