<?xml version="1.0" encoding="UTF-8" standalone="no"?>
<!DOCTYPE svg PUBLIC "-//W3C//DTD SVG 1.1//EN"
 "http://www.w3.org/Graphics/SVG/1.1/DTD/svg11.dtd">
<!-- Generated by graphviz version 2.47.3 (20210619.1520)
 -->
<!-- Title: dependencies Pages: 1 -->
<svg width="1188pt" height="174pt"
 viewBox="0.00 0.00 1188.00 173.80" xmlns="http://www.w3.org/2000/svg" xmlns:xlink="http://www.w3.org/1999/xlink">
<g id="graph0" class="graph" transform="scale(1 1) rotate(0) translate(4 169.8)">
<title>dependencies</title>
<polygon fill="white" stroke="transparent" points="-4,4 -4,-169.8 1184,-169.8 1184,4 -4,4"/>
<text text-anchor="middle" x="590" y="-8.2" font-family="sans-serif" font-size="14.00">dependencies</text>
<g id="clust1" class="cluster">
<title>cluster_AuthProviderModule</title>
<polygon fill="none" stroke="black" stroke-dasharray="1,5" points="8,-32.8 8,-157.8 1172,-157.8 1172,-32.8 8,-32.8"/>
</g>
<g id="clust3" class="cluster">
<title>cluster_AuthProviderModule_imports</title>
<polygon fill="none" stroke="black" points="900,-40.8 900,-92.8 1164,-92.8 1164,-40.8 900,-40.8"/>
</g>
<g id="clust6" class="cluster">
<title>cluster_AuthProviderModule_providers</title>
<polygon fill="none" stroke="black" points="16,-40.8 16,-92.8 892,-92.8 892,-40.8 16,-40.8"/>
</g>
<!-- CommonModule -->
<g id="node1" class="node">
<title>CommonModule</title>
<polygon fill="#8dd3c7" stroke="black" points="1155.67,-84.8 1152.67,-88.8 1131.67,-88.8 1128.67,-84.8 1044.33,-84.8 1044.33,-48.8 1155.67,-48.8 1155.67,-84.8"/>
<text text-anchor="middle" x="1100" y="-62.6" font-family="Times,serif" font-size="14.00">CommonModule</text>
</g>
<!-- AuthProviderModule -->
<g id="node3" class="node">
<title>AuthProviderModule</title>
<polygon fill="#8dd3c7" stroke="black" points="828.76,-149.8 825.76,-153.8 804.76,-153.8 801.76,-149.8 693.24,-149.8 693.24,-113.8 828.76,-113.8 828.76,-149.8"/>
<text text-anchor="middle" x="761" y="-127.6" font-family="Times,serif" font-size="14.00">AuthProviderModule</text>
</g>
<!-- CommonModule&#45;&gt;AuthProviderModule -->
<g id="edge1" class="edge">
<title>CommonModule&#45;&gt;AuthProviderModule</title>
<path fill="none" stroke="black" d="M1100,-85.08C1100,-106.12 1100,-137.8 1100,-137.8 1100,-137.8 838.79,-137.8 838.79,-137.8"/>
<polygon fill="black" stroke="black" points="838.79,-134.3 828.79,-137.8 838.79,-141.3 838.79,-134.3"/>
</g>
<!-- HttpClientModule -->
<g id="node2" class="node">
<title>HttpClientModule</title>
<polygon fill="#8dd3c7" stroke="black" points="1026.16,-84.8 1023.16,-88.8 1002.16,-88.8 999.16,-84.8 907.84,-84.8 907.84,-48.8 1026.16,-48.8 1026.16,-84.8"/>
<text text-anchor="middle" x="967" y="-62.6" font-family="Times,serif" font-size="14.00">HttpClientModule</text>
</g>
<!-- HttpClientModule&#45;&gt;AuthProviderModule -->
<g id="edge2" class="edge">
<title>HttpClientModule&#45;&gt;AuthProviderModule</title>
<path fill="none" stroke="black" d="M967,-84.82C967,-102.17 967,-125.8 967,-125.8 967,-125.8 839.02,-125.8 839.02,-125.8"/>
<polygon fill="black" stroke="black" points="839.02,-122.3 829.02,-125.8 839.02,-129.3 839.02,-122.3"/>
</g>
<!-- { provide: HTTP_INTERCEPTORS, useClass: AuthProviderInterceptor, multi: &#160;} -->
<g id="node4" class="node">
<title>{ provide: HTTP_INTERCEPTORS, useClass: AuthProviderInterceptor, multi: &#160;}</title>
<ellipse fill="#fdb462" stroke="black" cx="556" cy="-66.8" rx="328.44" ry="18"/>
<text text-anchor="middle" x="556" y="-62.6" font-family="Times,serif" font-size="14.00">{ provide: HTTP_INTERCEPTORS, useClass: AuthProviderInterceptor, multi: &#160;}</text>
</g>
<!-- { provide: HTTP_INTERCEPTORS, useClass: AuthProviderInterceptor, multi: &#160;}&#45;&gt;AuthProviderModule -->
<g id="edge3" class="edge">
<title>{ provide: HTTP_INTERCEPTORS, useClass: AuthProviderInterceptor, multi: &#160;}&#45;&gt;AuthProviderModule</title>
<path fill="none" stroke="black" d="M761,-80.9C761,-80.9 761,-103.52 761,-103.52"/>
<polygon fill="black" stroke="black" points="757.5,-103.52 761,-113.52 764.5,-103.52 757.5,-103.52"/>
</g>
<!-- AuthProviderService -->
<g id="node5" class="node">
<title>AuthProviderService</title>
<ellipse fill="#fdb462" stroke="black" cx="117" cy="-66.8" rx="92.62" ry="18"/>
<text text-anchor="middle" x="117" y="-62.6" font-family="Times,serif" font-size="14.00">AuthProviderService</text>
</g>
<!-- AuthProviderService&#45;&gt;AuthProviderModule -->
<g id="edge4" class="edge">
<title>AuthProviderService&#45;&gt;AuthProviderModule</title>
<path fill="none" stroke="black" d="M117,-84.91C117,-104.14 117,-131.8 117,-131.8 117,-131.8 682.99,-131.8 682.99,-131.8"/>
<polygon fill="black" stroke="black" points="682.99,-135.3 692.99,-131.8 682.99,-128.3 682.99,-135.3"/>
</g>
</g>
</svg>
