<?xml version="1.0" encoding="UTF-8" standalone="no"?>
<!DOCTYPE svg PUBLIC "-//W3C//DTD SVG 1.1//EN"
 "http://www.w3.org/Graphics/SVG/1.1/DTD/svg11.dtd">
<!-- Generated by graphviz version 2.47.3 (20210619.1520)
 -->
<!-- Title: dependencies Pages: 1 -->
<svg width="230pt" height="174pt"
 viewBox="0.00 0.00 230.00 173.80" xmlns="http://www.w3.org/2000/svg" xmlns:xlink="http://www.w3.org/1999/xlink">
<g id="graph0" class="graph" transform="scale(1 1) rotate(0) translate(4 169.8)">
<title>dependencies</title>
<polygon fill="white" stroke="transparent" points="-4,4 -4,-169.8 226,-169.8 226,4 -4,4"/>
<text text-anchor="middle" x="111" y="-8.2" font-family="sans-serif" font-size="14.00">dependencies</text>
<g id="clust1" class="cluster">
<title>cluster_PaymentMessageModule</title>
<polygon fill="none" stroke="black" stroke-dasharray="1,5" points="8,-32.8 8,-157.8 214,-157.8 214,-32.8 8,-32.8"/>
</g>
<g id="clust2" class="cluster">
<title>cluster_PaymentMessageModule_declarations</title>
<polygon fill="none" stroke="black" points="16,-40.8 16,-92.8 206,-92.8 206,-40.8 16,-40.8"/>
</g>
<!-- PaymentMesageComponent -->
<g id="node1" class="node">
<title>PaymentMesageComponent</title>
<polygon fill="#ffffb3" stroke="black" points="197.86,-84.8 24.14,-84.8 24.14,-48.8 197.86,-48.8 197.86,-84.8"/>
<text text-anchor="middle" x="111" y="-62.6" font-family="Times,serif" font-size="14.00">PaymentMesageComponent</text>
</g>
<!-- PaymentMessageModule -->
<g id="node2" class="node">
<title>PaymentMessageModule</title>
<polygon fill="#8dd3c7" stroke="black" points="189.52,-149.8 186.52,-153.8 165.52,-153.8 162.52,-149.8 32.48,-149.8 32.48,-113.8 189.52,-113.8 189.52,-149.8"/>
<text text-anchor="middle" x="111" y="-127.6" font-family="Times,serif" font-size="14.00">PaymentMessageModule</text>
</g>
<!-- PaymentMesageComponent&#45;&gt;PaymentMessageModule -->
<g id="edge1" class="edge">
<title>PaymentMesageComponent&#45;&gt;PaymentMessageModule</title>
<path fill="none" stroke="black" d="M111,-84.91C111,-84.91 111,-103.79 111,-103.79"/>
<polygon fill="black" stroke="black" points="107.5,-103.79 111,-113.79 114.5,-103.79 107.5,-103.79"/>
</g>
</g>
</svg>
