<?xml version="1.0" encoding="UTF-8" standalone="no"?>
<!DOCTYPE svg PUBLIC "-//W3C//DTD SVG 1.1//EN"
 "http://www.w3.org/Graphics/SVG/1.1/DTD/svg11.dtd">
<!-- Generated by graphviz version 2.47.3 (20210619.1520)
 -->
<!-- Title: dependencies Pages: 1 -->
<svg width="1771pt" height="247pt"
 viewBox="0.00 0.00 1771.00 246.80" xmlns="http://www.w3.org/2000/svg" xmlns:xlink="http://www.w3.org/1999/xlink">
<g id="graph0" class="graph" transform="scale(1 1) rotate(0) translate(4 242.8)">
<title>dependencies</title>
<polygon fill="white" stroke="transparent" points="-4,4 -4,-242.8 1767,-242.8 1767,4 -4,4"/>
<text text-anchor="middle" x="881.5" y="-8.2" font-family="sans-serif" font-size="14.00">dependencies</text>
<g id="clust1" class="cluster">
<title>cluster_ComponentModule</title>
<polygon fill="none" stroke="black" stroke-dasharray="1,5" points="8,-32.8 8,-230.8 1755,-230.8 1755,-32.8 8,-32.8"/>
</g>
<g id="clust2" class="cluster">
<title>cluster_ComponentModule_declarations</title>
<polygon fill="none" stroke="black" points="938,-40.8 938,-92.8 1747,-92.8 1747,-40.8 938,-40.8"/>
</g>
<g id="clust9" class="cluster">
<title>cluster_ComponentModule_exports</title>
<polygon fill="none" stroke="black" points="709,-170.8 709,-222.8 990,-222.8 990,-170.8 709,-170.8"/>
</g>
<g id="clust8" class="cluster">
<title>cluster_ComponentModule_imports</title>
<polygon fill="none" stroke="black" points="16,-40.8 16,-92.8 930,-92.8 930,-40.8 16,-40.8"/>
</g>
<!-- AttachmentComponent -->
<g id="node1" class="node">
<title>AttachmentComponent</title>
<polygon fill="#ffffb3" stroke="black" points="1739.15,-84.8 1592.85,-84.8 1592.85,-48.8 1739.15,-48.8 1739.15,-84.8"/>
<text text-anchor="middle" x="1666" y="-62.6" font-family="Times,serif" font-size="14.00">AttachmentComponent</text>
</g>
<!-- ComponentModule -->
<g id="node6" class="node">
<title>ComponentModule</title>
<polygon fill="#8dd3c7" stroke="black" points="912.38,-149.8 909.38,-153.8 888.38,-153.8 885.38,-149.8 787.62,-149.8 787.62,-113.8 912.38,-113.8 912.38,-149.8"/>
<text text-anchor="middle" x="850" y="-127.6" font-family="Times,serif" font-size="14.00">ComponentModule</text>
</g>
<!-- AttachmentComponent&#45;&gt;ComponentModule -->
<g id="edge1" class="edge">
<title>AttachmentComponent&#45;&gt;ComponentModule</title>
<path fill="none" stroke="black" d="M1666,-85.05C1666,-107.82 1666,-143.8 1666,-143.8 1666,-143.8 922.68,-143.8 922.68,-143.8"/>
<polygon fill="black" stroke="black" points="922.68,-140.3 912.68,-143.8 922.68,-147.3 922.68,-140.3"/>
</g>
<!-- CategoryCarouselComponent -->
<g id="node2" class="node">
<title>CategoryCarouselComponent</title>
<polygon fill="#ffffb3" stroke="black" points="1574.41,-84.8 1391.59,-84.8 1391.59,-48.8 1574.41,-48.8 1574.41,-84.8"/>
<text text-anchor="middle" x="1483" y="-62.6" font-family="Times,serif" font-size="14.00">CategoryCarouselComponent</text>
</g>
<!-- CategoryCarouselComponent&#45;&gt;ComponentModule -->
<g id="edge2" class="edge">
<title>CategoryCarouselComponent&#45;&gt;ComponentModule</title>
<path fill="none" stroke="black" d="M1483,-85.08C1483,-106.12 1483,-137.8 1483,-137.8 1483,-137.8 922.43,-137.8 922.43,-137.8"/>
<polygon fill="black" stroke="black" points="922.43,-134.3 912.43,-137.8 922.43,-141.3 922.43,-134.3"/>
</g>
<!-- FooterComponent -->
<g id="node3" class="node">
<title>FooterComponent</title>
<polygon fill="#ffffb3" stroke="black" points="1373.88,-84.8 1256.12,-84.8 1256.12,-48.8 1373.88,-48.8 1373.88,-84.8"/>
<text text-anchor="middle" x="1315" y="-62.6" font-family="Times,serif" font-size="14.00">FooterComponent</text>
</g>
<!-- FooterComponent&#45;&gt;ComponentModule -->
<g id="edge3" class="edge">
<title>FooterComponent&#45;&gt;ComponentModule</title>
<path fill="none" stroke="black" d="M1315,-84.91C1315,-104.14 1315,-131.8 1315,-131.8 1315,-131.8 922.71,-131.8 922.71,-131.8"/>
<polygon fill="black" stroke="black" points="922.71,-128.3 912.71,-131.8 922.71,-135.3 922.71,-128.3"/>
</g>
<!-- HeaderComponent -->
<g id="node4" class="node">
<title>HeaderComponent</title>
<polygon fill="#ffffb3" stroke="black" points="1237.74,-84.8 1116.26,-84.8 1116.26,-48.8 1237.74,-48.8 1237.74,-84.8"/>
<text text-anchor="middle" x="1177" y="-62.6" font-family="Times,serif" font-size="14.00">HeaderComponent</text>
</g>
<!-- HeaderComponent&#45;&gt;ComponentModule -->
<g id="edge4" class="edge">
<title>HeaderComponent&#45;&gt;ComponentModule</title>
<path fill="none" stroke="black" d="M1177,-84.82C1177,-102.17 1177,-125.8 1177,-125.8 1177,-125.8 922.66,-125.8 922.66,-125.8"/>
<polygon fill="black" stroke="black" points="922.66,-122.3 912.66,-125.8 922.66,-129.3 922.66,-122.3"/>
</g>
<!-- NavAccountComponent -->
<g id="node5" class="node">
<title>NavAccountComponent</title>
<polygon fill="#ffffb3" stroke="black" points="1098.08,-84.8 945.92,-84.8 945.92,-48.8 1098.08,-48.8 1098.08,-84.8"/>
<text text-anchor="middle" x="1022" y="-62.6" font-family="Times,serif" font-size="14.00">NavAccountComponent</text>
</g>
<!-- NavAccountComponent&#45;&gt;ComponentModule -->
<g id="edge5" class="edge">
<title>NavAccountComponent&#45;&gt;ComponentModule</title>
<path fill="none" stroke="black" d="M963.83,-85.04C963.83,-100.37 963.83,-119.8 963.83,-119.8 963.83,-119.8 922.57,-119.8 922.57,-119.8"/>
<polygon fill="black" stroke="black" points="922.57,-116.3 912.57,-119.8 922.57,-123.3 922.57,-116.3"/>
</g>
<!-- FooterComponent  -->
<g id="node13" class="node">
<title>FooterComponent </title>
<polygon fill="#fb8072" stroke="black" points="981.88,-214.8 860.12,-214.8 860.12,-178.8 981.88,-178.8 981.88,-214.8"/>
<text text-anchor="middle" x="921" y="-192.6" font-family="Times,serif" font-size="14.00">FooterComponent </text>
</g>
<!-- ComponentModule&#45;&gt;FooterComponent  -->
<g id="edge12" class="edge">
<title>ComponentModule&#45;&gt;FooterComponent </title>
<path fill="none" stroke="black" stroke-dasharray="5,2" d="M886.38,-149.91C886.38,-149.91 886.38,-168.79 886.38,-168.79"/>
<polygon fill="black" stroke="black" points="882.88,-168.79 886.38,-178.79 889.88,-168.79 882.88,-168.79"/>
</g>
<!-- HeaderComponent  -->
<g id="node14" class="node">
<title>HeaderComponent </title>
<polygon fill="#fb8072" stroke="black" points="842.74,-214.8 717.26,-214.8 717.26,-178.8 842.74,-178.8 842.74,-214.8"/>
<text text-anchor="middle" x="780" y="-192.6" font-family="Times,serif" font-size="14.00">HeaderComponent </text>
</g>
<!-- ComponentModule&#45;&gt;HeaderComponent  -->
<g id="edge13" class="edge">
<title>ComponentModule&#45;&gt;HeaderComponent </title>
<path fill="none" stroke="black" stroke-dasharray="5,2" d="M815.09,-149.91C815.09,-149.91 815.09,-168.79 815.09,-168.79"/>
<polygon fill="black" stroke="black" points="811.59,-168.79 815.09,-178.79 818.59,-168.79 811.59,-168.79"/>
</g>
<!-- ConstraintRuleModule -->
<g id="node7" class="node">
<title>ConstraintRuleModule</title>
<polygon fill="#8dd3c7" stroke="black" points="922.32,-84.8 919.32,-88.8 898.32,-88.8 895.32,-84.8 777.68,-84.8 777.68,-48.8 922.32,-48.8 922.32,-84.8"/>
<text text-anchor="middle" x="850" y="-62.6" font-family="Times,serif" font-size="14.00">ConstraintRuleModule</text>
</g>
<!-- ConstraintRuleModule&#45;&gt;ComponentModule -->
<g id="edge6" class="edge">
<title>ConstraintRuleModule&#45;&gt;ComponentModule</title>
<path fill="none" stroke="black" d="M850,-84.91C850,-84.91 850,-103.79 850,-103.79"/>
<polygon fill="black" stroke="black" points="846.5,-103.79 850,-113.79 853.5,-103.79 846.5,-103.79"/>
</g>
<!-- DirectivesModule -->
<g id="node8" class="node">
<title>DirectivesModule</title>
<polygon fill="#8dd3c7" stroke="black" points="759.58,-84.8 756.58,-88.8 735.58,-88.8 732.58,-84.8 642.42,-84.8 642.42,-48.8 759.58,-48.8 759.58,-84.8"/>
<text text-anchor="middle" x="701" y="-62.6" font-family="Times,serif" font-size="14.00">DirectivesModule</text>
</g>
<!-- DirectivesModule&#45;&gt;ComponentModule -->
<g id="edge7" class="edge">
<title>DirectivesModule&#45;&gt;ComponentModule</title>
<path fill="none" stroke="black" d="M738.46,-85.04C738.46,-100.37 738.46,-119.8 738.46,-119.8 738.46,-119.8 777.38,-119.8 777.38,-119.8"/>
<polygon fill="black" stroke="black" points="777.38,-123.3 787.38,-119.8 777.38,-116.3 777.38,-123.3"/>
</g>
<!-- PriceModalModule -->
<g id="node9" class="node">
<title>PriceModalModule</title>
<polygon fill="#8dd3c7" stroke="black" points="624.36,-84.8 621.36,-88.8 600.36,-88.8 597.36,-84.8 499.64,-84.8 499.64,-48.8 624.36,-48.8 624.36,-84.8"/>
<text text-anchor="middle" x="562" y="-62.6" font-family="Times,serif" font-size="14.00">PriceModalModule</text>
</g>
<!-- PriceModalModule&#45;&gt;ComponentModule -->
<g id="edge8" class="edge">
<title>PriceModalModule&#45;&gt;ComponentModule</title>
<path fill="none" stroke="black" d="M562,-84.82C562,-102.17 562,-125.8 562,-125.8 562,-125.8 777.51,-125.8 777.51,-125.8"/>
<polygon fill="black" stroke="black" points="777.51,-129.3 787.51,-125.8 777.51,-122.3 777.51,-129.3"/>
</g>
<!-- PricingModule -->
<g id="node10" class="node">
<title>PricingModule</title>
<polygon fill="#8dd3c7" stroke="black" points="481.99,-84.8 478.99,-88.8 457.99,-88.8 454.99,-84.8 382.01,-84.8 382.01,-48.8 481.99,-48.8 481.99,-84.8"/>
<text text-anchor="middle" x="432" y="-62.6" font-family="Times,serif" font-size="14.00">PricingModule</text>
</g>
<!-- PricingModule&#45;&gt;ComponentModule -->
<g id="edge9" class="edge">
<title>PricingModule&#45;&gt;ComponentModule</title>
<path fill="none" stroke="black" d="M432,-84.91C432,-104.14 432,-131.8 432,-131.8 432,-131.8 777.42,-131.8 777.42,-131.8"/>
<polygon fill="black" stroke="black" points="777.42,-135.3 787.42,-131.8 777.42,-128.3 777.42,-135.3"/>
</g>
<!-- ProductSearchModule -->
<g id="node11" class="node">
<title>ProductSearchModule</title>
<polygon fill="#8dd3c7" stroke="black" points="363.69,-84.8 360.69,-88.8 339.69,-88.8 336.69,-84.8 222.31,-84.8 222.31,-48.8 363.69,-48.8 363.69,-84.8"/>
<text text-anchor="middle" x="293" y="-62.6" font-family="Times,serif" font-size="14.00">ProductSearchModule</text>
</g>
<!-- ProductSearchModule&#45;&gt;ComponentModule -->
<g id="edge10" class="edge">
<title>ProductSearchModule&#45;&gt;ComponentModule</title>
<path fill="none" stroke="black" d="M293,-85.08C293,-106.12 293,-137.8 293,-137.8 293,-137.8 777.46,-137.8 777.46,-137.8"/>
<polygon fill="black" stroke="black" points="777.46,-141.3 787.46,-137.8 777.46,-134.3 777.46,-141.3"/>
</g>
<!-- RevalidateCartModalModule -->
<g id="node12" class="node">
<title>RevalidateCartModalModule</title>
<polygon fill="#8dd3c7" stroke="black" points="204.07,-84.8 201.07,-88.8 180.07,-88.8 177.07,-84.8 23.93,-84.8 23.93,-48.8 204.07,-48.8 204.07,-84.8"/>
<text text-anchor="middle" x="114" y="-62.6" font-family="Times,serif" font-size="14.00">RevalidateCartModalModule</text>
</g>
<!-- RevalidateCartModalModule&#45;&gt;ComponentModule -->
<g id="edge11" class="edge">
<title>RevalidateCartModalModule&#45;&gt;ComponentModule</title>
<path fill="none" stroke="black" d="M114,-85.05C114,-107.82 114,-143.8 114,-143.8 114,-143.8 777.57,-143.8 777.57,-143.8"/>
<polygon fill="black" stroke="black" points="777.57,-147.3 787.57,-143.8 777.57,-140.3 777.57,-147.3"/>
</g>
</g>
</svg>
