<?xml version="1.0" encoding="UTF-8" standalone="no"?>
<!DOCTYPE svg PUBLIC "-//W3C//DTD SVG 1.1//EN"
 "http://www.w3.org/Graphics/SVG/1.1/DTD/svg11.dtd">
<!-- Generated by graphviz version 2.47.3 (20210619.1520)
 -->
<!-- Title: dependencies Pages: 1 -->
<svg width="367pt" height="247pt"
 viewBox="0.00 0.00 367.00 246.80" xmlns="http://www.w3.org/2000/svg" xmlns:xlink="http://www.w3.org/1999/xlink">
<g id="graph0" class="graph" transform="scale(1 1) rotate(0) translate(4 242.8)">
<title>dependencies</title>
<polygon fill="white" stroke="transparent" points="-4,4 -4,-242.8 363,-242.8 363,4 -4,4"/>
<text text-anchor="middle" x="179.5" y="-8.2" font-family="sans-serif" font-size="14.00">dependencies</text>
<g id="clust1" class="cluster">
<title>cluster_OrderRoutingModule</title>
<polygon fill="none" stroke="black" stroke-dasharray="1,5" points="8,-32.8 8,-230.8 351,-230.8 351,-32.8 8,-32.8"/>
</g>
<g id="clust3" class="cluster">
<title>cluster_OrderRoutingModule_imports</title>
<polygon fill="none" stroke="black" points="16,-40.8 16,-92.8 343,-92.8 343,-40.8 16,-40.8"/>
</g>
<g id="clust4" class="cluster">
<title>cluster_OrderRoutingModule_exports</title>
<polygon fill="none" stroke="black" points="135,-170.8 135,-222.8 253,-222.8 253,-170.8 135,-170.8"/>
</g>
<!-- CommonModule -->
<g id="node1" class="node">
<title>CommonModule</title>
<polygon fill="#8dd3c7" stroke="black" points="334.67,-84.8 331.67,-88.8 310.67,-88.8 307.67,-84.8 223.33,-84.8 223.33,-48.8 334.67,-48.8 334.67,-84.8"/>
<text text-anchor="middle" x="279" y="-62.6" font-family="Times,serif" font-size="14.00">CommonModule</text>
</g>
<!-- OrderRoutingModule -->
<g id="node3" class="node">
<title>OrderRoutingModule</title>
<polygon fill="#8dd3c7" stroke="black" points="262.81,-149.8 259.81,-153.8 238.81,-153.8 235.81,-149.8 125.19,-149.8 125.19,-113.8 262.81,-113.8 262.81,-149.8"/>
<text text-anchor="middle" x="194" y="-127.6" font-family="Times,serif" font-size="14.00">OrderRoutingModule</text>
</g>
<!-- CommonModule&#45;&gt;OrderRoutingModule -->
<g id="edge1" class="edge">
<title>CommonModule&#45;&gt;OrderRoutingModule</title>
<path fill="none" stroke="black" d="M242.91,-84.91C242.91,-84.91 242.91,-103.79 242.91,-103.79"/>
<polygon fill="black" stroke="black" points="239.41,-103.79 242.91,-113.79 246.41,-103.79 239.41,-103.79"/>
</g>
<!-- RouterModule.forChild(args) -->
<g id="node2" class="node">
<title>RouterModule.forChild(args)</title>
<polygon fill="#8dd3c7" stroke="black" points="205.73,-84.8 202.73,-88.8 181.73,-88.8 178.73,-84.8 24.27,-84.8 24.27,-48.8 205.73,-48.8 205.73,-84.8"/>
<text text-anchor="middle" x="115" y="-62.6" font-family="Times,serif" font-size="14.00">RouterModule.forChild(args)</text>
</g>
<!-- RouterModule.forChild(args)&#45;&gt;OrderRoutingModule -->
<g id="edge2" class="edge">
<title>RouterModule.forChild(args)&#45;&gt;OrderRoutingModule</title>
<path fill="none" stroke="black" d="M165.48,-84.91C165.48,-84.91 165.48,-103.79 165.48,-103.79"/>
<polygon fill="black" stroke="black" points="161.98,-103.79 165.48,-113.79 168.98,-103.79 161.98,-103.79"/>
</g>
<!-- RouterModule  -->
<g id="node4" class="node">
<title>RouterModule </title>
<polygon fill="#fb8072" stroke="black" points="244.65,-214.8 143.35,-214.8 143.35,-178.8 244.65,-178.8 244.65,-214.8"/>
<text text-anchor="middle" x="194" y="-192.6" font-family="Times,serif" font-size="14.00">RouterModule </text>
</g>
<!-- OrderRoutingModule&#45;&gt;RouterModule  -->
<g id="edge3" class="edge">
<title>OrderRoutingModule&#45;&gt;RouterModule </title>
<path fill="none" stroke="black" stroke-dasharray="5,2" d="M194,-149.91C194,-149.91 194,-168.79 194,-168.79"/>
<polygon fill="black" stroke="black" points="190.5,-168.79 194,-178.79 197.5,-168.79 190.5,-168.79"/>
</g>
</g>
</svg>
