<?xml version="1.0" encoding="UTF-8" standalone="no"?>
<!DOCTYPE svg PUBLIC "-//W3C//DTD SVG 1.1//EN"
 "http://www.w3.org/Graphics/SVG/1.1/DTD/svg11.dtd">
<!-- Generated by graphviz version 2.47.3 (20210619.1520)
 -->
<!-- Title: dependencies Pages: 1 -->
<svg width="760pt" height="247pt"
 viewBox="0.00 0.00 760.00 246.80" xmlns="http://www.w3.org/2000/svg" xmlns:xlink="http://www.w3.org/1999/xlink">
<g id="graph0" class="graph" transform="scale(1 1) rotate(0) translate(4 242.8)">
<title>dependencies</title>
<polygon fill="white" stroke="transparent" points="-4,4 -4,-242.8 756,-242.8 756,4 -4,4"/>
<text text-anchor="middle" x="376" y="-8.2" font-family="sans-serif" font-size="14.00">dependencies</text>
<g id="clust1" class="cluster">
<title>cluster_RecommendedProductsModule</title>
<polygon fill="none" stroke="black" stroke-dasharray="1,5" points="8,-32.8 8,-230.8 744,-230.8 744,-32.8 8,-32.8"/>
</g>
<g id="clust2" class="cluster">
<title>cluster_RecommendedProductsModule_declarations</title>
<polygon fill="none" stroke="black" points="488,-40.8 488,-92.8 736,-92.8 736,-40.8 488,-40.8"/>
</g>
<g id="clust5" class="cluster">
<title>cluster_RecommendedProductsModule_exports</title>
<polygon fill="none" stroke="black" points="172,-170.8 172,-222.8 424,-222.8 424,-170.8 172,-170.8"/>
</g>
<g id="clust4" class="cluster">
<title>cluster_RecommendedProductsModule_imports</title>
<polygon fill="none" stroke="black" points="16,-40.8 16,-92.8 480,-92.8 480,-40.8 16,-40.8"/>
</g>
<!-- CRRecommendedProductsComponent -->
<g id="node1" class="node">
<title>CRRecommendedProductsComponent</title>
<polygon fill="#ffffb3" stroke="black" points="728.47,-84.8 495.53,-84.8 495.53,-48.8 728.47,-48.8 728.47,-84.8"/>
<text text-anchor="middle" x="612" y="-62.6" font-family="Times,serif" font-size="14.00">CRRecommendedProductsComponent</text>
</g>
<!-- RecommendedProductsModule -->
<g id="node2" class="node">
<title>RecommendedProductsModule</title>
<polygon fill="#8dd3c7" stroke="black" points="394.02,-149.8 391.02,-153.8 370.02,-153.8 367.02,-149.8 201.98,-149.8 201.98,-113.8 394.02,-113.8 394.02,-149.8"/>
<text text-anchor="middle" x="298" y="-127.6" font-family="Times,serif" font-size="14.00">RecommendedProductsModule</text>
</g>
<!-- CRRecommendedProductsComponent&#45;&gt;RecommendedProductsModule -->
<g id="edge1" class="edge">
<title>CRRecommendedProductsComponent&#45;&gt;RecommendedProductsModule</title>
<path fill="none" stroke="black" d="M612,-84.91C612,-104.14 612,-131.8 612,-131.8 612,-131.8 404.34,-131.8 404.34,-131.8"/>
<polygon fill="black" stroke="black" points="404.34,-128.3 394.34,-131.8 404.34,-135.3 404.34,-128.3"/>
</g>
<!-- CRRecommendedProductsComponent  -->
<g id="node7" class="node">
<title>CRRecommendedProductsComponent </title>
<polygon fill="#fb8072" stroke="black" points="416.48,-214.8 179.52,-214.8 179.52,-178.8 416.48,-178.8 416.48,-214.8"/>
<text text-anchor="middle" x="298" y="-192.6" font-family="Times,serif" font-size="14.00">CRRecommendedProductsComponent </text>
</g>
<!-- RecommendedProductsModule&#45;&gt;CRRecommendedProductsComponent  -->
<g id="edge6" class="edge">
<title>RecommendedProductsModule&#45;&gt;CRRecommendedProductsComponent </title>
<path fill="none" stroke="black" stroke-dasharray="5,2" d="M298,-149.91C298,-149.91 298,-168.79 298,-168.79"/>
<polygon fill="black" stroke="black" points="294.5,-168.79 298,-178.79 301.5,-168.79 294.5,-168.79"/>
</g>
<!-- CommonModule -->
<g id="node3" class="node">
<title>CommonModule</title>
<polygon fill="#8dd3c7" stroke="black" points="471.67,-84.8 468.67,-88.8 447.67,-88.8 444.67,-84.8 360.33,-84.8 360.33,-48.8 471.67,-48.8 471.67,-84.8"/>
<text text-anchor="middle" x="416" y="-62.6" font-family="Times,serif" font-size="14.00">CommonModule</text>
</g>
<!-- CommonModule&#45;&gt;RecommendedProductsModule -->
<g id="edge2" class="edge">
<title>CommonModule&#45;&gt;RecommendedProductsModule</title>
<path fill="none" stroke="black" d="M377.21,-84.91C377.21,-84.91 377.21,-103.79 377.21,-103.79"/>
<polygon fill="black" stroke="black" points="373.71,-103.79 377.21,-113.79 380.71,-103.79 373.71,-103.79"/>
</g>
<!-- PriceModule -->
<g id="node4" class="node">
<title>PriceModule</title>
<polygon fill="#8dd3c7" stroke="black" points="342.31,-84.8 339.31,-88.8 318.31,-88.8 315.31,-84.8 253.69,-84.8 253.69,-48.8 342.31,-48.8 342.31,-84.8"/>
<text text-anchor="middle" x="298" y="-62.6" font-family="Times,serif" font-size="14.00">PriceModule</text>
</g>
<!-- PriceModule&#45;&gt;RecommendedProductsModule -->
<g id="edge3" class="edge">
<title>PriceModule&#45;&gt;RecommendedProductsModule</title>
<path fill="none" stroke="black" d="M298,-84.91C298,-84.91 298,-103.79 298,-103.79"/>
<polygon fill="black" stroke="black" points="294.5,-103.79 298,-113.79 301.5,-103.79 294.5,-103.79"/>
</g>
<!-- ButtonModule -->
<g id="node5" class="node">
<title>ButtonModule</title>
<polygon fill="#8dd3c7" stroke="black" points="235.67,-84.8 232.67,-88.8 211.67,-88.8 208.67,-84.8 138.33,-84.8 138.33,-48.8 235.67,-48.8 235.67,-84.8"/>
<text text-anchor="middle" x="187" y="-62.6" font-family="Times,serif" font-size="14.00">ButtonModule</text>
</g>
<!-- ButtonModule&#45;&gt;RecommendedProductsModule -->
<g id="edge4" class="edge">
<title>ButtonModule&#45;&gt;RecommendedProductsModule</title>
<path fill="none" stroke="black" d="M218.79,-84.91C218.79,-84.91 218.79,-103.79 218.79,-103.79"/>
<polygon fill="black" stroke="black" points="215.29,-103.79 218.79,-113.79 222.29,-103.79 215.29,-103.79"/>
</g>
<!-- ApttusModule -->
<g id="node6" class="node">
<title>ApttusModule</title>
<polygon fill="#8dd3c7" stroke="black" points="120.38,-84.8 117.38,-88.8 96.38,-88.8 93.38,-84.8 23.62,-84.8 23.62,-48.8 120.38,-48.8 120.38,-84.8"/>
<text text-anchor="middle" x="72" y="-62.6" font-family="Times,serif" font-size="14.00">ApttusModule</text>
</g>
<!-- ApttusModule&#45;&gt;RecommendedProductsModule -->
<g id="edge5" class="edge">
<title>ApttusModule&#45;&gt;RecommendedProductsModule</title>
<path fill="none" stroke="black" d="M72,-84.91C72,-104.14 72,-131.8 72,-131.8 72,-131.8 191.83,-131.8 191.83,-131.8"/>
<polygon fill="black" stroke="black" points="191.83,-135.3 201.83,-131.8 191.83,-128.3 191.83,-135.3"/>
</g>
</g>
</svg>
