<?xml version="1.0" encoding="UTF-8" standalone="no"?>
<!DOCTYPE svg PUBLIC "-//W3C//DTD SVG 1.1//EN"
 "http://www.w3.org/Graphics/SVG/1.1/DTD/svg11.dtd">
<!-- Generated by graphviz version 5.0.0 (20220707.1540)
 -->
<!-- Title: dependencies Pages: 1 -->
<svg width="360pt" height="247pt"
 viewBox="0.00 0.00 360.00 246.80" xmlns="http://www.w3.org/2000/svg" xmlns:xlink="http://www.w3.org/1999/xlink">
<g id="graph0" class="graph" transform="scale(1 1) rotate(0) translate(4 242.8)">
<title>dependencies</title>
<polygon fill="white" stroke="transparent" points="-4,4 -4,-242.8 356,-242.8 356,4 -4,4"/>
<text text-anchor="middle" x="176" y="-8.2" font-family="sans-serif" font-size="14.00">dependencies</text>
<g id="clust1" class="cluster">
<title>cluster_ProductSearchModule</title>
<polygon fill="none" stroke="black" stroke-dasharray="1,5" points="8,-32.8 8,-230.8 344,-230.8 344,-32.8 8,-32.8"/>
</g>
<g id="clust4" class="cluster">
<title>cluster_ProductSearchModule_imports</title>
<polygon fill="none" stroke="black" points="202,-40.8 202,-92.8 336,-92.8 336,-40.8 202,-40.8"/>
</g>
<g id="clust5" class="cluster">
<title>cluster_ProductSearchModule_exports</title>
<polygon fill="none" stroke="black" points="85,-170.8 85,-222.8 267,-222.8 267,-170.8 85,-170.8"/>
</g>
<g id="clust2" class="cluster">
<title>cluster_ProductSearchModule_declarations</title>
<polygon fill="none" stroke="black" points="16,-40.8 16,-92.8 194,-92.8 194,-40.8 16,-40.8"/>
</g>
<!-- ProductSearchComponent -->
<g id="node1" class="node">
<title>ProductSearchComponent</title>
<polygon fill="#ffffb3" stroke="black" points="186.47,-84.8 23.53,-84.8 23.53,-48.8 186.47,-48.8 186.47,-84.8"/>
<text text-anchor="middle" x="105" y="-62.6" font-family="Times,serif" font-size="14.00">ProductSearchComponent</text>
</g>
<!-- ProductSearchModule -->
<g id="node2" class="node">
<title>ProductSearchModule</title>
<polygon fill="#8dd3c7" stroke="black" points="246.69,-149.8 243.69,-153.8 222.69,-153.8 219.69,-149.8 105.31,-149.8 105.31,-113.8 246.69,-113.8 246.69,-149.8"/>
<text text-anchor="middle" x="176" y="-127.6" font-family="Times,serif" font-size="14.00">ProductSearchModule</text>
</g>
<!-- ProductSearchComponent&#45;&gt;ProductSearchModule -->
<g id="edge1" class="edge">
<title>ProductSearchComponent&#45;&gt;ProductSearchModule</title>
<path fill="none" stroke="black" d="M145.94,-84.91C145.94,-84.91 145.94,-103.79 145.94,-103.79"/>
<polygon fill="black" stroke="black" points="142.44,-103.79 145.94,-113.79 149.44,-103.79 142.44,-103.79"/>
</g>
<!-- ProductSearchComponent  -->
<g id="node4" class="node">
<title>ProductSearchComponent </title>
<polygon fill="#fb8072" stroke="black" points="259.47,-214.8 92.53,-214.8 92.53,-178.8 259.47,-178.8 259.47,-214.8"/>
<text text-anchor="middle" x="176" y="-192.6" font-family="Times,serif" font-size="14.00">ProductSearchComponent </text>
</g>
<!-- ProductSearchModule&#45;&gt;ProductSearchComponent  -->
<g id="edge3" class="edge">
<title>ProductSearchModule&#45;&gt;ProductSearchComponent </title>
<path fill="none" stroke="black" stroke-dasharray="5,2" d="M176,-149.91C176,-149.91 176,-168.79 176,-168.79"/>
<polygon fill="black" stroke="black" points="172.5,-168.79 176,-178.79 179.5,-168.79 172.5,-168.79"/>
</g>
<!-- DirectivesModule -->
<g id="node3" class="node">
<title>DirectivesModule</title>
<polygon fill="#8dd3c7" stroke="black" points="327.58,-84.8 324.58,-88.8 303.58,-88.8 300.58,-84.8 210.42,-84.8 210.42,-48.8 327.58,-48.8 327.58,-84.8"/>
<text text-anchor="middle" x="269" y="-62.6" font-family="Times,serif" font-size="14.00">DirectivesModule</text>
</g>
<!-- DirectivesModule&#45;&gt;ProductSearchModule -->
<g id="edge2" class="edge">
<title>DirectivesModule&#45;&gt;ProductSearchModule</title>
<path fill="none" stroke="black" d="M228.53,-84.91C228.53,-84.91 228.53,-103.79 228.53,-103.79"/>
<polygon fill="black" stroke="black" points="225.03,-103.79 228.53,-113.79 232.03,-103.79 225.03,-103.79"/>
</g>
</g>
</svg>
