<?xml version="1.0" encoding="UTF-8" standalone="no"?>
<!DOCTYPE svg PUBLIC "-//W3C//DTD SVG 1.1//EN"
 "http://www.w3.org/Graphics/SVG/1.1/DTD/svg11.dtd">
<!-- Generated by graphviz version 2.47.3 (20210619.1520)
 -->
<!-- Title: dependencies Pages: 1 -->
<svg width="1572pt" height="174pt"
 viewBox="0.00 0.00 1572.00 173.80" xmlns="http://www.w3.org/2000/svg" xmlns:xlink="http://www.w3.org/1999/xlink">
<g id="graph0" class="graph" transform="scale(1 1) rotate(0) translate(4 169.8)">
<title>dependencies</title>
<polygon fill="white" stroke="transparent" points="-4,4 -4,-169.8 1568,-169.8 1568,4 -4,4"/>
<text text-anchor="middle" x="782" y="-8.2" font-family="sans-serif" font-size="14.00">dependencies</text>
<g id="clust1" class="cluster">
<title>cluster_ManageCartModule</title>
<polygon fill="none" stroke="black" stroke-dasharray="1,5" points="8,-32.8 8,-157.8 1556,-157.8 1556,-32.8 8,-32.8"/>
</g>
<g id="clust2" class="cluster">
<title>cluster_ManageCartModule_declarations</title>
<polygon fill="none" stroke="black" points="1048,-40.8 1048,-92.8 1548,-92.8 1548,-40.8 1048,-40.8"/>
</g>
<g id="clust6" class="cluster">
<title>cluster_ManageCartModule_imports</title>
<polygon fill="none" stroke="black" points="16,-40.8 16,-92.8 1040,-92.8 1040,-40.8 16,-40.8"/>
</g>
<!-- CartSummaryComponent -->
<g id="node1" class="node">
<title>CartSummaryComponent</title>
<polygon fill="#ffffb3" stroke="black" points="1539.87,-84.8 1380.13,-84.8 1380.13,-48.8 1539.87,-48.8 1539.87,-84.8"/>
<text text-anchor="middle" x="1460" y="-62.6" font-family="Times,serif" font-size="14.00">CartSummaryComponent</text>
</g>
<!-- ManageCartModule -->
<g id="node4" class="node">
<title>ManageCartModule</title>
<polygon fill="#8dd3c7" stroke="black" points="801.24,-149.8 798.24,-153.8 777.24,-153.8 774.24,-149.8 672.76,-149.8 672.76,-113.8 801.24,-113.8 801.24,-149.8"/>
<text text-anchor="middle" x="737" y="-127.6" font-family="Times,serif" font-size="14.00">ManageCartModule</text>
</g>
<!-- CartSummaryComponent&#45;&gt;ManageCartModule -->
<g id="edge1" class="edge">
<title>CartSummaryComponent&#45;&gt;ManageCartModule</title>
<path fill="none" stroke="black" d="M1460,-84.81C1460,-107.29 1460,-142.8 1460,-142.8 1460,-142.8 811.48,-142.8 811.48,-142.8"/>
<polygon fill="black" stroke="black" points="811.48,-139.3 801.48,-142.8 811.48,-146.3 811.48,-139.3"/>
</g>
<!-- CartTableComponent -->
<g id="node2" class="node">
<title>CartTableComponent</title>
<polygon fill="#ffffb3" stroke="black" points="1361.81,-84.8 1224.19,-84.8 1224.19,-48.8 1361.81,-48.8 1361.81,-84.8"/>
<text text-anchor="middle" x="1293" y="-62.6" font-family="Times,serif" font-size="14.00">CartTableComponent</text>
</g>
<!-- CartTableComponent&#45;&gt;ManageCartModule -->
<g id="edge2" class="edge">
<title>CartTableComponent&#45;&gt;ManageCartModule</title>
<path fill="none" stroke="black" d="M1293,-84.93C1293,-105.37 1293,-135.8 1293,-135.8 1293,-135.8 811.32,-135.8 811.32,-135.8"/>
<polygon fill="black" stroke="black" points="811.32,-132.3 801.32,-135.8 811.32,-139.3 811.32,-132.3"/>
</g>
<!-- ManageCartComponent -->
<g id="node3" class="node">
<title>ManageCartComponent</title>
<polygon fill="#ffffb3" stroke="black" points="1206.02,-84.8 1055.98,-84.8 1055.98,-48.8 1206.02,-48.8 1206.02,-84.8"/>
<text text-anchor="middle" x="1131" y="-62.6" font-family="Times,serif" font-size="14.00">ManageCartComponent</text>
</g>
<!-- ManageCartComponent&#45;&gt;ManageCartModule -->
<g id="edge3" class="edge">
<title>ManageCartComponent&#45;&gt;ManageCartModule</title>
<path fill="none" stroke="black" d="M1131,-85.07C1131,-103.36 1131,-128.8 1131,-128.8 1131,-128.8 811.62,-128.8 811.62,-128.8"/>
<polygon fill="black" stroke="black" points="811.62,-125.3 801.62,-128.8 811.62,-132.3 811.62,-125.3"/>
</g>
<!-- AlertModule -->
<g id="node5" class="node">
<title>AlertModule</title>
<polygon fill="#8dd3c7" stroke="black" points="1032.31,-84.8 1029.31,-88.8 1008.31,-88.8 1005.31,-84.8 943.69,-84.8 943.69,-48.8 1032.31,-48.8 1032.31,-84.8"/>
<text text-anchor="middle" x="988" y="-62.6" font-family="Times,serif" font-size="14.00">AlertModule</text>
</g>
<!-- AlertModule&#45;&gt;ManageCartModule -->
<g id="edge4" class="edge">
<title>AlertModule&#45;&gt;ManageCartModule</title>
<path fill="none" stroke="black" d="M988,-84.81C988,-100.85 988,-121.8 988,-121.8 988,-121.8 811.31,-121.8 811.31,-121.8"/>
<polygon fill="black" stroke="black" points="811.31,-118.3 801.31,-121.8 811.31,-125.3 811.31,-118.3"/>
</g>
<!-- ConfigurationSummaryModule -->
<g id="node6" class="node">
<title>ConfigurationSummaryModule</title>
<polygon fill="#8dd3c7" stroke="black" points="926.03,-84.8 923.03,-88.8 902.03,-88.8 899.03,-84.8 733.97,-84.8 733.97,-48.8 926.03,-48.8 926.03,-84.8"/>
<text text-anchor="middle" x="830" y="-62.6" font-family="Times,serif" font-size="14.00">ConfigurationSummaryModule</text>
</g>
<!-- ConfigurationSummaryModule&#45;&gt;ManageCartModule -->
<g id="edge5" class="edge">
<title>ConfigurationSummaryModule&#45;&gt;ManageCartModule</title>
<path fill="none" stroke="black" d="M767.55,-84.91C767.55,-84.91 767.55,-103.79 767.55,-103.79"/>
<polygon fill="black" stroke="black" points="764.05,-103.79 767.55,-113.79 771.05,-103.79 764.05,-103.79"/>
</g>
<!-- ConstraintRuleModule -->
<g id="node7" class="node">
<title>ConstraintRuleModule</title>
<polygon fill="#8dd3c7" stroke="black" points="716.32,-84.8 713.32,-88.8 692.32,-88.8 689.32,-84.8 571.68,-84.8 571.68,-48.8 716.32,-48.8 716.32,-84.8"/>
<text text-anchor="middle" x="644" y="-62.6" font-family="Times,serif" font-size="14.00">ConstraintRuleModule</text>
</g>
<!-- ConstraintRuleModule&#45;&gt;ManageCartModule -->
<g id="edge6" class="edge">
<title>ConstraintRuleModule&#45;&gt;ManageCartModule</title>
<path fill="none" stroke="black" d="M694.39,-84.91C694.39,-84.91 694.39,-103.79 694.39,-103.79"/>
<polygon fill="black" stroke="black" points="690.89,-103.79 694.39,-113.79 697.89,-103.79 690.89,-103.79"/>
</g>
<!-- LineItemTableRowModule -->
<g id="node8" class="node">
<title>LineItemTableRowModule</title>
<polygon fill="#8dd3c7" stroke="black" points="553.68,-84.8 550.68,-88.8 529.68,-88.8 526.68,-84.8 384.32,-84.8 384.32,-48.8 553.68,-48.8 553.68,-84.8"/>
<text text-anchor="middle" x="469" y="-62.6" font-family="Times,serif" font-size="14.00">LineItemTableRowModule</text>
</g>
<!-- LineItemTableRowModule&#45;&gt;ManageCartModule -->
<g id="edge7" class="edge">
<title>LineItemTableRowModule&#45;&gt;ManageCartModule</title>
<path fill="none" stroke="black" d="M469,-84.81C469,-100.85 469,-121.8 469,-121.8 469,-121.8 662.47,-121.8 662.47,-121.8"/>
<polygon fill="black" stroke="black" points="662.47,-125.3 672.47,-121.8 662.47,-118.3 662.47,-125.3"/>
</g>
<!-- PricingModule -->
<g id="node9" class="node">
<title>PricingModule</title>
<polygon fill="#8dd3c7" stroke="black" points="365.99,-84.8 362.99,-88.8 341.99,-88.8 338.99,-84.8 266.01,-84.8 266.01,-48.8 365.99,-48.8 365.99,-84.8"/>
<text text-anchor="middle" x="316" y="-62.6" font-family="Times,serif" font-size="14.00">PricingModule</text>
</g>
<!-- PricingModule&#45;&gt;ManageCartModule -->
<g id="edge8" class="edge">
<title>PricingModule&#45;&gt;ManageCartModule</title>
<path fill="none" stroke="black" d="M316,-85.07C316,-103.36 316,-128.8 316,-128.8 316,-128.8 662.6,-128.8 662.6,-128.8"/>
<polygon fill="black" stroke="black" points="662.6,-132.3 672.6,-128.8 662.6,-125.3 662.6,-132.3"/>
</g>
<!-- QuoteModule -->
<g id="node10" class="node">
<title>QuoteModule</title>
<polygon fill="#8dd3c7" stroke="black" points="247.76,-84.8 244.76,-88.8 223.76,-88.8 220.76,-84.8 154.24,-84.8 154.24,-48.8 247.76,-48.8 247.76,-84.8"/>
<text text-anchor="middle" x="201" y="-62.6" font-family="Times,serif" font-size="14.00">QuoteModule</text>
</g>
<!-- QuoteModule&#45;&gt;ManageCartModule -->
<g id="edge9" class="edge">
<title>QuoteModule&#45;&gt;ManageCartModule</title>
<path fill="none" stroke="black" d="M201,-84.93C201,-105.37 201,-135.8 201,-135.8 201,-135.8 662.61,-135.8 662.61,-135.8"/>
<polygon fill="black" stroke="black" points="662.61,-139.3 672.61,-135.8 662.61,-132.3 662.61,-139.3"/>
</g>
<!-- SelectAllModule -->
<g id="node11" class="node">
<title>SelectAllModule</title>
<polygon fill="#8dd3c7" stroke="black" points="135.65,-84.8 132.65,-88.8 111.65,-88.8 108.65,-84.8 24.35,-84.8 24.35,-48.8 135.65,-48.8 135.65,-84.8"/>
<text text-anchor="middle" x="80" y="-62.6" font-family="Times,serif" font-size="14.00">SelectAllModule</text>
</g>
<!-- SelectAllModule&#45;&gt;ManageCartModule -->
<g id="edge10" class="edge">
<title>SelectAllModule&#45;&gt;ManageCartModule</title>
<path fill="none" stroke="black" d="M80,-84.81C80,-107.29 80,-142.8 80,-142.8 80,-142.8 662.51,-142.8 662.51,-142.8"/>
<polygon fill="black" stroke="black" points="662.51,-146.3 672.51,-142.8 662.51,-139.3 662.51,-146.3"/>
</g>
</g>
</svg>
