<?xml version="1.0" encoding="UTF-8" standalone="no"?>
<!DOCTYPE svg PUBLIC "-//W3C//DTD SVG 1.1//EN"
 "http://www.w3.org/Graphics/SVG/1.1/DTD/svg11.dtd">
<!-- Generated by graphviz version 2.47.3 (20210619.1520)
 -->
<!-- Title: dependencies Pages: 1 -->
<svg width="1316pt" height="247pt"
 viewBox="0.00 0.00 1316.00 246.80" xmlns="http://www.w3.org/2000/svg" xmlns:xlink="http://www.w3.org/1999/xlink">
<g id="graph0" class="graph" transform="scale(1 1) rotate(0) translate(4 242.8)">
<title>dependencies</title>
<polygon fill="white" stroke="transparent" points="-4,4 -4,-242.8 1312,-242.8 1312,4 -4,4"/>
<text text-anchor="middle" x="654" y="-8.2" font-family="sans-serif" font-size="14.00">dependencies</text>
<g id="clust1" class="cluster">
<title>cluster_OutputFieldModule</title>
<polygon fill="none" stroke="black" stroke-dasharray="1,5" points="8,-32.8 8,-230.8 1300,-230.8 1300,-32.8 8,-32.8"/>
</g>
<g id="clust4" class="cluster">
<title>cluster_OutputFieldModule_imports</title>
<polygon fill="none" stroke="black" points="188,-40.8 188,-92.8 1292,-92.8 1292,-40.8 188,-40.8"/>
</g>
<g id="clust5" class="cluster">
<title>cluster_OutputFieldModule_exports</title>
<polygon fill="none" stroke="black" points="517,-170.8 517,-222.8 685,-222.8 685,-170.8 517,-170.8"/>
</g>
<g id="clust2" class="cluster">
<title>cluster_OutputFieldModule_declarations</title>
<polygon fill="none" stroke="black" points="16,-40.8 16,-92.8 180,-92.8 180,-40.8 16,-40.8"/>
</g>
<!-- OutputFieldComponent -->
<g id="node1" class="node">
<title>OutputFieldComponent</title>
<polygon fill="#ffffb3" stroke="black" points="172.5,-84.8 23.5,-84.8 23.5,-48.8 172.5,-48.8 172.5,-84.8"/>
<text text-anchor="middle" x="98" y="-62.6" font-family="Times,serif" font-size="14.00">OutputFieldComponent</text>
</g>
<!-- OutputFieldModule -->
<g id="node2" class="node">
<title>OutputFieldModule</title>
<polygon fill="#8dd3c7" stroke="black" points="664.72,-149.8 661.72,-153.8 640.72,-153.8 637.72,-149.8 537.28,-149.8 537.28,-113.8 664.72,-113.8 664.72,-149.8"/>
<text text-anchor="middle" x="601" y="-127.6" font-family="Times,serif" font-size="14.00">OutputFieldModule</text>
</g>
<!-- OutputFieldComponent&#45;&gt;OutputFieldModule -->
<g id="edge1" class="edge">
<title>OutputFieldComponent&#45;&gt;OutputFieldModule</title>
<path fill="none" stroke="black" d="M98,-84.81C98,-107.29 98,-142.8 98,-142.8 98,-142.8 527.29,-142.8 527.29,-142.8"/>
<polygon fill="black" stroke="black" points="527.29,-146.3 537.29,-142.8 527.29,-139.3 527.29,-146.3"/>
</g>
<!-- OutputFieldComponent  -->
<g id="node11" class="node">
<title>OutputFieldComponent </title>
<polygon fill="#fb8072" stroke="black" points="677.5,-214.8 524.5,-214.8 524.5,-178.8 677.5,-178.8 677.5,-214.8"/>
<text text-anchor="middle" x="601" y="-192.6" font-family="Times,serif" font-size="14.00">OutputFieldComponent </text>
</g>
<!-- OutputFieldModule&#45;&gt;OutputFieldComponent  -->
<g id="edge10" class="edge">
<title>OutputFieldModule&#45;&gt;OutputFieldComponent </title>
<path fill="none" stroke="black" stroke-dasharray="5,2" d="M601,-149.91C601,-149.91 601,-168.79 601,-168.79"/>
<polygon fill="black" stroke="black" points="597.5,-168.79 601,-178.79 604.5,-168.79 597.5,-168.79"/>
</g>
<!-- CommonModule -->
<g id="node3" class="node">
<title>CommonModule</title>
<polygon fill="#8dd3c7" stroke="black" points="1283.67,-84.8 1280.67,-88.8 1259.67,-88.8 1256.67,-84.8 1172.33,-84.8 1172.33,-48.8 1283.67,-48.8 1283.67,-84.8"/>
<text text-anchor="middle" x="1228" y="-62.6" font-family="Times,serif" font-size="14.00">CommonModule</text>
</g>
<!-- CommonModule&#45;&gt;OutputFieldModule -->
<g id="edge2" class="edge">
<title>CommonModule&#45;&gt;OutputFieldModule</title>
<path fill="none" stroke="black" d="M1228,-84.81C1228,-107.29 1228,-142.8 1228,-142.8 1228,-142.8 674.86,-142.8 674.86,-142.8"/>
<polygon fill="black" stroke="black" points="674.86,-139.3 664.86,-142.8 674.86,-146.3 674.86,-139.3"/>
</g>
<!-- AddressModule -->
<g id="node4" class="node">
<title>AddressModule</title>
<polygon fill="#8dd3c7" stroke="black" points="1153.92,-84.8 1150.92,-88.8 1129.92,-88.8 1126.92,-84.8 1048.08,-84.8 1048.08,-48.8 1153.92,-48.8 1153.92,-84.8"/>
<text text-anchor="middle" x="1101" y="-62.6" font-family="Times,serif" font-size="14.00">AddressModule</text>
</g>
<!-- AddressModule&#45;&gt;OutputFieldModule -->
<g id="edge3" class="edge">
<title>AddressModule&#45;&gt;OutputFieldModule</title>
<path fill="none" stroke="black" d="M1101,-84.93C1101,-105.37 1101,-135.8 1101,-135.8 1101,-135.8 674.83,-135.8 674.83,-135.8"/>
<polygon fill="black" stroke="black" points="674.83,-132.3 664.83,-135.8 674.83,-139.3 674.83,-132.3"/>
</g>
<!-- PopoverModule.forRoot() -->
<g id="node5" class="node">
<title>PopoverModule.forRoot()</title>
<polygon fill="#8dd3c7" stroke="black" points="1030.08,-84.8 1027.08,-88.8 1006.08,-88.8 1003.08,-84.8 867.92,-84.8 867.92,-48.8 1030.08,-48.8 1030.08,-84.8"/>
<text text-anchor="middle" x="949" y="-62.6" font-family="Times,serif" font-size="14.00">PopoverModule.forRoot()</text>
</g>
<!-- PopoverModule.forRoot()&#45;&gt;OutputFieldModule -->
<g id="edge4" class="edge">
<title>PopoverModule.forRoot()&#45;&gt;OutputFieldModule</title>
<path fill="none" stroke="black" d="M949,-85.07C949,-103.36 949,-128.8 949,-128.8 949,-128.8 674.83,-128.8 674.83,-128.8"/>
<polygon fill="black" stroke="black" points="674.83,-125.3 664.83,-128.8 674.83,-132.3 674.83,-125.3"/>
</g>
<!-- TranslateModule.forChild() -->
<g id="node6" class="node">
<title>TranslateModule.forChild()</title>
<polygon fill="#8dd3c7" stroke="black" points="849.89,-84.8 846.89,-88.8 825.89,-88.8 822.89,-84.8 678.11,-84.8 678.11,-48.8 849.89,-48.8 849.89,-84.8"/>
<text text-anchor="middle" x="764" y="-62.6" font-family="Times,serif" font-size="14.00">TranslateModule.forChild()</text>
</g>
<!-- TranslateModule.forChild()&#45;&gt;OutputFieldModule -->
<g id="edge5" class="edge">
<title>TranslateModule.forChild()&#45;&gt;OutputFieldModule</title>
<path fill="none" stroke="black" d="M764,-84.81C764,-100.85 764,-121.8 764,-121.8 764,-121.8 674.95,-121.8 674.95,-121.8"/>
<polygon fill="black" stroke="black" points="674.95,-118.3 664.95,-121.8 674.95,-125.3 674.95,-118.3"/>
</g>
<!-- InputFieldModule -->
<g id="node7" class="node">
<title>InputFieldModule</title>
<polygon fill="#8dd3c7" stroke="black" points="659.88,-84.8 656.88,-88.8 635.88,-88.8 632.88,-84.8 542.12,-84.8 542.12,-48.8 659.88,-48.8 659.88,-84.8"/>
<text text-anchor="middle" x="601" y="-62.6" font-family="Times,serif" font-size="14.00">InputFieldModule</text>
</g>
<!-- InputFieldModule&#45;&gt;OutputFieldModule -->
<g id="edge6" class="edge">
<title>InputFieldModule&#45;&gt;OutputFieldModule</title>
<path fill="none" stroke="black" d="M601,-84.91C601,-84.91 601,-103.79 601,-103.79"/>
<polygon fill="black" stroke="black" points="597.5,-103.79 601,-113.79 604.5,-103.79 597.5,-103.79"/>
</g>
<!-- RouterModule -->
<g id="node8" class="node">
<title>RouterModule</title>
<polygon fill="#8dd3c7" stroke="black" points="523.65,-84.8 520.65,-88.8 499.65,-88.8 496.65,-84.8 426.35,-84.8 426.35,-48.8 523.65,-48.8 523.65,-84.8"/>
<text text-anchor="middle" x="475" y="-62.6" font-family="Times,serif" font-size="14.00">RouterModule</text>
</g>
<!-- RouterModule&#45;&gt;OutputFieldModule -->
<g id="edge7" class="edge">
<title>RouterModule&#45;&gt;OutputFieldModule</title>
<path fill="none" stroke="black" d="M475,-84.81C475,-100.85 475,-121.8 475,-121.8 475,-121.8 527.26,-121.8 527.26,-121.8"/>
<polygon fill="black" stroke="black" points="527.26,-125.3 537.26,-121.8 527.26,-118.3 527.26,-125.3"/>
</g>
<!-- LaddaModule -->
<g id="node9" class="node">
<title>LaddaModule</title>
<polygon fill="#8dd3c7" stroke="black" points="408.03,-84.8 405.03,-88.8 384.03,-88.8 381.03,-84.8 313.97,-84.8 313.97,-48.8 408.03,-48.8 408.03,-84.8"/>
<text text-anchor="middle" x="361" y="-62.6" font-family="Times,serif" font-size="14.00">LaddaModule</text>
</g>
<!-- LaddaModule&#45;&gt;OutputFieldModule -->
<g id="edge8" class="edge">
<title>LaddaModule&#45;&gt;OutputFieldModule</title>
<path fill="none" stroke="black" d="M361,-85.07C361,-103.36 361,-128.8 361,-128.8 361,-128.8 527.31,-128.8 527.31,-128.8"/>
<polygon fill="black" stroke="black" points="527.31,-132.3 537.31,-128.8 527.31,-125.3 527.31,-132.3"/>
</g>
<!-- PricingModule -->
<g id="node10" class="node">
<title>PricingModule</title>
<polygon fill="#8dd3c7" stroke="black" points="295.99,-84.8 292.99,-88.8 271.99,-88.8 268.99,-84.8 196.01,-84.8 196.01,-48.8 295.99,-48.8 295.99,-84.8"/>
<text text-anchor="middle" x="246" y="-62.6" font-family="Times,serif" font-size="14.00">PricingModule</text>
</g>
<!-- PricingModule&#45;&gt;OutputFieldModule -->
<g id="edge9" class="edge">
<title>PricingModule&#45;&gt;OutputFieldModule</title>
<path fill="none" stroke="black" d="M246,-84.93C246,-105.37 246,-135.8 246,-135.8 246,-135.8 527.12,-135.8 527.12,-135.8"/>
<polygon fill="black" stroke="black" points="527.12,-139.3 537.12,-135.8 527.12,-132.3 527.12,-139.3"/>
</g>
</g>
</svg>
