<?xml version="1.0" encoding="UTF-8" standalone="no"?>
<!DOCTYPE svg PUBLIC "-//W3C//DTD SVG 1.1//EN"
 "http://www.w3.org/Graphics/SVG/1.1/DTD/svg11.dtd">
<!-- Generated by graphviz version 2.47.3 (20210619.1520)
 -->
<!-- Title: dependencies Pages: 1 -->
<svg width="814pt" height="247pt"
 viewBox="0.00 0.00 814.00 246.80" xmlns="http://www.w3.org/2000/svg" xmlns:xlink="http://www.w3.org/1999/xlink">
<g id="graph0" class="graph" transform="scale(1 1) rotate(0) translate(4 242.8)">
<title>dependencies</title>
<polygon fill="white" stroke="transparent" points="-4,4 -4,-242.8 810,-242.8 810,4 -4,4"/>
<text text-anchor="middle" x="403" y="-8.2" font-family="sans-serif" font-size="14.00">dependencies</text>
<g id="clust1" class="cluster">
<title>cluster_CommerceModule</title>
<polygon fill="none" stroke="black" stroke-dasharray="1,5" points="8,-32.8 8,-230.8 798,-230.8 798,-32.8 8,-32.8"/>
</g>
<g id="clust3" class="cluster">
<title>cluster_CommerceModule_imports</title>
<polygon fill="none" stroke="black" points="16,-40.8 16,-92.8 790,-92.8 790,-40.8 16,-40.8"/>
</g>
<g id="clust4" class="cluster">
<title>cluster_CommerceModule_exports</title>
<polygon fill="none" stroke="black" points="35,-170.8 35,-222.8 771,-222.8 771,-170.8 35,-170.8"/>
</g>
<!-- CommonModule -->
<g id="node1" class="node">
<title>CommonModule</title>
<polygon fill="#8dd3c7" stroke="black" points="781.67,-84.8 778.67,-88.8 757.67,-88.8 754.67,-84.8 670.33,-84.8 670.33,-48.8 781.67,-48.8 781.67,-84.8"/>
<text text-anchor="middle" x="726" y="-62.6" font-family="Times,serif" font-size="14.00">CommonModule</text>
</g>
<!-- CommerceModule -->
<g id="node7" class="node">
<title>CommerceModule</title>
<polygon fill="#8dd3c7" stroke="black" points="479.47,-149.8 476.47,-153.8 455.47,-153.8 452.47,-149.8 358.53,-149.8 358.53,-113.8 479.47,-113.8 479.47,-149.8"/>
<text text-anchor="middle" x="419" y="-127.6" font-family="Times,serif" font-size="14.00">CommerceModule</text>
</g>
<!-- CommonModule&#45;&gt;CommerceModule -->
<g id="edge1" class="edge">
<title>CommonModule&#45;&gt;CommerceModule</title>
<path fill="none" stroke="black" d="M716.68,-85.07C716.68,-103.36 716.68,-128.8 716.68,-128.8 716.68,-128.8 489.6,-128.8 489.6,-128.8"/>
<polygon fill="black" stroke="black" points="489.6,-125.3 479.6,-128.8 489.6,-132.3 489.6,-125.3"/>
</g>
<!-- ApttusModule -->
<g id="node2" class="node">
<title>ApttusModule</title>
<polygon fill="#8dd3c7" stroke="black" points="652.38,-84.8 649.38,-88.8 628.38,-88.8 625.38,-84.8 555.62,-84.8 555.62,-48.8 652.38,-48.8 652.38,-84.8"/>
<text text-anchor="middle" x="604" y="-62.6" font-family="Times,serif" font-size="14.00">ApttusModule</text>
</g>
<!-- ApttusModule&#45;&gt;CommerceModule -->
<g id="edge2" class="edge">
<title>ApttusModule&#45;&gt;CommerceModule</title>
<path fill="none" stroke="black" d="M600.07,-84.81C600.07,-100.85 600.07,-121.8 600.07,-121.8 600.07,-121.8 489.55,-121.8 489.55,-121.8"/>
<polygon fill="black" stroke="black" points="489.55,-118.3 479.55,-121.8 489.55,-125.3 489.55,-118.3"/>
</g>
<!-- FormsModule -->
<g id="node3" class="node">
<title>FormsModule</title>
<polygon fill="#8dd3c7" stroke="black" points="537.83,-84.8 534.83,-88.8 513.83,-88.8 510.83,-84.8 442.17,-84.8 442.17,-48.8 537.83,-48.8 537.83,-84.8"/>
<text text-anchor="middle" x="490" y="-62.6" font-family="Times,serif" font-size="14.00">FormsModule</text>
</g>
<!-- FormsModule&#45;&gt;CommerceModule -->
<g id="edge3" class="edge">
<title>FormsModule&#45;&gt;CommerceModule</title>
<path fill="none" stroke="black" d="M460.91,-84.91C460.91,-84.91 460.91,-103.79 460.91,-103.79"/>
<polygon fill="black" stroke="black" points="457.41,-103.79 460.91,-113.79 464.41,-103.79 457.41,-103.79"/>
</g>
<!-- LaddaModule -->
<g id="node4" class="node">
<title>LaddaModule</title>
<polygon fill="#8dd3c7" stroke="black" points="424.03,-84.8 421.03,-88.8 400.03,-88.8 397.03,-84.8 329.97,-84.8 329.97,-48.8 424.03,-48.8 424.03,-84.8"/>
<text text-anchor="middle" x="377" y="-62.6" font-family="Times,serif" font-size="14.00">LaddaModule</text>
</g>
<!-- LaddaModule&#45;&gt;CommerceModule -->
<g id="edge4" class="edge">
<title>LaddaModule&#45;&gt;CommerceModule</title>
<path fill="none" stroke="black" d="M391.39,-84.91C391.39,-84.91 391.39,-103.79 391.39,-103.79"/>
<polygon fill="black" stroke="black" points="387.89,-103.79 391.39,-113.79 394.89,-103.79 387.89,-103.79"/>
</g>
<!-- RouterModule -->
<g id="node5" class="node">
<title>RouterModule</title>
<polygon fill="#8dd3c7" stroke="black" points="311.65,-84.8 308.65,-88.8 287.65,-88.8 284.65,-84.8 214.35,-84.8 214.35,-48.8 311.65,-48.8 311.65,-84.8"/>
<text text-anchor="middle" x="263" y="-62.6" font-family="Times,serif" font-size="14.00">RouterModule</text>
</g>
<!-- RouterModule&#45;&gt;CommerceModule -->
<g id="edge5" class="edge">
<title>RouterModule&#45;&gt;CommerceModule</title>
<path fill="none" stroke="black" d="M302.62,-84.81C302.62,-100.85 302.62,-121.8 302.62,-121.8 302.62,-121.8 348.43,-121.8 348.43,-121.8"/>
<polygon fill="black" stroke="black" points="348.43,-125.3 358.43,-121.8 348.43,-118.3 348.43,-125.3"/>
</g>
<!-- TranslateModule.forChild() -->
<g id="node6" class="node">
<title>TranslateModule.forChild()</title>
<polygon fill="#8dd3c7" stroke="black" points="195.89,-84.8 192.89,-88.8 171.89,-88.8 168.89,-84.8 24.11,-84.8 24.11,-48.8 195.89,-48.8 195.89,-84.8"/>
<text text-anchor="middle" x="110" y="-62.6" font-family="Times,serif" font-size="14.00">TranslateModule.forChild()</text>
</g>
<!-- TranslateModule.forChild()&#45;&gt;CommerceModule -->
<g id="edge6" class="edge">
<title>TranslateModule.forChild()&#45;&gt;CommerceModule</title>
<path fill="none" stroke="black" d="M186.27,-85.07C186.27,-103.36 186.27,-128.8 186.27,-128.8 186.27,-128.8 348.46,-128.8 348.46,-128.8"/>
<polygon fill="black" stroke="black" points="348.46,-132.3 358.46,-128.8 348.46,-125.3 348.46,-132.3"/>
</g>
<!-- ApttusModule  -->
<g id="node8" class="node">
<title>ApttusModule </title>
<polygon fill="#fb8072" stroke="black" points="763.38,-214.8 662.62,-214.8 662.62,-178.8 763.38,-178.8 763.38,-214.8"/>
<text text-anchor="middle" x="713" y="-192.6" font-family="Times,serif" font-size="14.00">ApttusModule </text>
</g>
<!-- CommerceModule&#45;&gt;ApttusModule  -->
<g id="edge7" class="edge">
<title>CommerceModule&#45;&gt;ApttusModule </title>
<path fill="none" stroke="black" stroke-dasharray="5,2" d="M479.54,-135.8C552.81,-135.8 666.49,-135.8 666.49,-135.8 666.49,-135.8 666.49,-168.5 666.49,-168.5"/>
<polygon fill="black" stroke="black" points="662.99,-168.5 666.49,-178.5 669.99,-168.5 662.99,-168.5"/>
</g>
<!-- CommonModule  -->
<g id="node9" class="node">
<title>CommonModule </title>
<polygon fill="#fb8072" stroke="black" points="644.67,-214.8 529.33,-214.8 529.33,-178.8 644.67,-178.8 644.67,-214.8"/>
<text text-anchor="middle" x="587" y="-192.6" font-family="Times,serif" font-size="14.00">CommonModule </text>
</g>
<!-- CommerceModule&#45;&gt;CommonModule  -->
<g id="edge8" class="edge">
<title>CommerceModule&#45;&gt;CommonModule </title>
<path fill="none" stroke="black" stroke-dasharray="5,2" d="M479.62,-142.8C507.1,-142.8 533.54,-142.8 533.54,-142.8 533.54,-142.8 533.54,-168.52 533.54,-168.52"/>
<polygon fill="black" stroke="black" points="530.04,-168.52 533.54,-178.52 537.04,-168.52 530.04,-168.52"/>
</g>
<!-- LaddaModule  -->
<g id="node10" class="node">
<title>LaddaModule </title>
<polygon fill="#fb8072" stroke="black" points="511.03,-214.8 412.97,-214.8 412.97,-178.8 511.03,-178.8 511.03,-214.8"/>
<text text-anchor="middle" x="462" y="-192.6" font-family="Times,serif" font-size="14.00">LaddaModule </text>
</g>
<!-- CommerceModule&#45;&gt;LaddaModule  -->
<g id="edge9" class="edge">
<title>CommerceModule&#45;&gt;LaddaModule </title>
<path fill="none" stroke="black" stroke-dasharray="5,2" d="M446.24,-149.91C446.24,-149.91 446.24,-168.79 446.24,-168.79"/>
<polygon fill="black" stroke="black" points="442.74,-168.79 446.24,-178.79 449.74,-168.79 442.74,-168.79"/>
</g>
<!-- RouterModule  -->
<g id="node11" class="node">
<title>RouterModule </title>
<polygon fill="#fb8072" stroke="black" points="394.65,-214.8 293.35,-214.8 293.35,-178.8 394.65,-178.8 394.65,-214.8"/>
<text text-anchor="middle" x="344" y="-192.6" font-family="Times,serif" font-size="14.00">RouterModule </text>
</g>
<!-- CommerceModule&#45;&gt;RouterModule  -->
<g id="edge10" class="edge">
<title>CommerceModule&#45;&gt;RouterModule </title>
<path fill="none" stroke="black" stroke-dasharray="5,2" d="M376.55,-149.91C376.55,-149.91 376.55,-168.79 376.55,-168.79"/>
<polygon fill="black" stroke="black" points="373.05,-168.79 376.55,-178.79 380.05,-168.79 373.05,-168.79"/>
</g>
<!-- FormsModule  -->
<g id="node12" class="node">
<title>FormsModule </title>
<polygon fill="#fb8072" stroke="black" points="275.33,-214.8 176.67,-214.8 176.67,-178.8 275.33,-178.8 275.33,-214.8"/>
<text text-anchor="middle" x="226" y="-192.6" font-family="Times,serif" font-size="14.00">FormsModule </text>
</g>
<!-- CommerceModule&#45;&gt;FormsModule  -->
<g id="edge11" class="edge">
<title>CommerceModule&#45;&gt;FormsModule </title>
<path fill="none" stroke="black" stroke-dasharray="5,2" d="M358.07,-142.8C307.84,-142.8 244.79,-142.8 244.79,-142.8 244.79,-142.8 244.79,-168.52 244.79,-168.52"/>
<polygon fill="black" stroke="black" points="241.29,-168.52 244.79,-178.52 248.29,-168.52 241.29,-168.52"/>
</g>
<!-- TranslateModule  -->
<g id="node13" class="node">
<title>TranslateModule </title>
<polygon fill="#fb8072" stroke="black" points="158.63,-214.8 43.37,-214.8 43.37,-178.8 158.63,-178.8 158.63,-214.8"/>
<text text-anchor="middle" x="101" y="-192.6" font-family="Times,serif" font-size="14.00">TranslateModule </text>
</g>
<!-- CommerceModule&#45;&gt;TranslateModule  -->
<g id="edge12" class="edge">
<title>CommerceModule&#45;&gt;TranslateModule </title>
<path fill="none" stroke="black" stroke-dasharray="5,2" d="M358.44,-135.8C266.17,-135.8 101,-135.8 101,-135.8 101,-135.8 101,-168.5 101,-168.5"/>
<polygon fill="black" stroke="black" points="97.5,-168.5 101,-178.5 104.5,-168.5 97.5,-168.5"/>
</g>
</g>
</svg>
