<?xml version="1.0" encoding="UTF-8" standalone="no"?>
<!DOCTYPE svg PUBLIC "-//W3C//DTD SVG 1.1//EN"
 "http://www.w3.org/Graphics/SVG/1.1/DTD/svg11.dtd">
<!-- Generated by graphviz version 2.47.3 (20210619.1520)
 -->
<!-- Title: dependencies Pages: 1 -->
<svg width="1080pt" height="174pt"
 viewBox="0.00 0.00 1080.00 173.80" xmlns="http://www.w3.org/2000/svg" xmlns:xlink="http://www.w3.org/1999/xlink">
<g id="graph0" class="graph" transform="scale(1 1) rotate(0) translate(4 169.8)">
<title>dependencies</title>
<polygon fill="white" stroke="transparent" points="-4,4 -4,-169.8 1076,-169.8 1076,4 -4,4"/>
<text text-anchor="middle" x="536" y="-8.2" font-family="sans-serif" font-size="14.00">dependencies</text>
<g id="clust1" class="cluster">
<title>cluster_QuotesModule</title>
<polygon fill="none" stroke="black" stroke-dasharray="1,5" points="8,-32.8 8,-157.8 1064,-157.8 1064,-32.8 8,-32.8"/>
</g>
<g id="clust5" class="cluster">
<title>cluster_QuotesModule_imports</title>
<polygon fill="none" stroke="black" points="346,-40.8 346,-92.8 1056,-92.8 1056,-40.8 346,-40.8"/>
</g>
<g id="clust2" class="cluster">
<title>cluster_QuotesModule_declarations</title>
<polygon fill="none" stroke="black" points="16,-40.8 16,-92.8 338,-92.8 338,-40.8 16,-40.8"/>
</g>
<!-- QuoteDetailComponent -->
<g id="node1" class="node">
<title>QuoteDetailComponent</title>
<polygon fill="#ffffb3" stroke="black" points="329.75,-84.8 180.25,-84.8 180.25,-48.8 329.75,-48.8 329.75,-84.8"/>
<text text-anchor="middle" x="255" y="-62.6" font-family="Times,serif" font-size="14.00">QuoteDetailComponent</text>
</g>
<!-- QuotesModule -->
<g id="node3" class="node">
<title>QuotesModule</title>
<polygon fill="#8dd3c7" stroke="black" points="585.71,-149.8 582.71,-153.8 561.71,-153.8 558.71,-149.8 486.29,-149.8 486.29,-113.8 585.71,-113.8 585.71,-149.8"/>
<text text-anchor="middle" x="536" y="-127.6" font-family="Times,serif" font-size="14.00">QuotesModule</text>
</g>
<!-- QuoteDetailComponent&#45;&gt;QuotesModule -->
<g id="edge1" class="edge">
<title>QuoteDetailComponent&#45;&gt;QuotesModule</title>
<path fill="none" stroke="black" d="M255,-84.91C255,-104.14 255,-131.8 255,-131.8 255,-131.8 476.09,-131.8 476.09,-131.8"/>
<polygon fill="black" stroke="black" points="476.09,-135.3 486.09,-131.8 476.09,-128.3 476.09,-135.3"/>
</g>
<!-- QuoteListComponent -->
<g id="node2" class="node">
<title>QuoteListComponent</title>
<polygon fill="#ffffb3" stroke="black" points="161.82,-84.8 24.18,-84.8 24.18,-48.8 161.82,-48.8 161.82,-84.8"/>
<text text-anchor="middle" x="93" y="-62.6" font-family="Times,serif" font-size="14.00">QuoteListComponent</text>
</g>
<!-- QuoteListComponent&#45;&gt;QuotesModule -->
<g id="edge2" class="edge">
<title>QuoteListComponent&#45;&gt;QuotesModule</title>
<path fill="none" stroke="black" d="M93,-85.09C93,-107.01 93,-140.8 93,-140.8 93,-140.8 476.04,-140.8 476.04,-140.8"/>
<polygon fill="black" stroke="black" points="476.04,-144.3 486.04,-140.8 476.04,-137.3 476.04,-144.3"/>
</g>
<!-- DataFilterModule -->
<g id="node4" class="node">
<title>DataFilterModule</title>
<polygon fill="#8dd3c7" stroke="black" points="1048.31,-84.8 1045.31,-88.8 1024.31,-88.8 1021.31,-84.8 931.69,-84.8 931.69,-48.8 1048.31,-48.8 1048.31,-84.8"/>
<text text-anchor="middle" x="990" y="-62.6" font-family="Times,serif" font-size="14.00">DataFilterModule</text>
</g>
<!-- DataFilterModule&#45;&gt;QuotesModule -->
<g id="edge3" class="edge">
<title>DataFilterModule&#45;&gt;QuotesModule</title>
<path fill="none" stroke="black" d="M990,-85.09C990,-107.01 990,-140.8 990,-140.8 990,-140.8 595.88,-140.8 595.88,-140.8"/>
<polygon fill="black" stroke="black" points="595.88,-137.3 585.88,-140.8 595.88,-144.3 595.88,-137.3"/>
</g>
<!-- LineItemTableRowModule -->
<g id="node5" class="node">
<title>LineItemTableRowModule</title>
<polygon fill="#8dd3c7" stroke="black" points="913.68,-84.8 910.68,-88.8 889.68,-88.8 886.68,-84.8 744.32,-84.8 744.32,-48.8 913.68,-48.8 913.68,-84.8"/>
<text text-anchor="middle" x="829" y="-62.6" font-family="Times,serif" font-size="14.00">LineItemTableRowModule</text>
</g>
<!-- LineItemTableRowModule&#45;&gt;QuotesModule -->
<g id="edge4" class="edge">
<title>LineItemTableRowModule&#45;&gt;QuotesModule</title>
<path fill="none" stroke="black" d="M829,-84.91C829,-104.14 829,-131.8 829,-131.8 829,-131.8 595.7,-131.8 595.7,-131.8"/>
<polygon fill="black" stroke="black" points="595.7,-128.3 585.7,-131.8 595.7,-135.3 595.7,-128.3"/>
</g>
<!-- PricingModule -->
<g id="node6" class="node">
<title>PricingModule</title>
<polygon fill="#8dd3c7" stroke="black" points="725.99,-84.8 722.99,-88.8 701.99,-88.8 698.99,-84.8 626.01,-84.8 626.01,-48.8 725.99,-48.8 725.99,-84.8"/>
<text text-anchor="middle" x="676" y="-62.6" font-family="Times,serif" font-size="14.00">PricingModule</text>
</g>
<!-- PricingModule&#45;&gt;QuotesModule -->
<g id="edge5" class="edge">
<title>PricingModule&#45;&gt;QuotesModule</title>
<path fill="none" stroke="black" d="M676,-84.83C676,-101.2 676,-122.8 676,-122.8 676,-122.8 595.75,-122.8 595.75,-122.8"/>
<polygon fill="black" stroke="black" points="595.75,-119.3 585.75,-122.8 595.75,-126.3 595.75,-119.3"/>
</g>
<!-- QuotesRoutingModule -->
<g id="node7" class="node">
<title>QuotesRoutingModule</title>
<polygon fill="#8dd3c7" stroke="black" points="608.32,-84.8 605.32,-88.8 584.32,-88.8 581.32,-84.8 463.68,-84.8 463.68,-48.8 608.32,-48.8 608.32,-84.8"/>
<text text-anchor="middle" x="536" y="-62.6" font-family="Times,serif" font-size="14.00">QuotesRoutingModule</text>
</g>
<!-- QuotesRoutingModule&#45;&gt;QuotesModule -->
<g id="edge6" class="edge">
<title>QuotesRoutingModule&#45;&gt;QuotesModule</title>
<path fill="none" stroke="black" d="M536,-84.91C536,-84.91 536,-103.79 536,-103.79"/>
<polygon fill="black" stroke="black" points="532.5,-103.79 536,-113.79 539.5,-103.79 532.5,-103.79"/>
</g>
<!-- TableModule -->
<g id="node8" class="node">
<title>TableModule</title>
<polygon fill="#8dd3c7" stroke="black" points="445.92,-84.8 442.92,-88.8 421.92,-88.8 418.92,-84.8 354.08,-84.8 354.08,-48.8 445.92,-48.8 445.92,-84.8"/>
<text text-anchor="middle" x="400" y="-62.6" font-family="Times,serif" font-size="14.00">TableModule</text>
</g>
<!-- TableModule&#45;&gt;QuotesModule -->
<g id="edge7" class="edge">
<title>TableModule&#45;&gt;QuotesModule</title>
<path fill="none" stroke="black" d="M400,-84.83C400,-101.2 400,-122.8 400,-122.8 400,-122.8 476.13,-122.8 476.13,-122.8"/>
<polygon fill="black" stroke="black" points="476.13,-126.3 486.13,-122.8 476.13,-119.3 476.13,-126.3"/>
</g>
</g>
</svg>
