<?xml version="1.0" encoding="UTF-8" standalone="no"?>
<!DOCTYPE svg PUBLIC "-//W3C//DTD SVG 1.1//EN"
 "http://www.w3.org/Graphics/SVG/1.1/DTD/svg11.dtd">
<!-- Generated by graphviz version 2.47.3 (20210619.1520)
 -->
<!-- Title: dependencies Pages: 1 -->
<svg width="1094pt" height="247pt"
 viewBox="0.00 0.00 1094.00 246.80" xmlns="http://www.w3.org/2000/svg" xmlns:xlink="http://www.w3.org/1999/xlink">
<g id="graph0" class="graph" transform="scale(1 1) rotate(0) translate(4 242.8)">
<title>dependencies</title>
<polygon fill="white" stroke="transparent" points="-4,4 -4,-242.8 1090,-242.8 1090,4 -4,4"/>
<text text-anchor="middle" x="543" y="-8.2" font-family="sans-serif" font-size="14.00">dependencies</text>
<g id="clust1" class="cluster">
<title>cluster_PromotionModalModule</title>
<polygon fill="none" stroke="black" stroke-dasharray="1,5" points="8,-32.8 8,-230.8 1078,-230.8 1078,-32.8 8,-32.8"/>
</g>
<g id="clust4" class="cluster">
<title>cluster_PromotionModalModule_imports</title>
<polygon fill="none" stroke="black" points="216,-40.8 216,-92.8 1070,-92.8 1070,-40.8 216,-40.8"/>
</g>
<g id="clust2" class="cluster">
<title>cluster_PromotionModalModule_declarations</title>
<polygon fill="none" stroke="black" points="16,-40.8 16,-92.8 208,-92.8 208,-40.8 16,-40.8"/>
</g>
<g id="clust5" class="cluster">
<title>cluster_PromotionModalModule_exports</title>
<polygon fill="none" stroke="black" points="460,-170.8 460,-222.8 656,-222.8 656,-170.8 460,-170.8"/>
</g>
<!-- PromotionModalComponent -->
<g id="node1" class="node">
<title>PromotionModalComponent</title>
<polygon fill="#ffffb3" stroke="black" points="200.5,-84.8 23.5,-84.8 23.5,-48.8 200.5,-48.8 200.5,-84.8"/>
<text text-anchor="middle" x="112" y="-62.6" font-family="Times,serif" font-size="14.00">PromotionModalComponent</text>
</g>
<!-- PromotionModalModule -->
<g id="node2" class="node">
<title>PromotionModalModule</title>
<polygon fill="#8dd3c7" stroke="black" points="635.71,-149.8 632.71,-153.8 611.71,-153.8 608.71,-149.8 480.29,-149.8 480.29,-113.8 635.71,-113.8 635.71,-149.8"/>
<text text-anchor="middle" x="558" y="-127.6" font-family="Times,serif" font-size="14.00">PromotionModalModule</text>
</g>
<!-- PromotionModalComponent&#45;&gt;PromotionModalModule -->
<g id="edge1" class="edge">
<title>PromotionModalComponent&#45;&gt;PromotionModalModule</title>
<path fill="none" stroke="black" d="M112,-85.09C112,-107.01 112,-140.8 112,-140.8 112,-140.8 470.31,-140.8 470.31,-140.8"/>
<polygon fill="black" stroke="black" points="470.31,-144.3 480.31,-140.8 470.31,-137.3 470.31,-144.3"/>
</g>
<!-- PromotionModalComponent  -->
<g id="node9" class="node">
<title>PromotionModalComponent </title>
<polygon fill="#fb8072" stroke="black" points="648.5,-214.8 467.5,-214.8 467.5,-178.8 648.5,-178.8 648.5,-214.8"/>
<text text-anchor="middle" x="558" y="-192.6" font-family="Times,serif" font-size="14.00">PromotionModalComponent </text>
</g>
<!-- PromotionModalModule&#45;&gt;PromotionModalComponent  -->
<g id="edge8" class="edge">
<title>PromotionModalModule&#45;&gt;PromotionModalComponent </title>
<path fill="none" stroke="black" stroke-dasharray="5,2" d="M558,-149.91C558,-149.91 558,-168.79 558,-168.79"/>
<polygon fill="black" stroke="black" points="554.5,-168.79 558,-178.79 561.5,-168.79 554.5,-168.79"/>
</g>
<!-- CommonModule -->
<g id="node3" class="node">
<title>CommonModule</title>
<polygon fill="#8dd3c7" stroke="black" points="1061.67,-84.8 1058.67,-88.8 1037.67,-88.8 1034.67,-84.8 950.33,-84.8 950.33,-48.8 1061.67,-48.8 1061.67,-84.8"/>
<text text-anchor="middle" x="1006" y="-62.6" font-family="Times,serif" font-size="14.00">CommonModule</text>
</g>
<!-- CommonModule&#45;&gt;PromotionModalModule -->
<g id="edge2" class="edge">
<title>CommonModule&#45;&gt;PromotionModalModule</title>
<path fill="none" stroke="black" d="M1006,-85.09C1006,-107.01 1006,-140.8 1006,-140.8 1006,-140.8 645.78,-140.8 645.78,-140.8"/>
<polygon fill="black" stroke="black" points="645.78,-137.3 635.78,-140.8 645.78,-144.3 645.78,-137.3"/>
</g>
<!-- PricingModule -->
<g id="node4" class="node">
<title>PricingModule</title>
<polygon fill="#8dd3c7" stroke="black" points="931.99,-84.8 928.99,-88.8 907.99,-88.8 904.99,-84.8 832.01,-84.8 832.01,-48.8 931.99,-48.8 931.99,-84.8"/>
<text text-anchor="middle" x="882" y="-62.6" font-family="Times,serif" font-size="14.00">PricingModule</text>
</g>
<!-- PricingModule&#45;&gt;PromotionModalModule -->
<g id="edge3" class="edge">
<title>PricingModule&#45;&gt;PromotionModalModule</title>
<path fill="none" stroke="black" d="M882,-84.91C882,-104.14 882,-131.8 882,-131.8 882,-131.8 646.02,-131.8 646.02,-131.8"/>
<polygon fill="black" stroke="black" points="646.02,-128.3 636.02,-131.8 646.02,-135.3 646.02,-128.3"/>
</g>
<!-- ModalModule.forRoot() -->
<g id="node5" class="node">
<title>ModalModule.forRoot()</title>
<polygon fill="#8dd3c7" stroke="black" points="814.47,-84.8 811.47,-88.8 790.47,-88.8 787.47,-84.8 661.53,-84.8 661.53,-48.8 814.47,-48.8 814.47,-84.8"/>
<text text-anchor="middle" x="738" y="-62.6" font-family="Times,serif" font-size="14.00">ModalModule.forRoot()</text>
</g>
<!-- ModalModule.forRoot()&#45;&gt;PromotionModalModule -->
<g id="edge4" class="edge">
<title>ModalModule.forRoot()&#45;&gt;PromotionModalModule</title>
<path fill="none" stroke="black" d="M738,-84.83C738,-101.2 738,-122.8 738,-122.8 738,-122.8 645.64,-122.8 645.64,-122.8"/>
<polygon fill="black" stroke="black" points="645.64,-119.3 635.64,-122.8 645.64,-126.3 645.64,-119.3"/>
</g>
<!-- TranslateModule.forChild() -->
<g id="node6" class="node">
<title>TranslateModule.forChild()</title>
<polygon fill="#8dd3c7" stroke="black" points="643.89,-84.8 640.89,-88.8 619.89,-88.8 616.89,-84.8 472.11,-84.8 472.11,-48.8 643.89,-48.8 643.89,-84.8"/>
<text text-anchor="middle" x="558" y="-62.6" font-family="Times,serif" font-size="14.00">TranslateModule.forChild()</text>
</g>
<!-- TranslateModule.forChild()&#45;&gt;PromotionModalModule -->
<g id="edge5" class="edge">
<title>TranslateModule.forChild()&#45;&gt;PromotionModalModule</title>
<path fill="none" stroke="black" d="M558,-84.91C558,-84.91 558,-103.79 558,-103.79"/>
<polygon fill="black" stroke="black" points="554.5,-103.79 558,-113.79 561.5,-103.79 554.5,-103.79"/>
</g>
<!-- OutputFieldModule -->
<g id="node7" class="node">
<title>OutputFieldModule</title>
<polygon fill="#8dd3c7" stroke="black" points="453.72,-84.8 450.72,-88.8 429.72,-88.8 426.72,-84.8 326.28,-84.8 326.28,-48.8 453.72,-48.8 453.72,-84.8"/>
<text text-anchor="middle" x="390" y="-62.6" font-family="Times,serif" font-size="14.00">OutputFieldModule</text>
</g>
<!-- OutputFieldModule&#45;&gt;PromotionModalModule -->
<g id="edge6" class="edge">
<title>OutputFieldModule&#45;&gt;PromotionModalModule</title>
<path fill="none" stroke="black" d="M390,-84.83C390,-101.2 390,-122.8 390,-122.8 390,-122.8 469.9,-122.8 469.9,-122.8"/>
<polygon fill="black" stroke="black" points="469.9,-126.3 479.9,-122.8 469.9,-119.3 469.9,-126.3"/>
</g>
<!-- IconModule -->
<g id="node8" class="node">
<title>IconModule</title>
<polygon fill="#8dd3c7" stroke="black" points="308.43,-84.8 305.43,-88.8 284.43,-88.8 281.43,-84.8 223.57,-84.8 223.57,-48.8 308.43,-48.8 308.43,-84.8"/>
<text text-anchor="middle" x="266" y="-62.6" font-family="Times,serif" font-size="14.00">IconModule</text>
</g>
<!-- IconModule&#45;&gt;PromotionModalModule -->
<g id="edge7" class="edge">
<title>IconModule&#45;&gt;PromotionModalModule</title>
<path fill="none" stroke="black" d="M266,-84.91C266,-104.14 266,-131.8 266,-131.8 266,-131.8 470.13,-131.8 470.13,-131.8"/>
<polygon fill="black" stroke="black" points="470.13,-135.3 480.13,-131.8 470.13,-128.3 470.13,-135.3"/>
</g>
</g>
</svg>
