<?xml version="1.0" encoding="UTF-8" standalone="no"?>
<!DOCTYPE svg PUBLIC "-//W3C//DTD SVG 1.1//EN"
 "http://www.w3.org/Graphics/SVG/1.1/DTD/svg11.dtd">
<!-- Generated by graphviz version 2.47.3 (20210619.1520)
 -->
<!-- Title: dependencies Pages: 1 -->
<svg width="616pt" height="247pt"
 viewBox="0.00 0.00 616.00 246.80" xmlns="http://www.w3.org/2000/svg" xmlns:xlink="http://www.w3.org/1999/xlink">
<g id="graph0" class="graph" transform="scale(1 1) rotate(0) translate(4 242.8)">
<title>dependencies</title>
<polygon fill="white" stroke="transparent" points="-4,4 -4,-242.8 612,-242.8 612,4 -4,4"/>
<text text-anchor="middle" x="304" y="-8.2" font-family="sans-serif" font-size="14.00">dependencies</text>
<g id="clust1" class="cluster">
<title>cluster_ProductImagesModule</title>
<polygon fill="none" stroke="black" stroke-dasharray="1,5" points="8,-32.8 8,-230.8 600,-230.8 600,-32.8 8,-32.8"/>
</g>
<g id="clust2" class="cluster">
<title>cluster_ProductImagesModule_declarations</title>
<polygon fill="none" stroke="black" points="410,-40.8 410,-92.8 592,-92.8 592,-40.8 410,-40.8"/>
</g>
<g id="clust4" class="cluster">
<title>cluster_ProductImagesModule_imports</title>
<polygon fill="none" stroke="black" points="16,-40.8 16,-92.8 402,-92.8 402,-40.8 16,-40.8"/>
</g>
<g id="clust5" class="cluster">
<title>cluster_ProductImagesModule_exports</title>
<polygon fill="none" stroke="black" points="177,-170.8 177,-222.8 361,-222.8 361,-170.8 177,-170.8"/>
</g>
<!-- ProductImagesComponent -->
<g id="node1" class="node">
<title>ProductImagesComponent</title>
<polygon fill="#ffffb3" stroke="black" points="583.81,-84.8 418.19,-84.8 418.19,-48.8 583.81,-48.8 583.81,-84.8"/>
<text text-anchor="middle" x="501" y="-62.6" font-family="Times,serif" font-size="14.00">ProductImagesComponent</text>
</g>
<!-- ProductImagesModule -->
<g id="node2" class="node">
<title>ProductImagesModule</title>
<polygon fill="#8dd3c7" stroke="black" points="340.52,-149.8 337.52,-153.8 316.52,-153.8 313.52,-149.8 197.48,-149.8 197.48,-113.8 340.52,-113.8 340.52,-149.8"/>
<text text-anchor="middle" x="269" y="-127.6" font-family="Times,serif" font-size="14.00">ProductImagesModule</text>
</g>
<!-- ProductImagesComponent&#45;&gt;ProductImagesModule -->
<g id="edge1" class="edge">
<title>ProductImagesComponent&#45;&gt;ProductImagesModule</title>
<path fill="none" stroke="black" d="M501,-84.91C501,-104.14 501,-131.8 501,-131.8 501,-131.8 350.82,-131.8 350.82,-131.8"/>
<polygon fill="black" stroke="black" points="350.82,-128.3 340.82,-131.8 350.82,-135.3 350.82,-128.3"/>
</g>
<!-- ProductImagesComponent  -->
<g id="node6" class="node">
<title>ProductImagesComponent </title>
<polygon fill="#fb8072" stroke="black" points="353.31,-214.8 184.69,-214.8 184.69,-178.8 353.31,-178.8 353.31,-214.8"/>
<text text-anchor="middle" x="269" y="-192.6" font-family="Times,serif" font-size="14.00">ProductImagesComponent </text>
</g>
<!-- ProductImagesModule&#45;&gt;ProductImagesComponent  -->
<g id="edge5" class="edge">
<title>ProductImagesModule&#45;&gt;ProductImagesComponent </title>
<path fill="none" stroke="black" stroke-dasharray="5,2" d="M269,-149.91C269,-149.91 269,-168.79 269,-168.79"/>
<polygon fill="black" stroke="black" points="265.5,-168.79 269,-178.79 272.5,-168.79 265.5,-168.79"/>
</g>
<!-- CommonModule -->
<g id="node3" class="node">
<title>CommonModule</title>
<polygon fill="#8dd3c7" stroke="black" points="393.67,-84.8 390.67,-88.8 369.67,-88.8 366.67,-84.8 282.33,-84.8 282.33,-48.8 393.67,-48.8 393.67,-84.8"/>
<text text-anchor="middle" x="338" y="-62.6" font-family="Times,serif" font-size="14.00">CommonModule</text>
</g>
<!-- CommonModule&#45;&gt;ProductImagesModule -->
<g id="edge2" class="edge">
<title>CommonModule&#45;&gt;ProductImagesModule</title>
<path fill="none" stroke="black" d="M311.46,-84.91C311.46,-84.91 311.46,-103.79 311.46,-103.79"/>
<polygon fill="black" stroke="black" points="307.96,-103.79 311.46,-113.79 314.96,-103.79 307.96,-103.79"/>
</g>
<!-- NgxGalleryModule -->
<g id="node4" class="node">
<title>NgxGalleryModule</title>
<polygon fill="#8dd3c7" stroke="black" points="263.63,-84.8 260.63,-88.8 239.63,-88.8 236.63,-84.8 138.37,-84.8 138.37,-48.8 263.63,-48.8 263.63,-84.8"/>
<text text-anchor="middle" x="201" y="-62.6" font-family="Times,serif" font-size="14.00">NgxGalleryModule</text>
</g>
<!-- NgxGalleryModule&#45;&gt;ProductImagesModule -->
<g id="edge3" class="edge">
<title>NgxGalleryModule&#45;&gt;ProductImagesModule</title>
<path fill="none" stroke="black" d="M230.53,-84.91C230.53,-84.91 230.53,-103.79 230.53,-103.79"/>
<polygon fill="black" stroke="black" points="227.03,-103.79 230.53,-113.79 234.03,-103.79 227.03,-103.79"/>
</g>
<!-- ApttusModule -->
<g id="node5" class="node">
<title>ApttusModule</title>
<polygon fill="#8dd3c7" stroke="black" points="120.38,-84.8 117.38,-88.8 96.38,-88.8 93.38,-84.8 23.62,-84.8 23.62,-48.8 120.38,-48.8 120.38,-84.8"/>
<text text-anchor="middle" x="72" y="-62.6" font-family="Times,serif" font-size="14.00">ApttusModule</text>
</g>
<!-- ApttusModule&#45;&gt;ProductImagesModule -->
<g id="edge4" class="edge">
<title>ApttusModule&#45;&gt;ProductImagesModule</title>
<path fill="none" stroke="black" d="M72,-84.91C72,-104.14 72,-131.8 72,-131.8 72,-131.8 187.32,-131.8 187.32,-131.8"/>
<polygon fill="black" stroke="black" points="187.32,-135.3 197.32,-131.8 187.32,-128.3 187.32,-135.3"/>
</g>
</g>
</svg>
