<?xml version="1.0" encoding="UTF-8" standalone="no"?>
<!DOCTYPE svg PUBLIC "-//W3C//DTD SVG 1.1//EN"
 "http://www.w3.org/Graphics/SVG/1.1/DTD/svg11.dtd">
<!-- Generated by graphviz version 2.47.3 (20210619.1520)
 -->
<!-- Title: dependencies Pages: 1 -->
<svg width="1662pt" height="247pt"
 viewBox="0.00 0.00 1662.00 246.80" xmlns="http://www.w3.org/2000/svg" xmlns:xlink="http://www.w3.org/1999/xlink">
<g id="graph0" class="graph" transform="scale(1 1) rotate(0) translate(4 242.8)">
<title>dependencies</title>
<polygon fill="white" stroke="transparent" points="-4,4 -4,-242.8 1658,-242.8 1658,4 -4,4"/>
<text text-anchor="middle" x="827" y="-8.2" font-family="sans-serif" font-size="14.00">dependencies</text>
<g id="clust1" class="cluster">
<title>cluster_ProductDrawerModule</title>
<polygon fill="none" stroke="black" stroke-dasharray="1,5" points="8,-32.8 8,-230.8 1646,-230.8 1646,-32.8 8,-32.8"/>
</g>
<g id="clust7" class="cluster">
<title>cluster_ProductDrawerModule_exports</title>
<polygon fill="none" stroke="black" points="748,-170.8 748,-222.8 934,-222.8 934,-170.8 748,-170.8"/>
</g>
<g id="clust2" class="cluster">
<title>cluster_ProductDrawerModule_declarations</title>
<polygon fill="none" stroke="black" points="1105,-40.8 1105,-92.8 1638,-92.8 1638,-40.8 1105,-40.8"/>
</g>
<g id="clust6" class="cluster">
<title>cluster_ProductDrawerModule_imports</title>
<polygon fill="none" stroke="black" points="16,-40.8 16,-92.8 1097,-92.8 1097,-40.8 16,-40.8"/>
</g>
<!-- ProductDrawerComponent -->
<g id="node1" class="node">
<title>ProductDrawerComponent</title>
<polygon fill="#ffffb3" stroke="black" points="1630.34,-84.8 1463.66,-84.8 1463.66,-48.8 1630.34,-48.8 1630.34,-84.8"/>
<text text-anchor="middle" x="1547" y="-62.6" font-family="Times,serif" font-size="14.00">ProductDrawerComponent</text>
</g>
<!-- ProductDrawerModule -->
<g id="node4" class="node">
<title>ProductDrawerModule</title>
<polygon fill="#8dd3c7" stroke="black" points="913.56,-149.8 910.56,-153.8 889.56,-153.8 886.56,-149.8 768.44,-149.8 768.44,-113.8 913.56,-113.8 913.56,-149.8"/>
<text text-anchor="middle" x="841" y="-127.6" font-family="Times,serif" font-size="14.00">ProductDrawerModule</text>
</g>
<!-- ProductDrawerComponent&#45;&gt;ProductDrawerModule -->
<g id="edge1" class="edge">
<title>ProductDrawerComponent&#45;&gt;ProductDrawerModule</title>
<path fill="none" stroke="black" d="M1547,-84.81C1547,-107.29 1547,-142.8 1547,-142.8 1547,-142.8 923.57,-142.8 923.57,-142.8"/>
<polygon fill="black" stroke="black" points="923.57,-139.3 913.57,-142.8 923.57,-146.3 923.57,-139.3"/>
</g>
<!-- SuperChevronComponent -->
<g id="node2" class="node">
<title>SuperChevronComponent</title>
<polygon fill="#ffffb3" stroke="black" points="1445.2,-84.8 1282.8,-84.8 1282.8,-48.8 1445.2,-48.8 1445.2,-84.8"/>
<text text-anchor="middle" x="1364" y="-62.6" font-family="Times,serif" font-size="14.00">SuperChevronComponent</text>
</g>
<!-- SuperChevronComponent&#45;&gt;ProductDrawerModule -->
<g id="edge2" class="edge">
<title>SuperChevronComponent&#45;&gt;ProductDrawerModule</title>
<path fill="none" stroke="black" d="M1364,-84.93C1364,-105.37 1364,-135.8 1364,-135.8 1364,-135.8 923.72,-135.8 923.72,-135.8"/>
<polygon fill="black" stroke="black" points="923.72,-132.3 913.72,-135.8 923.72,-139.3 923.72,-132.3"/>
</g>
<!-- BatchActionComponent -->
<g id="node3" class="node">
<title>BatchActionComponent</title>
<polygon fill="#ffffb3" stroke="black" points="1265.09,-84.8 1112.91,-84.8 1112.91,-48.8 1265.09,-48.8 1265.09,-84.8"/>
<text text-anchor="middle" x="1189" y="-62.6" font-family="Times,serif" font-size="14.00">BatchActionComponent</text>
</g>
<!-- BatchActionComponent&#45;&gt;ProductDrawerModule -->
<g id="edge3" class="edge">
<title>BatchActionComponent&#45;&gt;ProductDrawerModule</title>
<path fill="none" stroke="black" d="M1189,-85.07C1189,-103.36 1189,-128.8 1189,-128.8 1189,-128.8 923.95,-128.8 923.95,-128.8"/>
<polygon fill="black" stroke="black" points="923.95,-125.3 913.95,-128.8 923.95,-132.3 923.95,-125.3"/>
</g>
<!-- ProductDrawerComponent  -->
<g id="node12" class="node">
<title>ProductDrawerComponent </title>
<polygon fill="#fb8072" stroke="black" points="926.34,-214.8 755.66,-214.8 755.66,-178.8 926.34,-178.8 926.34,-214.8"/>
<text text-anchor="middle" x="841" y="-192.6" font-family="Times,serif" font-size="14.00">ProductDrawerComponent </text>
</g>
<!-- ProductDrawerModule&#45;&gt;ProductDrawerComponent  -->
<g id="edge11" class="edge">
<title>ProductDrawerModule&#45;&gt;ProductDrawerComponent </title>
<path fill="none" stroke="black" stroke-dasharray="5,2" d="M841,-149.91C841,-149.91 841,-168.79 841,-168.79"/>
<polygon fill="black" stroke="black" points="837.5,-168.79 841,-178.79 844.5,-168.79 837.5,-168.79"/>
</g>
<!-- CommonModule -->
<g id="node5" class="node">
<title>CommonModule</title>
<polygon fill="#8dd3c7" stroke="black" points="1088.67,-84.8 1085.67,-88.8 1064.67,-88.8 1061.67,-84.8 977.33,-84.8 977.33,-48.8 1088.67,-48.8 1088.67,-84.8"/>
<text text-anchor="middle" x="1033" y="-62.6" font-family="Times,serif" font-size="14.00">CommonModule</text>
</g>
<!-- CommonModule&#45;&gt;ProductDrawerModule -->
<g id="edge4" class="edge">
<title>CommonModule&#45;&gt;ProductDrawerModule</title>
<path fill="none" stroke="black" d="M1033,-84.81C1033,-100.85 1033,-121.8 1033,-121.8 1033,-121.8 923.59,-121.8 923.59,-121.8"/>
<polygon fill="black" stroke="black" points="923.59,-118.3 913.59,-121.8 923.59,-125.3 923.59,-118.3"/>
</g>
<!-- FormsModule -->
<g id="node6" class="node">
<title>FormsModule</title>
<polygon fill="#8dd3c7" stroke="black" points="959.83,-84.8 956.83,-88.8 935.83,-88.8 932.83,-84.8 864.17,-84.8 864.17,-48.8 959.83,-48.8 959.83,-84.8"/>
<text text-anchor="middle" x="912" y="-62.6" font-family="Times,serif" font-size="14.00">FormsModule</text>
</g>
<!-- FormsModule&#45;&gt;ProductDrawerModule -->
<g id="edge5" class="edge">
<title>FormsModule&#45;&gt;ProductDrawerModule</title>
<path fill="none" stroke="black" d="M888.93,-84.91C888.93,-84.91 888.93,-103.79 888.93,-103.79"/>
<polygon fill="black" stroke="black" points="885.43,-103.79 888.93,-113.79 892.43,-103.79 885.43,-103.79"/>
</g>
<!-- ProductCarouselModule -->
<g id="node7" class="node">
<title>ProductCarouselModule</title>
<polygon fill="#8dd3c7" stroke="black" points="846.36,-84.8 843.36,-88.8 822.36,-88.8 819.36,-84.8 693.64,-84.8 693.64,-48.8 846.36,-48.8 846.36,-84.8"/>
<text text-anchor="middle" x="770" y="-62.6" font-family="Times,serif" font-size="14.00">ProductCarouselModule</text>
</g>
<!-- ProductCarouselModule&#45;&gt;ProductDrawerModule -->
<g id="edge6" class="edge">
<title>ProductCarouselModule&#45;&gt;ProductDrawerModule</title>
<path fill="none" stroke="black" d="M807.45,-84.91C807.45,-84.91 807.45,-103.79 807.45,-103.79"/>
<polygon fill="black" stroke="black" points="803.95,-103.79 807.45,-113.79 810.95,-103.79 803.95,-103.79"/>
</g>
<!-- ProductCardModule -->
<g id="node8" class="node">
<title>ProductCardModule</title>
<polygon fill="#8dd3c7" stroke="black" points="675.31,-84.8 672.31,-88.8 651.31,-88.8 648.31,-84.8 544.69,-84.8 544.69,-48.8 675.31,-48.8 675.31,-84.8"/>
<text text-anchor="middle" x="610" y="-62.6" font-family="Times,serif" font-size="14.00">ProductCardModule</text>
</g>
<!-- ProductCardModule&#45;&gt;ProductDrawerModule -->
<g id="edge7" class="edge">
<title>ProductCardModule&#45;&gt;ProductDrawerModule</title>
<path fill="none" stroke="black" d="M610,-84.81C610,-100.85 610,-121.8 610,-121.8 610,-121.8 758.23,-121.8 758.23,-121.8"/>
<polygon fill="black" stroke="black" points="758.23,-125.3 768.23,-121.8 758.23,-118.3 758.23,-125.3"/>
</g>
<!-- LineitemCardModule -->
<g id="node9" class="node">
<title>LineitemCardModule</title>
<polygon fill="#8dd3c7" stroke="black" points="526.81,-84.8 523.81,-88.8 502.81,-88.8 499.81,-84.8 389.19,-84.8 389.19,-48.8 526.81,-48.8 526.81,-84.8"/>
<text text-anchor="middle" x="458" y="-62.6" font-family="Times,serif" font-size="14.00">LineitemCardModule</text>
</g>
<!-- LineitemCardModule&#45;&gt;ProductDrawerModule -->
<g id="edge8" class="edge">
<title>LineitemCardModule&#45;&gt;ProductDrawerModule</title>
<path fill="none" stroke="black" d="M458,-85.07C458,-103.36 458,-128.8 458,-128.8 458,-128.8 758.06,-128.8 758.06,-128.8"/>
<polygon fill="black" stroke="black" points="758.06,-132.3 768.06,-128.8 758.06,-125.3 758.06,-132.3"/>
</g>
<!-- TooltipModule.forRoot() -->
<g id="node10" class="node">
<title>TooltipModule.forRoot()</title>
<polygon fill="#8dd3c7" stroke="black" points="371.64,-84.8 368.64,-88.8 347.64,-88.8 344.64,-84.8 214.36,-84.8 214.36,-48.8 371.64,-48.8 371.64,-84.8"/>
<text text-anchor="middle" x="293" y="-62.6" font-family="Times,serif" font-size="14.00">TooltipModule.forRoot()</text>
</g>
<!-- TooltipModule.forRoot()&#45;&gt;ProductDrawerModule -->
<g id="edge9" class="edge">
<title>TooltipModule.forRoot()&#45;&gt;ProductDrawerModule</title>
<path fill="none" stroke="black" d="M293,-84.93C293,-105.37 293,-135.8 293,-135.8 293,-135.8 758.23,-135.8 758.23,-135.8"/>
<polygon fill="black" stroke="black" points="758.23,-139.3 768.23,-135.8 758.23,-132.3 758.23,-139.3"/>
</g>
<!-- TranslateModule.forChild() -->
<g id="node11" class="node">
<title>TranslateModule.forChild()</title>
<polygon fill="#8dd3c7" stroke="black" points="195.89,-84.8 192.89,-88.8 171.89,-88.8 168.89,-84.8 24.11,-84.8 24.11,-48.8 195.89,-48.8 195.89,-84.8"/>
<text text-anchor="middle" x="110" y="-62.6" font-family="Times,serif" font-size="14.00">TranslateModule.forChild()</text>
</g>
<!-- TranslateModule.forChild()&#45;&gt;ProductDrawerModule -->
<g id="edge10" class="edge">
<title>TranslateModule.forChild()&#45;&gt;ProductDrawerModule</title>
<path fill="none" stroke="black" d="M110,-84.81C110,-107.29 110,-142.8 110,-142.8 110,-142.8 758.24,-142.8 758.24,-142.8"/>
<polygon fill="black" stroke="black" points="758.24,-146.3 768.24,-142.8 758.24,-139.3 758.24,-146.3"/>
</g>
</g>
</svg>
