<?xml version="1.0" encoding="UTF-8" standalone="no"?>
<!DOCTYPE svg PUBLIC "-//W3C//DTD SVG 1.1//EN"
 "http://www.w3.org/Graphics/SVG/1.1/DTD/svg11.dtd">
<!-- Generated by graphviz version 2.47.3 (20210619.1520)
 -->
<!-- Title: dependencies Pages: 1 -->
<svg width="694pt" height="174pt"
 viewBox="0.00 0.00 694.00 173.80" xmlns="http://www.w3.org/2000/svg" xmlns:xlink="http://www.w3.org/1999/xlink">
<g id="graph0" class="graph" transform="scale(1 1) rotate(0) translate(4 169.8)">
<title>dependencies</title>
<polygon fill="white" stroke="transparent" points="-4,4 -4,-169.8 690,-169.8 690,4 -4,4"/>
<text text-anchor="middle" x="343" y="-8.2" font-family="sans-serif" font-size="14.00">dependencies</text>
<g id="clust1" class="cluster">
<title>cluster_OrderModule</title>
<polygon fill="none" stroke="black" stroke-dasharray="1,5" points="8,-32.8 8,-157.8 678,-157.8 678,-32.8 8,-32.8"/>
</g>
<g id="clust3" class="cluster">
<title>cluster_OrderModule_imports</title>
<polygon fill="none" stroke="black" points="16,-40.8 16,-92.8 670,-92.8 670,-40.8 16,-40.8"/>
</g>
<!-- AlertModule -->
<g id="node1" class="node">
<title>AlertModule</title>
<polygon fill="#8dd3c7" stroke="black" points="662.31,-84.8 659.31,-88.8 638.31,-88.8 635.31,-84.8 573.69,-84.8 573.69,-48.8 662.31,-48.8 662.31,-84.8"/>
<text text-anchor="middle" x="618" y="-62.6" font-family="Times,serif" font-size="14.00">AlertModule</text>
</g>
<!-- OrderModule -->
<g id="node6" class="node">
<title>OrderModule</title>
<polygon fill="#8dd3c7" stroke="black" points="383.19,-149.8 380.19,-153.8 359.19,-153.8 356.19,-149.8 290.81,-149.8 290.81,-113.8 383.19,-113.8 383.19,-149.8"/>
<text text-anchor="middle" x="337" y="-127.6" font-family="Times,serif" font-size="14.00">OrderModule</text>
</g>
<!-- AlertModule&#45;&gt;OrderModule -->
<g id="edge1" class="edge">
<title>AlertModule&#45;&gt;OrderModule</title>
<path fill="none" stroke="black" d="M618,-85.08C618,-106.12 618,-137.8 618,-137.8 618,-137.8 393.4,-137.8 393.4,-137.8"/>
<polygon fill="black" stroke="black" points="393.4,-134.3 383.4,-137.8 393.4,-141.3 393.4,-134.3"/>
</g>
<!-- DataFilterModule -->
<g id="node2" class="node">
<title>DataFilterModule</title>
<polygon fill="#8dd3c7" stroke="black" points="556.31,-84.8 553.31,-88.8 532.31,-88.8 529.31,-84.8 439.69,-84.8 439.69,-48.8 556.31,-48.8 556.31,-84.8"/>
<text text-anchor="middle" x="498" y="-62.6" font-family="Times,serif" font-size="14.00">DataFilterModule</text>
</g>
<!-- DataFilterModule&#45;&gt;OrderModule -->
<g id="edge2" class="edge">
<title>DataFilterModule&#45;&gt;OrderModule</title>
<path fill="none" stroke="black" d="M498,-84.82C498,-102.17 498,-125.8 498,-125.8 498,-125.8 393.14,-125.8 393.14,-125.8"/>
<polygon fill="black" stroke="black" points="393.14,-122.3 383.14,-125.8 393.14,-129.3 393.14,-122.3"/>
</g>
<!-- LineItemTableRowModule -->
<g id="node3" class="node">
<title>LineItemTableRowModule</title>
<polygon fill="#8dd3c7" stroke="black" points="421.68,-84.8 418.68,-88.8 397.68,-88.8 394.68,-84.8 252.32,-84.8 252.32,-48.8 421.68,-48.8 421.68,-84.8"/>
<text text-anchor="middle" x="337" y="-62.6" font-family="Times,serif" font-size="14.00">LineItemTableRowModule</text>
</g>
<!-- LineItemTableRowModule&#45;&gt;OrderModule -->
<g id="edge3" class="edge">
<title>LineItemTableRowModule&#45;&gt;OrderModule</title>
<path fill="none" stroke="black" d="M337,-84.91C337,-84.91 337,-103.79 337,-103.79"/>
<polygon fill="black" stroke="black" points="333.5,-103.79 337,-113.79 340.5,-103.79 333.5,-103.79"/>
</g>
<!-- PricingModule -->
<g id="node4" class="node">
<title>PricingModule</title>
<polygon fill="#8dd3c7" stroke="black" points="233.99,-84.8 230.99,-88.8 209.99,-88.8 206.99,-84.8 134.01,-84.8 134.01,-48.8 233.99,-48.8 233.99,-84.8"/>
<text text-anchor="middle" x="184" y="-62.6" font-family="Times,serif" font-size="14.00">PricingModule</text>
</g>
<!-- PricingModule&#45;&gt;OrderModule -->
<g id="edge4" class="edge">
<title>PricingModule&#45;&gt;OrderModule</title>
<path fill="none" stroke="black" d="M184,-84.82C184,-102.17 184,-125.8 184,-125.8 184,-125.8 280.68,-125.8 280.68,-125.8"/>
<polygon fill="black" stroke="black" points="280.68,-129.3 290.68,-125.8 280.68,-122.3 280.68,-129.3"/>
</g>
<!-- TableModule -->
<g id="node5" class="node">
<title>TableModule</title>
<polygon fill="#8dd3c7" stroke="black" points="115.92,-84.8 112.92,-88.8 91.92,-88.8 88.92,-84.8 24.08,-84.8 24.08,-48.8 115.92,-48.8 115.92,-84.8"/>
<text text-anchor="middle" x="70" y="-62.6" font-family="Times,serif" font-size="14.00">TableModule</text>
</g>
<!-- TableModule&#45;&gt;OrderModule -->
<g id="edge5" class="edge">
<title>TableModule&#45;&gt;OrderModule</title>
<path fill="none" stroke="black" d="M70,-85.08C70,-106.12 70,-137.8 70,-137.8 70,-137.8 280.8,-137.8 280.8,-137.8"/>
<polygon fill="black" stroke="black" points="280.8,-141.3 290.8,-137.8 280.8,-134.3 280.8,-141.3"/>
</g>
</g>
</svg>
