<?xml version="1.0" encoding="UTF-8" standalone="no"?>
<!DOCTYPE svg PUBLIC "-//W3C//DTD SVG 1.1//EN"
 "http://www.w3.org/Graphics/SVG/1.1/DTD/svg11.dtd">
<!-- Generated by graphviz version 2.47.3 (20210619.1520)
 -->
<!-- Title: dependencies Pages: 1 -->
<svg width="1748pt" height="312pt"
 viewBox="0.00 0.00 1748.00 311.80" xmlns="http://www.w3.org/2000/svg" xmlns:xlink="http://www.w3.org/1999/xlink">
<g id="graph0" class="graph" transform="scale(1 1) rotate(0) translate(4 307.8)">
<title>dependencies</title>
<polygon fill="white" stroke="transparent" points="-4,4 -4,-307.8 1744,-307.8 1744,4 -4,4"/>
<text text-anchor="middle" x="870" y="-8.2" font-family="sans-serif" font-size="14.00">dependencies</text>
<g id="clust1" class="cluster">
<title>cluster_InputFieldModule</title>
<polygon fill="none" stroke="black" stroke-dasharray="1,5" points="8,-32.8 8,-295.8 1732,-295.8 1732,-32.8 8,-32.8"/>
</g>
<g id="clust3" class="cluster">
<title>cluster_InputFieldModule_InputFieldComponent_providers</title>
<polygon fill="none" stroke="black" points="1206,-40.8 1206,-157.8 1724,-157.8 1724,-40.8 1206,-40.8"/>
</g>
<g id="clust5" class="cluster">
<title>cluster_InputFieldModule_exports</title>
<polygon fill="none" stroke="black" points="596,-235.8 596,-287.8 872,-287.8 872,-235.8 596,-235.8"/>
</g>
<g id="clust4" class="cluster">
<title>cluster_InputFieldModule_imports</title>
<polygon fill="none" stroke="black" points="16,-105.8 16,-157.8 1198,-157.8 1198,-105.8 16,-105.8"/>
</g>
<!-- InputFieldComponent -->
<g id="node1" class="node">
<title>InputFieldComponent</title>
<polygon fill="#ffffb3" stroke="black" points="1443.66,-149.8 1304.34,-149.8 1304.34,-113.8 1443.66,-113.8 1443.66,-149.8"/>
<text text-anchor="middle" x="1374" y="-127.6" font-family="Times,serif" font-size="14.00">InputFieldComponent</text>
</g>
<!-- InputFieldModule -->
<g id="node2" class="node">
<title>InputFieldModule</title>
<polygon fill="#8dd3c7" stroke="black" points="781.88,-214.8 778.88,-218.8 757.88,-218.8 754.88,-214.8 664.12,-214.8 664.12,-178.8 781.88,-178.8 781.88,-214.8"/>
<text text-anchor="middle" x="723" y="-192.6" font-family="Times,serif" font-size="14.00">InputFieldModule</text>
</g>
<!-- InputFieldComponent&#45;&gt;InputFieldModule -->
<g id="edge1" class="edge">
<title>InputFieldComponent&#45;&gt;InputFieldModule</title>
<path fill="none" stroke="black" d="M1374,-149.81C1374,-172.29 1374,-207.8 1374,-207.8 1374,-207.8 791.92,-207.8 791.92,-207.8"/>
<polygon fill="black" stroke="black" points="791.92,-204.3 781.92,-207.8 791.92,-211.3 791.92,-204.3"/>
</g>
<!-- InputFieldComponent  -->
<g id="node12" class="node">
<title>InputFieldComponent </title>
<polygon fill="#fb8072" stroke="black" points="863.66,-279.8 720.34,-279.8 720.34,-243.8 863.66,-243.8 863.66,-279.8"/>
<text text-anchor="middle" x="792" y="-257.6" font-family="Times,serif" font-size="14.00">InputFieldComponent </text>
</g>
<!-- InputFieldModule&#45;&gt;InputFieldComponent  -->
<g id="edge11" class="edge">
<title>InputFieldModule&#45;&gt;InputFieldComponent </title>
<path fill="none" stroke="black" stroke-dasharray="5,2" d="M751.18,-214.91C751.18,-214.91 751.18,-233.79 751.18,-233.79"/>
<polygon fill="black" stroke="black" points="747.68,-233.79 751.18,-243.79 754.68,-233.79 747.68,-233.79"/>
</g>
<!-- FormsModule  -->
<g id="node13" class="node">
<title>FormsModule </title>
<polygon fill="#fb8072" stroke="black" points="702.33,-279.8 603.67,-279.8 603.67,-243.8 702.33,-243.8 702.33,-279.8"/>
<text text-anchor="middle" x="653" y="-257.6" font-family="Times,serif" font-size="14.00">FormsModule </text>
</g>
<!-- InputFieldModule&#45;&gt;FormsModule  -->
<g id="edge12" class="edge">
<title>InputFieldModule&#45;&gt;FormsModule </title>
<path fill="none" stroke="black" stroke-dasharray="5,2" d="M683.24,-214.91C683.24,-214.91 683.24,-233.79 683.24,-233.79"/>
<polygon fill="black" stroke="black" points="679.74,-233.79 683.24,-243.79 686.74,-233.79 679.74,-233.79"/>
</g>
<!-- { provide: NG_VALUE_ACCESSOR, useExisting: , multi: &#160;} -->
<g id="node3" class="node">
<title>{ provide: NG_VALUE_ACCESSOR, useExisting: , multi: &#160;}</title>
<ellipse fill="#fdb462" stroke="black" cx="1465" cy="-66.8" rx="251.5" ry="18"/>
<text text-anchor="middle" x="1465" y="-62.6" font-family="Times,serif" font-size="14.00">{ provide: NG_VALUE_ACCESSOR, useExisting: , multi: &#160;}</text>
</g>
<!-- { provide: NG_VALUE_ACCESSOR, useExisting: , multi: &#160;}&#45;&gt;InputFieldComponent -->
<g id="edge2" class="edge">
<title>{ provide: NG_VALUE_ACCESSOR, useExisting: , multi: &#160;}&#45;&gt;InputFieldComponent</title>
<path fill="none" stroke="black" d="M1374,-83.88C1374,-83.88 1374,-103.7 1374,-103.7"/>
<polygon fill="black" stroke="black" points="1370.5,-103.7 1374,-113.7 1377.5,-103.7 1370.5,-103.7"/>
</g>
<!-- CommonModule -->
<g id="node4" class="node">
<title>CommonModule</title>
<polygon fill="#8dd3c7" stroke="black" points="1189.67,-149.8 1186.67,-153.8 1165.67,-153.8 1162.67,-149.8 1078.33,-149.8 1078.33,-113.8 1189.67,-113.8 1189.67,-149.8"/>
<text text-anchor="middle" x="1134" y="-127.6" font-family="Times,serif" font-size="14.00">CommonModule</text>
</g>
<!-- CommonModule&#45;&gt;InputFieldModule -->
<g id="edge3" class="edge">
<title>CommonModule&#45;&gt;InputFieldModule</title>
<path fill="none" stroke="black" d="M1134,-149.93C1134,-170.37 1134,-200.8 1134,-200.8 1134,-200.8 791.89,-200.8 791.89,-200.8"/>
<polygon fill="black" stroke="black" points="791.89,-197.3 781.89,-200.8 791.89,-204.3 791.89,-197.3"/>
</g>
<!-- FormsModule -->
<g id="node5" class="node">
<title>FormsModule</title>
<polygon fill="#8dd3c7" stroke="black" points="1060.83,-149.8 1057.83,-153.8 1036.83,-153.8 1033.83,-149.8 965.17,-149.8 965.17,-113.8 1060.83,-113.8 1060.83,-149.8"/>
<text text-anchor="middle" x="1013" y="-127.6" font-family="Times,serif" font-size="14.00">FormsModule</text>
</g>
<!-- FormsModule&#45;&gt;InputFieldModule -->
<g id="edge4" class="edge">
<title>FormsModule&#45;&gt;InputFieldModule</title>
<path fill="none" stroke="black" d="M1013,-150.07C1013,-168.36 1013,-193.8 1013,-193.8 1013,-193.8 792.04,-193.8 792.04,-193.8"/>
<polygon fill="black" stroke="black" points="792.04,-190.3 782.04,-193.8 792.04,-197.3 792.04,-190.3"/>
</g>
<!-- NgSelectModule -->
<g id="node6" class="node">
<title>NgSelectModule</title>
<polygon fill="#8dd3c7" stroke="black" points="947.36,-149.8 944.36,-153.8 923.36,-153.8 920.36,-149.8 836.64,-149.8 836.64,-113.8 947.36,-113.8 947.36,-149.8"/>
<text text-anchor="middle" x="892" y="-127.6" font-family="Times,serif" font-size="14.00">NgSelectModule</text>
</g>
<!-- NgSelectModule&#45;&gt;InputFieldModule -->
<g id="edge5" class="edge">
<title>NgSelectModule&#45;&gt;InputFieldModule</title>
<path fill="none" stroke="black" d="M850.07,-149.81C850.07,-165.85 850.07,-186.8 850.07,-186.8 850.07,-186.8 792.07,-186.8 792.07,-186.8"/>
<polygon fill="black" stroke="black" points="792.07,-183.3 782.07,-186.8 792.07,-190.3 792.07,-183.3"/>
</g>
<!-- BsDatepickerModule.forRoot() -->
<g id="node7" class="node">
<title>BsDatepickerModule.forRoot()</title>
<polygon fill="#8dd3c7" stroke="black" points="819.11,-149.8 816.11,-153.8 795.11,-153.8 792.11,-149.8 626.89,-149.8 626.89,-113.8 819.11,-113.8 819.11,-149.8"/>
<text text-anchor="middle" x="723" y="-127.6" font-family="Times,serif" font-size="14.00">BsDatepickerModule.forRoot()</text>
</g>
<!-- BsDatepickerModule.forRoot()&#45;&gt;InputFieldModule -->
<g id="edge6" class="edge">
<title>BsDatepickerModule.forRoot()&#45;&gt;InputFieldModule</title>
<path fill="none" stroke="black" d="M723,-149.91C723,-149.91 723,-168.79 723,-168.79"/>
<polygon fill="black" stroke="black" points="719.5,-168.79 723,-178.79 726.5,-168.79 719.5,-168.79"/>
</g>
<!-- TranslateModule.forChild() -->
<g id="node8" class="node">
<title>TranslateModule.forChild()</title>
<polygon fill="#8dd3c7" stroke="black" points="608.89,-149.8 605.89,-153.8 584.89,-153.8 581.89,-149.8 437.11,-149.8 437.11,-113.8 608.89,-113.8 608.89,-149.8"/>
<text text-anchor="middle" x="523" y="-127.6" font-family="Times,serif" font-size="14.00">TranslateModule.forChild()</text>
</g>
<!-- TranslateModule.forChild()&#45;&gt;InputFieldModule -->
<g id="edge7" class="edge">
<title>TranslateModule.forChild()&#45;&gt;InputFieldModule</title>
<path fill="none" stroke="black" d="M520.32,-149.81C520.32,-165.85 520.32,-186.8 520.32,-186.8 520.32,-186.8 654.1,-186.8 654.1,-186.8"/>
<polygon fill="black" stroke="black" points="654.1,-190.3 664.1,-186.8 654.1,-183.3 654.1,-190.3"/>
</g>
<!-- NgOptionHighlightModule -->
<g id="node9" class="node">
<title>NgOptionHighlightModule</title>
<polygon fill="#8dd3c7" stroke="black" points="418.71,-149.8 415.71,-153.8 394.71,-153.8 391.71,-149.8 249.29,-149.8 249.29,-113.8 418.71,-113.8 418.71,-149.8"/>
<text text-anchor="middle" x="334" y="-127.6" font-family="Times,serif" font-size="14.00">NgOptionHighlightModule</text>
</g>
<!-- NgOptionHighlightModule&#45;&gt;InputFieldModule -->
<g id="edge8" class="edge">
<title>NgOptionHighlightModule&#45;&gt;InputFieldModule</title>
<path fill="none" stroke="black" d="M334,-150.07C334,-168.36 334,-193.8 334,-193.8 334,-193.8 653.92,-193.8 653.92,-193.8"/>
<polygon fill="black" stroke="black" points="653.92,-197.3 663.92,-193.8 653.92,-190.3 653.92,-197.3"/>
</g>
<!-- AddressModule -->
<g id="node10" class="node">
<title>AddressModule</title>
<polygon fill="#8dd3c7" stroke="black" points="231.92,-149.8 228.92,-153.8 207.92,-153.8 204.92,-149.8 126.08,-149.8 126.08,-113.8 231.92,-113.8 231.92,-149.8"/>
<text text-anchor="middle" x="179" y="-127.6" font-family="Times,serif" font-size="14.00">AddressModule</text>
</g>
<!-- AddressModule&#45;&gt;InputFieldModule -->
<g id="edge9" class="edge">
<title>AddressModule&#45;&gt;InputFieldModule</title>
<path fill="none" stroke="black" d="M179,-149.93C179,-170.37 179,-200.8 179,-200.8 179,-200.8 654.01,-200.8 654.01,-200.8"/>
<polygon fill="black" stroke="black" points="654.01,-204.3 664.01,-200.8 654.01,-197.3 654.01,-204.3"/>
</g>
<!-- IconModule -->
<g id="node11" class="node">
<title>IconModule</title>
<polygon fill="#8dd3c7" stroke="black" points="108.43,-149.8 105.43,-153.8 84.43,-153.8 81.43,-149.8 23.57,-149.8 23.57,-113.8 108.43,-113.8 108.43,-149.8"/>
<text text-anchor="middle" x="66" y="-127.6" font-family="Times,serif" font-size="14.00">IconModule</text>
</g>
<!-- IconModule&#45;&gt;InputFieldModule -->
<g id="edge10" class="edge">
<title>IconModule&#45;&gt;InputFieldModule</title>
<path fill="none" stroke="black" d="M66,-149.81C66,-172.29 66,-207.8 66,-207.8 66,-207.8 654.12,-207.8 654.12,-207.8"/>
<polygon fill="black" stroke="black" points="654.12,-211.3 664.12,-207.8 654.12,-204.3 654.12,-211.3"/>
</g>
</g>
</svg>
