<?xml version="1.0" encoding="UTF-8" standalone="no"?>
<!DOCTYPE svg PUBLIC "-//W3C//DTD SVG 1.1//EN"
 "http://www.w3.org/Graphics/SVG/1.1/DTD/svg11.dtd">
<!-- Generated by graphviz version 2.47.3 (20210619.1520)
 -->
<!-- Title: dependencies Pages: 1 -->
<svg width="1655pt" height="174pt"
 viewBox="0.00 0.00 1655.00 173.80" xmlns="http://www.w3.org/2000/svg" xmlns:xlink="http://www.w3.org/1999/xlink">
<g id="graph0" class="graph" transform="scale(1 1) rotate(0) translate(4 169.8)">
<title>dependencies</title>
<polygon fill="white" stroke="transparent" points="-4,4 -4,-169.8 1651,-169.8 1651,4 -4,4"/>
<text text-anchor="middle" x="823.5" y="-8.2" font-family="sans-serif" font-size="14.00">dependencies</text>
<g id="clust1" class="cluster">
<title>cluster_ProductsModule</title>
<polygon fill="none" stroke="black" stroke-dasharray="1,5" points="8,-32.8 8,-157.8 1639,-157.8 1639,-32.8 8,-32.8"/>
</g>
<g id="clust8" class="cluster">
<title>cluster_ProductsModule_imports</title>
<polygon fill="none" stroke="black" points="865,-40.8 865,-92.8 1631,-92.8 1631,-40.8 865,-40.8"/>
</g>
<g id="clust2" class="cluster">
<title>cluster_ProductsModule_declarations</title>
<polygon fill="none" stroke="black" points="16,-40.8 16,-92.8 857,-92.8 857,-40.8 16,-40.8"/>
</g>
<!-- ProductDetailComponent -->
<g id="node1" class="node">
<title>ProductDetailComponent</title>
<polygon fill="#ffffb3" stroke="black" points="848.59,-84.8 689.41,-84.8 689.41,-48.8 848.59,-48.8 848.59,-84.8"/>
<text text-anchor="middle" x="769" y="-62.6" font-family="Times,serif" font-size="14.00">ProductDetailComponent</text>
</g>
<!-- ProductsModule -->
<g id="node6" class="node">
<title>ProductsModule</title>
<polygon fill="#8dd3c7" stroke="black" points="913.04,-149.8 910.04,-153.8 889.04,-153.8 886.04,-149.8 804.96,-149.8 804.96,-113.8 913.04,-113.8 913.04,-149.8"/>
<text text-anchor="middle" x="859" y="-127.6" font-family="Times,serif" font-size="14.00">ProductsModule</text>
</g>
<!-- ProductDetailComponent&#45;&gt;ProductsModule -->
<g id="edge1" class="edge">
<title>ProductDetailComponent&#45;&gt;ProductsModule</title>
<path fill="none" stroke="black" d="M826.64,-84.91C826.64,-84.91 826.64,-103.79 826.64,-103.79"/>
<polygon fill="black" stroke="black" points="823.14,-103.79 826.64,-113.79 830.14,-103.79 823.14,-103.79"/>
</g>
<!-- ProductListComponent -->
<g id="node2" class="node">
<title>ProductListComponent</title>
<polygon fill="#ffffb3" stroke="black" points="671.16,-84.8 524.84,-84.8 524.84,-48.8 671.16,-48.8 671.16,-84.8"/>
<text text-anchor="middle" x="598" y="-62.6" font-family="Times,serif" font-size="14.00">ProductListComponent</text>
</g>
<!-- ProductListComponent&#45;&gt;ProductsModule -->
<g id="edge2" class="edge">
<title>ProductListComponent&#45;&gt;ProductsModule</title>
<path fill="none" stroke="black" d="M598,-84.81C598,-100.85 598,-121.8 598,-121.8 598,-121.8 794.92,-121.8 794.92,-121.8"/>
<polygon fill="black" stroke="black" points="794.92,-125.3 804.92,-121.8 794.92,-118.3 794.92,-125.3"/>
</g>
<!-- ResultsComponent -->
<g id="node3" class="node">
<title>ResultsComponent</title>
<polygon fill="#ffffb3" stroke="black" points="506.05,-84.8 383.95,-84.8 383.95,-48.8 506.05,-48.8 506.05,-84.8"/>
<text text-anchor="middle" x="445" y="-62.6" font-family="Times,serif" font-size="14.00">ResultsComponent</text>
</g>
<!-- ResultsComponent&#45;&gt;ProductsModule -->
<g id="edge3" class="edge">
<title>ResultsComponent&#45;&gt;ProductsModule</title>
<path fill="none" stroke="black" d="M445,-85.07C445,-103.36 445,-128.8 445,-128.8 445,-128.8 794.88,-128.8 794.88,-128.8"/>
<polygon fill="black" stroke="black" points="794.88,-132.3 804.88,-128.8 794.88,-125.3 794.88,-132.3"/>
</g>
<!-- TabAttachmentsComponent -->
<g id="node4" class="node">
<title>TabAttachmentsComponent</title>
<polygon fill="#ffffb3" stroke="black" points="365.86,-84.8 192.14,-84.8 192.14,-48.8 365.86,-48.8 365.86,-84.8"/>
<text text-anchor="middle" x="279" y="-62.6" font-family="Times,serif" font-size="14.00">TabAttachmentsComponent</text>
</g>
<!-- TabAttachmentsComponent&#45;&gt;ProductsModule -->
<g id="edge4" class="edge">
<title>TabAttachmentsComponent&#45;&gt;ProductsModule</title>
<path fill="none" stroke="black" d="M279,-84.93C279,-105.37 279,-135.8 279,-135.8 279,-135.8 794.96,-135.8 794.96,-135.8"/>
<polygon fill="black" stroke="black" points="794.96,-139.3 804.96,-135.8 794.96,-132.3 794.96,-139.3"/>
</g>
<!-- TabFeaturesComponent -->
<g id="node5" class="node">
<title>TabFeaturesComponent</title>
<polygon fill="#ffffb3" stroke="black" points="174.02,-84.8 23.98,-84.8 23.98,-48.8 174.02,-48.8 174.02,-84.8"/>
<text text-anchor="middle" x="99" y="-62.6" font-family="Times,serif" font-size="14.00">TabFeaturesComponent</text>
</g>
<!-- TabFeaturesComponent&#45;&gt;ProductsModule -->
<g id="edge5" class="edge">
<title>TabFeaturesComponent&#45;&gt;ProductsModule</title>
<path fill="none" stroke="black" d="M99,-84.81C99,-107.29 99,-142.8 99,-142.8 99,-142.8 794.95,-142.8 794.95,-142.8"/>
<polygon fill="black" stroke="black" points="794.95,-146.3 804.95,-142.8 794.95,-139.3 794.95,-146.3"/>
</g>
<!-- AlertModule -->
<g id="node7" class="node">
<title>AlertModule</title>
<polygon fill="#8dd3c7" stroke="black" points="1623.31,-84.8 1620.31,-88.8 1599.31,-88.8 1596.31,-84.8 1534.69,-84.8 1534.69,-48.8 1623.31,-48.8 1623.31,-84.8"/>
<text text-anchor="middle" x="1579" y="-62.6" font-family="Times,serif" font-size="14.00">AlertModule</text>
</g>
<!-- AlertModule&#45;&gt;ProductsModule -->
<g id="edge6" class="edge">
<title>AlertModule&#45;&gt;ProductsModule</title>
<path fill="none" stroke="black" d="M1579,-84.81C1579,-107.29 1579,-142.8 1579,-142.8 1579,-142.8 923.12,-142.8 923.12,-142.8"/>
<polygon fill="black" stroke="black" points="923.12,-139.3 913.12,-142.8 923.12,-146.3 923.12,-139.3"/>
</g>
<!-- ConfigurationSummaryModule -->
<g id="node8" class="node">
<title>ConfigurationSummaryModule</title>
<polygon fill="#8dd3c7" stroke="black" points="1517.03,-84.8 1514.03,-88.8 1493.03,-88.8 1490.03,-84.8 1324.97,-84.8 1324.97,-48.8 1517.03,-48.8 1517.03,-84.8"/>
<text text-anchor="middle" x="1421" y="-62.6" font-family="Times,serif" font-size="14.00">ConfigurationSummaryModule</text>
</g>
<!-- ConfigurationSummaryModule&#45;&gt;ProductsModule -->
<g id="edge7" class="edge">
<title>ConfigurationSummaryModule&#45;&gt;ProductsModule</title>
<path fill="none" stroke="black" d="M1421,-84.93C1421,-105.37 1421,-135.8 1421,-135.8 1421,-135.8 923.14,-135.8 923.14,-135.8"/>
<polygon fill="black" stroke="black" points="923.14,-132.3 913.14,-135.8 923.14,-139.3 923.14,-132.3"/>
</g>
<!-- ConstraintRuleModule -->
<g id="node9" class="node">
<title>ConstraintRuleModule</title>
<polygon fill="#8dd3c7" stroke="black" points="1307.32,-84.8 1304.32,-88.8 1283.32,-88.8 1280.32,-84.8 1162.68,-84.8 1162.68,-48.8 1307.32,-48.8 1307.32,-84.8"/>
<text text-anchor="middle" x="1235" y="-62.6" font-family="Times,serif" font-size="14.00">ConstraintRuleModule</text>
</g>
<!-- ConstraintRuleModule&#45;&gt;ProductsModule -->
<g id="edge8" class="edge">
<title>ConstraintRuleModule&#45;&gt;ProductsModule</title>
<path fill="none" stroke="black" d="M1235,-85.07C1235,-103.36 1235,-128.8 1235,-128.8 1235,-128.8 923.27,-128.8 923.27,-128.8"/>
<polygon fill="black" stroke="black" points="923.27,-125.3 913.27,-128.8 923.27,-132.3 923.27,-125.3"/>
</g>
<!-- PricingModule -->
<g id="node10" class="node">
<title>PricingModule</title>
<polygon fill="#8dd3c7" stroke="black" points="1144.99,-84.8 1141.99,-88.8 1120.99,-88.8 1117.99,-84.8 1045.01,-84.8 1045.01,-48.8 1144.99,-48.8 1144.99,-84.8"/>
<text text-anchor="middle" x="1095" y="-62.6" font-family="Times,serif" font-size="14.00">PricingModule</text>
</g>
<!-- PricingModule&#45;&gt;ProductsModule -->
<g id="edge9" class="edge">
<title>PricingModule&#45;&gt;ProductsModule</title>
<path fill="none" stroke="black" d="M1095,-84.81C1095,-100.85 1095,-121.8 1095,-121.8 1095,-121.8 923.14,-121.8 923.14,-121.8"/>
<polygon fill="black" stroke="black" points="923.14,-118.3 913.14,-121.8 923.14,-125.3 923.14,-118.3"/>
</g>
<!-- ProductsRoutingModule -->
<g id="node11" class="node">
<title>ProductsRoutingModule</title>
<polygon fill="#8dd3c7" stroke="black" points="1026.66,-84.8 1023.66,-88.8 1002.66,-88.8 999.66,-84.8 873.34,-84.8 873.34,-48.8 1026.66,-48.8 1026.66,-84.8"/>
<text text-anchor="middle" x="950" y="-62.6" font-family="Times,serif" font-size="14.00">ProductsRoutingModule</text>
</g>
<!-- ProductsRoutingModule&#45;&gt;ProductsModule -->
<g id="edge10" class="edge">
<title>ProductsRoutingModule&#45;&gt;ProductsModule</title>
<path fill="none" stroke="black" d="M893.22,-84.91C893.22,-84.91 893.22,-103.79 893.22,-103.79"/>
<polygon fill="black" stroke="black" points="889.72,-103.79 893.22,-113.79 896.72,-103.79 889.72,-103.79"/>
</g>
</g>
</svg>
