<?xml version="1.0" encoding="UTF-8" standalone="no"?>
<!DOCTYPE svg PUBLIC "-//W3C//DTD SVG 1.1//EN"
 "http://www.w3.org/Graphics/SVG/1.1/DTD/svg11.dtd">
<!-- Generated by graphviz version 2.47.3 (20210619.1520)
 -->
<!-- Title: dependencies Pages: 1 -->
<svg width="1785pt" height="174pt"
 viewBox="0.00 0.00 1785.00 173.80" xmlns="http://www.w3.org/2000/svg" xmlns:xlink="http://www.w3.org/1999/xlink">
<g id="graph0" class="graph" transform="scale(1 1) rotate(0) translate(4 169.8)">
<title>dependencies</title>
<polygon fill="white" stroke="transparent" points="-4,4 -4,-169.8 1781,-169.8 1781,4 -4,4"/>
<text text-anchor="middle" x="888.5" y="-8.2" font-family="sans-serif" font-size="14.00">dependencies</text>
<g id="clust1" class="cluster">
<title>cluster_ProductsModule</title>
<polygon fill="none" stroke="black" stroke-dasharray="1,5" points="8,-32.8 8,-157.8 1769,-157.8 1769,-32.8 8,-32.8"/>
</g>
<g id="clust2" class="cluster">
<title>cluster_ProductsModule_declarations</title>
<polygon fill="none" stroke="black" points="920,-40.8 920,-92.8 1761,-92.8 1761,-40.8 920,-40.8"/>
</g>
<g id="clust8" class="cluster">
<title>cluster_ProductsModule_imports</title>
<polygon fill="none" stroke="black" points="16,-40.8 16,-92.8 912,-92.8 912,-40.8 16,-40.8"/>
</g>
<!-- ProductDetailComponent -->
<g id="node1" class="node">
<title>ProductDetailComponent</title>
<polygon fill="#ffffb3" stroke="black" points="1752.59,-84.8 1593.41,-84.8 1593.41,-48.8 1752.59,-48.8 1752.59,-84.8"/>
<text text-anchor="middle" x="1673" y="-62.6" font-family="Times,serif" font-size="14.00">ProductDetailComponent</text>
</g>
<!-- ProductsModule -->
<g id="node6" class="node">
<title>ProductsModule</title>
<polygon fill="#8dd3c7" stroke="black" points="914.04,-149.8 911.04,-153.8 890.04,-153.8 887.04,-149.8 805.96,-149.8 805.96,-113.8 914.04,-113.8 914.04,-149.8"/>
<text text-anchor="middle" x="860" y="-127.6" font-family="Times,serif" font-size="14.00">ProductsModule</text>
</g>
<!-- ProductDetailComponent&#45;&gt;ProductsModule -->
<g id="edge1" class="edge">
<title>ProductDetailComponent&#45;&gt;ProductsModule</title>
<path fill="none" stroke="black" d="M1673,-84.81C1673,-107.29 1673,-142.8 1673,-142.8 1673,-142.8 924.29,-142.8 924.29,-142.8"/>
<polygon fill="black" stroke="black" points="924.29,-139.3 914.29,-142.8 924.29,-146.3 924.29,-139.3"/>
</g>
<!-- ProductListComponent -->
<g id="node2" class="node">
<title>ProductListComponent</title>
<polygon fill="#ffffb3" stroke="black" points="1575.16,-84.8 1428.84,-84.8 1428.84,-48.8 1575.16,-48.8 1575.16,-84.8"/>
<text text-anchor="middle" x="1502" y="-62.6" font-family="Times,serif" font-size="14.00">ProductListComponent</text>
</g>
<!-- ProductListComponent&#45;&gt;ProductsModule -->
<g id="edge2" class="edge">
<title>ProductListComponent&#45;&gt;ProductsModule</title>
<path fill="none" stroke="black" d="M1502,-84.93C1502,-105.37 1502,-135.8 1502,-135.8 1502,-135.8 924.18,-135.8 924.18,-135.8"/>
<polygon fill="black" stroke="black" points="924.18,-132.3 914.18,-135.8 924.18,-139.3 924.18,-132.3"/>
</g>
<!-- ResultsComponent -->
<g id="node3" class="node">
<title>ResultsComponent</title>
<polygon fill="#ffffb3" stroke="black" points="1410.05,-84.8 1287.95,-84.8 1287.95,-48.8 1410.05,-48.8 1410.05,-84.8"/>
<text text-anchor="middle" x="1349" y="-62.6" font-family="Times,serif" font-size="14.00">ResultsComponent</text>
</g>
<!-- ResultsComponent&#45;&gt;ProductsModule -->
<g id="edge3" class="edge">
<title>ResultsComponent&#45;&gt;ProductsModule</title>
<path fill="none" stroke="black" d="M1349,-85.07C1349,-103.36 1349,-128.8 1349,-128.8 1349,-128.8 924.2,-128.8 924.2,-128.8"/>
<polygon fill="black" stroke="black" points="924.2,-125.3 914.2,-128.8 924.2,-132.3 924.2,-125.3"/>
</g>
<!-- TabAttachmentsComponent -->
<g id="node4" class="node">
<title>TabAttachmentsComponent</title>
<polygon fill="#ffffb3" stroke="black" points="1269.86,-84.8 1096.14,-84.8 1096.14,-48.8 1269.86,-48.8 1269.86,-84.8"/>
<text text-anchor="middle" x="1183" y="-62.6" font-family="Times,serif" font-size="14.00">TabAttachmentsComponent</text>
</g>
<!-- TabAttachmentsComponent&#45;&gt;ProductsModule -->
<g id="edge4" class="edge">
<title>TabAttachmentsComponent&#45;&gt;ProductsModule</title>
<path fill="none" stroke="black" d="M1183,-84.81C1183,-100.85 1183,-121.8 1183,-121.8 1183,-121.8 924.06,-121.8 924.06,-121.8"/>
<polygon fill="black" stroke="black" points="924.06,-118.3 914.06,-121.8 924.06,-125.3 924.06,-118.3"/>
</g>
<!-- TabFeaturesComponent -->
<g id="node5" class="node">
<title>TabFeaturesComponent</title>
<polygon fill="#ffffb3" stroke="black" points="1078.02,-84.8 927.98,-84.8 927.98,-48.8 1078.02,-48.8 1078.02,-84.8"/>
<text text-anchor="middle" x="1003" y="-62.6" font-family="Times,serif" font-size="14.00">TabFeaturesComponent</text>
</g>
<!-- TabFeaturesComponent&#45;&gt;ProductsModule -->
<g id="edge5" class="edge">
<title>TabFeaturesComponent&#45;&gt;ProductsModule</title>
<path fill="none" stroke="black" d="M927.74,-66.8C916.84,-66.8 909.21,-66.8 909.21,-66.8 909.21,-66.8 909.21,-103.69 909.21,-103.69"/>
<polygon fill="black" stroke="black" points="905.71,-103.69 909.21,-113.69 912.71,-103.69 905.71,-103.69"/>
</g>
<!-- AlertModule -->
<g id="node7" class="node">
<title>AlertModule</title>
<polygon fill="#8dd3c7" stroke="black" points="904.31,-84.8 901.31,-88.8 880.31,-88.8 877.31,-84.8 815.69,-84.8 815.69,-48.8 904.31,-48.8 904.31,-84.8"/>
<text text-anchor="middle" x="860" y="-62.6" font-family="Times,serif" font-size="14.00">AlertModule</text>
</g>
<!-- AlertModule&#45;&gt;ProductsModule -->
<g id="edge6" class="edge">
<title>AlertModule&#45;&gt;ProductsModule</title>
<path fill="none" stroke="black" d="M860,-84.91C860,-84.91 860,-103.79 860,-103.79"/>
<polygon fill="black" stroke="black" points="856.5,-103.79 860,-113.79 863.5,-103.79 856.5,-103.79"/>
</g>
<!-- ConfigurationSummaryModule -->
<g id="node8" class="node">
<title>ConfigurationSummaryModule</title>
<polygon fill="#8dd3c7" stroke="black" points="798.03,-84.8 795.03,-88.8 774.03,-88.8 771.03,-84.8 605.97,-84.8 605.97,-48.8 798.03,-48.8 798.03,-84.8"/>
<text text-anchor="middle" x="702" y="-62.6" font-family="Times,serif" font-size="14.00">ConfigurationSummaryModule</text>
</g>
<!-- ConfigurationSummaryModule&#45;&gt;ProductsModule -->
<g id="edge7" class="edge">
<title>ConfigurationSummaryModule&#45;&gt;ProductsModule</title>
<path fill="none" stroke="black" d="M798.31,-66.8C805.95,-66.8 810.79,-66.8 810.79,-66.8 810.79,-66.8 810.79,-103.69 810.79,-103.69"/>
<polygon fill="black" stroke="black" points="807.29,-103.69 810.79,-113.69 814.29,-103.69 807.29,-103.69"/>
</g>
<!-- ConstraintRuleModule -->
<g id="node9" class="node">
<title>ConstraintRuleModule</title>
<polygon fill="#8dd3c7" stroke="black" points="588.32,-84.8 585.32,-88.8 564.32,-88.8 561.32,-84.8 443.68,-84.8 443.68,-48.8 588.32,-48.8 588.32,-84.8"/>
<text text-anchor="middle" x="516" y="-62.6" font-family="Times,serif" font-size="14.00">ConstraintRuleModule</text>
</g>
<!-- ConstraintRuleModule&#45;&gt;ProductsModule -->
<g id="edge8" class="edge">
<title>ConstraintRuleModule&#45;&gt;ProductsModule</title>
<path fill="none" stroke="black" d="M516,-84.81C516,-100.85 516,-121.8 516,-121.8 516,-121.8 795.87,-121.8 795.87,-121.8"/>
<polygon fill="black" stroke="black" points="795.87,-125.3 805.87,-121.8 795.87,-118.3 795.87,-125.3"/>
</g>
<!-- PricingModule -->
<g id="node10" class="node">
<title>PricingModule</title>
<polygon fill="#8dd3c7" stroke="black" points="425.99,-84.8 422.99,-88.8 401.99,-88.8 398.99,-84.8 326.01,-84.8 326.01,-48.8 425.99,-48.8 425.99,-84.8"/>
<text text-anchor="middle" x="376" y="-62.6" font-family="Times,serif" font-size="14.00">PricingModule</text>
</g>
<!-- PricingModule&#45;&gt;ProductsModule -->
<g id="edge9" class="edge">
<title>PricingModule&#45;&gt;ProductsModule</title>
<path fill="none" stroke="black" d="M376,-85.07C376,-103.36 376,-128.8 376,-128.8 376,-128.8 795.89,-128.8 795.89,-128.8"/>
<polygon fill="black" stroke="black" points="795.89,-132.3 805.89,-128.8 795.89,-125.3 795.89,-132.3"/>
</g>
<!-- ProductsRoutingModule -->
<g id="node11" class="node">
<title>ProductsRoutingModule</title>
<polygon fill="#8dd3c7" stroke="black" points="307.66,-84.8 304.66,-88.8 283.66,-88.8 280.66,-84.8 154.34,-84.8 154.34,-48.8 307.66,-48.8 307.66,-84.8"/>
<text text-anchor="middle" x="231" y="-62.6" font-family="Times,serif" font-size="14.00">ProductsRoutingModule</text>
</g>
<!-- ProductsRoutingModule&#45;&gt;ProductsModule -->
<g id="edge10" class="edge">
<title>ProductsRoutingModule&#45;&gt;ProductsModule</title>
<path fill="none" stroke="black" d="M231,-84.93C231,-105.37 231,-135.8 231,-135.8 231,-135.8 795.83,-135.8 795.83,-135.8"/>
<polygon fill="black" stroke="black" points="795.83,-139.3 805.83,-135.8 795.83,-132.3 795.83,-139.3"/>
</g>
<!-- SelectAllModule -->
<g id="node12" class="node">
<title>SelectAllModule</title>
<polygon fill="#8dd3c7" stroke="black" points="135.65,-84.8 132.65,-88.8 111.65,-88.8 108.65,-84.8 24.35,-84.8 24.35,-48.8 135.65,-48.8 135.65,-84.8"/>
<text text-anchor="middle" x="80" y="-62.6" font-family="Times,serif" font-size="14.00">SelectAllModule</text>
</g>
<!-- SelectAllModule&#45;&gt;ProductsModule -->
<g id="edge11" class="edge">
<title>SelectAllModule&#45;&gt;ProductsModule</title>
<path fill="none" stroke="black" d="M80,-84.81C80,-107.29 80,-142.8 80,-142.8 80,-142.8 795.77,-142.8 795.77,-142.8"/>
<polygon fill="black" stroke="black" points="795.77,-146.3 805.77,-142.8 795.77,-139.3 795.77,-146.3"/>
</g>
</g>
</svg>
