<?xml version="1.0" encoding="UTF-8" standalone="no"?>
<!DOCTYPE svg PUBLIC "-//W3C//DTD SVG 1.1//EN"
 "http://www.w3.org/Graphics/SVG/1.1/DTD/svg11.dtd">
<!-- Generated by graphviz version 2.47.3 (20210619.1520)
 -->
<!-- Title: dependencies Pages: 1 -->
<svg width="1688pt" height="174pt"
 viewBox="0.00 0.00 1688.00 173.80" xmlns="http://www.w3.org/2000/svg" xmlns:xlink="http://www.w3.org/1999/xlink">
<g id="graph0" class="graph" transform="scale(1 1) rotate(0) translate(4 169.8)">
<title>dependencies</title>
<polygon fill="white" stroke="transparent" points="-4,4 -4,-169.8 1684,-169.8 1684,4 -4,4"/>
<text text-anchor="middle" x="840" y="-8.2" font-family="sans-serif" font-size="14.00">dependencies</text>
<g id="clust1" class="cluster">
<title>cluster_InstalledProductsModule</title>
<polygon fill="none" stroke="black" stroke-dasharray="1,5" points="8,-32.8 8,-157.8 1672,-157.8 1672,-32.8 8,-32.8"/>
</g>
<g id="clust8" class="cluster">
<title>cluster_InstalledProductsModule_imports</title>
<polygon fill="none" stroke="black" points="1036,-40.8 1036,-92.8 1664,-92.8 1664,-40.8 1036,-40.8"/>
</g>
<g id="clust2" class="cluster">
<title>cluster_InstalledProductsModule_declarations</title>
<polygon fill="none" stroke="black" points="16,-40.8 16,-92.8 1028,-92.8 1028,-40.8 16,-40.8"/>
</g>
<!-- AssetActionFilterComponent -->
<g id="node1" class="node">
<title>AssetActionFilterComponent</title>
<polygon fill="#ffffb3" stroke="black" points="1020.37,-84.8 839.63,-84.8 839.63,-48.8 1020.37,-48.8 1020.37,-84.8"/>
<text text-anchor="middle" x="930" y="-62.6" font-family="Times,serif" font-size="14.00">AssetActionFilterComponent</text>
</g>
<!-- InstalledProductsModule -->
<g id="node6" class="node">
<title>InstalledProductsModule</title>
<polygon fill="#8dd3c7" stroke="black" points="1088.25,-149.8 1085.25,-153.8 1064.25,-153.8 1061.25,-149.8 931.75,-149.8 931.75,-113.8 1088.25,-113.8 1088.25,-149.8"/>
<text text-anchor="middle" x="1010" y="-127.6" font-family="Times,serif" font-size="14.00">InstalledProductsModule</text>
</g>
<!-- AssetActionFilterComponent&#45;&gt;InstalledProductsModule -->
<g id="edge1" class="edge">
<title>AssetActionFilterComponent&#45;&gt;InstalledProductsModule</title>
<path fill="none" stroke="black" d="M976.03,-84.91C976.03,-84.91 976.03,-103.79 976.03,-103.79"/>
<polygon fill="black" stroke="black" points="972.53,-103.79 976.03,-113.79 979.53,-103.79 972.53,-103.79"/>
</g>
<!-- InstalledProductsLayoutComponent -->
<g id="node2" class="node">
<title>InstalledProductsLayoutComponent</title>
<polygon fill="#ffffb3" stroke="black" points="821.19,-84.8 602.81,-84.8 602.81,-48.8 821.19,-48.8 821.19,-84.8"/>
<text text-anchor="middle" x="712" y="-62.6" font-family="Times,serif" font-size="14.00">InstalledProductsLayoutComponent</text>
</g>
<!-- InstalledProductsLayoutComponent&#45;&gt;InstalledProductsModule -->
<g id="edge2" class="edge">
<title>InstalledProductsLayoutComponent&#45;&gt;InstalledProductsModule</title>
<path fill="none" stroke="black" d="M712,-84.81C712,-100.85 712,-121.8 712,-121.8 712,-121.8 921.7,-121.8 921.7,-121.8"/>
<polygon fill="black" stroke="black" points="921.7,-125.3 931.7,-121.8 921.7,-118.3 921.7,-125.3"/>
</g>
<!-- PriceTypeFilterComponent -->
<g id="node3" class="node">
<title>PriceTypeFilterComponent</title>
<polygon fill="#ffffb3" stroke="black" points="584.69,-84.8 415.31,-84.8 415.31,-48.8 584.69,-48.8 584.69,-84.8"/>
<text text-anchor="middle" x="500" y="-62.6" font-family="Times,serif" font-size="14.00">PriceTypeFilterComponent</text>
</g>
<!-- PriceTypeFilterComponent&#45;&gt;InstalledProductsModule -->
<g id="edge3" class="edge">
<title>PriceTypeFilterComponent&#45;&gt;InstalledProductsModule</title>
<path fill="none" stroke="black" d="M500,-85.07C500,-103.36 500,-128.8 500,-128.8 500,-128.8 921.71,-128.8 921.71,-128.8"/>
<polygon fill="black" stroke="black" points="921.71,-132.3 931.71,-128.8 921.71,-125.3 921.71,-132.3"/>
</g>
<!-- ProductFamilyFilterComponent -->
<g id="node4" class="node">
<title>ProductFamilyFilterComponent</title>
<polygon fill="#ffffb3" stroke="black" points="397.38,-84.8 202.62,-84.8 202.62,-48.8 397.38,-48.8 397.38,-84.8"/>
<text text-anchor="middle" x="300" y="-62.6" font-family="Times,serif" font-size="14.00">ProductFamilyFilterComponent</text>
</g>
<!-- ProductFamilyFilterComponent&#45;&gt;InstalledProductsModule -->
<g id="edge4" class="edge">
<title>ProductFamilyFilterComponent&#45;&gt;InstalledProductsModule</title>
<path fill="none" stroke="black" d="M300,-84.93C300,-105.37 300,-135.8 300,-135.8 300,-135.8 921.65,-135.8 921.65,-135.8"/>
<polygon fill="black" stroke="black" points="921.65,-139.3 931.65,-135.8 921.65,-132.3 921.65,-139.3"/>
</g>
<!-- RenewalFilterComponent -->
<g id="node5" class="node">
<title>RenewalFilterComponent</title>
<polygon fill="#ffffb3" stroke="black" points="184.14,-84.8 23.86,-84.8 23.86,-48.8 184.14,-48.8 184.14,-84.8"/>
<text text-anchor="middle" x="104" y="-62.6" font-family="Times,serif" font-size="14.00">RenewalFilterComponent</text>
</g>
<!-- RenewalFilterComponent&#45;&gt;InstalledProductsModule -->
<g id="edge5" class="edge">
<title>RenewalFilterComponent&#45;&gt;InstalledProductsModule</title>
<path fill="none" stroke="black" d="M104,-84.81C104,-107.29 104,-142.8 104,-142.8 104,-142.8 921.58,-142.8 921.58,-142.8"/>
<polygon fill="black" stroke="black" points="921.58,-146.3 931.58,-142.8 921.58,-139.3 921.58,-146.3"/>
</g>
<!-- AlertModule -->
<g id="node7" class="node">
<title>AlertModule</title>
<polygon fill="#8dd3c7" stroke="black" points="1656.31,-84.8 1653.31,-88.8 1632.31,-88.8 1629.31,-84.8 1567.69,-84.8 1567.69,-48.8 1656.31,-48.8 1656.31,-84.8"/>
<text text-anchor="middle" x="1612" y="-62.6" font-family="Times,serif" font-size="14.00">AlertModule</text>
</g>
<!-- AlertModule&#45;&gt;InstalledProductsModule -->
<g id="edge6" class="edge">
<title>AlertModule&#45;&gt;InstalledProductsModule</title>
<path fill="none" stroke="black" d="M1612,-84.81C1612,-107.29 1612,-142.8 1612,-142.8 1612,-142.8 1098.39,-142.8 1098.39,-142.8"/>
<polygon fill="black" stroke="black" points="1098.39,-139.3 1088.39,-142.8 1098.39,-146.3 1098.39,-139.3"/>
</g>
<!-- ConstraintRuleModule -->
<g id="node8" class="node">
<title>ConstraintRuleModule</title>
<polygon fill="#8dd3c7" stroke="black" points="1550.32,-84.8 1547.32,-88.8 1526.32,-88.8 1523.32,-84.8 1405.68,-84.8 1405.68,-48.8 1550.32,-48.8 1550.32,-84.8"/>
<text text-anchor="middle" x="1478" y="-62.6" font-family="Times,serif" font-size="14.00">ConstraintRuleModule</text>
</g>
<!-- ConstraintRuleModule&#45;&gt;InstalledProductsModule -->
<g id="edge7" class="edge">
<title>ConstraintRuleModule&#45;&gt;InstalledProductsModule</title>
<path fill="none" stroke="black" d="M1478,-84.93C1478,-105.37 1478,-135.8 1478,-135.8 1478,-135.8 1098.33,-135.8 1098.33,-135.8"/>
<polygon fill="black" stroke="black" points="1098.33,-132.3 1088.33,-135.8 1098.33,-139.3 1098.33,-132.3"/>
</g>
<!-- DataFilterModule -->
<g id="node9" class="node">
<title>DataFilterModule</title>
<polygon fill="#8dd3c7" stroke="black" points="1388.31,-84.8 1385.31,-88.8 1364.31,-88.8 1361.31,-84.8 1271.69,-84.8 1271.69,-48.8 1388.31,-48.8 1388.31,-84.8"/>
<text text-anchor="middle" x="1330" y="-62.6" font-family="Times,serif" font-size="14.00">DataFilterModule</text>
</g>
<!-- DataFilterModule&#45;&gt;InstalledProductsModule -->
<g id="edge8" class="edge">
<title>DataFilterModule&#45;&gt;InstalledProductsModule</title>
<path fill="none" stroke="black" d="M1330,-85.07C1330,-103.36 1330,-128.8 1330,-128.8 1330,-128.8 1098.28,-128.8 1098.28,-128.8"/>
<polygon fill="black" stroke="black" points="1098.28,-125.3 1088.28,-128.8 1098.28,-132.3 1098.28,-125.3"/>
</g>
<!-- PricingModule -->
<g id="node10" class="node">
<title>PricingModule</title>
<polygon fill="#8dd3c7" stroke="black" points="1253.99,-84.8 1250.99,-88.8 1229.99,-88.8 1226.99,-84.8 1154.01,-84.8 1154.01,-48.8 1253.99,-48.8 1253.99,-84.8"/>
<text text-anchor="middle" x="1204" y="-62.6" font-family="Times,serif" font-size="14.00">PricingModule</text>
</g>
<!-- PricingModule&#45;&gt;InstalledProductsModule -->
<g id="edge9" class="edge">
<title>PricingModule&#45;&gt;InstalledProductsModule</title>
<path fill="none" stroke="black" d="M1204,-84.81C1204,-100.85 1204,-121.8 1204,-121.8 1204,-121.8 1098.35,-121.8 1098.35,-121.8"/>
<polygon fill="black" stroke="black" points="1098.35,-118.3 1088.35,-121.8 1098.35,-125.3 1098.35,-118.3"/>
</g>
<!-- TableModule -->
<g id="node11" class="node">
<title>TableModule</title>
<polygon fill="#8dd3c7" stroke="black" points="1135.92,-84.8 1132.92,-88.8 1111.92,-88.8 1108.92,-84.8 1044.08,-84.8 1044.08,-48.8 1135.92,-48.8 1135.92,-84.8"/>
<text text-anchor="middle" x="1090" y="-62.6" font-family="Times,serif" font-size="14.00">TableModule</text>
</g>
<!-- TableModule&#45;&gt;InstalledProductsModule -->
<g id="edge10" class="edge">
<title>TableModule&#45;&gt;InstalledProductsModule</title>
<path fill="none" stroke="black" d="M1066.33,-84.91C1066.33,-84.91 1066.33,-103.79 1066.33,-103.79"/>
<polygon fill="black" stroke="black" points="1062.83,-103.79 1066.33,-113.79 1069.83,-103.79 1062.83,-103.79"/>
</g>
</g>
</svg>
