<?xml version="1.0" encoding="UTF-8" standalone="no"?>
<!DOCTYPE svg PUBLIC "-//W3C//DTD SVG 1.1//EN"
 "http://www.w3.org/Graphics/SVG/1.1/DTD/svg11.dtd">
<!-- Generated by graphviz version 2.47.3 (20210619.1520)
 -->
<!-- Title: dependencies Pages: 1 -->
<svg width="1901pt" height="174pt"
 viewBox="0.00 0.00 1901.00 173.80" xmlns="http://www.w3.org/2000/svg" xmlns:xlink="http://www.w3.org/1999/xlink">
<g id="graph0" class="graph" transform="scale(1 1) rotate(0) translate(4 169.8)">
<title>dependencies</title>
<polygon fill="white" stroke="transparent" points="-4,4 -4,-169.8 1897,-169.8 1897,4 -4,4"/>
<text text-anchor="middle" x="946.5" y="-8.2" font-family="sans-serif" font-size="14.00">dependencies</text>
<g id="clust1" class="cluster">
<title>cluster_MyAccountModule</title>
<polygon fill="none" stroke="black" stroke-dasharray="1,5" points="8,-32.8 8,-157.8 1885,-157.8 1885,-32.8 8,-32.8"/>
</g>
<g id="clust9" class="cluster">
<title>cluster_MyAccountModule_imports</title>
<polygon fill="none" stroke="black" points="1039,-40.8 1039,-92.8 1877,-92.8 1877,-40.8 1039,-40.8"/>
</g>
<g id="clust2" class="cluster">
<title>cluster_MyAccountModule_declarations</title>
<polygon fill="none" stroke="black" points="16,-40.8 16,-92.8 1031,-92.8 1031,-40.8 16,-40.8"/>
</g>
<!-- AddressBookComponent -->
<g id="node1" class="node">
<title>AddressBookComponent</title>
<polygon fill="#ffffb3" stroke="black" points="1022.54,-84.8 865.46,-84.8 865.46,-48.8 1022.54,-48.8 1022.54,-84.8"/>
<text text-anchor="middle" x="944" y="-62.6" font-family="Times,serif" font-size="14.00">AddressBookComponent</text>
</g>
<!-- MyAccountModule -->
<g id="node7" class="node">
<title>MyAccountModule</title>
<polygon fill="#8dd3c7" stroke="black" points="1156.42,-149.8 1153.42,-153.8 1132.42,-153.8 1129.42,-149.8 1029.58,-149.8 1029.58,-113.8 1156.42,-113.8 1156.42,-149.8"/>
<text text-anchor="middle" x="1093" y="-127.6" font-family="Times,serif" font-size="14.00">MyAccountModule</text>
</g>
<!-- AddressBookComponent&#45;&gt;MyAccountModule -->
<g id="edge1" class="edge">
<title>AddressBookComponent&#45;&gt;MyAccountModule</title>
<path fill="none" stroke="black" d="M1022.93,-66.8C1032.26,-66.8 1038.54,-66.8 1038.54,-66.8 1038.54,-66.8 1038.54,-103.69 1038.54,-103.69"/>
<polygon fill="black" stroke="black" points="1035.04,-103.69 1038.54,-113.69 1042.04,-103.69 1035.04,-103.69"/>
</g>
<!-- DashboardComponent -->
<g id="node2" class="node">
<title>DashboardComponent</title>
<polygon fill="#ffffb3" stroke="black" points="846.97,-84.8 705.03,-84.8 705.03,-48.8 846.97,-48.8 846.97,-84.8"/>
<text text-anchor="middle" x="776" y="-62.6" font-family="Times,serif" font-size="14.00">DashboardComponent</text>
</g>
<!-- DashboardComponent&#45;&gt;MyAccountModule -->
<g id="edge2" class="edge">
<title>DashboardComponent&#45;&gt;MyAccountModule</title>
<path fill="none" stroke="black" d="M776,-85.04C776,-100.37 776,-119.8 776,-119.8 776,-119.8 1019.61,-119.8 1019.61,-119.8"/>
<polygon fill="black" stroke="black" points="1019.61,-123.3 1029.61,-119.8 1019.61,-116.3 1019.61,-123.3"/>
</g>
<!-- FavoriteListComponent -->
<g id="node3" class="node">
<title>FavoriteListComponent</title>
<polygon fill="#ffffb3" stroke="black" points="686.76,-84.8 537.24,-84.8 537.24,-48.8 686.76,-48.8 686.76,-84.8"/>
<text text-anchor="middle" x="612" y="-62.6" font-family="Times,serif" font-size="14.00">FavoriteListComponent</text>
</g>
<!-- FavoriteListComponent&#45;&gt;MyAccountModule -->
<g id="edge3" class="edge">
<title>FavoriteListComponent&#45;&gt;MyAccountModule</title>
<path fill="none" stroke="black" d="M612,-84.82C612,-102.17 612,-125.8 612,-125.8 612,-125.8 1019.62,-125.8 1019.62,-125.8"/>
<polygon fill="black" stroke="black" points="1019.62,-129.3 1029.62,-125.8 1019.62,-122.3 1019.62,-129.3"/>
</g>
<!-- MyAccountLayoutComponent -->
<g id="node4" class="node">
<title>MyAccountLayoutComponent</title>
<polygon fill="#ffffb3" stroke="black" points="518.86,-84.8 331.14,-84.8 331.14,-48.8 518.86,-48.8 518.86,-84.8"/>
<text text-anchor="middle" x="425" y="-62.6" font-family="Times,serif" font-size="14.00">MyAccountLayoutComponent</text>
</g>
<!-- MyAccountLayoutComponent&#45;&gt;MyAccountModule -->
<g id="edge4" class="edge">
<title>MyAccountLayoutComponent&#45;&gt;MyAccountModule</title>
<path fill="none" stroke="black" d="M425,-84.91C425,-104.14 425,-131.8 425,-131.8 425,-131.8 1019.55,-131.8 1019.55,-131.8"/>
<polygon fill="black" stroke="black" points="1019.55,-135.3 1029.55,-131.8 1019.55,-128.3 1019.55,-135.3"/>
</g>
<!-- QuoteListComponent -->
<g id="node5" class="node">
<title>QuoteListComponent</title>
<polygon fill="#ffffb3" stroke="black" points="312.82,-84.8 175.18,-84.8 175.18,-48.8 312.82,-48.8 312.82,-84.8"/>
<text text-anchor="middle" x="244" y="-62.6" font-family="Times,serif" font-size="14.00">QuoteListComponent</text>
</g>
<!-- QuoteListComponent&#45;&gt;MyAccountModule -->
<g id="edge5" class="edge">
<title>QuoteListComponent&#45;&gt;MyAccountModule</title>
<path fill="none" stroke="black" d="M244,-85.08C244,-106.12 244,-137.8 244,-137.8 244,-137.8 1019.53,-137.8 1019.53,-137.8"/>
<polygon fill="black" stroke="black" points="1019.53,-141.3 1029.53,-137.8 1019.53,-134.3 1019.53,-141.3"/>
</g>
<!-- WishlistsComponent -->
<g id="node6" class="node">
<title>WishlistsComponent</title>
<polygon fill="#ffffb3" stroke="black" points="157.94,-84.8 24.06,-84.8 24.06,-48.8 157.94,-48.8 157.94,-84.8"/>
<text text-anchor="middle" x="91" y="-62.6" font-family="Times,serif" font-size="14.00">WishlistsComponent</text>
</g>
<!-- WishlistsComponent&#45;&gt;MyAccountModule -->
<g id="edge6" class="edge">
<title>WishlistsComponent&#45;&gt;MyAccountModule</title>
<path fill="none" stroke="black" d="M91,-84.89C91,-107.93 91,-144.8 91,-144.8 91,-144.8 1019.56,-144.8 1019.56,-144.8"/>
<polygon fill="black" stroke="black" points="1019.56,-148.3 1029.56,-144.8 1019.56,-141.3 1019.56,-148.3"/>
</g>
<!-- AlertModule -->
<g id="node8" class="node">
<title>AlertModule</title>
<polygon fill="#8dd3c7" stroke="black" points="1869.31,-84.8 1866.31,-88.8 1845.31,-88.8 1842.31,-84.8 1780.69,-84.8 1780.69,-48.8 1869.31,-48.8 1869.31,-84.8"/>
<text text-anchor="middle" x="1825" y="-62.6" font-family="Times,serif" font-size="14.00">AlertModule</text>
</g>
<!-- AlertModule&#45;&gt;MyAccountModule -->
<g id="edge7" class="edge">
<title>AlertModule&#45;&gt;MyAccountModule</title>
<path fill="none" stroke="black" d="M1825,-84.81C1825,-107.29 1825,-142.8 1825,-142.8 1825,-142.8 1166.36,-142.8 1166.36,-142.8"/>
<polygon fill="black" stroke="black" points="1166.36,-139.3 1156.36,-142.8 1166.36,-146.3 1166.36,-139.3"/>
</g>
<!-- ConfigurationSummaryModule -->
<g id="node9" class="node">
<title>ConfigurationSummaryModule</title>
<polygon fill="#8dd3c7" stroke="black" points="1763.03,-84.8 1760.03,-88.8 1739.03,-88.8 1736.03,-84.8 1570.97,-84.8 1570.97,-48.8 1763.03,-48.8 1763.03,-84.8"/>
<text text-anchor="middle" x="1667" y="-62.6" font-family="Times,serif" font-size="14.00">ConfigurationSummaryModule</text>
</g>
<!-- ConfigurationSummaryModule&#45;&gt;MyAccountModule -->
<g id="edge8" class="edge">
<title>ConfigurationSummaryModule&#45;&gt;MyAccountModule</title>
<path fill="none" stroke="black" d="M1667,-84.93C1667,-105.37 1667,-135.8 1667,-135.8 1667,-135.8 1166.35,-135.8 1166.35,-135.8"/>
<polygon fill="black" stroke="black" points="1166.35,-132.3 1156.35,-135.8 1166.35,-139.3 1166.35,-132.3"/>
</g>
<!-- ConstraintRuleModule -->
<g id="node10" class="node">
<title>ConstraintRuleModule</title>
<polygon fill="#8dd3c7" stroke="black" points="1553.32,-84.8 1550.32,-88.8 1529.32,-88.8 1526.32,-84.8 1408.68,-84.8 1408.68,-48.8 1553.32,-48.8 1553.32,-84.8"/>
<text text-anchor="middle" x="1481" y="-62.6" font-family="Times,serif" font-size="14.00">ConstraintRuleModule</text>
</g>
<!-- ConstraintRuleModule&#45;&gt;MyAccountModule -->
<g id="edge9" class="edge">
<title>ConstraintRuleModule&#45;&gt;MyAccountModule</title>
<path fill="none" stroke="black" d="M1481,-85.07C1481,-103.36 1481,-128.8 1481,-128.8 1481,-128.8 1166.64,-128.8 1166.64,-128.8"/>
<polygon fill="black" stroke="black" points="1166.64,-125.3 1156.64,-128.8 1166.64,-132.3 1166.64,-125.3"/>
</g>
<!-- DataFilterModule -->
<g id="node11" class="node">
<title>DataFilterModule</title>
<polygon fill="#8dd3c7" stroke="black" points="1391.31,-84.8 1388.31,-88.8 1367.31,-88.8 1364.31,-84.8 1274.69,-84.8 1274.69,-48.8 1391.31,-48.8 1391.31,-84.8"/>
<text text-anchor="middle" x="1333" y="-62.6" font-family="Times,serif" font-size="14.00">DataFilterModule</text>
</g>
<!-- DataFilterModule&#45;&gt;MyAccountModule -->
<g id="edge10" class="edge">
<title>DataFilterModule&#45;&gt;MyAccountModule</title>
<path fill="none" stroke="black" d="M1333,-84.81C1333,-100.85 1333,-121.8 1333,-121.8 1333,-121.8 1166.37,-121.8 1166.37,-121.8"/>
<polygon fill="black" stroke="black" points="1166.37,-118.3 1156.37,-121.8 1166.37,-125.3 1166.37,-118.3"/>
</g>
<!-- PricingModule -->
<g id="node12" class="node">
<title>PricingModule</title>
<polygon fill="#8dd3c7" stroke="black" points="1256.99,-84.8 1253.99,-88.8 1232.99,-88.8 1229.99,-84.8 1157.01,-84.8 1157.01,-48.8 1256.99,-48.8 1256.99,-84.8"/>
<text text-anchor="middle" x="1207" y="-62.6" font-family="Times,serif" font-size="14.00">PricingModule</text>
</g>
<!-- PricingModule&#45;&gt;MyAccountModule -->
<g id="edge11" class="edge">
<title>PricingModule&#45;&gt;MyAccountModule</title>
<path fill="none" stroke="black" d="M1156.76,-66.8C1151.18,-66.8 1147.46,-66.8 1147.46,-66.8 1147.46,-66.8 1147.46,-103.69 1147.46,-103.69"/>
<polygon fill="black" stroke="black" points="1143.96,-103.69 1147.46,-113.69 1150.96,-103.69 1143.96,-103.69"/>
</g>
<!-- TableModule -->
<g id="node13" class="node">
<title>TableModule</title>
<polygon fill="#8dd3c7" stroke="black" points="1138.92,-84.8 1135.92,-88.8 1114.92,-88.8 1111.92,-84.8 1047.08,-84.8 1047.08,-48.8 1138.92,-48.8 1138.92,-84.8"/>
<text text-anchor="middle" x="1093" y="-62.6" font-family="Times,serif" font-size="14.00">TableModule</text>
</g>
<!-- TableModule&#45;&gt;MyAccountModule -->
<g id="edge12" class="edge">
<title>TableModule&#45;&gt;MyAccountModule</title>
<path fill="none" stroke="black" d="M1077.76,-84.91C1077.76,-84.91 1077.76,-103.79 1077.76,-103.79"/>
<polygon fill="black" stroke="black" points="1074.26,-103.79 1077.76,-113.79 1081.26,-103.79 1074.26,-103.79"/>
</g>
<!-- TableModule&#45;&gt;MyAccountModule -->
<g id="edge13" class="edge">
<title>TableModule&#45;&gt;MyAccountModule</title>
<path fill="none" stroke="black" d="M1108.24,-84.91C1108.24,-84.91 1108.24,-103.79 1108.24,-103.79"/>
<polygon fill="black" stroke="black" points="1104.74,-103.79 1108.24,-113.79 1111.74,-103.79 1104.74,-103.79"/>
</g>
</g>
</svg>
