<?xml version="1.0" encoding="UTF-8" standalone="no"?>
<!DOCTYPE svg PUBLIC "-//W3C//DTD SVG 1.1//EN"
 "http://www.w3.org/Graphics/SVG/1.1/DTD/svg11.dtd">
<!-- Generated by graphviz version 2.47.3 (20210619.1520)
 -->
<!-- Title: dependencies Pages: 1 -->
<svg width="1932pt" height="247pt"
 viewBox="0.00 0.00 1932.00 246.80" xmlns="http://www.w3.org/2000/svg" xmlns:xlink="http://www.w3.org/1999/xlink">
<g id="graph0" class="graph" transform="scale(1 1) rotate(0) translate(4 242.8)">
<title>dependencies</title>
<polygon fill="white" stroke="transparent" points="-4,4 -4,-242.8 1928,-242.8 1928,4 -4,4"/>
<text text-anchor="middle" x="962" y="-8.2" font-family="sans-serif" font-size="14.00">dependencies</text>
<g id="clust1" class="cluster">
<title>cluster_PaymentComponentModule</title>
<polygon fill="none" stroke="black" stroke-dasharray="1,5" points="8,-32.8 8,-230.8 1916,-230.8 1916,-32.8 8,-32.8"/>
</g>
<g id="clust7" class="cluster">
<title>cluster_PaymentComponentModule_imports</title>
<polygon fill="none" stroke="black" points="724,-40.8 724,-92.8 1908,-92.8 1908,-40.8 724,-40.8"/>
</g>
<g id="clust8" class="cluster">
<title>cluster_PaymentComponentModule_exports</title>
<polygon fill="none" stroke="black" points="798,-170.8 798,-222.8 1316,-222.8 1316,-170.8 798,-170.8"/>
</g>
<g id="clust2" class="cluster">
<title>cluster_PaymentComponentModule_declarations</title>
<polygon fill="none" stroke="black" points="16,-40.8 16,-92.8 716,-92.8 716,-40.8 16,-40.8"/>
</g>
<!-- CreditCardExtractorPipe -->
<g id="node1" class="node">
<title>CreditCardExtractorPipe</title>
<polygon fill="#ffffb3" stroke="black" points="707.68,-84.8 552.32,-84.8 552.32,-48.8 707.68,-48.8 707.68,-84.8"/>
<text text-anchor="middle" x="630" y="-62.6" font-family="Times,serif" font-size="14.00">CreditCardExtractorPipe</text>
</g>
<!-- PaymentComponentModule -->
<g id="node5" class="node">
<title>PaymentComponentModule</title>
<polygon fill="#8dd3c7" stroke="black" points="1155.88,-149.8 1152.88,-153.8 1131.88,-153.8 1128.88,-149.8 982.12,-149.8 982.12,-113.8 1155.88,-113.8 1155.88,-149.8"/>
<text text-anchor="middle" x="1069" y="-127.6" font-family="Times,serif" font-size="14.00">PaymentComponentModule</text>
</g>
<!-- CreditCardExtractorPipe&#45;&gt;PaymentComponentModule -->
<g id="edge1" class="edge">
<title>CreditCardExtractorPipe&#45;&gt;PaymentComponentModule</title>
<path fill="none" stroke="black" d="M630,-84.83C630,-101.86 630,-124.8 630,-124.8 630,-124.8 972.01,-124.8 972.01,-124.8"/>
<polygon fill="black" stroke="black" points="972.01,-128.3 982.01,-124.8 972.01,-121.3 972.01,-128.3"/>
</g>
<!-- PaymentIFrameComponent -->
<g id="node2" class="node">
<title>PaymentIFrameComponent</title>
<polygon fill="#ffffb3" stroke="black" points="534.25,-84.8 363.75,-84.8 363.75,-48.8 534.25,-48.8 534.25,-84.8"/>
<text text-anchor="middle" x="449" y="-62.6" font-family="Times,serif" font-size="14.00">PaymentIFrameComponent</text>
</g>
<!-- PaymentIFrameComponent&#45;&gt;PaymentComponentModule -->
<g id="edge2" class="edge">
<title>PaymentIFrameComponent&#45;&gt;PaymentComponentModule</title>
<path fill="none" stroke="black" d="M449,-85.02C449,-103.63 449,-129.8 449,-129.8 449,-129.8 971.81,-129.8 971.81,-129.8"/>
<polygon fill="black" stroke="black" points="971.81,-133.3 981.81,-129.8 971.81,-126.3 971.81,-133.3"/>
</g>
<!-- PaymentMethodComponent -->
<g id="node3" class="node">
<title>PaymentMethodComponent</title>
<polygon fill="#ffffb3" stroke="black" points="345.88,-84.8 172.12,-84.8 172.12,-48.8 345.88,-48.8 345.88,-84.8"/>
<text text-anchor="middle" x="259" y="-62.6" font-family="Times,serif" font-size="14.00">PaymentMethodComponent</text>
</g>
<!-- PaymentMethodComponent&#45;&gt;PaymentComponentModule -->
<g id="edge3" class="edge">
<title>PaymentMethodComponent&#45;&gt;PaymentComponentModule</title>
<path fill="none" stroke="black" d="M259,-85.02C259,-105.17 259,-134.8 259,-134.8 259,-134.8 971.93,-134.8 971.93,-134.8"/>
<polygon fill="black" stroke="black" points="971.93,-138.3 981.93,-134.8 971.93,-131.3 971.93,-138.3"/>
</g>
<!-- PaymentComponent -->
<g id="node4" class="node">
<title>PaymentComponent</title>
<polygon fill="#ffffb3" stroke="black" points="154.33,-84.8 23.67,-84.8 23.67,-48.8 154.33,-48.8 154.33,-84.8"/>
<text text-anchor="middle" x="89" y="-62.6" font-family="Times,serif" font-size="14.00">PaymentComponent</text>
</g>
<!-- PaymentComponent&#45;&gt;PaymentComponentModule -->
<g id="edge4" class="edge">
<title>PaymentComponent&#45;&gt;PaymentComponentModule</title>
<path fill="none" stroke="black" d="M89,-84.84C89,-106.46 89,-139.8 89,-139.8 89,-139.8 972.03,-139.8 972.03,-139.8"/>
<polygon fill="black" stroke="black" points="972.03,-143.3 982.03,-139.8 972.03,-136.3 972.03,-143.3"/>
</g>
<!-- PaymentComponent  -->
<g id="node14" class="node">
<title>PaymentComponent </title>
<polygon fill="#fb8072" stroke="black" points="1307.83,-214.8 1174.17,-214.8 1174.17,-178.8 1307.83,-178.8 1307.83,-214.8"/>
<text text-anchor="middle" x="1241" y="-192.6" font-family="Times,serif" font-size="14.00">PaymentComponent </text>
</g>
<!-- PaymentComponentModule&#45;&gt;PaymentComponent  -->
<g id="edge13" class="edge">
<title>PaymentComponentModule&#45;&gt;PaymentComponent </title>
<path fill="none" stroke="black" stroke-dasharray="5,2" d="M1156.12,-144.8C1171.75,-144.8 1183.18,-144.8 1183.18,-144.8 1183.18,-144.8 1183.18,-168.61 1183.18,-168.61"/>
<polygon fill="black" stroke="black" points="1179.68,-168.61 1183.18,-178.61 1186.68,-168.61 1179.68,-168.61"/>
</g>
<!-- PaymentIFrameComponent  -->
<g id="node15" class="node">
<title>PaymentIFrameComponent </title>
<polygon fill="#fb8072" stroke="black" points="1156.25,-214.8 981.75,-214.8 981.75,-178.8 1156.25,-178.8 1156.25,-214.8"/>
<text text-anchor="middle" x="1069" y="-192.6" font-family="Times,serif" font-size="14.00">PaymentIFrameComponent </text>
</g>
<!-- PaymentComponentModule&#45;&gt;PaymentIFrameComponent  -->
<g id="edge14" class="edge">
<title>PaymentComponentModule&#45;&gt;PaymentIFrameComponent </title>
<path fill="none" stroke="black" stroke-dasharray="5,2" d="M1069,-149.91C1069,-149.91 1069,-168.79 1069,-168.79"/>
<polygon fill="black" stroke="black" points="1065.5,-168.79 1069,-178.79 1072.5,-168.79 1065.5,-168.79"/>
</g>
<!-- CreditCardExtractorPipe  -->
<g id="node16" class="node">
<title>CreditCardExtractorPipe </title>
<polygon fill="#fb8072" stroke="black" points="964.18,-214.8 805.82,-214.8 805.82,-178.8 964.18,-178.8 964.18,-214.8"/>
<text text-anchor="middle" x="885" y="-192.6" font-family="Times,serif" font-size="14.00">CreditCardExtractorPipe </text>
</g>
<!-- PaymentComponentModule&#45;&gt;CreditCardExtractorPipe  -->
<g id="edge15" class="edge">
<title>PaymentComponentModule&#45;&gt;CreditCardExtractorPipe </title>
<path fill="none" stroke="black" stroke-dasharray="5,2" d="M981.9,-144.8C956.87,-144.8 936.2,-144.8 936.2,-144.8 936.2,-144.8 936.2,-168.61 936.2,-168.61"/>
<polygon fill="black" stroke="black" points="932.7,-168.61 936.2,-178.61 939.7,-168.61 932.7,-168.61"/>
</g>
<!-- CommonModule -->
<g id="node6" class="node">
<title>CommonModule</title>
<polygon fill="#8dd3c7" stroke="black" points="1899.67,-84.8 1896.67,-88.8 1875.67,-88.8 1872.67,-84.8 1788.33,-84.8 1788.33,-48.8 1899.67,-48.8 1899.67,-84.8"/>
<text text-anchor="middle" x="1844" y="-62.6" font-family="Times,serif" font-size="14.00">CommonModule</text>
</g>
<!-- CommonModule&#45;&gt;PaymentComponentModule -->
<g id="edge5" class="edge">
<title>CommonModule&#45;&gt;PaymentComponentModule</title>
<path fill="none" stroke="black" d="M1844,-84.84C1844,-106.46 1844,-139.8 1844,-139.8 1844,-139.8 1166.02,-139.8 1166.02,-139.8"/>
<polygon fill="black" stroke="black" points="1166.02,-136.3 1156.02,-139.8 1166.02,-143.3 1166.02,-136.3"/>
</g>
<!-- IconModule -->
<g id="node7" class="node">
<title>IconModule</title>
<polygon fill="#8dd3c7" stroke="black" points="1770.43,-84.8 1767.43,-88.8 1746.43,-88.8 1743.43,-84.8 1685.57,-84.8 1685.57,-48.8 1770.43,-48.8 1770.43,-84.8"/>
<text text-anchor="middle" x="1728" y="-62.6" font-family="Times,serif" font-size="14.00">IconModule</text>
</g>
<!-- IconModule&#45;&gt;PaymentComponentModule -->
<g id="edge6" class="edge">
<title>IconModule&#45;&gt;PaymentComponentModule</title>
<path fill="none" stroke="black" d="M1728,-85.02C1728,-105.17 1728,-134.8 1728,-134.8 1728,-134.8 1166.17,-134.8 1166.17,-134.8"/>
<polygon fill="black" stroke="black" points="1166.17,-131.3 1156.17,-134.8 1166.17,-138.3 1166.17,-131.3"/>
</g>
<!-- FormsModule -->
<g id="node8" class="node">
<title>FormsModule</title>
<polygon fill="#8dd3c7" stroke="black" points="1667.83,-84.8 1664.83,-88.8 1643.83,-88.8 1640.83,-84.8 1572.17,-84.8 1572.17,-48.8 1667.83,-48.8 1667.83,-84.8"/>
<text text-anchor="middle" x="1620" y="-62.6" font-family="Times,serif" font-size="14.00">FormsModule</text>
</g>
<!-- FormsModule&#45;&gt;PaymentComponentModule -->
<g id="edge7" class="edge">
<title>FormsModule&#45;&gt;PaymentComponentModule</title>
<path fill="none" stroke="black" d="M1620,-85.02C1620,-103.63 1620,-129.8 1620,-129.8 1620,-129.8 1166,-129.8 1166,-129.8"/>
<polygon fill="black" stroke="black" points="1166,-126.3 1156,-129.8 1166,-133.3 1166,-126.3"/>
</g>
<!-- BsDropdownModule -->
<g id="node9" class="node">
<title>BsDropdownModule</title>
<polygon fill="#8dd3c7" stroke="black" points="1554.2,-84.8 1551.2,-88.8 1530.2,-88.8 1527.2,-84.8 1419.8,-84.8 1419.8,-48.8 1554.2,-48.8 1554.2,-84.8"/>
<text text-anchor="middle" x="1487" y="-62.6" font-family="Times,serif" font-size="14.00">BsDropdownModule</text>
</g>
<!-- BsDropdownModule&#45;&gt;PaymentComponentModule -->
<g id="edge8" class="edge">
<title>BsDropdownModule&#45;&gt;PaymentComponentModule</title>
<path fill="none" stroke="black" d="M1487,-84.83C1487,-101.86 1487,-124.8 1487,-124.8 1487,-124.8 1166.12,-124.8 1166.12,-124.8"/>
<polygon fill="black" stroke="black" points="1166.12,-121.3 1156.12,-124.8 1166.12,-128.3 1166.12,-121.3"/>
</g>
<!-- BsDatepickerModule.forRoot() -->
<g id="node10" class="node">
<title>BsDatepickerModule.forRoot()</title>
<polygon fill="#8dd3c7" stroke="black" points="1402.11,-84.8 1399.11,-88.8 1378.11,-88.8 1375.11,-84.8 1209.89,-84.8 1209.89,-48.8 1402.11,-48.8 1402.11,-84.8"/>
<text text-anchor="middle" x="1306" y="-62.6" font-family="Times,serif" font-size="14.00">BsDatepickerModule.forRoot()</text>
</g>
<!-- BsDatepickerModule.forRoot()&#45;&gt;PaymentComponentModule -->
<g id="edge9" class="edge">
<title>BsDatepickerModule.forRoot()&#45;&gt;PaymentComponentModule</title>
<path fill="none" stroke="black" d="M1258.93,-85.04C1258.93,-100.37 1258.93,-119.8 1258.93,-119.8 1258.93,-119.8 1165.91,-119.8 1165.91,-119.8"/>
<polygon fill="black" stroke="black" points="1165.91,-116.3 1155.91,-119.8 1165.91,-123.3 1165.91,-116.3"/>
</g>
<!-- LaddaModule -->
<g id="node11" class="node">
<title>LaddaModule</title>
<polygon fill="#8dd3c7" stroke="black" points="1192.03,-84.8 1189.03,-88.8 1168.03,-88.8 1165.03,-84.8 1097.97,-84.8 1097.97,-48.8 1192.03,-48.8 1192.03,-84.8"/>
<text text-anchor="middle" x="1145" y="-62.6" font-family="Times,serif" font-size="14.00">LaddaModule</text>
</g>
<!-- LaddaModule&#45;&gt;PaymentComponentModule -->
<g id="edge10" class="edge">
<title>LaddaModule&#45;&gt;PaymentComponentModule</title>
<path fill="none" stroke="black" d="M1126.84,-84.91C1126.84,-84.91 1126.84,-103.79 1126.84,-103.79"/>
<polygon fill="black" stroke="black" points="1123.34,-103.79 1126.84,-113.79 1130.34,-103.79 1123.34,-103.79"/>
</g>
<!-- TranslateModule.forChild() -->
<g id="node12" class="node">
<title>TranslateModule.forChild()</title>
<polygon fill="#8dd3c7" stroke="black" points="1079.89,-84.8 1076.89,-88.8 1055.89,-88.8 1052.89,-84.8 908.11,-84.8 908.11,-48.8 1079.89,-48.8 1079.89,-84.8"/>
<text text-anchor="middle" x="994" y="-62.6" font-family="Times,serif" font-size="14.00">TranslateModule.forChild()</text>
</g>
<!-- TranslateModule.forChild()&#45;&gt;PaymentComponentModule -->
<g id="edge11" class="edge">
<title>TranslateModule.forChild()&#45;&gt;PaymentComponentModule</title>
<path fill="none" stroke="black" d="M1031,-84.91C1031,-84.91 1031,-103.79 1031,-103.79"/>
<polygon fill="black" stroke="black" points="1027.5,-103.79 1031,-113.79 1034.5,-103.79 1027.5,-103.79"/>
</g>
<!-- TooltipModule.forRoot() -->
<g id="node13" class="node">
<title>TooltipModule.forRoot()</title>
<polygon fill="#8dd3c7" stroke="black" points="889.64,-84.8 886.64,-88.8 865.64,-88.8 862.64,-84.8 732.36,-84.8 732.36,-48.8 889.64,-48.8 889.64,-84.8"/>
<text text-anchor="middle" x="811" y="-62.6" font-family="Times,serif" font-size="14.00">TooltipModule.forRoot()</text>
</g>
<!-- TooltipModule.forRoot()&#45;&gt;PaymentComponentModule -->
<g id="edge12" class="edge">
<title>TooltipModule.forRoot()&#45;&gt;PaymentComponentModule</title>
<path fill="none" stroke="black" d="M847.62,-85.04C847.62,-100.37 847.62,-119.8 847.62,-119.8 847.62,-119.8 971.82,-119.8 971.82,-119.8"/>
<polygon fill="black" stroke="black" points="971.82,-123.3 981.82,-119.8 971.82,-116.3 971.82,-123.3"/>
</g>
</g>
</svg>
