<?xml version="1.0" encoding="UTF-8" standalone="no"?>
<!DOCTYPE svg PUBLIC "-//W3C//DTD SVG 1.1//EN"
 "http://www.w3.org/Graphics/SVG/1.1/DTD/svg11.dtd">
<!-- Generated by graphviz version 2.47.3 (20210619.1520)
 -->
<!-- Title: dependencies Pages: 1 -->
<svg width="1678pt" height="174pt"
 viewBox="0.00 0.00 1678.00 173.80" xmlns="http://www.w3.org/2000/svg" xmlns:xlink="http://www.w3.org/1999/xlink">
<g id="graph0" class="graph" transform="scale(1 1) rotate(0) translate(4 169.8)">
<title>dependencies</title>
<polygon fill="white" stroke="transparent" points="-4,4 -4,-169.8 1674,-169.8 1674,4 -4,4"/>
<text text-anchor="middle" x="835" y="-8.2" font-family="sans-serif" font-size="14.00">dependencies</text>
<g id="clust1" class="cluster">
<title>cluster_CartsModule</title>
<polygon fill="none" stroke="black" stroke-dasharray="1,5" points="8,-32.8 8,-157.8 1662,-157.8 1662,-32.8 8,-32.8"/>
</g>
<g id="clust6" class="cluster">
<title>cluster_CartsModule_imports</title>
<polygon fill="none" stroke="black" points="480,-40.8 480,-92.8 1654,-92.8 1654,-40.8 480,-40.8"/>
</g>
<g id="clust2" class="cluster">
<title>cluster_CartsModule_declarations</title>
<polygon fill="none" stroke="black" points="16,-40.8 16,-92.8 472,-92.8 472,-40.8 16,-40.8"/>
</g>
<!-- CartDetailComponent -->
<g id="node1" class="node">
<title>CartDetailComponent</title>
<polygon fill="#ffffb3" stroke="black" points="463.64,-84.8 324.36,-84.8 324.36,-48.8 463.64,-48.8 463.64,-84.8"/>
<text text-anchor="middle" x="394" y="-62.6" font-family="Times,serif" font-size="14.00">CartDetailComponent</text>
</g>
<!-- CartsModule -->
<g id="node4" class="node">
<title>CartsModule</title>
<polygon fill="#8dd3c7" stroke="black" points="822.6,-149.8 819.6,-153.8 798.6,-153.8 795.6,-149.8 733.4,-149.8 733.4,-113.8 822.6,-113.8 822.6,-149.8"/>
<text text-anchor="middle" x="778" y="-127.6" font-family="Times,serif" font-size="14.00">CartsModule</text>
</g>
<!-- CartDetailComponent&#45;&gt;CartsModule -->
<g id="edge1" class="edge">
<title>CartDetailComponent&#45;&gt;CartsModule</title>
<path fill="none" stroke="black" d="M394,-84.91C394,-104.14 394,-131.8 394,-131.8 394,-131.8 723.2,-131.8 723.2,-131.8"/>
<polygon fill="black" stroke="black" points="723.2,-135.3 733.2,-131.8 723.2,-128.3 723.2,-135.3"/>
</g>
<!-- CartListComponent -->
<g id="node2" class="node">
<title>CartListComponent</title>
<polygon fill="#ffffb3" stroke="black" points="306.71,-84.8 179.29,-84.8 179.29,-48.8 306.71,-48.8 306.71,-84.8"/>
<text text-anchor="middle" x="243" y="-62.6" font-family="Times,serif" font-size="14.00">CartListComponent</text>
</g>
<!-- CartListComponent&#45;&gt;CartsModule -->
<g id="edge2" class="edge">
<title>CartListComponent&#45;&gt;CartsModule</title>
<path fill="none" stroke="black" d="M243,-85.08C243,-106.12 243,-137.8 243,-137.8 243,-137.8 723.31,-137.8 723.31,-137.8"/>
<polygon fill="black" stroke="black" points="723.31,-141.3 733.31,-137.8 723.31,-134.3 723.31,-141.3"/>
</g>
<!-- CartTableComponent -->
<g id="node3" class="node">
<title>CartTableComponent</title>
<polygon fill="#ffffb3" stroke="black" points="161.81,-84.8 24.19,-84.8 24.19,-48.8 161.81,-48.8 161.81,-84.8"/>
<text text-anchor="middle" x="93" y="-62.6" font-family="Times,serif" font-size="14.00">CartTableComponent</text>
</g>
<!-- CartTableComponent&#45;&gt;CartsModule -->
<g id="edge3" class="edge">
<title>CartTableComponent&#45;&gt;CartsModule</title>
<path fill="none" stroke="black" d="M93,-84.89C93,-107.93 93,-144.8 93,-144.8 93,-144.8 723.32,-144.8 723.32,-144.8"/>
<polygon fill="black" stroke="black" points="723.32,-148.3 733.32,-144.8 723.32,-141.3 723.32,-148.3"/>
</g>
<!-- AlertModule -->
<g id="node5" class="node">
<title>AlertModule</title>
<polygon fill="#8dd3c7" stroke="black" points="1646.31,-84.8 1643.31,-88.8 1622.31,-88.8 1619.31,-84.8 1557.69,-84.8 1557.69,-48.8 1646.31,-48.8 1646.31,-84.8"/>
<text text-anchor="middle" x="1602" y="-62.6" font-family="Times,serif" font-size="14.00">AlertModule</text>
</g>
<!-- AlertModule&#45;&gt;CartsModule -->
<g id="edge4" class="edge">
<title>AlertModule&#45;&gt;CartsModule</title>
<path fill="none" stroke="black" d="M1602,-84.89C1602,-107.93 1602,-144.8 1602,-144.8 1602,-144.8 832.59,-144.8 832.59,-144.8"/>
<polygon fill="black" stroke="black" points="832.59,-141.3 822.59,-144.8 832.59,-148.3 832.59,-141.3"/>
</g>
<!-- CartsRoutingModule -->
<g id="node6" class="node">
<title>CartsRoutingModule</title>
<polygon fill="#8dd3c7" stroke="black" points="1540.21,-84.8 1537.21,-88.8 1516.21,-88.8 1513.21,-84.8 1405.79,-84.8 1405.79,-48.8 1540.21,-48.8 1540.21,-84.8"/>
<text text-anchor="middle" x="1473" y="-62.6" font-family="Times,serif" font-size="14.00">CartsRoutingModule</text>
</g>
<!-- CartsRoutingModule&#45;&gt;CartsModule -->
<g id="edge5" class="edge">
<title>CartsRoutingModule&#45;&gt;CartsModule</title>
<path fill="none" stroke="black" d="M1473,-85.08C1473,-106.12 1473,-137.8 1473,-137.8 1473,-137.8 832.8,-137.8 832.8,-137.8"/>
<polygon fill="black" stroke="black" points="832.8,-134.3 822.8,-137.8 832.8,-141.3 832.8,-134.3"/>
</g>
<!-- ConfigurationSummaryModule -->
<g id="node7" class="node">
<title>ConfigurationSummaryModule</title>
<polygon fill="#8dd3c7" stroke="black" points="1388.03,-84.8 1385.03,-88.8 1364.03,-88.8 1361.03,-84.8 1195.97,-84.8 1195.97,-48.8 1388.03,-48.8 1388.03,-84.8"/>
<text text-anchor="middle" x="1292" y="-62.6" font-family="Times,serif" font-size="14.00">ConfigurationSummaryModule</text>
</g>
<!-- ConfigurationSummaryModule&#45;&gt;CartsModule -->
<g id="edge6" class="edge">
<title>ConfigurationSummaryModule&#45;&gt;CartsModule</title>
<path fill="none" stroke="black" d="M1292,-84.91C1292,-104.14 1292,-131.8 1292,-131.8 1292,-131.8 832.71,-131.8 832.71,-131.8"/>
<polygon fill="black" stroke="black" points="832.72,-128.3 822.71,-131.8 832.71,-135.3 832.72,-128.3"/>
</g>
<!-- ConstraintRuleModule -->
<g id="node8" class="node">
<title>ConstraintRuleModule</title>
<polygon fill="#8dd3c7" stroke="black" points="1178.32,-84.8 1175.32,-88.8 1154.32,-88.8 1151.32,-84.8 1033.68,-84.8 1033.68,-48.8 1178.32,-48.8 1178.32,-84.8"/>
<text text-anchor="middle" x="1106" y="-62.6" font-family="Times,serif" font-size="14.00">ConstraintRuleModule</text>
</g>
<!-- ConstraintRuleModule&#45;&gt;CartsModule -->
<g id="edge7" class="edge">
<title>ConstraintRuleModule&#45;&gt;CartsModule</title>
<path fill="none" stroke="black" d="M1106,-84.82C1106,-102.17 1106,-125.8 1106,-125.8 1106,-125.8 832.58,-125.8 832.58,-125.8"/>
<polygon fill="black" stroke="black" points="832.58,-122.3 822.58,-125.8 832.58,-129.3 832.58,-122.3"/>
</g>
<!-- LineItemTableRowModule -->
<g id="node9" class="node">
<title>LineItemTableRowModule</title>
<polygon fill="#8dd3c7" stroke="black" points="1015.68,-84.8 1012.68,-88.8 991.68,-88.8 988.68,-84.8 846.32,-84.8 846.32,-48.8 1015.68,-48.8 1015.68,-84.8"/>
<text text-anchor="middle" x="931" y="-62.6" font-family="Times,serif" font-size="14.00">LineItemTableRowModule</text>
</g>
<!-- LineItemTableRowModule&#45;&gt;CartsModule -->
<g id="edge8" class="edge">
<title>LineItemTableRowModule&#45;&gt;CartsModule</title>
<path fill="none" stroke="black" d="M931,-85.04C931,-100.37 931,-119.8 931,-119.8 931,-119.8 832.67,-119.8 832.67,-119.8"/>
<polygon fill="black" stroke="black" points="832.67,-116.3 822.67,-119.8 832.67,-123.3 832.67,-116.3"/>
</g>
<!-- PricingModule -->
<g id="node10" class="node">
<title>PricingModule</title>
<polygon fill="#8dd3c7" stroke="black" points="827.99,-84.8 824.99,-88.8 803.99,-88.8 800.99,-84.8 728.01,-84.8 728.01,-48.8 827.99,-48.8 827.99,-84.8"/>
<text text-anchor="middle" x="778" y="-62.6" font-family="Times,serif" font-size="14.00">PricingModule</text>
</g>
<!-- PricingModule&#45;&gt;CartsModule -->
<g id="edge9" class="edge">
<title>PricingModule&#45;&gt;CartsModule</title>
<path fill="none" stroke="black" d="M778,-84.91C778,-84.91 778,-103.79 778,-103.79"/>
<polygon fill="black" stroke="black" points="774.5,-103.79 778,-113.79 781.5,-103.79 774.5,-103.79"/>
</g>
<!-- SelectAllModule -->
<g id="node11" class="node">
<title>SelectAllModule</title>
<polygon fill="#8dd3c7" stroke="black" points="709.65,-84.8 706.65,-88.8 685.65,-88.8 682.65,-84.8 598.35,-84.8 598.35,-48.8 709.65,-48.8 709.65,-84.8"/>
<text text-anchor="middle" x="654" y="-62.6" font-family="Times,serif" font-size="14.00">SelectAllModule</text>
</g>
<!-- SelectAllModule&#45;&gt;CartsModule -->
<g id="edge10" class="edge">
<title>SelectAllModule&#45;&gt;CartsModule</title>
<path fill="none" stroke="black" d="M654,-85.04C654,-100.37 654,-119.8 654,-119.8 654,-119.8 723.23,-119.8 723.23,-119.8"/>
<polygon fill="black" stroke="black" points="723.23,-123.3 733.23,-119.8 723.23,-116.3 723.23,-123.3"/>
</g>
<!-- TableModule -->
<g id="node12" class="node">
<title>TableModule</title>
<polygon fill="#8dd3c7" stroke="black" points="579.92,-84.8 576.92,-88.8 555.92,-88.8 552.92,-84.8 488.08,-84.8 488.08,-48.8 579.92,-48.8 579.92,-84.8"/>
<text text-anchor="middle" x="534" y="-62.6" font-family="Times,serif" font-size="14.00">TableModule</text>
</g>
<!-- TableModule&#45;&gt;CartsModule -->
<g id="edge11" class="edge">
<title>TableModule&#45;&gt;CartsModule</title>
<path fill="none" stroke="black" d="M534,-84.82C534,-102.17 534,-125.8 534,-125.8 534,-125.8 723.25,-125.8 723.25,-125.8"/>
<polygon fill="black" stroke="black" points="723.25,-129.3 733.25,-125.8 723.25,-122.3 723.25,-129.3"/>
</g>
</g>
</svg>
