<?xml version="1.0" encoding="UTF-8" standalone="no"?>
<!DOCTYPE svg PUBLIC "-//W3C//DTD SVG 1.1//EN"
 "http://www.w3.org/Graphics/SVG/1.1/DTD/svg11.dtd">
<!-- Generated by graphviz version 2.47.3 (20210619.1520)
 -->
<!-- Title: dependencies Pages: 1 -->
<svg width="1548pt" height="174pt"
 viewBox="0.00 0.00 1548.00 173.80" xmlns="http://www.w3.org/2000/svg" xmlns:xlink="http://www.w3.org/1999/xlink">
<g id="graph0" class="graph" transform="scale(1 1) rotate(0) translate(4 169.8)">
<title>dependencies</title>
<polygon fill="white" stroke="transparent" points="-4,4 -4,-169.8 1544,-169.8 1544,4 -4,4"/>
<text text-anchor="middle" x="770" y="-8.2" font-family="sans-serif" font-size="14.00">dependencies</text>
<g id="clust1" class="cluster">
<title>cluster_CartsModule</title>
<polygon fill="none" stroke="black" stroke-dasharray="1,5" points="8,-32.8 8,-157.8 1532,-157.8 1532,-32.8 8,-32.8"/>
</g>
<g id="clust2" class="cluster">
<title>cluster_CartsModule_declarations</title>
<polygon fill="none" stroke="black" points="1068,-40.8 1068,-92.8 1524,-92.8 1524,-40.8 1068,-40.8"/>
</g>
<g id="clust6" class="cluster">
<title>cluster_CartsModule_imports</title>
<polygon fill="none" stroke="black" points="16,-40.8 16,-92.8 1060,-92.8 1060,-40.8 16,-40.8"/>
</g>
<!-- CartDetailComponent -->
<g id="node1" class="node">
<title>CartDetailComponent</title>
<polygon fill="#ffffb3" stroke="black" points="1515.64,-84.8 1376.36,-84.8 1376.36,-48.8 1515.64,-48.8 1515.64,-84.8"/>
<text text-anchor="middle" x="1446" y="-62.6" font-family="Times,serif" font-size="14.00">CartDetailComponent</text>
</g>
<!-- CartsModule -->
<g id="node4" class="node">
<title>CartsModule</title>
<polygon fill="#8dd3c7" stroke="black" points="832.6,-149.8 829.6,-153.8 808.6,-153.8 805.6,-149.8 743.4,-149.8 743.4,-113.8 832.6,-113.8 832.6,-149.8"/>
<text text-anchor="middle" x="788" y="-127.6" font-family="Times,serif" font-size="14.00">CartsModule</text>
</g>
<!-- CartDetailComponent&#45;&gt;CartsModule -->
<g id="edge1" class="edge">
<title>CartDetailComponent&#45;&gt;CartsModule</title>
<path fill="none" stroke="black" d="M1446,-84.81C1446,-107.29 1446,-142.8 1446,-142.8 1446,-142.8 842.71,-142.8 842.71,-142.8"/>
<polygon fill="black" stroke="black" points="842.71,-139.3 832.71,-142.8 842.71,-146.3 842.71,-139.3"/>
</g>
<!-- CartListComponent -->
<g id="node2" class="node">
<title>CartListComponent</title>
<polygon fill="#ffffb3" stroke="black" points="1358.71,-84.8 1231.29,-84.8 1231.29,-48.8 1358.71,-48.8 1358.71,-84.8"/>
<text text-anchor="middle" x="1295" y="-62.6" font-family="Times,serif" font-size="14.00">CartListComponent</text>
</g>
<!-- CartListComponent&#45;&gt;CartsModule -->
<g id="edge2" class="edge">
<title>CartListComponent&#45;&gt;CartsModule</title>
<path fill="none" stroke="black" d="M1295,-84.93C1295,-105.37 1295,-135.8 1295,-135.8 1295,-135.8 842.55,-135.8 842.55,-135.8"/>
<polygon fill="black" stroke="black" points="842.55,-132.3 832.55,-135.8 842.55,-139.3 842.55,-132.3"/>
</g>
<!-- CartTableComponent -->
<g id="node3" class="node">
<title>CartTableComponent</title>
<polygon fill="#ffffb3" stroke="black" points="1213.81,-84.8 1076.19,-84.8 1076.19,-48.8 1213.81,-48.8 1213.81,-84.8"/>
<text text-anchor="middle" x="1145" y="-62.6" font-family="Times,serif" font-size="14.00">CartTableComponent</text>
</g>
<!-- CartTableComponent&#45;&gt;CartsModule -->
<g id="edge3" class="edge">
<title>CartTableComponent&#45;&gt;CartsModule</title>
<path fill="none" stroke="black" d="M1145,-85.07C1145,-103.36 1145,-128.8 1145,-128.8 1145,-128.8 842.85,-128.8 842.85,-128.8"/>
<polygon fill="black" stroke="black" points="842.85,-125.3 832.85,-128.8 842.85,-132.3 842.85,-125.3"/>
</g>
<!-- AlertModule -->
<g id="node5" class="node">
<title>AlertModule</title>
<polygon fill="#8dd3c7" stroke="black" points="1052.31,-84.8 1049.31,-88.8 1028.31,-88.8 1025.31,-84.8 963.69,-84.8 963.69,-48.8 1052.31,-48.8 1052.31,-84.8"/>
<text text-anchor="middle" x="1008" y="-62.6" font-family="Times,serif" font-size="14.00">AlertModule</text>
</g>
<!-- AlertModule&#45;&gt;CartsModule -->
<g id="edge4" class="edge">
<title>AlertModule&#45;&gt;CartsModule</title>
<path fill="none" stroke="black" d="M1008,-84.81C1008,-100.85 1008,-121.8 1008,-121.8 1008,-121.8 842.79,-121.8 842.79,-121.8"/>
<polygon fill="black" stroke="black" points="842.79,-118.3 832.79,-121.8 842.79,-125.3 842.79,-118.3"/>
</g>
<!-- CartsRoutingModule -->
<g id="node6" class="node">
<title>CartsRoutingModule</title>
<polygon fill="#8dd3c7" stroke="black" points="946.21,-84.8 943.21,-88.8 922.21,-88.8 919.21,-84.8 811.79,-84.8 811.79,-48.8 946.21,-48.8 946.21,-84.8"/>
<text text-anchor="middle" x="879" y="-62.6" font-family="Times,serif" font-size="14.00">CartsRoutingModule</text>
</g>
<!-- CartsRoutingModule&#45;&gt;CartsModule -->
<g id="edge5" class="edge">
<title>CartsRoutingModule&#45;&gt;CartsModule</title>
<path fill="none" stroke="black" d="M822.22,-84.91C822.22,-84.91 822.22,-103.79 822.22,-103.79"/>
<polygon fill="black" stroke="black" points="818.72,-103.79 822.22,-113.79 825.72,-103.79 818.72,-103.79"/>
</g>
<!-- ConfigurationSummaryModule -->
<g id="node7" class="node">
<title>ConfigurationSummaryModule</title>
<polygon fill="#8dd3c7" stroke="black" points="794.03,-84.8 791.03,-88.8 770.03,-88.8 767.03,-84.8 601.97,-84.8 601.97,-48.8 794.03,-48.8 794.03,-84.8"/>
<text text-anchor="middle" x="698" y="-62.6" font-family="Times,serif" font-size="14.00">ConfigurationSummaryModule</text>
</g>
<!-- ConfigurationSummaryModule&#45;&gt;CartsModule -->
<g id="edge6" class="edge">
<title>ConfigurationSummaryModule&#45;&gt;CartsModule</title>
<path fill="none" stroke="black" d="M768.86,-84.91C768.86,-84.91 768.86,-103.79 768.86,-103.79"/>
<polygon fill="black" stroke="black" points="765.36,-103.79 768.86,-113.79 772.36,-103.79 765.36,-103.79"/>
</g>
<!-- ConstraintRuleModule -->
<g id="node8" class="node">
<title>ConstraintRuleModule</title>
<polygon fill="#8dd3c7" stroke="black" points="584.32,-84.8 581.32,-88.8 560.32,-88.8 557.32,-84.8 439.68,-84.8 439.68,-48.8 584.32,-48.8 584.32,-84.8"/>
<text text-anchor="middle" x="512" y="-62.6" font-family="Times,serif" font-size="14.00">ConstraintRuleModule</text>
</g>
<!-- ConstraintRuleModule&#45;&gt;CartsModule -->
<g id="edge7" class="edge">
<title>ConstraintRuleModule&#45;&gt;CartsModule</title>
<path fill="none" stroke="black" d="M512,-84.81C512,-100.85 512,-121.8 512,-121.8 512,-121.8 733.35,-121.8 733.35,-121.8"/>
<polygon fill="black" stroke="black" points="733.35,-125.3 743.35,-121.8 733.35,-118.3 733.35,-125.3"/>
</g>
<!-- LineItemTableRowModule -->
<g id="node9" class="node">
<title>LineItemTableRowModule</title>
<polygon fill="#8dd3c7" stroke="black" points="421.68,-84.8 418.68,-88.8 397.68,-88.8 394.68,-84.8 252.32,-84.8 252.32,-48.8 421.68,-48.8 421.68,-84.8"/>
<text text-anchor="middle" x="337" y="-62.6" font-family="Times,serif" font-size="14.00">LineItemTableRowModule</text>
</g>
<!-- LineItemTableRowModule&#45;&gt;CartsModule -->
<g id="edge8" class="edge">
<title>LineItemTableRowModule&#45;&gt;CartsModule</title>
<path fill="none" stroke="black" d="M337,-85.07C337,-103.36 337,-128.8 337,-128.8 337,-128.8 733.11,-128.8 733.11,-128.8"/>
<polygon fill="black" stroke="black" points="733.11,-132.3 743.11,-128.8 733.11,-125.3 733.11,-132.3"/>
</g>
<!-- PricingModule -->
<g id="node10" class="node">
<title>PricingModule</title>
<polygon fill="#8dd3c7" stroke="black" points="233.99,-84.8 230.99,-88.8 209.99,-88.8 206.99,-84.8 134.01,-84.8 134.01,-48.8 233.99,-48.8 233.99,-84.8"/>
<text text-anchor="middle" x="184" y="-62.6" font-family="Times,serif" font-size="14.00">PricingModule</text>
</g>
<!-- PricingModule&#45;&gt;CartsModule -->
<g id="edge9" class="edge">
<title>PricingModule&#45;&gt;CartsModule</title>
<path fill="none" stroke="black" d="M184,-84.93C184,-105.37 184,-135.8 184,-135.8 184,-135.8 733.1,-135.8 733.1,-135.8"/>
<polygon fill="black" stroke="black" points="733.1,-139.3 743.1,-135.8 733.1,-132.3 733.1,-139.3"/>
</g>
<!-- TableModule -->
<g id="node11" class="node">
<title>TableModule</title>
<polygon fill="#8dd3c7" stroke="black" points="115.92,-84.8 112.92,-88.8 91.92,-88.8 88.92,-84.8 24.08,-84.8 24.08,-48.8 115.92,-48.8 115.92,-84.8"/>
<text text-anchor="middle" x="70" y="-62.6" font-family="Times,serif" font-size="14.00">TableModule</text>
</g>
<!-- TableModule&#45;&gt;CartsModule -->
<g id="edge10" class="edge">
<title>TableModule&#45;&gt;CartsModule</title>
<path fill="none" stroke="black" d="M70,-84.81C70,-107.29 70,-142.8 70,-142.8 70,-142.8 733.36,-142.8 733.36,-142.8"/>
<polygon fill="black" stroke="black" points="733.36,-146.3 743.36,-142.8 733.36,-139.3 733.36,-146.3"/>
</g>
</g>
</svg>
