<?xml version="1.0" encoding="UTF-8" standalone="no"?>
<!DOCTYPE svg PUBLIC "-//W3C//DTD SVG 1.1//EN"
 "http://www.w3.org/Graphics/SVG/1.1/DTD/svg11.dtd">
<!-- Generated by graphviz version 2.47.3 (20210619.1520)
 -->
<!-- Title: dependencies Pages: 1 -->
<svg width="756pt" height="312pt"
 viewBox="0.00 0.00 756.00 311.80" xmlns="http://www.w3.org/2000/svg" xmlns:xlink="http://www.w3.org/1999/xlink">
<g id="graph0" class="graph" transform="scale(1 1) rotate(0) translate(4 307.8)">
<title>dependencies</title>
<polygon fill="white" stroke="transparent" points="-4,4 -4,-307.8 752,-307.8 752,4 -4,4"/>
<text text-anchor="middle" x="374" y="-8.2" font-family="sans-serif" font-size="14.00">dependencies</text>
<g id="clust1" class="cluster">
<title>cluster_InputQuantityModule</title>
<polygon fill="none" stroke="black" stroke-dasharray="1,5" points="8,-32.8 8,-295.8 740,-295.8 740,-32.8 8,-32.8"/>
</g>
<g id="clust2" class="cluster">
<title>cluster_InputQuantityModule_declarations</title>
<polygon fill="none" stroke="black" points="455,-105.8 455,-157.8 631,-157.8 631,-105.8 455,-105.8"/>
</g>
<g id="clust5" class="cluster">
<title>cluster_InputQuantityModule_exports</title>
<polygon fill="none" stroke="black" points="232,-235.8 232,-287.8 412,-287.8 412,-235.8 232,-235.8"/>
</g>
<g id="clust3" class="cluster">
<title>cluster_InputQuantityModule_InputQuantityComponent_providers</title>
<polygon fill="none" stroke="black" points="16,-40.8 16,-92.8 732,-92.8 732,-40.8 16,-40.8"/>
</g>
<g id="clust4" class="cluster">
<title>cluster_InputQuantityModule_imports</title>
<polygon fill="none" stroke="black" points="16,-105.8 16,-157.8 447,-157.8 447,-105.8 16,-105.8"/>
</g>
<!-- InputQuantityComponent -->
<g id="node1" class="node">
<title>InputQuantityComponent</title>
<polygon fill="#ffffb3" stroke="black" points="622.88,-149.8 463.12,-149.8 463.12,-113.8 622.88,-113.8 622.88,-149.8"/>
<text text-anchor="middle" x="543" y="-127.6" font-family="Times,serif" font-size="14.00">InputQuantityComponent</text>
</g>
<!-- InputQuantityModule -->
<g id="node2" class="node">
<title>InputQuantityModule</title>
<polygon fill="#8dd3c7" stroke="black" points="391.09,-214.8 388.09,-218.8 367.09,-218.8 364.09,-214.8 252.91,-214.8 252.91,-178.8 391.09,-178.8 391.09,-214.8"/>
<text text-anchor="middle" x="322" y="-192.6" font-family="Times,serif" font-size="14.00">InputQuantityModule</text>
</g>
<!-- InputQuantityComponent&#45;&gt;InputQuantityModule -->
<g id="edge1" class="edge">
<title>InputQuantityComponent&#45;&gt;InputQuantityModule</title>
<path fill="none" stroke="black" d="M543,-149.91C543,-169.14 543,-196.8 543,-196.8 543,-196.8 401.32,-196.8 401.32,-196.8"/>
<polygon fill="black" stroke="black" points="401.32,-193.3 391.32,-196.8 401.32,-200.3 401.32,-193.3"/>
</g>
<!-- InputQuantityComponent  -->
<g id="node7" class="node">
<title>InputQuantityComponent </title>
<polygon fill="#fb8072" stroke="black" points="403.88,-279.8 240.12,-279.8 240.12,-243.8 403.88,-243.8 403.88,-279.8"/>
<text text-anchor="middle" x="322" y="-257.6" font-family="Times,serif" font-size="14.00">InputQuantityComponent </text>
</g>
<!-- InputQuantityModule&#45;&gt;InputQuantityComponent  -->
<g id="edge6" class="edge">
<title>InputQuantityModule&#45;&gt;InputQuantityComponent </title>
<path fill="none" stroke="black" stroke-dasharray="5,2" d="M322,-214.91C322,-214.91 322,-233.79 322,-233.79"/>
<polygon fill="black" stroke="black" points="318.5,-233.79 322,-243.79 325.5,-233.79 318.5,-233.79"/>
</g>
<!-- { provide: NG_VALUE_ACCESSOR, useExisting: InputQuantityComponent, multi: &#160;} -->
<g id="node3" class="node">
<title>{ provide: NG_VALUE_ACCESSOR, useExisting: InputQuantityComponent, multi: &#160;}</title>
<ellipse fill="#fdb462" stroke="black" cx="374" cy="-66.8" rx="350.49" ry="18"/>
<text text-anchor="middle" x="374" y="-62.6" font-family="Times,serif" font-size="14.00">{ provide: NG_VALUE_ACCESSOR, useExisting: InputQuantityComponent, multi: &#160;}</text>
</g>
<!-- { provide: NG_VALUE_ACCESSOR, useExisting: InputQuantityComponent, multi: &#160;}&#45;&gt;InputQuantityComponent -->
<g id="edge2" class="edge">
<title>{ provide: NG_VALUE_ACCESSOR, useExisting: InputQuantityComponent, multi: &#160;}&#45;&gt;InputQuantityComponent</title>
<path fill="none" stroke="black" d="M543,-82.87C543,-82.87 543,-103.62 543,-103.62"/>
<polygon fill="black" stroke="black" points="539.5,-103.62 543,-113.62 546.5,-103.62 539.5,-103.62"/>
</g>
<!-- CommonModule -->
<g id="node4" class="node">
<title>CommonModule</title>
<polygon fill="#8dd3c7" stroke="black" points="438.67,-149.8 435.67,-153.8 414.67,-153.8 411.67,-149.8 327.33,-149.8 327.33,-113.8 438.67,-113.8 438.67,-149.8"/>
<text text-anchor="middle" x="383" y="-127.6" font-family="Times,serif" font-size="14.00">CommonModule</text>
</g>
<!-- CommonModule&#45;&gt;InputQuantityModule -->
<g id="edge3" class="edge">
<title>CommonModule&#45;&gt;InputQuantityModule</title>
<path fill="none" stroke="black" d="M359.11,-149.91C359.11,-149.91 359.11,-168.79 359.11,-168.79"/>
<polygon fill="black" stroke="black" points="355.61,-168.79 359.11,-178.79 362.61,-168.79 355.61,-168.79"/>
</g>
<!-- FormsModule -->
<g id="node5" class="node">
<title>FormsModule</title>
<polygon fill="#8dd3c7" stroke="black" points="309.83,-149.8 306.83,-153.8 285.83,-153.8 282.83,-149.8 214.17,-149.8 214.17,-113.8 309.83,-113.8 309.83,-149.8"/>
<text text-anchor="middle" x="262" y="-127.6" font-family="Times,serif" font-size="14.00">FormsModule</text>
</g>
<!-- FormsModule&#45;&gt;InputQuantityModule -->
<g id="edge4" class="edge">
<title>FormsModule&#45;&gt;InputQuantityModule</title>
<path fill="none" stroke="black" d="M281.31,-149.91C281.31,-149.91 281.31,-168.79 281.31,-168.79"/>
<polygon fill="black" stroke="black" points="277.81,-168.79 281.31,-178.79 284.81,-168.79 277.81,-168.79"/>
</g>
<!-- TranslateModule.forChild() -->
<g id="node6" class="node">
<title>TranslateModule.forChild()</title>
<polygon fill="#8dd3c7" stroke="black" points="195.89,-149.8 192.89,-153.8 171.89,-153.8 168.89,-149.8 24.11,-149.8 24.11,-113.8 195.89,-113.8 195.89,-149.8"/>
<text text-anchor="middle" x="110" y="-127.6" font-family="Times,serif" font-size="14.00">TranslateModule.forChild()</text>
</g>
<!-- TranslateModule.forChild()&#45;&gt;InputQuantityModule -->
<g id="edge5" class="edge">
<title>TranslateModule.forChild()&#45;&gt;InputQuantityModule</title>
<path fill="none" stroke="black" d="M110,-149.91C110,-169.14 110,-196.8 110,-196.8 110,-196.8 242.88,-196.8 242.88,-196.8"/>
<polygon fill="black" stroke="black" points="242.88,-200.3 252.88,-196.8 242.88,-193.3 242.88,-200.3"/>
</g>
</g>
</svg>
