<?xml version="1.0" encoding="UTF-8" standalone="no"?>
<!DOCTYPE svg PUBLIC "-//W3C//DTD SVG 1.1//EN"
 "http://www.w3.org/Graphics/SVG/1.1/DTD/svg11.dtd">
<!-- Generated by graphviz version 2.47.3 (20210619.1520)
 -->
<!-- Title: dependencies Pages: 1 -->
<svg width="918pt" height="312pt"
 viewBox="0.00 0.00 918.00 311.80" xmlns="http://www.w3.org/2000/svg" xmlns:xlink="http://www.w3.org/1999/xlink">
<g id="graph0" class="graph" transform="scale(1 1) rotate(0) translate(4 307.8)">
<title>dependencies</title>
<polygon fill="white" stroke="transparent" points="-4,4 -4,-307.8 914,-307.8 914,4 -4,4"/>
<text text-anchor="middle" x="455" y="-8.2" font-family="sans-serif" font-size="14.00">dependencies</text>
<g id="clust1" class="cluster">
<title>cluster_AddressModule</title>
<polygon fill="none" stroke="black" stroke-dasharray="1,5" points="8,-32.8 8,-295.8 902,-295.8 902,-32.8 8,-32.8"/>
</g>
<g id="clust4" class="cluster">
<title>cluster_AddressModule_imports</title>
<polygon fill="none" stroke="black" points="168,-105.8 168,-157.8 894,-157.8 894,-105.8 168,-105.8"/>
</g>
<g id="clust2" class="cluster">
<title>cluster_AddressModule_declarations</title>
<polygon fill="none" stroke="black" points="16,-105.8 16,-157.8 160,-157.8 160,-105.8 16,-105.8"/>
</g>
<g id="clust5" class="cluster">
<title>cluster_AddressModule_exports</title>
<polygon fill="none" stroke="black" points="398,-235.8 398,-287.8 544,-287.8 544,-235.8 398,-235.8"/>
</g>
<g id="clust3" class="cluster">
<title>cluster_AddressModule_AddressComponent_providers</title>
<polygon fill="none" stroke="black" points="16,-40.8 16,-92.8 688,-92.8 688,-40.8 16,-40.8"/>
</g>
<!-- AddressComponent -->
<g id="node1" class="node">
<title>AddressComponent</title>
<polygon fill="#ffffb3" stroke="black" points="151.7,-149.8 24.3,-149.8 24.3,-113.8 151.7,-113.8 151.7,-149.8"/>
<text text-anchor="middle" x="88" y="-127.6" font-family="Times,serif" font-size="14.00">AddressComponent</text>
</g>
<!-- AddressModule -->
<g id="node2" class="node">
<title>AddressModule</title>
<polygon fill="#8dd3c7" stroke="black" points="523.92,-214.8 520.92,-218.8 499.92,-218.8 496.92,-214.8 418.08,-214.8 418.08,-178.8 523.92,-178.8 523.92,-214.8"/>
<text text-anchor="middle" x="471" y="-192.6" font-family="Times,serif" font-size="14.00">AddressModule</text>
</g>
<!-- AddressComponent&#45;&gt;AddressModule -->
<g id="edge1" class="edge">
<title>AddressComponent&#45;&gt;AddressModule</title>
<path fill="none" stroke="black" d="M88,-150.08C88,-171.12 88,-202.8 88,-202.8 88,-202.8 408.15,-202.8 408.15,-202.8"/>
<polygon fill="black" stroke="black" points="408.15,-206.3 418.15,-202.8 408.15,-199.3 408.15,-206.3"/>
</g>
<!-- AddressComponent  -->
<g id="node9" class="node">
<title>AddressComponent </title>
<polygon fill="#fb8072" stroke="black" points="536.2,-279.8 405.8,-279.8 405.8,-243.8 536.2,-243.8 536.2,-279.8"/>
<text text-anchor="middle" x="471" y="-257.6" font-family="Times,serif" font-size="14.00">AddressComponent </text>
</g>
<!-- AddressModule&#45;&gt;AddressComponent  -->
<g id="edge8" class="edge">
<title>AddressModule&#45;&gt;AddressComponent </title>
<path fill="none" stroke="black" stroke-dasharray="5,2" d="M471,-214.91C471,-214.91 471,-233.79 471,-233.79"/>
<polygon fill="black" stroke="black" points="467.5,-233.79 471,-243.79 474.5,-233.79 467.5,-233.79"/>
</g>
<!-- { provide: NG_VALUE_ACCESSOR, useExisting: AddressComponent, multi: &#160;} -->
<g id="node3" class="node">
<title>{ provide: NG_VALUE_ACCESSOR, useExisting: AddressComponent, multi: &#160;}</title>
<ellipse fill="#fdb462" stroke="black" cx="352" cy="-66.8" rx="327.91" ry="18"/>
<text text-anchor="middle" x="352" y="-62.6" font-family="Times,serif" font-size="14.00">{ provide: NG_VALUE_ACCESSOR, useExisting: AddressComponent, multi: &#160;}</text>
</g>
<!-- { provide: NG_VALUE_ACCESSOR, useExisting: AddressComponent, multi: &#160;}&#45;&gt;AddressComponent -->
<g id="edge2" class="edge">
<title>{ provide: NG_VALUE_ACCESSOR, useExisting: AddressComponent, multi: &#160;}&#45;&gt;AddressComponent</title>
<path fill="none" stroke="black" d="M88,-77.53C88,-77.53 88,-103.67 88,-103.67"/>
<polygon fill="black" stroke="black" points="84.5,-103.67 88,-113.67 91.5,-103.67 84.5,-103.67"/>
</g>
<!-- CommonModule -->
<g id="node4" class="node">
<title>CommonModule</title>
<polygon fill="#8dd3c7" stroke="black" points="885.67,-149.8 882.67,-153.8 861.67,-153.8 858.67,-149.8 774.33,-149.8 774.33,-113.8 885.67,-113.8 885.67,-149.8"/>
<text text-anchor="middle" x="830" y="-127.6" font-family="Times,serif" font-size="14.00">CommonModule</text>
</g>
<!-- CommonModule&#45;&gt;AddressModule -->
<g id="edge3" class="edge">
<title>CommonModule&#45;&gt;AddressModule</title>
<path fill="none" stroke="black" d="M830,-150.08C830,-171.12 830,-202.8 830,-202.8 830,-202.8 533.97,-202.8 533.97,-202.8"/>
<polygon fill="black" stroke="black" points="533.97,-199.3 523.97,-202.8 533.97,-206.3 533.97,-199.3"/>
</g>
<!-- DependentPicklistModule -->
<g id="node5" class="node">
<title>DependentPicklistModule</title>
<polygon fill="#8dd3c7" stroke="black" points="756.2,-149.8 753.2,-153.8 732.2,-153.8 729.2,-149.8 593.8,-149.8 593.8,-113.8 756.2,-113.8 756.2,-149.8"/>
<text text-anchor="middle" x="675" y="-127.6" font-family="Times,serif" font-size="14.00">DependentPicklistModule</text>
</g>
<!-- DependentPicklistModule&#45;&gt;AddressModule -->
<g id="edge4" class="edge">
<title>DependentPicklistModule&#45;&gt;AddressModule</title>
<path fill="none" stroke="black" d="M675,-149.82C675,-167.17 675,-190.8 675,-190.8 675,-190.8 533.8,-190.8 533.8,-190.8"/>
<polygon fill="black" stroke="black" points="533.8,-187.3 523.8,-190.8 533.8,-194.3 533.8,-187.3"/>
</g>
<!-- FormsModule -->
<g id="node6" class="node">
<title>FormsModule</title>
<polygon fill="#8dd3c7" stroke="black" points="575.83,-149.8 572.83,-153.8 551.83,-153.8 548.83,-149.8 480.17,-149.8 480.17,-113.8 575.83,-113.8 575.83,-149.8"/>
<text text-anchor="middle" x="528" y="-127.6" font-family="Times,serif" font-size="14.00">FormsModule</text>
</g>
<!-- FormsModule&#45;&gt;AddressModule -->
<g id="edge5" class="edge">
<title>FormsModule&#45;&gt;AddressModule</title>
<path fill="none" stroke="black" d="M502.02,-149.91C502.02,-149.91 502.02,-168.79 502.02,-168.79"/>
<polygon fill="black" stroke="black" points="498.52,-168.79 502.02,-178.79 505.52,-168.79 498.52,-168.79"/>
</g>
<!-- ApttusModule -->
<g id="node7" class="node">
<title>ApttusModule</title>
<polygon fill="#8dd3c7" stroke="black" points="462.38,-149.8 459.38,-153.8 438.38,-153.8 435.38,-149.8 365.62,-149.8 365.62,-113.8 462.38,-113.8 462.38,-149.8"/>
<text text-anchor="middle" x="414" y="-127.6" font-family="Times,serif" font-size="14.00">ApttusModule</text>
</g>
<!-- ApttusModule&#45;&gt;AddressModule -->
<g id="edge6" class="edge">
<title>ApttusModule&#45;&gt;AddressModule</title>
<path fill="none" stroke="black" d="M440.37,-149.91C440.37,-149.91 440.37,-168.79 440.37,-168.79"/>
<polygon fill="black" stroke="black" points="436.87,-168.79 440.37,-178.79 443.87,-168.79 436.87,-168.79"/>
</g>
<!-- TranslateModule.forChild() -->
<g id="node8" class="node">
<title>TranslateModule.forChild()</title>
<polygon fill="#8dd3c7" stroke="black" points="347.89,-149.8 344.89,-153.8 323.89,-153.8 320.89,-149.8 176.11,-149.8 176.11,-113.8 347.89,-113.8 347.89,-149.8"/>
<text text-anchor="middle" x="262" y="-127.6" font-family="Times,serif" font-size="14.00">TranslateModule.forChild()</text>
</g>
<!-- TranslateModule.forChild()&#45;&gt;AddressModule -->
<g id="edge7" class="edge">
<title>TranslateModule.forChild()&#45;&gt;AddressModule</title>
<path fill="none" stroke="black" d="M262,-149.82C262,-167.17 262,-190.8 262,-190.8 262,-190.8 408.26,-190.8 408.26,-190.8"/>
<polygon fill="black" stroke="black" points="408.26,-194.3 418.26,-190.8 408.26,-187.3 408.26,-194.3"/>
</g>
</g>
</svg>
