<?xml version="1.0" encoding="UTF-8" standalone="no"?>
<!DOCTYPE svg PUBLIC "-//W3C//DTD SVG 1.1//EN"
 "http://www.w3.org/Graphics/SVG/1.1/DTD/svg11.dtd">
<!-- Generated by graphviz version 2.47.3 (20210619.1520)
 -->
<!-- Title: dependencies Pages: 1 -->
<svg width="853pt" height="247pt"
 viewBox="0.00 0.00 853.00 246.80" xmlns="http://www.w3.org/2000/svg" xmlns:xlink="http://www.w3.org/1999/xlink">
<g id="graph0" class="graph" transform="scale(1 1) rotate(0) translate(4 242.8)">
<title>dependencies</title>
<polygon fill="white" stroke="transparent" points="-4,4 -4,-242.8 849,-242.8 849,4 -4,4"/>
<text text-anchor="middle" x="422.5" y="-8.2" font-family="sans-serif" font-size="14.00">dependencies</text>
<g id="clust1" class="cluster">
<title>cluster_ProductCarouselModule</title>
<polygon fill="none" stroke="black" stroke-dasharray="1,5" points="8,-32.8 8,-230.8 837,-230.8 837,-32.8 8,-32.8"/>
</g>
<g id="clust5" class="cluster">
<title>cluster_ProductCarouselModule_exports</title>
<polygon fill="none" stroke="black" points="331,-170.8 331,-222.8 525,-222.8 525,-170.8 331,-170.8"/>
</g>
<g id="clust2" class="cluster">
<title>cluster_ProductCarouselModule_declarations</title>
<polygon fill="none" stroke="black" points="639,-40.8 639,-92.8 829,-92.8 829,-40.8 639,-40.8"/>
</g>
<g id="clust4" class="cluster">
<title>cluster_ProductCarouselModule_imports</title>
<polygon fill="none" stroke="black" points="16,-40.8 16,-92.8 631,-92.8 631,-40.8 16,-40.8"/>
</g>
<!-- ProductCarouselComponent -->
<g id="node1" class="node">
<title>ProductCarouselComponent</title>
<polygon fill="#ffffb3" stroke="black" points="821.14,-84.8 646.86,-84.8 646.86,-48.8 821.14,-48.8 821.14,-84.8"/>
<text text-anchor="middle" x="734" y="-62.6" font-family="Times,serif" font-size="14.00">ProductCarouselComponent</text>
</g>
<!-- ProductCarouselModule -->
<g id="node2" class="node">
<title>ProductCarouselModule</title>
<polygon fill="#8dd3c7" stroke="black" points="504.36,-149.8 501.36,-153.8 480.36,-153.8 477.36,-149.8 351.64,-149.8 351.64,-113.8 504.36,-113.8 504.36,-149.8"/>
<text text-anchor="middle" x="428" y="-127.6" font-family="Times,serif" font-size="14.00">ProductCarouselModule</text>
</g>
<!-- ProductCarouselComponent&#45;&gt;ProductCarouselModule -->
<g id="edge1" class="edge">
<title>ProductCarouselComponent&#45;&gt;ProductCarouselModule</title>
<path fill="none" stroke="black" d="M734,-84.91C734,-104.14 734,-131.8 734,-131.8 734,-131.8 514.43,-131.8 514.43,-131.8"/>
<polygon fill="black" stroke="black" points="514.43,-128.3 504.43,-131.8 514.43,-135.3 514.43,-128.3"/>
</g>
<!-- ProductCarouselComponent  -->
<g id="node7" class="node">
<title>ProductCarouselComponent </title>
<polygon fill="#fb8072" stroke="black" points="517.14,-214.8 338.86,-214.8 338.86,-178.8 517.14,-178.8 517.14,-214.8"/>
<text text-anchor="middle" x="428" y="-192.6" font-family="Times,serif" font-size="14.00">ProductCarouselComponent </text>
</g>
<!-- ProductCarouselModule&#45;&gt;ProductCarouselComponent  -->
<g id="edge6" class="edge">
<title>ProductCarouselModule&#45;&gt;ProductCarouselComponent </title>
<path fill="none" stroke="black" stroke-dasharray="5,2" d="M428,-149.91C428,-149.91 428,-168.79 428,-168.79"/>
<polygon fill="black" stroke="black" points="424.5,-168.79 428,-178.79 431.5,-168.79 424.5,-168.79"/>
</g>
<!-- CommonModule -->
<g id="node3" class="node">
<title>CommonModule</title>
<polygon fill="#8dd3c7" stroke="black" points="622.67,-84.8 619.67,-88.8 598.67,-88.8 595.67,-84.8 511.33,-84.8 511.33,-48.8 622.67,-48.8 622.67,-84.8"/>
<text text-anchor="middle" x="567" y="-62.6" font-family="Times,serif" font-size="14.00">CommonModule</text>
</g>
<!-- CommonModule&#45;&gt;ProductCarouselModule -->
<g id="edge2" class="edge">
<title>CommonModule&#45;&gt;ProductCarouselModule</title>
<path fill="none" stroke="black" d="M511.3,-66.8C503.89,-66.8 498.79,-66.8 498.79,-66.8 498.79,-66.8 498.79,-103.69 498.79,-103.69"/>
<polygon fill="black" stroke="black" points="495.29,-103.69 498.79,-113.69 502.29,-103.69 495.29,-103.69"/>
</g>
<!-- ProductCardModule -->
<g id="node4" class="node">
<title>ProductCardModule</title>
<polygon fill="#8dd3c7" stroke="black" points="493.31,-84.8 490.31,-88.8 469.31,-88.8 466.31,-84.8 362.69,-84.8 362.69,-48.8 493.31,-48.8 493.31,-84.8"/>
<text text-anchor="middle" x="428" y="-62.6" font-family="Times,serif" font-size="14.00">ProductCardModule</text>
</g>
<!-- ProductCardModule&#45;&gt;ProductCarouselModule -->
<g id="edge3" class="edge">
<title>ProductCardModule&#45;&gt;ProductCarouselModule</title>
<path fill="none" stroke="black" d="M428,-84.91C428,-84.91 428,-103.79 428,-103.79"/>
<polygon fill="black" stroke="black" points="424.5,-103.79 428,-113.79 431.5,-103.79 424.5,-103.79"/>
</g>
<!-- LineitemCardModule -->
<g id="node5" class="node">
<title>LineitemCardModule</title>
<polygon fill="#8dd3c7" stroke="black" points="344.81,-84.8 341.81,-88.8 320.81,-88.8 317.81,-84.8 207.19,-84.8 207.19,-48.8 344.81,-48.8 344.81,-84.8"/>
<text text-anchor="middle" x="276" y="-62.6" font-family="Times,serif" font-size="14.00">LineitemCardModule</text>
</g>
<!-- LineitemCardModule&#45;&gt;ProductCarouselModule -->
<g id="edge4" class="edge">
<title>LineitemCardModule&#45;&gt;ProductCarouselModule</title>
<path fill="none" stroke="black" d="M344.87,-66.8C352.29,-66.8 357.21,-66.8 357.21,-66.8 357.21,-66.8 357.21,-103.69 357.21,-103.69"/>
<polygon fill="black" stroke="black" points="353.71,-103.69 357.21,-113.69 360.71,-103.69 353.71,-103.69"/>
</g>
<!-- CarouselModule.forRoot() -->
<g id="node6" class="node">
<title>CarouselModule.forRoot()</title>
<polygon fill="#8dd3c7" stroke="black" points="189.68,-84.8 186.68,-88.8 165.68,-88.8 162.68,-84.8 24.32,-84.8 24.32,-48.8 189.68,-48.8 189.68,-84.8"/>
<text text-anchor="middle" x="107" y="-62.6" font-family="Times,serif" font-size="14.00">CarouselModule.forRoot()</text>
</g>
<!-- CarouselModule.forRoot()&#45;&gt;ProductCarouselModule -->
<g id="edge5" class="edge">
<title>CarouselModule.forRoot()&#45;&gt;ProductCarouselModule</title>
<path fill="none" stroke="black" d="M107,-84.91C107,-104.14 107,-131.8 107,-131.8 107,-131.8 341.52,-131.8 341.52,-131.8"/>
<polygon fill="black" stroke="black" points="341.52,-135.3 351.52,-131.8 341.52,-128.3 341.52,-135.3"/>
</g>
</g>
</svg>
