<?xml version="1.0" encoding="UTF-8" standalone="no"?>
<!DOCTYPE svg PUBLIC "-//W3C//DTD SVG 1.1//EN"
 "http://www.w3.org/Graphics/SVG/1.1/DTD/svg11.dtd">
<!-- Generated by graphviz version 2.47.3 (20210619.1520)
 -->
<!-- Title: dependencies Pages: 1 -->
<svg width="1229pt" height="312pt"
 viewBox="0.00 0.00 1229.00 311.80" xmlns="http://www.w3.org/2000/svg" xmlns:xlink="http://www.w3.org/1999/xlink">
<g id="graph0" class="graph" transform="scale(1 1) rotate(0) translate(4 307.8)">
<title>dependencies</title>
<polygon fill="white" stroke="transparent" points="-4,4 -4,-307.8 1225,-307.8 1225,4 -4,4"/>
<text text-anchor="middle" x="610.5" y="-8.2" font-family="sans-serif" font-size="14.00">dependencies</text>
<g id="clust1" class="cluster">
<title>cluster_DependentPicklistModule</title>
<polygon fill="none" stroke="black" stroke-dasharray="1,5" points="8,-32.8 8,-295.8 1213,-295.8 1213,-32.8 8,-32.8"/>
</g>
<g id="clust3" class="cluster">
<title>cluster_DependentPicklistModule_DependentPicklistComponent_providers</title>
<polygon fill="none" stroke="black" points="455,-40.8 455,-157.8 1205,-157.8 1205,-40.8 455,-40.8"/>
</g>
<g id="clust5" class="cluster">
<title>cluster_DependentPicklistModule_exports</title>
<polygon fill="none" stroke="black" points="220,-235.8 220,-287.8 424,-287.8 424,-235.8 220,-235.8"/>
</g>
<g id="clust4" class="cluster">
<title>cluster_DependentPicklistModule_imports</title>
<polygon fill="none" stroke="black" points="16,-105.8 16,-157.8 447,-157.8 447,-105.8 16,-105.8"/>
</g>
<!-- DependentPicklistComponent -->
<g id="node1" class="node">
<title>DependentPicklistComponent</title>
<polygon fill="#ffffb3" stroke="black" points="783.98,-149.8 600.02,-149.8 600.02,-113.8 783.98,-113.8 783.98,-149.8"/>
<text text-anchor="middle" x="692" y="-127.6" font-family="Times,serif" font-size="14.00">DependentPicklistComponent</text>
</g>
<!-- DependentPicklistModule -->
<g id="node2" class="node">
<title>DependentPicklistModule</title>
<polygon fill="#8dd3c7" stroke="black" points="403.2,-214.8 400.2,-218.8 379.2,-218.8 376.2,-214.8 240.8,-214.8 240.8,-178.8 403.2,-178.8 403.2,-214.8"/>
<text text-anchor="middle" x="322" y="-192.6" font-family="Times,serif" font-size="14.00">DependentPicklistModule</text>
</g>
<!-- DependentPicklistComponent&#45;&gt;DependentPicklistModule -->
<g id="edge1" class="edge">
<title>DependentPicklistComponent&#45;&gt;DependentPicklistModule</title>
<path fill="none" stroke="black" d="M692,-149.91C692,-169.14 692,-196.8 692,-196.8 692,-196.8 413.2,-196.8 413.2,-196.8"/>
<polygon fill="black" stroke="black" points="413.2,-193.3 403.2,-196.8 413.2,-200.3 413.2,-193.3"/>
</g>
<!-- DependentPicklistComponent  -->
<g id="node7" class="node">
<title>DependentPicklistComponent </title>
<polygon fill="#fb8072" stroke="black" points="415.98,-279.8 228.02,-279.8 228.02,-243.8 415.98,-243.8 415.98,-279.8"/>
<text text-anchor="middle" x="322" y="-257.6" font-family="Times,serif" font-size="14.00">DependentPicklistComponent </text>
</g>
<!-- DependentPicklistModule&#45;&gt;DependentPicklistComponent  -->
<g id="edge6" class="edge">
<title>DependentPicklistModule&#45;&gt;DependentPicklistComponent </title>
<path fill="none" stroke="black" stroke-dasharray="5,2" d="M322,-214.91C322,-214.91 322,-233.79 322,-233.79"/>
<polygon fill="black" stroke="black" points="318.5,-233.79 322,-243.79 325.5,-233.79 318.5,-233.79"/>
</g>
<!-- { provide: NG_VALUE_ACCESSOR, useExisting: DependentPicklistComponent, multi: &#160;} -->
<g id="node3" class="node">
<title>{ provide: NG_VALUE_ACCESSOR, useExisting: DependentPicklistComponent, multi: &#160;}</title>
<ellipse fill="#fdb462" stroke="black" cx="830" cy="-66.8" rx="367.23" ry="18"/>
<text text-anchor="middle" x="830" y="-62.6" font-family="Times,serif" font-size="14.00">{ provide: NG_VALUE_ACCESSOR, useExisting: DependentPicklistComponent, multi: &#160;}</text>
</g>
<!-- { provide: NG_VALUE_ACCESSOR, useExisting: DependentPicklistComponent, multi: &#160;}&#45;&gt;DependentPicklistComponent -->
<g id="edge2" class="edge">
<title>{ provide: NG_VALUE_ACCESSOR, useExisting: DependentPicklistComponent, multi: &#160;}&#45;&gt;DependentPicklistComponent</title>
<path fill="none" stroke="black" d="M692,-83.54C692,-83.54 692,-103.52 692,-103.52"/>
<polygon fill="black" stroke="black" points="688.5,-103.52 692,-113.52 695.5,-103.52 688.5,-103.52"/>
</g>
<!-- CommonModule -->
<g id="node4" class="node">
<title>CommonModule</title>
<polygon fill="#8dd3c7" stroke="black" points="438.67,-149.8 435.67,-153.8 414.67,-153.8 411.67,-149.8 327.33,-149.8 327.33,-113.8 438.67,-113.8 438.67,-149.8"/>
<text text-anchor="middle" x="383" y="-127.6" font-family="Times,serif" font-size="14.00">CommonModule</text>
</g>
<!-- CommonModule&#45;&gt;DependentPicklistModule -->
<g id="edge3" class="edge">
<title>CommonModule&#45;&gt;DependentPicklistModule</title>
<path fill="none" stroke="black" d="M365.13,-149.91C365.13,-149.91 365.13,-168.79 365.13,-168.79"/>
<polygon fill="black" stroke="black" points="361.63,-168.79 365.13,-178.79 368.63,-168.79 361.63,-168.79"/>
</g>
<!-- FormsModule -->
<g id="node5" class="node">
<title>FormsModule</title>
<polygon fill="#8dd3c7" stroke="black" points="309.83,-149.8 306.83,-153.8 285.83,-153.8 282.83,-149.8 214.17,-149.8 214.17,-113.8 309.83,-113.8 309.83,-149.8"/>
<text text-anchor="middle" x="262" y="-127.6" font-family="Times,serif" font-size="14.00">FormsModule</text>
</g>
<!-- FormsModule&#45;&gt;DependentPicklistModule -->
<g id="edge4" class="edge">
<title>FormsModule&#45;&gt;DependentPicklistModule</title>
<path fill="none" stroke="black" d="M275.28,-149.91C275.28,-149.91 275.28,-168.79 275.28,-168.79"/>
<polygon fill="black" stroke="black" points="271.78,-168.79 275.28,-178.79 278.78,-168.79 271.78,-168.79"/>
</g>
<!-- TranslateModule.forChild() -->
<g id="node6" class="node">
<title>TranslateModule.forChild()</title>
<polygon fill="#8dd3c7" stroke="black" points="195.89,-149.8 192.89,-153.8 171.89,-153.8 168.89,-149.8 24.11,-149.8 24.11,-113.8 195.89,-113.8 195.89,-149.8"/>
<text text-anchor="middle" x="110" y="-127.6" font-family="Times,serif" font-size="14.00">TranslateModule.forChild()</text>
</g>
<!-- TranslateModule.forChild()&#45;&gt;DependentPicklistModule -->
<g id="edge5" class="edge">
<title>TranslateModule.forChild()&#45;&gt;DependentPicklistModule</title>
<path fill="none" stroke="black" d="M110,-149.91C110,-169.14 110,-196.8 110,-196.8 110,-196.8 230.64,-196.8 230.64,-196.8"/>
<polygon fill="black" stroke="black" points="230.64,-200.3 240.64,-196.8 230.64,-193.3 230.64,-200.3"/>
</g>
</g>
</svg>
