<?xml version="1.0" encoding="UTF-8" standalone="no"?>
<!DOCTYPE svg PUBLIC "-//W3C//DTD SVG 1.1//EN"
 "http://www.w3.org/Graphics/SVG/1.1/DTD/svg11.dtd">
<!-- Generated by graphviz version 2.47.3 (20210619.1520)
 -->
<!-- Title: dependencies Pages: 1 -->
<svg width="584pt" height="247pt"
 viewBox="0.00 0.00 584.00 246.80" xmlns="http://www.w3.org/2000/svg" xmlns:xlink="http://www.w3.org/1999/xlink">
<g id="graph0" class="graph" transform="scale(1 1) rotate(0) translate(4 242.8)">
<title>dependencies</title>
<polygon fill="white" stroke="transparent" points="-4,4 -4,-242.8 580,-242.8 580,4 -4,4"/>
<text text-anchor="middle" x="288" y="-8.2" font-family="sans-serif" font-size="14.00">dependencies</text>
<g id="clust1" class="cluster">
<title>cluster_TaxPopHoverModule</title>
<polygon fill="none" stroke="black" stroke-dasharray="1,5" points="8,-32.8 8,-230.8 568,-230.8 568,-32.8 8,-32.8"/>
</g>
<g id="clust2" class="cluster">
<title>cluster_TaxPopHoverModule_declarations</title>
<polygon fill="none" stroke="black" points="384,-40.8 384,-92.8 560,-92.8 560,-40.8 384,-40.8"/>
</g>
<g id="clust4" class="cluster">
<title>cluster_TaxPopHoverModule_imports</title>
<polygon fill="none" stroke="black" points="16,-40.8 16,-92.8 376,-92.8 376,-40.8 16,-40.8"/>
</g>
<g id="clust5" class="cluster">
<title>cluster_TaxPopHoverModule_exports</title>
<polygon fill="none" stroke="black" points="161,-170.8 161,-222.8 341,-222.8 341,-170.8 161,-170.8"/>
</g>
<!-- TaxPopHoverComponent -->
<g id="node1" class="node">
<title>TaxPopHoverComponent</title>
<polygon fill="#ffffb3" stroke="black" points="551.86,-84.8 392.14,-84.8 392.14,-48.8 551.86,-48.8 551.86,-84.8"/>
<text text-anchor="middle" x="472" y="-62.6" font-family="Times,serif" font-size="14.00">TaxPopHoverComponent</text>
</g>
<!-- TaxPopHoverModule -->
<g id="node2" class="node">
<title>TaxPopHoverModule</title>
<polygon fill="#8dd3c7" stroke="black" points="320.08,-149.8 317.08,-153.8 296.08,-153.8 293.08,-149.8 181.92,-149.8 181.92,-113.8 320.08,-113.8 320.08,-149.8"/>
<text text-anchor="middle" x="251" y="-127.6" font-family="Times,serif" font-size="14.00">TaxPopHoverModule</text>
</g>
<!-- TaxPopHoverComponent&#45;&gt;TaxPopHoverModule -->
<g id="edge1" class="edge">
<title>TaxPopHoverComponent&#45;&gt;TaxPopHoverModule</title>
<path fill="none" stroke="black" d="M472,-84.91C472,-104.14 472,-131.8 472,-131.8 472,-131.8 330.32,-131.8 330.32,-131.8"/>
<polygon fill="black" stroke="black" points="330.32,-128.3 320.32,-131.8 330.32,-135.3 330.32,-128.3"/>
</g>
<!-- TaxPopHoverComponent  -->
<g id="node6" class="node">
<title>TaxPopHoverComponent </title>
<polygon fill="#fb8072" stroke="black" points="332.86,-214.8 169.14,-214.8 169.14,-178.8 332.86,-178.8 332.86,-214.8"/>
<text text-anchor="middle" x="251" y="-192.6" font-family="Times,serif" font-size="14.00">TaxPopHoverComponent </text>
</g>
<!-- TaxPopHoverModule&#45;&gt;TaxPopHoverComponent  -->
<g id="edge5" class="edge">
<title>TaxPopHoverModule&#45;&gt;TaxPopHoverComponent </title>
<path fill="none" stroke="black" stroke-dasharray="5,2" d="M251,-149.91C251,-149.91 251,-168.79 251,-168.79"/>
<polygon fill="black" stroke="black" points="247.5,-168.79 251,-178.79 254.5,-168.79 247.5,-168.79"/>
</g>
<!-- CommonModule -->
<g id="node3" class="node">
<title>CommonModule</title>
<polygon fill="#8dd3c7" stroke="black" points="367.67,-84.8 364.67,-88.8 343.67,-88.8 340.67,-84.8 256.33,-84.8 256.33,-48.8 367.67,-48.8 367.67,-84.8"/>
<text text-anchor="middle" x="312" y="-62.6" font-family="Times,serif" font-size="14.00">CommonModule</text>
</g>
<!-- CommonModule&#45;&gt;TaxPopHoverModule -->
<g id="edge2" class="edge">
<title>CommonModule&#45;&gt;TaxPopHoverModule</title>
<path fill="none" stroke="black" d="M288.1,-84.91C288.1,-84.91 288.1,-103.79 288.1,-103.79"/>
<polygon fill="black" stroke="black" points="284.6,-103.79 288.1,-113.79 291.6,-103.79 284.6,-103.79"/>
</g>
<!-- ApttusModule -->
<g id="node4" class="node">
<title>ApttusModule</title>
<polygon fill="#8dd3c7" stroke="black" points="238.38,-84.8 235.38,-88.8 214.38,-88.8 211.38,-84.8 141.62,-84.8 141.62,-48.8 238.38,-48.8 238.38,-84.8"/>
<text text-anchor="middle" x="190" y="-62.6" font-family="Times,serif" font-size="14.00">ApttusModule</text>
</g>
<!-- ApttusModule&#45;&gt;TaxPopHoverModule -->
<g id="edge3" class="edge">
<title>ApttusModule&#45;&gt;TaxPopHoverModule</title>
<path fill="none" stroke="black" d="M210.2,-84.91C210.2,-84.91 210.2,-103.79 210.2,-103.79"/>
<polygon fill="black" stroke="black" points="206.7,-103.79 210.2,-113.79 213.7,-103.79 206.7,-103.79"/>
</g>
<!-- PricingModule -->
<g id="node5" class="node">
<title>PricingModule</title>
<polygon fill="#8dd3c7" stroke="black" points="123.99,-84.8 120.99,-88.8 99.99,-88.8 96.99,-84.8 24.01,-84.8 24.01,-48.8 123.99,-48.8 123.99,-84.8"/>
<text text-anchor="middle" x="74" y="-62.6" font-family="Times,serif" font-size="14.00">PricingModule</text>
</g>
<!-- PricingModule&#45;&gt;TaxPopHoverModule -->
<g id="edge4" class="edge">
<title>PricingModule&#45;&gt;TaxPopHoverModule</title>
<path fill="none" stroke="black" d="M74,-84.91C74,-104.14 74,-131.8 74,-131.8 74,-131.8 171.81,-131.8 171.81,-131.8"/>
<polygon fill="black" stroke="black" points="171.81,-135.3 181.81,-131.8 171.81,-128.3 171.81,-135.3"/>
</g>
</g>
</svg>
