<?xml version="1.0" encoding="UTF-8" standalone="no"?>
<!DOCTYPE svg PUBLIC "-//W3C//DTD SVG 1.1//EN"
 "http://www.w3.org/Graphics/SVG/1.1/DTD/svg11.dtd">
<!-- Generated by graphviz version 2.47.3 (20210619.1520)
 -->
<!-- Title: dependencies Pages: 1 -->
<svg width="465pt" height="174pt"
 viewBox="0.00 0.00 465.00 173.80" xmlns="http://www.w3.org/2000/svg" xmlns:xlink="http://www.w3.org/1999/xlink">
<g id="graph0" class="graph" transform="scale(1 1) rotate(0) translate(4 169.8)">
<title>dependencies</title>
<polygon fill="white" stroke="transparent" points="-4,4 -4,-169.8 461,-169.8 461,4 -4,4"/>
<text text-anchor="middle" x="228.5" y="-8.2" font-family="sans-serif" font-size="14.00">dependencies</text>
<g id="clust1" class="cluster">
<title>cluster_AssetModule</title>
<polygon fill="none" stroke="black" stroke-dasharray="1,5" points="8,-32.8 8,-157.8 449,-157.8 449,-32.8 8,-32.8"/>
</g>
<g id="clust4" class="cluster">
<title>cluster_AssetModule_imports</title>
<polygon fill="none" stroke="black" points="174,-40.8 174,-92.8 441,-92.8 441,-40.8 174,-40.8"/>
</g>
<g id="clust2" class="cluster">
<title>cluster_AssetModule_declarations</title>
<polygon fill="none" stroke="black" points="16,-40.8 16,-92.8 166,-92.8 166,-40.8 16,-40.8"/>
</g>
<!-- AssetListComponent -->
<g id="node1" class="node">
<title>AssetListComponent</title>
<polygon fill="#ffffb3" stroke="black" points="158.21,-84.8 23.79,-84.8 23.79,-48.8 158.21,-48.8 158.21,-84.8"/>
<text text-anchor="middle" x="91" y="-62.6" font-family="Times,serif" font-size="14.00">AssetListComponent</text>
</g>
<!-- AssetModule -->
<g id="node2" class="node">
<title>AssetModule</title>
<polygon fill="#8dd3c7" stroke="black" points="273.15,-149.8 270.15,-153.8 249.15,-153.8 246.15,-149.8 182.85,-149.8 182.85,-113.8 273.15,-113.8 273.15,-149.8"/>
<text text-anchor="middle" x="228" y="-127.6" font-family="Times,serif" font-size="14.00">AssetModule</text>
</g>
<!-- AssetListComponent&#45;&gt;AssetModule -->
<g id="edge1" class="edge">
<title>AssetListComponent&#45;&gt;AssetModule</title>
<path fill="none" stroke="black" d="M91,-84.91C91,-104.14 91,-131.8 91,-131.8 91,-131.8 172.76,-131.8 172.76,-131.8"/>
<polygon fill="black" stroke="black" points="172.76,-135.3 182.76,-131.8 172.76,-128.3 172.76,-135.3"/>
</g>
<!-- AssetsRoutingModule -->
<g id="node3" class="node">
<title>AssetsRoutingModule</title>
<polygon fill="#8dd3c7" stroke="black" points="432.71,-84.8 429.71,-88.8 408.71,-88.8 405.71,-84.8 291.29,-84.8 291.29,-48.8 432.71,-48.8 432.71,-84.8"/>
<text text-anchor="middle" x="362" y="-62.6" font-family="Times,serif" font-size="14.00">AssetsRoutingModule</text>
</g>
<!-- AssetsRoutingModule&#45;&gt;AssetModule -->
<g id="edge2" class="edge">
<title>AssetsRoutingModule&#45;&gt;AssetModule</title>
<path fill="none" stroke="black" d="M362,-84.91C362,-104.14 362,-131.8 362,-131.8 362,-131.8 283.37,-131.8 283.37,-131.8"/>
<polygon fill="black" stroke="black" points="283.37,-128.3 273.37,-131.8 283.37,-135.3 283.37,-128.3"/>
</g>
<!-- TableModule -->
<g id="node4" class="node">
<title>TableModule</title>
<polygon fill="#8dd3c7" stroke="black" points="273.92,-84.8 270.92,-88.8 249.92,-88.8 246.92,-84.8 182.08,-84.8 182.08,-48.8 273.92,-48.8 273.92,-84.8"/>
<text text-anchor="middle" x="228" y="-62.6" font-family="Times,serif" font-size="14.00">TableModule</text>
</g>
<!-- TableModule&#45;&gt;AssetModule -->
<g id="edge3" class="edge">
<title>TableModule&#45;&gt;AssetModule</title>
<path fill="none" stroke="black" d="M228,-84.91C228,-84.91 228,-103.79 228,-103.79"/>
<polygon fill="black" stroke="black" points="224.5,-103.79 228,-113.79 231.5,-103.79 224.5,-103.79"/>
</g>
</g>
</svg>
