<?xml version="1.0" encoding="UTF-8" standalone="no"?>
<!DOCTYPE svg PUBLIC "-//W3C//DTD SVG 1.1//EN"
 "http://www.w3.org/Graphics/SVG/1.1/DTD/svg11.dtd">
<!-- Generated by graphviz version 2.47.3 (20210619.1520)
 -->
<!-- Title: dependencies Pages: 1 -->
<svg width="3040pt" height="247pt"
 viewBox="0.00 0.00 3040.00 246.80" xmlns="http://www.w3.org/2000/svg" xmlns:xlink="http://www.w3.org/1999/xlink">
<g id="graph0" class="graph" transform="scale(1 1) rotate(0) translate(4 242.8)">
<title>dependencies</title>
<polygon fill="white" stroke="transparent" points="-4,4 -4,-242.8 3036,-242.8 3036,4 -4,4"/>
<text text-anchor="middle" x="1516" y="-8.2" font-family="sans-serif" font-size="14.00">dependencies</text>
<g id="clust1" class="cluster">
<title>cluster_ButtonModule</title>
<polygon fill="none" stroke="black" stroke-dasharray="1,5" points="8,-32.8 8,-230.8 3024,-230.8 3024,-32.8 8,-32.8"/>
</g>
<g id="clust9" class="cluster">
<title>cluster_ButtonModule_exports</title>
<polygon fill="none" stroke="black" points="1031,-170.8 1031,-222.8 2041,-222.8 2041,-170.8 1031,-170.8"/>
</g>
<g id="clust2" class="cluster">
<title>cluster_ButtonModule_declarations</title>
<polygon fill="none" stroke="black" points="2023,-40.8 2023,-92.8 3016,-92.8 3016,-40.8 2023,-40.8"/>
</g>
<g id="clust8" class="cluster">
<title>cluster_ButtonModule_imports</title>
<polygon fill="none" stroke="black" points="16,-40.8 16,-92.8 2015,-92.8 2015,-40.8 16,-40.8"/>
</g>
<!-- AddToCartComponent -->
<g id="node1" class="node">
<title>AddToCartComponent</title>
<polygon fill="#ffffb3" stroke="black" points="3007.59,-84.8 2862.41,-84.8 2862.41,-48.8 3007.59,-48.8 3007.59,-84.8"/>
<text text-anchor="middle" x="2935" y="-62.6" font-family="Times,serif" font-size="14.00">AddToCartComponent</text>
</g>
<!-- ButtonModule -->
<g id="node6" class="node">
<title>ButtonModule</title>
<polygon fill="#8dd3c7" stroke="black" points="1592.67,-149.8 1589.67,-153.8 1568.67,-153.8 1565.67,-149.8 1495.33,-149.8 1495.33,-113.8 1592.67,-113.8 1592.67,-149.8"/>
<text text-anchor="middle" x="1544" y="-127.6" font-family="Times,serif" font-size="14.00">ButtonModule</text>
</g>
<!-- AddToCartComponent&#45;&gt;ButtonModule -->
<g id="edge1" class="edge">
<title>AddToCartComponent&#45;&gt;ButtonModule</title>
<path fill="none" stroke="black" d="M2935,-85.09C2935,-107.01 2935,-140.8 2935,-140.8 2935,-140.8 1602.69,-140.8 1602.69,-140.8"/>
<polygon fill="black" stroke="black" points="1602.69,-137.3 1592.69,-140.8 1602.69,-144.3 1602.69,-137.3"/>
</g>
<!-- AssetDropdownButtonComponent -->
<g id="node2" class="node">
<title>AssetDropdownButtonComponent</title>
<polygon fill="#ffffb3" stroke="black" points="2844.43,-84.8 2633.57,-84.8 2633.57,-48.8 2844.43,-48.8 2844.43,-84.8"/>
<text text-anchor="middle" x="2739" y="-62.6" font-family="Times,serif" font-size="14.00">AssetDropdownButtonComponent</text>
</g>
<!-- AssetDropdownButtonComponent&#45;&gt;ButtonModule -->
<g id="edge2" class="edge">
<title>AssetDropdownButtonComponent&#45;&gt;ButtonModule</title>
<path fill="none" stroke="black" d="M2739,-84.83C2739,-105.57 2739,-136.8 2739,-136.8 2739,-136.8 1602.7,-136.8 1602.7,-136.8"/>
<polygon fill="black" stroke="black" points="1602.7,-133.3 1592.7,-136.8 1602.7,-140.3 1602.7,-133.3"/>
</g>
<!-- InstalledProductsComponent -->
<g id="node3" class="node">
<title>InstalledProductsComponent</title>
<polygon fill="#ffffb3" stroke="black" points="2616.03,-84.8 2437.97,-84.8 2437.97,-48.8 2616.03,-48.8 2616.03,-84.8"/>
<text text-anchor="middle" x="2527" y="-62.6" font-family="Times,serif" font-size="14.00">InstalledProductsComponent</text>
</g>
<!-- InstalledProductsComponent&#45;&gt;ButtonModule -->
<g id="edge3" class="edge">
<title>InstalledProductsComponent&#45;&gt;ButtonModule</title>
<path fill="none" stroke="black" d="M2527,-85.11C2527,-104.95 2527,-133.8 2527,-133.8 2527,-133.8 1602.75,-133.8 1602.75,-133.8"/>
<polygon fill="black" stroke="black" points="1602.75,-130.3 1592.75,-133.8 1602.75,-137.3 1602.75,-130.3"/>
</g>
<!-- GenerateDocumentComponent -->
<g id="node4" class="node">
<title>GenerateDocumentComponent</title>
<polygon fill="#ffffb3" stroke="black" points="2420.17,-84.8 2229.83,-84.8 2229.83,-48.8 2420.17,-48.8 2420.17,-84.8"/>
<text text-anchor="middle" x="2325" y="-62.6" font-family="Times,serif" font-size="14.00">GenerateDocumentComponent</text>
</g>
<!-- GenerateDocumentComponent&#45;&gt;ButtonModule -->
<g id="edge4" class="edge">
<title>GenerateDocumentComponent&#45;&gt;ButtonModule</title>
<path fill="none" stroke="black" d="M2325,-84.97C2325,-103.89 2325,-130.8 2325,-130.8 2325,-130.8 1602.86,-130.8 1602.86,-130.8"/>
<polygon fill="black" stroke="black" points="1602.86,-127.3 1592.86,-130.8 1602.86,-134.3 1602.86,-127.3"/>
</g>
<!-- PresentDocumentComponent -->
<g id="node5" class="node">
<title>PresentDocumentComponent</title>
<polygon fill="#ffffb3" stroke="black" points="2211.36,-84.8 2030.64,-84.8 2030.64,-48.8 2211.36,-48.8 2211.36,-84.8"/>
<text text-anchor="middle" x="2121" y="-62.6" font-family="Times,serif" font-size="14.00">PresentDocumentComponent</text>
</g>
<!-- PresentDocumentComponent&#45;&gt;ButtonModule -->
<g id="edge5" class="edge">
<title>PresentDocumentComponent&#45;&gt;ButtonModule</title>
<path fill="none" stroke="black" d="M2122.36,-85.1C2122.36,-103.07 2122.36,-127.8 2122.36,-127.8 2122.36,-127.8 1602.81,-127.8 1602.81,-127.8"/>
<polygon fill="black" stroke="black" points="1602.81,-124.3 1592.81,-127.8 1602.81,-131.3 1602.81,-124.3"/>
</g>
<!-- AddToCartComponent  -->
<g id="node20" class="node">
<title>AddToCartComponent </title>
<polygon fill="#fb8072" stroke="black" points="2033.09,-214.8 1884.91,-214.8 1884.91,-178.8 2033.09,-178.8 2033.09,-214.8"/>
<text text-anchor="middle" x="1959" y="-192.6" font-family="Times,serif" font-size="14.00">AddToCartComponent </text>
</g>
<!-- ButtonModule&#45;&gt;AddToCartComponent  -->
<g id="edge19" class="edge">
<title>ButtonModule&#45;&gt;AddToCartComponent </title>
<path fill="none" stroke="black" stroke-dasharray="5,2" d="M1592.83,-143.8C1688.19,-143.8 1889.93,-143.8 1889.93,-143.8 1889.93,-143.8 1889.93,-168.56 1889.93,-168.56"/>
<polygon fill="black" stroke="black" points="1886.43,-168.56 1889.93,-178.56 1893.43,-168.56 1886.43,-168.56"/>
</g>
<!-- AssetDropdownButtonComponent  -->
<g id="node21" class="node">
<title>AssetDropdownButtonComponent </title>
<polygon fill="#fb8072" stroke="black" points="1866.93,-214.8 1653.07,-214.8 1653.07,-178.8 1866.93,-178.8 1866.93,-214.8"/>
<text text-anchor="middle" x="1760" y="-192.6" font-family="Times,serif" font-size="14.00">AssetDropdownButtonComponent </text>
</g>
<!-- ButtonModule&#45;&gt;AssetDropdownButtonComponent  -->
<g id="edge20" class="edge">
<title>ButtonModule&#45;&gt;AssetDropdownButtonComponent </title>
<path fill="none" stroke="black" stroke-dasharray="5,2" d="M1592.9,-146.8C1624.63,-146.8 1660.11,-146.8 1660.11,-146.8 1660.11,-146.8 1660.11,-168.75 1660.11,-168.75"/>
<polygon fill="black" stroke="black" points="1656.61,-168.75 1660.11,-178.75 1663.61,-168.75 1656.61,-168.75"/>
</g>
<!-- InstalledProductsComponent  -->
<g id="node22" class="node">
<title>InstalledProductsComponent </title>
<polygon fill="#fb8072" stroke="black" points="1635.03,-214.8 1452.97,-214.8 1452.97,-178.8 1635.03,-178.8 1635.03,-214.8"/>
<text text-anchor="middle" x="1544" y="-192.6" font-family="Times,serif" font-size="14.00">InstalledProductsComponent </text>
</g>
<!-- ButtonModule&#45;&gt;InstalledProductsComponent  -->
<g id="edge21" class="edge">
<title>ButtonModule&#45;&gt;InstalledProductsComponent </title>
<path fill="none" stroke="black" stroke-dasharray="5,2" d="M1544,-149.91C1544,-149.91 1544,-168.79 1544,-168.79"/>
<polygon fill="black" stroke="black" points="1540.5,-168.79 1544,-178.79 1547.5,-168.79 1540.5,-168.79"/>
</g>
<!-- GenerateDocumentComponent  -->
<g id="node23" class="node">
<title>GenerateDocumentComponent </title>
<polygon fill="#fb8072" stroke="black" points="1434.67,-214.8 1241.33,-214.8 1241.33,-178.8 1434.67,-178.8 1434.67,-214.8"/>
<text text-anchor="middle" x="1338" y="-192.6" font-family="Times,serif" font-size="14.00">GenerateDocumentComponent </text>
</g>
<!-- ButtonModule&#45;&gt;GenerateDocumentComponent  -->
<g id="edge22" class="edge">
<title>ButtonModule&#45;&gt;GenerateDocumentComponent </title>
<path fill="none" stroke="black" stroke-dasharray="5,2" d="M1495.08,-146.8C1463.03,-146.8 1427.05,-146.8 1427.05,-146.8 1427.05,-146.8 1427.05,-168.75 1427.05,-168.75"/>
<polygon fill="black" stroke="black" points="1423.55,-168.75 1427.05,-178.75 1430.55,-168.75 1423.55,-168.75"/>
</g>
<!-- PresentDocumentComponent  -->
<g id="node24" class="node">
<title>PresentDocumentComponent </title>
<polygon fill="#fb8072" stroke="black" points="1223.36,-214.8 1038.64,-214.8 1038.64,-178.8 1223.36,-178.8 1223.36,-214.8"/>
<text text-anchor="middle" x="1131" y="-192.6" font-family="Times,serif" font-size="14.00">PresentDocumentComponent </text>
</g>
<!-- ButtonModule&#45;&gt;PresentDocumentComponent  -->
<g id="edge23" class="edge">
<title>ButtonModule&#45;&gt;PresentDocumentComponent </title>
<path fill="none" stroke="black" stroke-dasharray="5,2" d="M1495.21,-143.8C1403.76,-143.8 1215.72,-143.8 1215.72,-143.8 1215.72,-143.8 1215.72,-168.56 1215.72,-168.56"/>
<polygon fill="black" stroke="black" points="1212.22,-168.56 1215.72,-178.56 1219.22,-168.56 1212.22,-168.56"/>
</g>
<!-- CommonModule -->
<g id="node7" class="node">
<title>CommonModule</title>
<polygon fill="#8dd3c7" stroke="black" points="2006.67,-84.8 2003.67,-88.8 1982.67,-88.8 1979.67,-84.8 1895.33,-84.8 1895.33,-48.8 2006.67,-48.8 2006.67,-84.8"/>
<text text-anchor="middle" x="1951" y="-62.6" font-family="Times,serif" font-size="14.00">CommonModule</text>
</g>
<!-- CommonModule&#45;&gt;ButtonModule -->
<g id="edge6" class="edge">
<title>CommonModule&#45;&gt;ButtonModule</title>
<path fill="none" stroke="black" d="M1951,-84.84C1951,-101.53 1951,-123.8 1951,-123.8 1951,-123.8 1602.69,-123.8 1602.69,-123.8"/>
<polygon fill="black" stroke="black" points="1602.69,-120.3 1592.69,-123.8 1602.69,-127.3 1602.69,-120.3"/>
</g>
<!-- FormsModule -->
<g id="node8" class="node">
<title>FormsModule</title>
<polygon fill="#8dd3c7" stroke="black" points="1877.83,-84.8 1874.83,-88.8 1853.83,-88.8 1850.83,-84.8 1782.17,-84.8 1782.17,-48.8 1877.83,-48.8 1877.83,-84.8"/>
<text text-anchor="middle" x="1830" y="-62.6" font-family="Times,serif" font-size="14.00">FormsModule</text>
</g>
<!-- FormsModule&#45;&gt;ButtonModule -->
<g id="edge7" class="edge">
<title>FormsModule&#45;&gt;ButtonModule</title>
<path fill="none" stroke="black" d="M1824.65,-85.08C1824.65,-100.75 1824.65,-120.8 1824.65,-120.8 1824.65,-120.8 1602.89,-120.8 1602.89,-120.8"/>
<polygon fill="black" stroke="black" points="1602.89,-117.3 1592.89,-120.8 1602.89,-124.3 1602.89,-117.3"/>
</g>
<!-- RouterModule -->
<g id="node9" class="node">
<title>RouterModule</title>
<polygon fill="#8dd3c7" stroke="black" points="1764.65,-84.8 1761.65,-88.8 1740.65,-88.8 1737.65,-84.8 1667.35,-84.8 1667.35,-48.8 1764.65,-48.8 1764.65,-84.8"/>
<text text-anchor="middle" x="1716" y="-62.6" font-family="Times,serif" font-size="14.00">RouterModule</text>
</g>
<!-- RouterModule&#45;&gt;ButtonModule -->
<g id="edge8" class="edge">
<title>RouterModule&#45;&gt;ButtonModule</title>
<path fill="none" stroke="black" d="M1716,-84.92C1716,-99.58 1716,-117.8 1716,-117.8 1716,-117.8 1602.83,-117.8 1602.83,-117.8"/>
<polygon fill="black" stroke="black" points="1602.83,-114.3 1592.83,-117.8 1602.83,-121.3 1602.83,-114.3"/>
</g>
<!-- LaddaModule -->
<g id="node10" class="node">
<title>LaddaModule</title>
<polygon fill="#8dd3c7" stroke="black" points="1649.03,-84.8 1646.03,-88.8 1625.03,-88.8 1622.03,-84.8 1554.97,-84.8 1554.97,-48.8 1649.03,-48.8 1649.03,-84.8"/>
<text text-anchor="middle" x="1602" y="-62.6" font-family="Times,serif" font-size="14.00">LaddaModule</text>
</g>
<!-- LaddaModule&#45;&gt;ButtonModule -->
<g id="edge9" class="edge">
<title>LaddaModule&#45;&gt;ButtonModule</title>
<path fill="none" stroke="black" d="M1573.78,-84.91C1573.78,-84.91 1573.78,-103.79 1573.78,-103.79"/>
<polygon fill="black" stroke="black" points="1570.28,-103.79 1573.78,-113.79 1577.28,-103.79 1570.28,-103.79"/>
</g>
<!-- PricingModule -->
<g id="node11" class="node">
<title>PricingModule</title>
<polygon fill="#8dd3c7" stroke="black" points="1536.99,-84.8 1533.99,-88.8 1512.99,-88.8 1509.99,-84.8 1437.01,-84.8 1437.01,-48.8 1536.99,-48.8 1536.99,-84.8"/>
<text text-anchor="middle" x="1487" y="-62.6" font-family="Times,serif" font-size="14.00">PricingModule</text>
</g>
<!-- PricingModule&#45;&gt;ButtonModule -->
<g id="edge10" class="edge">
<title>PricingModule&#45;&gt;ButtonModule</title>
<path fill="none" stroke="black" d="M1516.08,-84.91C1516.08,-84.91 1516.08,-103.79 1516.08,-103.79"/>
<polygon fill="black" stroke="black" points="1512.58,-103.79 1516.08,-113.79 1519.58,-103.79 1512.58,-103.79"/>
</g>
<!-- ConfigurationSummaryModule -->
<g id="node12" class="node">
<title>ConfigurationSummaryModule</title>
<polygon fill="#8dd3c7" stroke="black" points="1419.03,-84.8 1416.03,-88.8 1395.03,-88.8 1392.03,-84.8 1226.97,-84.8 1226.97,-48.8 1419.03,-48.8 1419.03,-84.8"/>
<text text-anchor="middle" x="1323" y="-62.6" font-family="Times,serif" font-size="14.00">ConfigurationSummaryModule</text>
</g>
<!-- ConfigurationSummaryModule&#45;&gt;ButtonModule -->
<g id="edge11" class="edge">
<title>ConfigurationSummaryModule&#45;&gt;ButtonModule</title>
<path fill="none" stroke="black" d="M1330.22,-84.92C1330.22,-99.58 1330.22,-117.8 1330.22,-117.8 1330.22,-117.8 1485.22,-117.8 1485.22,-117.8"/>
<polygon fill="black" stroke="black" points="1485.22,-121.3 1495.22,-117.8 1485.22,-114.3 1485.22,-121.3"/>
</g>
<!-- ConstraintPopoverModule -->
<g id="node13" class="node">
<title>ConstraintPopoverModule</title>
<polygon fill="#8dd3c7" stroke="black" points="1208.04,-84.8 1205.04,-88.8 1184.04,-88.8 1181.04,-84.8 1043.96,-84.8 1043.96,-48.8 1208.04,-48.8 1208.04,-84.8"/>
<text text-anchor="middle" x="1126" y="-62.6" font-family="Times,serif" font-size="14.00">ConstraintPopoverModule</text>
</g>
<!-- ConstraintPopoverModule&#45;&gt;ButtonModule -->
<g id="edge12" class="edge">
<title>ConstraintPopoverModule&#45;&gt;ButtonModule</title>
<path fill="none" stroke="black" d="M1126,-85.08C1126,-100.75 1126,-120.8 1126,-120.8 1126,-120.8 1485.23,-120.8 1485.23,-120.8"/>
<polygon fill="black" stroke="black" points="1485.23,-124.3 1495.23,-120.8 1485.23,-117.3 1485.23,-124.3"/>
</g>
<!-- TooltipModule.forRoot() -->
<g id="node14" class="node">
<title>TooltipModule.forRoot()</title>
<polygon fill="#8dd3c7" stroke="black" points="1025.64,-84.8 1022.64,-88.8 1001.64,-88.8 998.64,-84.8 868.36,-84.8 868.36,-48.8 1025.64,-48.8 1025.64,-84.8"/>
<text text-anchor="middle" x="947" y="-62.6" font-family="Times,serif" font-size="14.00">TooltipModule.forRoot()</text>
</g>
<!-- TooltipModule.forRoot()&#45;&gt;ButtonModule -->
<g id="edge13" class="edge">
<title>TooltipModule.forRoot()&#45;&gt;ButtonModule</title>
<path fill="none" stroke="black" d="M947,-84.84C947,-101.53 947,-123.8 947,-123.8 947,-123.8 1485.14,-123.8 1485.14,-123.8"/>
<polygon fill="black" stroke="black" points="1485.15,-127.3 1495.14,-123.8 1485.14,-120.3 1485.15,-127.3"/>
</g>
<!-- BsDatepickerModule.forRoot() -->
<g id="node15" class="node">
<title>BsDatepickerModule.forRoot()</title>
<polygon fill="#8dd3c7" stroke="black" points="850.11,-84.8 847.11,-88.8 826.11,-88.8 823.11,-84.8 657.89,-84.8 657.89,-48.8 850.11,-48.8 850.11,-84.8"/>
<text text-anchor="middle" x="754" y="-62.6" font-family="Times,serif" font-size="14.00">BsDatepickerModule.forRoot()</text>
</g>
<!-- BsDatepickerModule.forRoot()&#45;&gt;ButtonModule -->
<g id="edge14" class="edge">
<title>BsDatepickerModule.forRoot()&#45;&gt;ButtonModule</title>
<path fill="none" stroke="black" d="M754,-85.1C754,-103.07 754,-127.8 754,-127.8 754,-127.8 1485.18,-127.8 1485.18,-127.8"/>
<polygon fill="black" stroke="black" points="1485.18,-131.3 1495.18,-127.8 1485.18,-124.3 1485.18,-131.3"/>
</g>
<!-- ModalModule.forRoot() -->
<g id="node16" class="node">
<title>ModalModule.forRoot()</title>
<polygon fill="#8dd3c7" stroke="black" points="640.47,-84.8 637.47,-88.8 616.47,-88.8 613.47,-84.8 487.53,-84.8 487.53,-48.8 640.47,-48.8 640.47,-84.8"/>
<text text-anchor="middle" x="564" y="-62.6" font-family="Times,serif" font-size="14.00">ModalModule.forRoot()</text>
</g>
<!-- ModalModule.forRoot()&#45;&gt;ButtonModule -->
<g id="edge15" class="edge">
<title>ModalModule.forRoot()&#45;&gt;ButtonModule</title>
<path fill="none" stroke="black" d="M564,-84.97C564,-103.89 564,-130.8 564,-130.8 564,-130.8 1485.07,-130.8 1485.07,-130.8"/>
<polygon fill="black" stroke="black" points="1485.07,-134.3 1495.07,-130.8 1485.07,-127.3 1485.07,-134.3"/>
</g>
<!-- TranslateModule.forChild() -->
<g id="node17" class="node">
<title>TranslateModule.forChild()</title>
<polygon fill="#8dd3c7" stroke="black" points="469.89,-84.8 466.89,-88.8 445.89,-88.8 442.89,-84.8 298.11,-84.8 298.11,-48.8 469.89,-48.8 469.89,-84.8"/>
<text text-anchor="middle" x="384" y="-62.6" font-family="Times,serif" font-size="14.00">TranslateModule.forChild()</text>
</g>
<!-- TranslateModule.forChild()&#45;&gt;ButtonModule -->
<g id="edge16" class="edge">
<title>TranslateModule.forChild()&#45;&gt;ButtonModule</title>
<path fill="none" stroke="black" d="M384,-85.11C384,-104.95 384,-133.8 384,-133.8 384,-133.8 1485.27,-133.8 1485.27,-133.8"/>
<polygon fill="black" stroke="black" points="1485.27,-137.3 1495.27,-133.8 1485.27,-130.3 1485.27,-137.3"/>
</g>
<!-- NgSelectModule -->
<g id="node18" class="node">
<title>NgSelectModule</title>
<polygon fill="#8dd3c7" stroke="black" points="280.36,-84.8 277.36,-88.8 256.36,-88.8 253.36,-84.8 169.64,-84.8 169.64,-48.8 280.36,-48.8 280.36,-84.8"/>
<text text-anchor="middle" x="225" y="-62.6" font-family="Times,serif" font-size="14.00">NgSelectModule</text>
</g>
<!-- NgSelectModule&#45;&gt;ButtonModule -->
<g id="edge17" class="edge">
<title>NgSelectModule&#45;&gt;ButtonModule</title>
<path fill="none" stroke="black" d="M225,-84.83C225,-105.57 225,-136.8 225,-136.8 225,-136.8 1485.1,-136.8 1485.1,-136.8"/>
<polygon fill="black" stroke="black" points="1485.1,-140.3 1495.1,-136.8 1485.1,-133.3 1485.1,-140.3"/>
</g>
<!-- OutputFieldModule -->
<g id="node19" class="node">
<title>OutputFieldModule</title>
<polygon fill="#8dd3c7" stroke="black" points="151.72,-84.8 148.72,-88.8 127.72,-88.8 124.72,-84.8 24.28,-84.8 24.28,-48.8 151.72,-48.8 151.72,-84.8"/>
<text text-anchor="middle" x="88" y="-62.6" font-family="Times,serif" font-size="14.00">OutputFieldModule</text>
</g>
<!-- OutputFieldModule&#45;&gt;ButtonModule -->
<g id="edge18" class="edge">
<title>OutputFieldModule&#45;&gt;ButtonModule</title>
<path fill="none" stroke="black" d="M88,-85.09C88,-107.01 88,-140.8 88,-140.8 88,-140.8 1485.14,-140.8 1485.14,-140.8"/>
<polygon fill="black" stroke="black" points="1485.14,-144.3 1495.14,-140.8 1485.14,-137.3 1485.14,-144.3"/>
</g>
</g>
</svg>
