<?xml version="1.0" encoding="UTF-8" standalone="no"?>
<!DOCTYPE svg PUBLIC "-//W3C//DTD SVG 1.1//EN"
 "http://www.w3.org/Graphics/SVG/1.1/DTD/svg11.dtd">
<!-- Generated by graphviz version 2.47.3 (20210619.1520)
 -->
<!-- Title: dependencies Pages: 1 -->
<svg width="1688pt" height="174pt"
 viewBox="0.00 0.00 1688.00 173.80" xmlns="http://www.w3.org/2000/svg" xmlns:xlink="http://www.w3.org/1999/xlink">
<g id="graph0" class="graph" transform="scale(1 1) rotate(0) translate(4 169.8)">
<title>dependencies</title>
<polygon fill="white" stroke="transparent" points="-4,4 -4,-169.8 1684,-169.8 1684,4 -4,4"/>
<text text-anchor="middle" x="840" y="-8.2" font-family="sans-serif" font-size="14.00">dependencies</text>
<g id="clust1" class="cluster">
<title>cluster_InstalledProductsModule</title>
<polygon fill="none" stroke="black" stroke-dasharray="1,5" points="8,-32.8 8,-157.8 1672,-157.8 1672,-32.8 8,-32.8"/>
</g>
<g id="clust2" class="cluster">
<title>cluster_InstalledProductsModule_declarations</title>
<polygon fill="none" stroke="black" points="652,-40.8 652,-92.8 1664,-92.8 1664,-40.8 652,-40.8"/>
</g>
<g id="clust8" class="cluster">
<title>cluster_InstalledProductsModule_imports</title>
<polygon fill="none" stroke="black" points="16,-40.8 16,-92.8 644,-92.8 644,-40.8 16,-40.8"/>
</g>
<!-- AssetActionFilterComponent -->
<g id="node1" class="node">
<title>AssetActionFilterComponent</title>
<polygon fill="#ffffb3" stroke="black" points="1656.37,-84.8 1475.63,-84.8 1475.63,-48.8 1656.37,-48.8 1656.37,-84.8"/>
<text text-anchor="middle" x="1566" y="-62.6" font-family="Times,serif" font-size="14.00">AssetActionFilterComponent</text>
</g>
<!-- InstalledProductsModule -->
<g id="node6" class="node">
<title>InstalledProductsModule</title>
<polygon fill="#8dd3c7" stroke="black" points="744.25,-149.8 741.25,-153.8 720.25,-153.8 717.25,-149.8 587.75,-149.8 587.75,-113.8 744.25,-113.8 744.25,-149.8"/>
<text text-anchor="middle" x="666" y="-127.6" font-family="Times,serif" font-size="14.00">InstalledProductsModule</text>
</g>
<!-- AssetActionFilterComponent&#45;&gt;InstalledProductsModule -->
<g id="edge1" class="edge">
<title>AssetActionFilterComponent&#45;&gt;InstalledProductsModule</title>
<path fill="none" stroke="black" d="M1566,-84.81C1566,-107.29 1566,-142.8 1566,-142.8 1566,-142.8 754.29,-142.8 754.29,-142.8"/>
<polygon fill="black" stroke="black" points="754.29,-139.3 744.29,-142.8 754.29,-146.3 754.29,-139.3"/>
</g>
<!-- InstalledProductsLayoutComponent -->
<g id="node2" class="node">
<title>InstalledProductsLayoutComponent</title>
<polygon fill="#ffffb3" stroke="black" points="1457.19,-84.8 1238.81,-84.8 1238.81,-48.8 1457.19,-48.8 1457.19,-84.8"/>
<text text-anchor="middle" x="1348" y="-62.6" font-family="Times,serif" font-size="14.00">InstalledProductsLayoutComponent</text>
</g>
<!-- InstalledProductsLayoutComponent&#45;&gt;InstalledProductsModule -->
<g id="edge2" class="edge">
<title>InstalledProductsLayoutComponent&#45;&gt;InstalledProductsModule</title>
<path fill="none" stroke="black" d="M1348,-84.93C1348,-105.37 1348,-135.8 1348,-135.8 1348,-135.8 754.57,-135.8 754.57,-135.8"/>
<polygon fill="black" stroke="black" points="754.57,-132.3 744.57,-135.8 754.57,-139.3 754.57,-132.3"/>
</g>
<!-- PriceTypeFilterComponent -->
<g id="node3" class="node">
<title>PriceTypeFilterComponent</title>
<polygon fill="#ffffb3" stroke="black" points="1220.69,-84.8 1051.31,-84.8 1051.31,-48.8 1220.69,-48.8 1220.69,-84.8"/>
<text text-anchor="middle" x="1136" y="-62.6" font-family="Times,serif" font-size="14.00">PriceTypeFilterComponent</text>
</g>
<!-- PriceTypeFilterComponent&#45;&gt;InstalledProductsModule -->
<g id="edge3" class="edge">
<title>PriceTypeFilterComponent&#45;&gt;InstalledProductsModule</title>
<path fill="none" stroke="black" d="M1136,-85.07C1136,-103.36 1136,-128.8 1136,-128.8 1136,-128.8 754.4,-128.8 754.4,-128.8"/>
<polygon fill="black" stroke="black" points="754.4,-125.3 744.4,-128.8 754.4,-132.3 754.4,-125.3"/>
</g>
<!-- ProductFamilyFilterComponent -->
<g id="node4" class="node">
<title>ProductFamilyFilterComponent</title>
<polygon fill="#ffffb3" stroke="black" points="1033.38,-84.8 838.62,-84.8 838.62,-48.8 1033.38,-48.8 1033.38,-84.8"/>
<text text-anchor="middle" x="936" y="-62.6" font-family="Times,serif" font-size="14.00">ProductFamilyFilterComponent</text>
</g>
<!-- ProductFamilyFilterComponent&#45;&gt;InstalledProductsModule -->
<g id="edge4" class="edge">
<title>ProductFamilyFilterComponent&#45;&gt;InstalledProductsModule</title>
<path fill="none" stroke="black" d="M936,-84.81C936,-100.85 936,-121.8 936,-121.8 936,-121.8 754.46,-121.8 754.46,-121.8"/>
<polygon fill="black" stroke="black" points="754.46,-118.3 744.46,-121.8 754.46,-125.3 754.46,-118.3"/>
</g>
<!-- RenewalFilterComponent -->
<g id="node5" class="node">
<title>RenewalFilterComponent</title>
<polygon fill="#ffffb3" stroke="black" points="820.14,-84.8 659.86,-84.8 659.86,-48.8 820.14,-48.8 820.14,-84.8"/>
<text text-anchor="middle" x="740" y="-62.6" font-family="Times,serif" font-size="14.00">RenewalFilterComponent</text>
</g>
<!-- RenewalFilterComponent&#45;&gt;InstalledProductsModule -->
<g id="edge5" class="edge">
<title>RenewalFilterComponent&#45;&gt;InstalledProductsModule</title>
<path fill="none" stroke="black" d="M702.03,-84.91C702.03,-84.91 702.03,-103.79 702.03,-103.79"/>
<polygon fill="black" stroke="black" points="698.53,-103.79 702.03,-113.79 705.53,-103.79 698.53,-103.79"/>
</g>
<!-- AlertModule -->
<g id="node7" class="node">
<title>AlertModule</title>
<polygon fill="#8dd3c7" stroke="black" points="636.31,-84.8 633.31,-88.8 612.31,-88.8 609.31,-84.8 547.69,-84.8 547.69,-48.8 636.31,-48.8 636.31,-84.8"/>
<text text-anchor="middle" x="592" y="-62.6" font-family="Times,serif" font-size="14.00">AlertModule</text>
</g>
<!-- AlertModule&#45;&gt;InstalledProductsModule -->
<g id="edge6" class="edge">
<title>AlertModule&#45;&gt;InstalledProductsModule</title>
<path fill="none" stroke="black" d="M611.89,-84.91C611.89,-84.91 611.89,-103.79 611.89,-103.79"/>
<polygon fill="black" stroke="black" points="608.39,-103.79 611.89,-113.79 615.39,-103.79 608.39,-103.79"/>
</g>
<!-- ConstraintRuleModule -->
<g id="node8" class="node">
<title>ConstraintRuleModule</title>
<polygon fill="#8dd3c7" stroke="black" points="530.32,-84.8 527.32,-88.8 506.32,-88.8 503.32,-84.8 385.68,-84.8 385.68,-48.8 530.32,-48.8 530.32,-84.8"/>
<text text-anchor="middle" x="458" y="-62.6" font-family="Times,serif" font-size="14.00">ConstraintRuleModule</text>
</g>
<!-- ConstraintRuleModule&#45;&gt;InstalledProductsModule -->
<g id="edge7" class="edge">
<title>ConstraintRuleModule&#45;&gt;InstalledProductsModule</title>
<path fill="none" stroke="black" d="M458,-84.81C458,-100.85 458,-121.8 458,-121.8 458,-121.8 577.66,-121.8 577.66,-121.8"/>
<polygon fill="black" stroke="black" points="577.66,-125.3 587.66,-121.8 577.66,-118.3 577.66,-125.3"/>
</g>
<!-- DataFilterModule -->
<g id="node9" class="node">
<title>DataFilterModule</title>
<polygon fill="#8dd3c7" stroke="black" points="368.31,-84.8 365.31,-88.8 344.31,-88.8 341.31,-84.8 251.69,-84.8 251.69,-48.8 368.31,-48.8 368.31,-84.8"/>
<text text-anchor="middle" x="310" y="-62.6" font-family="Times,serif" font-size="14.00">DataFilterModule</text>
</g>
<!-- DataFilterModule&#45;&gt;InstalledProductsModule -->
<g id="edge8" class="edge">
<title>DataFilterModule&#45;&gt;InstalledProductsModule</title>
<path fill="none" stroke="black" d="M310,-85.07C310,-103.36 310,-128.8 310,-128.8 310,-128.8 577.43,-128.8 577.43,-128.8"/>
<polygon fill="black" stroke="black" points="577.43,-132.3 587.43,-128.8 577.43,-125.3 577.43,-132.3"/>
</g>
<!-- PricingModule -->
<g id="node10" class="node">
<title>PricingModule</title>
<polygon fill="#8dd3c7" stroke="black" points="233.99,-84.8 230.99,-88.8 209.99,-88.8 206.99,-84.8 134.01,-84.8 134.01,-48.8 233.99,-48.8 233.99,-84.8"/>
<text text-anchor="middle" x="184" y="-62.6" font-family="Times,serif" font-size="14.00">PricingModule</text>
</g>
<!-- PricingModule&#45;&gt;InstalledProductsModule -->
<g id="edge9" class="edge">
<title>PricingModule&#45;&gt;InstalledProductsModule</title>
<path fill="none" stroke="black" d="M184,-84.93C184,-105.37 184,-135.8 184,-135.8 184,-135.8 577.49,-135.8 577.49,-135.8"/>
<polygon fill="black" stroke="black" points="577.49,-139.3 587.49,-135.8 577.49,-132.3 577.49,-139.3"/>
</g>
<!-- TableModule -->
<g id="node11" class="node">
<title>TableModule</title>
<polygon fill="#8dd3c7" stroke="black" points="115.92,-84.8 112.92,-88.8 91.92,-88.8 88.92,-84.8 24.08,-84.8 24.08,-48.8 115.92,-48.8 115.92,-84.8"/>
<text text-anchor="middle" x="70" y="-62.6" font-family="Times,serif" font-size="14.00">TableModule</text>
</g>
<!-- TableModule&#45;&gt;InstalledProductsModule -->
<g id="edge10" class="edge">
<title>TableModule&#45;&gt;InstalledProductsModule</title>
<path fill="none" stroke="black" d="M70,-84.81C70,-107.29 70,-142.8 70,-142.8 70,-142.8 577.47,-142.8 577.47,-142.8"/>
<polygon fill="black" stroke="black" points="577.47,-146.3 587.47,-142.8 577.47,-139.3 577.47,-146.3"/>
</g>
</g>
</svg>
