<?xml version="1.0" encoding="UTF-8" standalone="no"?>
<!DOCTYPE svg PUBLIC "-//W3C//DTD SVG 1.1//EN"
 "http://www.w3.org/Graphics/SVG/1.1/DTD/svg11.dtd">
<!-- Generated by graphviz version 2.47.3 (20210619.1520)
 -->
<!-- Title: dependencies Pages: 1 -->
<svg width="990pt" height="247pt"
 viewBox="0.00 0.00 990.00 246.80" xmlns="http://www.w3.org/2000/svg" xmlns:xlink="http://www.w3.org/1999/xlink">
<g id="graph0" class="graph" transform="scale(1 1) rotate(0) translate(4 242.8)">
<title>dependencies</title>
<polygon fill="white" stroke="transparent" points="-4,4 -4,-242.8 986,-242.8 986,4 -4,4"/>
<text text-anchor="middle" x="491" y="-8.2" font-family="sans-serif" font-size="14.00">dependencies</text>
<g id="clust1" class="cluster">
<title>cluster_LineItemTableRowModule</title>
<polygon fill="none" stroke="black" stroke-dasharray="1,5" points="8,-32.8 8,-230.8 974,-230.8 974,-32.8 8,-32.8"/>
</g>
<g id="clust2" class="cluster">
<title>cluster_LineItemTableRowModule_declarations</title>
<polygon fill="none" stroke="black" points="350,-40.8 350,-92.8 966,-92.8 966,-40.8 350,-40.8"/>
</g>
<g id="clust7" class="cluster">
<title>cluster_LineItemTableRowModule_exports</title>
<polygon fill="none" stroke="black" points="248,-170.8 248,-222.8 645,-222.8 645,-170.8 248,-170.8"/>
</g>
<g id="clust6" class="cluster">
<title>cluster_LineItemTableRowModule_imports</title>
<polygon fill="none" stroke="black" points="16,-40.8 16,-92.8 342,-92.8 342,-40.8 16,-40.8"/>
</g>
<!-- AdditionalInformationComponent -->
<g id="node1" class="node">
<title>AdditionalInformationComponent</title>
<polygon fill="#ffffb3" stroke="black" points="958.08,-84.8 749.92,-84.8 749.92,-48.8 958.08,-48.8 958.08,-84.8"/>
<text text-anchor="middle" x="854" y="-62.6" font-family="Times,serif" font-size="14.00">AdditionalInformationComponent</text>
</g>
<!-- LineItemTableRowModule -->
<g id="node4" class="node">
<title>LineItemTableRowModule</title>
<polygon fill="#8dd3c7" stroke="black" points="537.68,-149.8 534.68,-153.8 513.68,-153.8 510.68,-149.8 368.32,-149.8 368.32,-113.8 537.68,-113.8 537.68,-149.8"/>
<text text-anchor="middle" x="453" y="-127.6" font-family="Times,serif" font-size="14.00">LineItemTableRowModule</text>
</g>
<!-- AdditionalInformationComponent&#45;&gt;LineItemTableRowModule -->
<g id="edge1" class="edge">
<title>AdditionalInformationComponent&#45;&gt;LineItemTableRowModule</title>
<path fill="none" stroke="black" d="M854,-85.08C854,-106.12 854,-137.8 854,-137.8 854,-137.8 548.04,-137.8 548.04,-137.8"/>
<polygon fill="black" stroke="black" points="548.04,-134.3 538.04,-137.8 548.04,-141.3 548.04,-134.3"/>
</g>
<!-- LineItemMenuComponent -->
<g id="node2" class="node">
<title>LineItemMenuComponent</title>
<polygon fill="#ffffb3" stroke="black" points="731.81,-84.8 566.19,-84.8 566.19,-48.8 731.81,-48.8 731.81,-84.8"/>
<text text-anchor="middle" x="649" y="-62.6" font-family="Times,serif" font-size="14.00">LineItemMenuComponent</text>
</g>
<!-- LineItemMenuComponent&#45;&gt;LineItemTableRowModule -->
<g id="edge2" class="edge">
<title>LineItemMenuComponent&#45;&gt;LineItemTableRowModule</title>
<path fill="none" stroke="black" d="M601.88,-84.82C601.88,-102.17 601.88,-125.8 601.88,-125.8 601.88,-125.8 547.87,-125.8 547.87,-125.8"/>
<polygon fill="black" stroke="black" points="547.87,-122.3 537.87,-125.8 547.87,-129.3 547.87,-122.3"/>
</g>
<!-- LineItemTableRowComponent -->
<g id="node3" class="node">
<title>LineItemTableRowComponent</title>
<polygon fill="#ffffb3" stroke="black" points="548.46,-84.8 357.54,-84.8 357.54,-48.8 548.46,-48.8 548.46,-84.8"/>
<text text-anchor="middle" x="453" y="-62.6" font-family="Times,serif" font-size="14.00">LineItemTableRowComponent</text>
</g>
<!-- LineItemTableRowComponent&#45;&gt;LineItemTableRowModule -->
<g id="edge3" class="edge">
<title>LineItemTableRowComponent&#45;&gt;LineItemTableRowModule</title>
<path fill="none" stroke="black" d="M453,-84.91C453,-84.91 453,-103.79 453,-103.79"/>
<polygon fill="black" stroke="black" points="449.5,-103.79 453,-113.79 456.5,-103.79 449.5,-103.79"/>
</g>
<!-- LineItemMenuComponent  -->
<g id="node7" class="node">
<title>LineItemMenuComponent </title>
<polygon fill="#fb8072" stroke="black" points="637.31,-214.8 468.69,-214.8 468.69,-178.8 637.31,-178.8 637.31,-214.8"/>
<text text-anchor="middle" x="553" y="-192.6" font-family="Times,serif" font-size="14.00">LineItemMenuComponent </text>
</g>
<!-- LineItemTableRowModule&#45;&gt;LineItemMenuComponent  -->
<g id="edge6" class="edge">
<title>LineItemTableRowModule&#45;&gt;LineItemMenuComponent </title>
<path fill="none" stroke="black" stroke-dasharray="5,2" d="M503.09,-149.91C503.09,-149.91 503.09,-168.79 503.09,-168.79"/>
<polygon fill="black" stroke="black" points="499.59,-168.79 503.09,-178.79 506.59,-168.79 499.59,-168.79"/>
</g>
<!-- LineItemTableRowComponent  -->
<g id="node8" class="node">
<title>LineItemTableRowComponent </title>
<polygon fill="#fb8072" stroke="black" points="450.46,-214.8 255.54,-214.8 255.54,-178.8 450.46,-178.8 450.46,-214.8"/>
<text text-anchor="middle" x="353" y="-192.6" font-family="Times,serif" font-size="14.00">LineItemTableRowComponent </text>
</g>
<!-- LineItemTableRowModule&#45;&gt;LineItemTableRowComponent  -->
<g id="edge7" class="edge">
<title>LineItemTableRowModule&#45;&gt;LineItemTableRowComponent </title>
<path fill="none" stroke="black" stroke-dasharray="5,2" d="M409.32,-149.91C409.32,-149.91 409.32,-168.79 409.32,-168.79"/>
<polygon fill="black" stroke="black" points="405.82,-168.79 409.32,-178.79 412.82,-168.79 405.82,-168.79"/>
</g>
<!-- ConfigurationSummaryModule -->
<g id="node5" class="node">
<title>ConfigurationSummaryModule</title>
<polygon fill="#8dd3c7" stroke="black" points="334.03,-84.8 331.03,-88.8 310.03,-88.8 307.03,-84.8 141.97,-84.8 141.97,-48.8 334.03,-48.8 334.03,-84.8"/>
<text text-anchor="middle" x="238" y="-62.6" font-family="Times,serif" font-size="14.00">ConfigurationSummaryModule</text>
</g>
<!-- ConfigurationSummaryModule&#45;&gt;LineItemTableRowModule -->
<g id="edge4" class="edge">
<title>ConfigurationSummaryModule&#45;&gt;LineItemTableRowModule</title>
<path fill="none" stroke="black" d="M295.02,-84.82C295.02,-102.17 295.02,-125.8 295.02,-125.8 295.02,-125.8 358,-125.8 358,-125.8"/>
<polygon fill="black" stroke="black" points="358,-129.3 368,-125.8 358,-122.3 358,-129.3"/>
</g>
<!-- PricingModule -->
<g id="node6" class="node">
<title>PricingModule</title>
<polygon fill="#8dd3c7" stroke="black" points="123.99,-84.8 120.99,-88.8 99.99,-88.8 96.99,-84.8 24.01,-84.8 24.01,-48.8 123.99,-48.8 123.99,-84.8"/>
<text text-anchor="middle" x="74" y="-62.6" font-family="Times,serif" font-size="14.00">PricingModule</text>
</g>
<!-- PricingModule&#45;&gt;LineItemTableRowModule -->
<g id="edge5" class="edge">
<title>PricingModule&#45;&gt;LineItemTableRowModule</title>
<path fill="none" stroke="black" d="M74,-85.08C74,-106.12 74,-137.8 74,-137.8 74,-137.8 357.95,-137.8 357.95,-137.8"/>
<polygon fill="black" stroke="black" points="357.95,-141.3 367.95,-137.8 357.94,-134.3 357.95,-141.3"/>
</g>
</g>
</svg>
