<?xml version="1.0" encoding="UTF-8" standalone="no"?>
<!DOCTYPE svg PUBLIC "-//W3C//DTD SVG 1.1//EN"
 "http://www.w3.org/Graphics/SVG/1.1/DTD/svg11.dtd">
<!-- Generated by graphviz version 5.0.0 (20220707.1540)
 -->
<!-- Title: dependencies Pages: 1 -->
<svg width="990pt" height="247pt"
 viewBox="0.00 0.00 990.00 246.80" xmlns="http://www.w3.org/2000/svg" xmlns:xlink="http://www.w3.org/1999/xlink">
<g id="graph0" class="graph" transform="scale(1 1) rotate(0) translate(4 242.8)">
<title>dependencies</title>
<polygon fill="white" stroke="transparent" points="-4,4 -4,-242.8 986,-242.8 986,4 -4,4"/>
<text text-anchor="middle" x="491" y="-8.2" font-family="sans-serif" font-size="14.00">dependencies</text>
<g id="clust1" class="cluster">
<title>cluster_LineItemTableRowModule</title>
<polygon fill="none" stroke="black" stroke-dasharray="1,5" points="8,-32.8 8,-230.8 974,-230.8 974,-32.8 8,-32.8"/>
</g>
<g id="clust7" class="cluster">
<title>cluster_LineItemTableRowModule_exports</title>
<polygon fill="none" stroke="black" points="315,-170.8 315,-222.8 712,-222.8 712,-170.8 315,-170.8"/>
</g>
<g id="clust6" class="cluster">
<title>cluster_LineItemTableRowModule_imports</title>
<polygon fill="none" stroke="black" points="640,-40.8 640,-92.8 966,-92.8 966,-40.8 640,-40.8"/>
</g>
<g id="clust2" class="cluster">
<title>cluster_LineItemTableRowModule_declarations</title>
<polygon fill="none" stroke="black" points="16,-40.8 16,-92.8 632,-92.8 632,-40.8 16,-40.8"/>
</g>
<!-- AdditionalInformationComponent -->
<g id="node1" class="node">
<title>AdditionalInformationComponent</title>
<polygon fill="#ffffb3" stroke="black" points="624.08,-84.8 415.92,-84.8 415.92,-48.8 624.08,-48.8 624.08,-84.8"/>
<text text-anchor="middle" x="520" y="-62.6" font-family="Times,serif" font-size="14.00">AdditionalInformationComponent</text>
</g>
<!-- LineItemTableRowModule -->
<g id="node4" class="node">
<title>LineItemTableRowModule</title>
<polygon fill="#8dd3c7" stroke="black" points="604.68,-149.8 601.68,-153.8 580.68,-153.8 577.68,-149.8 435.32,-149.8 435.32,-113.8 604.68,-113.8 604.68,-149.8"/>
<text text-anchor="middle" x="520" y="-127.6" font-family="Times,serif" font-size="14.00">LineItemTableRowModule</text>
</g>
<!-- AdditionalInformationComponent&#45;&gt;LineItemTableRowModule -->
<g id="edge1" class="edge">
<title>AdditionalInformationComponent&#45;&gt;LineItemTableRowModule</title>
<path fill="none" stroke="black" d="M520,-84.91C520,-84.91 520,-103.79 520,-103.79"/>
<polygon fill="black" stroke="black" points="516.5,-103.79 520,-113.79 523.5,-103.79 516.5,-103.79"/>
</g>
<!-- LineItemMenuComponent -->
<g id="node2" class="node">
<title>LineItemMenuComponent</title>
<polygon fill="#ffffb3" stroke="black" points="397.8,-84.8 232.2,-84.8 232.2,-48.8 397.8,-48.8 397.8,-84.8"/>
<text text-anchor="middle" x="315" y="-62.6" font-family="Times,serif" font-size="14.00">LineItemMenuComponent</text>
</g>
<!-- LineItemMenuComponent&#45;&gt;LineItemTableRowModule -->
<g id="edge2" class="edge">
<title>LineItemMenuComponent&#45;&gt;LineItemTableRowModule</title>
<path fill="none" stroke="black" d="M360.21,-84.82C360.21,-102.17 360.21,-125.8 360.21,-125.8 360.21,-125.8 424.96,-125.8 424.96,-125.8"/>
<polygon fill="black" stroke="black" points="424.96,-129.3 434.96,-125.8 424.96,-122.3 424.96,-129.3"/>
</g>
<!-- LineItemTableRowComponent -->
<g id="node3" class="node">
<title>LineItemTableRowComponent</title>
<polygon fill="#ffffb3" stroke="black" points="214.46,-84.8 23.54,-84.8 23.54,-48.8 214.46,-48.8 214.46,-84.8"/>
<text text-anchor="middle" x="119" y="-62.6" font-family="Times,serif" font-size="14.00">LineItemTableRowComponent</text>
</g>
<!-- LineItemTableRowComponent&#45;&gt;LineItemTableRowModule -->
<g id="edge3" class="edge">
<title>LineItemTableRowComponent&#45;&gt;LineItemTableRowModule</title>
<path fill="none" stroke="black" d="M119,-85.08C119,-106.12 119,-137.8 119,-137.8 119,-137.8 424.96,-137.8 424.96,-137.8"/>
<polygon fill="black" stroke="black" points="424.96,-141.3 434.96,-137.8 424.96,-134.3 424.96,-141.3"/>
</g>
<!-- LineItemMenuComponent  -->
<g id="node7" class="node">
<title>LineItemMenuComponent </title>
<polygon fill="#fb8072" stroke="black" points="704.3,-214.8 535.7,-214.8 535.7,-178.8 704.3,-178.8 704.3,-214.8"/>
<text text-anchor="middle" x="620" y="-192.6" font-family="Times,serif" font-size="14.00">LineItemMenuComponent </text>
</g>
<!-- LineItemTableRowModule&#45;&gt;LineItemMenuComponent  -->
<g id="edge6" class="edge">
<title>LineItemTableRowModule&#45;&gt;LineItemMenuComponent </title>
<path fill="none" stroke="black" stroke-dasharray="5,2" d="M570.09,-149.91C570.09,-149.91 570.09,-168.79 570.09,-168.79"/>
<polygon fill="black" stroke="black" points="566.59,-168.79 570.09,-178.79 573.59,-168.79 566.59,-168.79"/>
</g>
<!-- LineItemTableRowComponent  -->
<g id="node8" class="node">
<title>LineItemTableRowComponent </title>
<polygon fill="#fb8072" stroke="black" points="517.46,-214.8 322.54,-214.8 322.54,-178.8 517.46,-178.8 517.46,-214.8"/>
<text text-anchor="middle" x="420" y="-192.6" font-family="Times,serif" font-size="14.00">LineItemTableRowComponent </text>
</g>
<!-- LineItemTableRowModule&#45;&gt;LineItemTableRowComponent  -->
<g id="edge7" class="edge">
<title>LineItemTableRowModule&#45;&gt;LineItemTableRowComponent </title>
<path fill="none" stroke="black" stroke-dasharray="5,2" d="M476.32,-149.91C476.32,-149.91 476.32,-168.79 476.32,-168.79"/>
<polygon fill="black" stroke="black" points="472.82,-168.79 476.32,-178.79 479.82,-168.79 472.82,-168.79"/>
</g>
<!-- ConfigurationSummaryModule -->
<g id="node5" class="node">
<title>ConfigurationSummaryModule</title>
<polygon fill="#8dd3c7" stroke="black" points="958.04,-84.8 955.04,-88.8 934.04,-88.8 931.04,-84.8 765.96,-84.8 765.96,-48.8 958.04,-48.8 958.04,-84.8"/>
<text text-anchor="middle" x="862" y="-62.6" font-family="Times,serif" font-size="14.00">ConfigurationSummaryModule</text>
</g>
<!-- ConfigurationSummaryModule&#45;&gt;LineItemTableRowModule -->
<g id="edge4" class="edge">
<title>ConfigurationSummaryModule&#45;&gt;LineItemTableRowModule</title>
<path fill="none" stroke="black" d="M862,-85.08C862,-106.12 862,-137.8 862,-137.8 862,-137.8 614.98,-137.8 614.98,-137.8"/>
<polygon fill="black" stroke="black" points="614.98,-134.3 604.98,-137.8 614.98,-141.3 614.98,-134.3"/>
</g>
<!-- PricingModule -->
<g id="node6" class="node">
<title>PricingModule</title>
<polygon fill="#8dd3c7" stroke="black" points="747.99,-84.8 744.99,-88.8 723.99,-88.8 720.99,-84.8 648.01,-84.8 648.01,-48.8 747.99,-48.8 747.99,-84.8"/>
<text text-anchor="middle" x="698" y="-62.6" font-family="Times,serif" font-size="14.00">PricingModule</text>
</g>
<!-- PricingModule&#45;&gt;LineItemTableRowModule -->
<g id="edge5" class="edge">
<title>PricingModule&#45;&gt;LineItemTableRowModule</title>
<path fill="none" stroke="black" d="M676.2,-84.82C676.2,-102.17 676.2,-125.8 676.2,-125.8 676.2,-125.8 614.96,-125.8 614.96,-125.8"/>
<polygon fill="black" stroke="black" points="614.96,-122.3 604.96,-125.8 614.96,-129.3 614.96,-122.3"/>
</g>
</g>
</svg>
