<?xml version="1.0" encoding="UTF-8" standalone="no"?>
<!DOCTYPE svg PUBLIC "-//W3C//DTD SVG 1.1//EN"
 "http://www.w3.org/Graphics/SVG/1.1/DTD/svg11.dtd">
<!-- Generated by graphviz version 2.47.3 (20210619.1520)
 -->
<!-- Title: dependencies Pages: 1 -->
<svg width="1434pt" height="247pt"
 viewBox="0.00 0.00 1434.00 246.80" xmlns="http://www.w3.org/2000/svg" xmlns:xlink="http://www.w3.org/1999/xlink">
<g id="graph0" class="graph" transform="scale(1 1) rotate(0) translate(4 242.8)">
<title>dependencies</title>
<polygon fill="white" stroke="transparent" points="-4,4 -4,-242.8 1430,-242.8 1430,4 -4,4"/>
<text text-anchor="middle" x="713" y="-8.2" font-family="sans-serif" font-size="14.00">dependencies</text>
<g id="clust1" class="cluster">
<title>cluster_FilterModule</title>
<polygon fill="none" stroke="black" stroke-dasharray="1,5" points="8,-32.8 8,-230.8 1418,-230.8 1418,-32.8 8,-32.8"/>
</g>
<g id="clust6" class="cluster">
<title>cluster_FilterModule_imports</title>
<polygon fill="none" stroke="black" points="562,-40.8 562,-92.8 1410,-92.8 1410,-40.8 562,-40.8"/>
</g>
<g id="clust7" class="cluster">
<title>cluster_FilterModule_exports</title>
<polygon fill="none" stroke="black" points="524,-170.8 524,-222.8 1074,-222.8 1074,-170.8 524,-170.8"/>
</g>
<g id="clust2" class="cluster">
<title>cluster_FilterModule_declarations</title>
<polygon fill="none" stroke="black" points="16,-40.8 16,-92.8 554,-92.8 554,-40.8 16,-40.8"/>
</g>
<!-- FieldFilterComponent -->
<g id="node1" class="node">
<title>FieldFilterComponent</title>
<polygon fill="#ffffb3" stroke="black" points="546.44,-84.8 405.56,-84.8 405.56,-48.8 546.44,-48.8 546.44,-84.8"/>
<text text-anchor="middle" x="476" y="-62.6" font-family="Times,serif" font-size="14.00">FieldFilterComponent</text>
</g>
<!-- FilterModule -->
<g id="node4" class="node">
<title>FilterModule</title>
<polygon fill="#8dd3c7" stroke="black" points="854.88,-149.8 851.88,-153.8 830.88,-153.8 827.88,-149.8 765.12,-149.8 765.12,-113.8 854.88,-113.8 854.88,-149.8"/>
<text text-anchor="middle" x="810" y="-127.6" font-family="Times,serif" font-size="14.00">FilterModule</text>
</g>
<!-- FieldFilterComponent&#45;&gt;FilterModule -->
<g id="edge1" class="edge">
<title>FieldFilterComponent&#45;&gt;FilterModule</title>
<path fill="none" stroke="black" d="M538.99,-84.82C538.99,-102.17 538.99,-125.8 538.99,-125.8 538.99,-125.8 754.94,-125.8 754.94,-125.8"/>
<polygon fill="black" stroke="black" points="754.94,-129.3 764.94,-125.8 754.94,-122.3 754.94,-129.3"/>
</g>
<!-- ProductTypeFilterComponent -->
<g id="node2" class="node">
<title>ProductTypeFilterComponent</title>
<polygon fill="#ffffb3" stroke="black" points="387.98,-84.8 204.02,-84.8 204.02,-48.8 387.98,-48.8 387.98,-84.8"/>
<text text-anchor="middle" x="296" y="-62.6" font-family="Times,serif" font-size="14.00">ProductTypeFilterComponent</text>
</g>
<!-- ProductTypeFilterComponent&#45;&gt;FilterModule -->
<g id="edge2" class="edge">
<title>ProductTypeFilterComponent&#45;&gt;FilterModule</title>
<path fill="none" stroke="black" d="M296,-84.91C296,-104.14 296,-131.8 296,-131.8 296,-131.8 754.84,-131.8 754.84,-131.8"/>
<polygon fill="black" stroke="black" points="754.84,-135.3 764.84,-131.8 754.84,-128.3 754.84,-135.3"/>
</g>
<!-- CategoryFilterComponent -->
<g id="node3" class="node">
<title>CategoryFilterComponent</title>
<polygon fill="#ffffb3" stroke="black" points="186.48,-84.8 23.52,-84.8 23.52,-48.8 186.48,-48.8 186.48,-84.8"/>
<text text-anchor="middle" x="105" y="-62.6" font-family="Times,serif" font-size="14.00">CategoryFilterComponent</text>
</g>
<!-- CategoryFilterComponent&#45;&gt;FilterModule -->
<g id="edge3" class="edge">
<title>CategoryFilterComponent&#45;&gt;FilterModule</title>
<path fill="none" stroke="black" d="M105,-85.08C105,-106.12 105,-137.8 105,-137.8 105,-137.8 755.1,-137.8 755.1,-137.8"/>
<polygon fill="black" stroke="black" points="755.1,-141.3 765.1,-137.8 755.1,-134.3 755.1,-141.3"/>
</g>
<!-- FieldFilterComponent  -->
<g id="node11" class="node">
<title>FieldFilterComponent </title>
<polygon fill="#fb8072" stroke="black" points="1065.94,-214.8 922.06,-214.8 922.06,-178.8 1065.94,-178.8 1065.94,-214.8"/>
<text text-anchor="middle" x="994" y="-192.6" font-family="Times,serif" font-size="14.00">FieldFilterComponent </text>
</g>
<!-- FilterModule&#45;&gt;FieldFilterComponent  -->
<g id="edge10" class="edge">
<title>FilterModule&#45;&gt;FieldFilterComponent </title>
<path fill="none" stroke="black" stroke-dasharray="5,2" d="M855.15,-143.8C903.11,-143.8 972.09,-143.8 972.09,-143.8 972.09,-143.8 972.09,-168.56 972.09,-168.56"/>
<polygon fill="black" stroke="black" points="968.59,-168.56 972.09,-178.56 975.59,-168.56 968.59,-168.56"/>
</g>
<!-- ProductTypeFilterComponent  -->
<g id="node12" class="node">
<title>ProductTypeFilterComponent </title>
<polygon fill="#fb8072" stroke="black" points="903.98,-214.8 716.02,-214.8 716.02,-178.8 903.98,-178.8 903.98,-214.8"/>
<text text-anchor="middle" x="810" y="-192.6" font-family="Times,serif" font-size="14.00">ProductTypeFilterComponent </text>
</g>
<!-- FilterModule&#45;&gt;ProductTypeFilterComponent  -->
<g id="edge11" class="edge">
<title>FilterModule&#45;&gt;ProductTypeFilterComponent </title>
<path fill="none" stroke="black" stroke-dasharray="5,2" d="M810,-149.91C810,-149.91 810,-168.79 810,-168.79"/>
<polygon fill="black" stroke="black" points="806.5,-168.79 810,-178.79 813.5,-168.79 806.5,-168.79"/>
</g>
<!-- CategoryFilterComponent  -->
<g id="node13" class="node">
<title>CategoryFilterComponent </title>
<polygon fill="#fb8072" stroke="black" points="698.48,-214.8 531.52,-214.8 531.52,-178.8 698.48,-178.8 698.48,-214.8"/>
<text text-anchor="middle" x="615" y="-192.6" font-family="Times,serif" font-size="14.00">CategoryFilterComponent </text>
</g>
<!-- FilterModule&#45;&gt;CategoryFilterComponent  -->
<g id="edge12" class="edge">
<title>FilterModule&#45;&gt;CategoryFilterComponent </title>
<path fill="none" stroke="black" stroke-dasharray="5,2" d="M764.71,-143.8C712.61,-143.8 634.15,-143.8 634.15,-143.8 634.15,-143.8 634.15,-168.56 634.15,-168.56"/>
<polygon fill="black" stroke="black" points="630.65,-168.56 634.15,-178.56 637.65,-168.56 630.65,-168.56"/>
</g>
<!-- CommonModule -->
<g id="node5" class="node">
<title>CommonModule</title>
<polygon fill="#8dd3c7" stroke="black" points="1401.67,-84.8 1398.67,-88.8 1377.67,-88.8 1374.67,-84.8 1290.33,-84.8 1290.33,-48.8 1401.67,-48.8 1401.67,-84.8"/>
<text text-anchor="middle" x="1346" y="-62.6" font-family="Times,serif" font-size="14.00">CommonModule</text>
</g>
<!-- CommonModule&#45;&gt;FilterModule -->
<g id="edge4" class="edge">
<title>CommonModule&#45;&gt;FilterModule</title>
<path fill="none" stroke="black" d="M1346,-85.08C1346,-106.12 1346,-137.8 1346,-137.8 1346,-137.8 865.24,-137.8 865.24,-137.8"/>
<polygon fill="black" stroke="black" points="865.24,-134.3 855.24,-137.8 865.24,-141.3 865.24,-134.3"/>
</g>
<!-- InputFieldModule -->
<g id="node6" class="node">
<title>InputFieldModule</title>
<polygon fill="#8dd3c7" stroke="black" points="1271.88,-84.8 1268.88,-88.8 1247.88,-88.8 1244.88,-84.8 1154.12,-84.8 1154.12,-48.8 1271.88,-48.8 1271.88,-84.8"/>
<text text-anchor="middle" x="1213" y="-62.6" font-family="Times,serif" font-size="14.00">InputFieldModule</text>
</g>
<!-- InputFieldModule&#45;&gt;FilterModule -->
<g id="edge5" class="edge">
<title>InputFieldModule&#45;&gt;FilterModule</title>
<path fill="none" stroke="black" d="M1213,-84.91C1213,-104.14 1213,-131.8 1213,-131.8 1213,-131.8 865.06,-131.8 865.06,-131.8"/>
<polygon fill="black" stroke="black" points="865.06,-128.3 855.06,-131.8 865.06,-135.3 865.06,-128.3"/>
</g>
<!-- FormsModule -->
<g id="node7" class="node">
<title>FormsModule</title>
<polygon fill="#8dd3c7" stroke="black" points="1135.83,-84.8 1132.83,-88.8 1111.83,-88.8 1108.83,-84.8 1040.17,-84.8 1040.17,-48.8 1135.83,-48.8 1135.83,-84.8"/>
<text text-anchor="middle" x="1088" y="-62.6" font-family="Times,serif" font-size="14.00">FormsModule</text>
</g>
<!-- FormsModule&#45;&gt;FilterModule -->
<g id="edge6" class="edge">
<title>FormsModule&#45;&gt;FilterModule</title>
<path fill="none" stroke="black" d="M1053.15,-84.82C1053.15,-102.17 1053.15,-125.8 1053.15,-125.8 1053.15,-125.8 864.88,-125.8 864.88,-125.8"/>
<polygon fill="black" stroke="black" points="864.88,-122.3 854.88,-125.8 864.88,-129.3 864.88,-122.3"/>
</g>
<!-- ReactiveFormsModule -->
<g id="node8" class="node">
<title>ReactiveFormsModule</title>
<polygon fill="#8dd3c7" stroke="black" points="1022.3,-84.8 1019.3,-88.8 998.3,-88.8 995.3,-84.8 877.7,-84.8 877.7,-48.8 1022.3,-48.8 1022.3,-84.8"/>
<text text-anchor="middle" x="950" y="-62.6" font-family="Times,serif" font-size="14.00">ReactiveFormsModule</text>
</g>
<!-- ReactiveFormsModule&#45;&gt;FilterModule -->
<g id="edge7" class="edge">
<title>ReactiveFormsModule&#45;&gt;FilterModule</title>
<path fill="none" stroke="black" d="M890.79,-85.04C890.79,-100.37 890.79,-119.8 890.79,-119.8 890.79,-119.8 865.12,-119.8 865.12,-119.8"/>
<polygon fill="black" stroke="black" points="865.12,-116.3 855.12,-119.8 865.12,-123.3 865.12,-116.3"/>
</g>
<!-- PricingModule -->
<g id="node9" class="node">
<title>PricingModule</title>
<polygon fill="#8dd3c7" stroke="black" points="859.99,-84.8 856.99,-88.8 835.99,-88.8 832.99,-84.8 760.01,-84.8 760.01,-48.8 859.99,-48.8 859.99,-84.8"/>
<text text-anchor="middle" x="810" y="-62.6" font-family="Times,serif" font-size="14.00">PricingModule</text>
</g>
<!-- PricingModule&#45;&gt;FilterModule -->
<g id="edge8" class="edge">
<title>PricingModule&#45;&gt;FilterModule</title>
<path fill="none" stroke="black" d="M810,-84.91C810,-84.91 810,-103.79 810,-103.79"/>
<polygon fill="black" stroke="black" points="806.5,-103.79 810,-113.79 813.5,-103.79 806.5,-103.79"/>
</g>
<!-- TranslateModule.forChild() -->
<g id="node10" class="node">
<title>TranslateModule.forChild()</title>
<polygon fill="#8dd3c7" stroke="black" points="741.89,-84.8 738.89,-88.8 717.89,-88.8 714.89,-84.8 570.11,-84.8 570.11,-48.8 741.89,-48.8 741.89,-84.8"/>
<text text-anchor="middle" x="656" y="-62.6" font-family="Times,serif" font-size="14.00">TranslateModule.forChild()</text>
</g>
<!-- TranslateModule.forChild()&#45;&gt;FilterModule -->
<g id="edge9" class="edge">
<title>TranslateModule.forChild()&#45;&gt;FilterModule</title>
<path fill="none" stroke="black" d="M729.1,-85.04C729.1,-100.37 729.1,-119.8 729.1,-119.8 729.1,-119.8 754.82,-119.8 754.82,-119.8"/>
<polygon fill="black" stroke="black" points="754.82,-123.3 764.82,-119.8 754.82,-116.3 754.82,-123.3"/>
</g>
</g>
</svg>
