<?xml version="1.0" encoding="UTF-8" standalone="no"?>
<!DOCTYPE svg PUBLIC "-//W3C//DTD SVG 1.1//EN"
 "http://www.w3.org/Graphics/SVG/1.1/DTD/svg11.dtd">
<!-- Generated by graphviz version 2.47.3 (20210619.1520)
 -->
<!-- Title: dependencies Pages: 1 -->
<svg width="769pt" height="247pt"
 viewBox="0.00 0.00 769.00 246.80" xmlns="http://www.w3.org/2000/svg" xmlns:xlink="http://www.w3.org/1999/xlink">
<g id="graph0" class="graph" transform="scale(1 1) rotate(0) translate(4 242.8)">
<title>dependencies</title>
<polygon fill="white" stroke="transparent" points="-4,4 -4,-242.8 765,-242.8 765,4 -4,4"/>
<text text-anchor="middle" x="380.5" y="-8.2" font-family="sans-serif" font-size="14.00">dependencies</text>
<g id="clust1" class="cluster">
<title>cluster_InputSelectModule</title>
<polygon fill="none" stroke="black" stroke-dasharray="1,5" points="8,-32.8 8,-230.8 753,-230.8 753,-32.8 8,-32.8"/>
</g>
<g id="clust5" class="cluster">
<title>cluster_InputSelectModule_exports</title>
<polygon fill="none" stroke="black" points="357,-170.8 357,-222.8 521,-222.8 521,-170.8 357,-170.8"/>
</g>
<g id="clust4" class="cluster">
<title>cluster_InputSelectModule_imports</title>
<polygon fill="none" stroke="black" points="186,-40.8 186,-92.8 745,-92.8 745,-40.8 186,-40.8"/>
</g>
<g id="clust2" class="cluster">
<title>cluster_InputSelectModule_declarations</title>
<polygon fill="none" stroke="black" points="16,-40.8 16,-92.8 178,-92.8 178,-40.8 16,-40.8"/>
</g>
<!-- InputSelectComponent -->
<g id="node1" class="node">
<title>InputSelectComponent</title>
<polygon fill="#ffffb3" stroke="black" points="169.59,-84.8 24.41,-84.8 24.41,-48.8 169.59,-48.8 169.59,-84.8"/>
<text text-anchor="middle" x="97" y="-62.6" font-family="Times,serif" font-size="14.00">InputSelectComponent</text>
</g>
<!-- InputSelectModule -->
<g id="node2" class="node">
<title>InputSelectModule</title>
<polygon fill="#8dd3c7" stroke="black" points="500.81,-149.8 497.81,-153.8 476.81,-153.8 473.81,-149.8 377.19,-149.8 377.19,-113.8 500.81,-113.8 500.81,-149.8"/>
<text text-anchor="middle" x="439" y="-127.6" font-family="Times,serif" font-size="14.00">InputSelectModule</text>
</g>
<!-- InputSelectComponent&#45;&gt;InputSelectModule -->
<g id="edge1" class="edge">
<title>InputSelectComponent&#45;&gt;InputSelectModule</title>
<path fill="none" stroke="black" d="M97,-85.08C97,-106.12 97,-137.8 97,-137.8 97,-137.8 367.07,-137.8 367.07,-137.8"/>
<polygon fill="black" stroke="black" points="367.07,-141.3 377.07,-137.8 367.07,-134.3 367.07,-141.3"/>
</g>
<!-- InputSelectComponent  -->
<g id="node7" class="node">
<title>InputSelectComponent </title>
<polygon fill="#fb8072" stroke="black" points="513.09,-214.8 364.91,-214.8 364.91,-178.8 513.09,-178.8 513.09,-214.8"/>
<text text-anchor="middle" x="439" y="-192.6" font-family="Times,serif" font-size="14.00">InputSelectComponent </text>
</g>
<!-- InputSelectModule&#45;&gt;InputSelectComponent  -->
<g id="edge6" class="edge">
<title>InputSelectModule&#45;&gt;InputSelectComponent </title>
<path fill="none" stroke="black" stroke-dasharray="5,2" d="M439,-149.91C439,-149.91 439,-168.79 439,-168.79"/>
<polygon fill="black" stroke="black" points="435.5,-168.79 439,-178.79 442.5,-168.79 435.5,-168.79"/>
</g>
<!-- CommonModule -->
<g id="node3" class="node">
<title>CommonModule</title>
<polygon fill="#8dd3c7" stroke="black" points="736.67,-84.8 733.67,-88.8 712.67,-88.8 709.67,-84.8 625.33,-84.8 625.33,-48.8 736.67,-48.8 736.67,-84.8"/>
<text text-anchor="middle" x="681" y="-62.6" font-family="Times,serif" font-size="14.00">CommonModule</text>
</g>
<!-- CommonModule&#45;&gt;InputSelectModule -->
<g id="edge2" class="edge">
<title>CommonModule&#45;&gt;InputSelectModule</title>
<path fill="none" stroke="black" d="M681,-85.08C681,-106.12 681,-137.8 681,-137.8 681,-137.8 510.69,-137.8 510.69,-137.8"/>
<polygon fill="black" stroke="black" points="510.69,-134.3 500.69,-137.8 510.69,-141.3 510.69,-134.3"/>
</g>
<!-- FormsModule -->
<g id="node4" class="node">
<title>FormsModule</title>
<polygon fill="#8dd3c7" stroke="black" points="607.83,-84.8 604.83,-88.8 583.83,-88.8 580.83,-84.8 512.17,-84.8 512.17,-48.8 607.83,-48.8 607.83,-84.8"/>
<text text-anchor="middle" x="560" y="-62.6" font-family="Times,serif" font-size="14.00">FormsModule</text>
</g>
<!-- FormsModule&#45;&gt;InputSelectModule -->
<g id="edge3" class="edge">
<title>FormsModule&#45;&gt;InputSelectModule</title>
<path fill="none" stroke="black" d="M560.48,-84.82C560.48,-102.17 560.48,-125.8 560.48,-125.8 560.48,-125.8 510.81,-125.8 510.81,-125.8"/>
<polygon fill="black" stroke="black" points="510.81,-122.3 500.81,-125.8 510.81,-129.3 510.81,-122.3"/>
</g>
<!-- NgSelectModule -->
<g id="node5" class="node">
<title>NgSelectModule</title>
<polygon fill="#8dd3c7" stroke="black" points="494.36,-84.8 491.36,-88.8 470.36,-88.8 467.36,-84.8 383.64,-84.8 383.64,-48.8 494.36,-48.8 494.36,-84.8"/>
<text text-anchor="middle" x="439" y="-62.6" font-family="Times,serif" font-size="14.00">NgSelectModule</text>
</g>
<!-- NgSelectModule&#45;&gt;InputSelectModule -->
<g id="edge4" class="edge">
<title>NgSelectModule&#45;&gt;InputSelectModule</title>
<path fill="none" stroke="black" d="M439,-84.91C439,-84.91 439,-103.79 439,-103.79"/>
<polygon fill="black" stroke="black" points="435.5,-103.79 439,-113.79 442.5,-103.79 435.5,-103.79"/>
</g>
<!-- TranslateModule.forChild() -->
<g id="node6" class="node">
<title>TranslateModule.forChild()</title>
<polygon fill="#8dd3c7" stroke="black" points="365.89,-84.8 362.89,-88.8 341.89,-88.8 338.89,-84.8 194.11,-84.8 194.11,-48.8 365.89,-48.8 365.89,-84.8"/>
<text text-anchor="middle" x="280" y="-62.6" font-family="Times,serif" font-size="14.00">TranslateModule.forChild()</text>
</g>
<!-- TranslateModule.forChild()&#45;&gt;InputSelectModule -->
<g id="edge5" class="edge">
<title>TranslateModule.forChild()&#45;&gt;InputSelectModule</title>
<path fill="none" stroke="black" d="M279.38,-84.82C279.38,-102.17 279.38,-125.8 279.38,-125.8 279.38,-125.8 367.29,-125.8 367.29,-125.8"/>
<polygon fill="black" stroke="black" points="367.29,-129.3 377.29,-125.8 367.29,-122.3 367.29,-129.3"/>
</g>
</g>
</svg>
