<?xml version="1.0" encoding="UTF-8" standalone="no"?>
<!DOCTYPE svg PUBLIC "-//W3C//DTD SVG 1.1//EN"
 "http://www.w3.org/Graphics/SVG/1.1/DTD/svg11.dtd">
<!-- Generated by graphviz version 2.47.3 (20210619.1520)
 -->
<!-- Title: dependencies Pages: 1 -->
<svg width="406pt" height="174pt"
 viewBox="0.00 0.00 406.00 173.80" xmlns="http://www.w3.org/2000/svg" xmlns:xlink="http://www.w3.org/1999/xlink">
<g id="graph0" class="graph" transform="scale(1 1) rotate(0) translate(4 169.8)">
<title>dependencies</title>
<polygon fill="white" stroke="transparent" points="-4,4 -4,-169.8 402,-169.8 402,4 -4,4"/>
<text text-anchor="middle" x="199" y="-8.2" font-family="sans-serif" font-size="14.00">dependencies</text>
<g id="clust1" class="cluster">
<title>cluster_CheckoutModule</title>
<polygon fill="none" stroke="black" stroke-dasharray="1,5" points="8,-32.8 8,-157.8 390,-157.8 390,-32.8 8,-32.8"/>
</g>
<g id="clust2" class="cluster">
<title>cluster_CheckoutModule_declarations</title>
<polygon fill="none" stroke="black" points="232,-40.8 232,-92.8 382,-92.8 382,-40.8 232,-40.8"/>
</g>
<g id="clust4" class="cluster">
<title>cluster_CheckoutModule_imports</title>
<polygon fill="none" stroke="black" points="16,-40.8 16,-92.8 224,-92.8 224,-40.8 16,-40.8"/>
</g>
<!-- CheckoutComponent -->
<g id="node1" class="node">
<title>CheckoutComponent</title>
<polygon fill="#ffffb3" stroke="black" points="374.49,-84.8 239.51,-84.8 239.51,-48.8 374.49,-48.8 374.49,-84.8"/>
<text text-anchor="middle" x="307" y="-62.6" font-family="Times,serif" font-size="14.00">CheckoutComponent</text>
</g>
<!-- CheckoutModule -->
<g id="node2" class="node">
<title>CheckoutModule</title>
<polygon fill="#8dd3c7" stroke="black" points="269.71,-149.8 266.71,-153.8 245.71,-153.8 242.71,-149.8 156.29,-149.8 156.29,-113.8 269.71,-113.8 269.71,-149.8"/>
<text text-anchor="middle" x="213" y="-127.6" font-family="Times,serif" font-size="14.00">CheckoutModule</text>
</g>
<!-- CheckoutComponent&#45;&gt;CheckoutModule -->
<g id="edge1" class="edge">
<title>CheckoutComponent&#45;&gt;CheckoutModule</title>
<path fill="none" stroke="black" d="M254.55,-84.91C254.55,-84.91 254.55,-103.79 254.55,-103.79"/>
<polygon fill="black" stroke="black" points="251.05,-103.79 254.55,-113.79 258.05,-103.79 251.05,-103.79"/>
</g>
<!-- ConfigurationSummaryModule -->
<g id="node3" class="node">
<title>ConfigurationSummaryModule</title>
<polygon fill="#8dd3c7" stroke="black" points="216.03,-84.8 213.03,-88.8 192.03,-88.8 189.03,-84.8 23.97,-84.8 23.97,-48.8 216.03,-48.8 216.03,-84.8"/>
<text text-anchor="middle" x="120" y="-62.6" font-family="Times,serif" font-size="14.00">ConfigurationSummaryModule</text>
</g>
<!-- ConfigurationSummaryModule&#45;&gt;CheckoutModule -->
<g id="edge2" class="edge">
<title>ConfigurationSummaryModule&#45;&gt;CheckoutModule</title>
<path fill="none" stroke="black" d="M186.33,-84.91C186.33,-84.91 186.33,-103.79 186.33,-103.79"/>
<polygon fill="black" stroke="black" points="182.83,-103.79 186.33,-113.79 189.83,-103.79 182.83,-103.79"/>
</g>
</g>
</svg>
