<?xml version="1.0" encoding="UTF-8" standalone="no"?>
<!DOCTYPE svg PUBLIC "-//W3C//DTD SVG 1.1//EN"
 "http://www.w3.org/Graphics/SVG/1.1/DTD/svg11.dtd">
<!-- Generated by graphviz version 2.47.3 (20210619.1520)
 -->
<!-- Title: dependencies Pages: 1 -->
<svg width="1510pt" height="247pt"
 viewBox="0.00 0.00 1510.00 246.80" xmlns="http://www.w3.org/2000/svg" xmlns:xlink="http://www.w3.org/1999/xlink">
<g id="graph0" class="graph" transform="scale(1 1) rotate(0) translate(4 242.8)">
<title>dependencies</title>
<polygon fill="white" stroke="transparent" points="-4,4 -4,-242.8 1506,-242.8 1506,4 -4,4"/>
<text text-anchor="middle" x="751" y="-8.2" font-family="sans-serif" font-size="14.00">dependencies</text>
<g id="clust1" class="cluster">
<title>cluster_PriceSummaryModule</title>
<polygon fill="none" stroke="black" stroke-dasharray="1,5" points="8,-32.8 8,-230.8 1494,-230.8 1494,-32.8 8,-32.8"/>
</g>
<g id="clust4" class="cluster">
<title>cluster_PriceSummaryModule_imports</title>
<polygon fill="none" stroke="black" points="204,-40.8 204,-92.8 1486,-92.8 1486,-40.8 204,-40.8"/>
</g>
<g id="clust2" class="cluster">
<title>cluster_PriceSummaryModule_declarations</title>
<polygon fill="none" stroke="black" points="16,-40.8 16,-92.8 196,-92.8 196,-40.8 16,-40.8"/>
</g>
<g id="clust5" class="cluster">
<title>cluster_PriceSummaryModule_exports</title>
<polygon fill="none" stroke="black" points="802,-170.8 802,-222.8 986,-222.8 986,-170.8 802,-170.8"/>
</g>
<!-- PriceSummaryComponent -->
<g id="node1" class="node">
<title>PriceSummaryComponent</title>
<polygon fill="#ffffb3" stroke="black" points="188.04,-84.8 23.96,-84.8 23.96,-48.8 188.04,-48.8 188.04,-84.8"/>
<text text-anchor="middle" x="106" y="-62.6" font-family="Times,serif" font-size="14.00">PriceSummaryComponent</text>
</g>
<!-- PriceSummaryModule -->
<g id="node2" class="node">
<title>PriceSummaryModule</title>
<polygon fill="#8dd3c7" stroke="black" points="965.25,-149.8 962.25,-153.8 941.25,-153.8 938.25,-149.8 822.75,-149.8 822.75,-113.8 965.25,-113.8 965.25,-149.8"/>
<text text-anchor="middle" x="894" y="-127.6" font-family="Times,serif" font-size="14.00">PriceSummaryModule</text>
</g>
<!-- PriceSummaryComponent&#45;&gt;PriceSummaryModule -->
<g id="edge1" class="edge">
<title>PriceSummaryComponent&#45;&gt;PriceSummaryModule</title>
<path fill="none" stroke="black" d="M106,-84.81C106,-107.29 106,-142.8 106,-142.8 106,-142.8 812.68,-142.8 812.68,-142.8"/>
<polygon fill="black" stroke="black" points="812.68,-146.3 822.68,-142.8 812.68,-139.3 812.68,-146.3"/>
</g>
<!-- PriceSummaryComponent  -->
<g id="node12" class="node">
<title>PriceSummaryComponent </title>
<polygon fill="#fb8072" stroke="black" points="978.03,-214.8 809.97,-214.8 809.97,-178.8 978.03,-178.8 978.03,-214.8"/>
<text text-anchor="middle" x="894" y="-192.6" font-family="Times,serif" font-size="14.00">PriceSummaryComponent </text>
</g>
<!-- PriceSummaryModule&#45;&gt;PriceSummaryComponent  -->
<g id="edge11" class="edge">
<title>PriceSummaryModule&#45;&gt;PriceSummaryComponent </title>
<path fill="none" stroke="black" stroke-dasharray="5,2" d="M894,-149.91C894,-149.91 894,-168.79 894,-168.79"/>
<polygon fill="black" stroke="black" points="890.5,-168.79 894,-178.79 897.5,-168.79 890.5,-168.79"/>
</g>
<!-- PriceModule -->
<g id="node3" class="node">
<title>PriceModule</title>
<polygon fill="#8dd3c7" stroke="black" points="1478.31,-84.8 1475.31,-88.8 1454.31,-88.8 1451.31,-84.8 1389.69,-84.8 1389.69,-48.8 1478.31,-48.8 1478.31,-84.8"/>
<text text-anchor="middle" x="1434" y="-62.6" font-family="Times,serif" font-size="14.00">PriceModule</text>
</g>
<!-- PriceModule&#45;&gt;PriceSummaryModule -->
<g id="edge2" class="edge">
<title>PriceModule&#45;&gt;PriceSummaryModule</title>
<path fill="none" stroke="black" d="M1434,-84.81C1434,-107.29 1434,-142.8 1434,-142.8 1434,-142.8 975.43,-142.8 975.43,-142.8"/>
<polygon fill="black" stroke="black" points="975.43,-139.3 965.43,-142.8 975.43,-146.3 975.43,-139.3"/>
</g>
<!-- PricingModule -->
<g id="node4" class="node">
<title>PricingModule</title>
<polygon fill="#8dd3c7" stroke="black" points="1371.99,-84.8 1368.99,-88.8 1347.99,-88.8 1344.99,-84.8 1272.01,-84.8 1272.01,-48.8 1371.99,-48.8 1371.99,-84.8"/>
<text text-anchor="middle" x="1322" y="-62.6" font-family="Times,serif" font-size="14.00">PricingModule</text>
</g>
<!-- PricingModule&#45;&gt;PriceSummaryModule -->
<g id="edge3" class="edge">
<title>PricingModule&#45;&gt;PriceSummaryModule</title>
<path fill="none" stroke="black" d="M1322,-84.93C1322,-105.37 1322,-135.8 1322,-135.8 1322,-135.8 975.64,-135.8 975.64,-135.8"/>
<polygon fill="black" stroke="black" points="975.64,-132.3 965.64,-135.8 975.64,-139.3 975.64,-132.3"/>
</g>
<!-- CommonModule -->
<g id="node5" class="node">
<title>CommonModule</title>
<polygon fill="#8dd3c7" stroke="black" points="1253.67,-84.8 1250.67,-88.8 1229.67,-88.8 1226.67,-84.8 1142.33,-84.8 1142.33,-48.8 1253.67,-48.8 1253.67,-84.8"/>
<text text-anchor="middle" x="1198" y="-62.6" font-family="Times,serif" font-size="14.00">CommonModule</text>
</g>
<!-- CommonModule&#45;&gt;PriceSummaryModule -->
<g id="edge4" class="edge">
<title>CommonModule&#45;&gt;PriceSummaryModule</title>
<path fill="none" stroke="black" d="M1198,-85.07C1198,-103.36 1198,-128.8 1198,-128.8 1198,-128.8 975.27,-128.8 975.27,-128.8"/>
<polygon fill="black" stroke="black" points="975.27,-125.3 965.27,-128.8 975.27,-132.3 975.27,-125.3"/>
</g>
<!-- RouterModule -->
<g id="node6" class="node">
<title>RouterModule</title>
<polygon fill="#8dd3c7" stroke="black" points="1123.65,-84.8 1120.65,-88.8 1099.65,-88.8 1096.65,-84.8 1026.35,-84.8 1026.35,-48.8 1123.65,-48.8 1123.65,-84.8"/>
<text text-anchor="middle" x="1075" y="-62.6" font-family="Times,serif" font-size="14.00">RouterModule</text>
</g>
<!-- RouterModule&#45;&gt;PriceSummaryModule -->
<g id="edge5" class="edge">
<title>RouterModule&#45;&gt;PriceSummaryModule</title>
<path fill="none" stroke="black" d="M1075,-84.81C1075,-100.85 1075,-121.8 1075,-121.8 1075,-121.8 975.28,-121.8 975.28,-121.8"/>
<polygon fill="black" stroke="black" points="975.28,-118.3 965.28,-121.8 975.28,-125.3 975.28,-118.3"/>
</g>
<!-- LaddaModule -->
<g id="node7" class="node">
<title>LaddaModule</title>
<polygon fill="#8dd3c7" stroke="black" points="1008.03,-84.8 1005.03,-88.8 984.03,-88.8 981.03,-84.8 913.97,-84.8 913.97,-48.8 1008.03,-48.8 1008.03,-84.8"/>
<text text-anchor="middle" x="961" y="-62.6" font-family="Times,serif" font-size="14.00">LaddaModule</text>
</g>
<!-- LaddaModule&#45;&gt;PriceSummaryModule -->
<g id="edge6" class="edge">
<title>LaddaModule&#45;&gt;PriceSummaryModule</title>
<path fill="none" stroke="black" d="M939.56,-84.91C939.56,-84.91 939.56,-103.79 939.56,-103.79"/>
<polygon fill="black" stroke="black" points="936.06,-103.79 939.56,-113.79 943.06,-103.79 936.06,-103.79"/>
</g>
<!-- TaxPopHoverModule -->
<g id="node8" class="node">
<title>TaxPopHoverModule</title>
<polygon fill="#8dd3c7" stroke="black" points="896.08,-84.8 893.08,-88.8 872.08,-88.8 869.08,-84.8 757.92,-84.8 757.92,-48.8 896.08,-48.8 896.08,-84.8"/>
<text text-anchor="middle" x="827" y="-62.6" font-family="Times,serif" font-size="14.00">TaxPopHoverModule</text>
</g>
<!-- TaxPopHoverModule&#45;&gt;PriceSummaryModule -->
<g id="edge7" class="edge">
<title>TaxPopHoverModule&#45;&gt;PriceSummaryModule</title>
<path fill="none" stroke="black" d="M859.33,-84.91C859.33,-84.91 859.33,-103.79 859.33,-103.79"/>
<polygon fill="black" stroke="black" points="855.83,-103.79 859.33,-113.79 862.83,-103.79 855.83,-103.79"/>
</g>
<!-- PopoverModule.forRoot() -->
<g id="node9" class="node">
<title>PopoverModule.forRoot()</title>
<polygon fill="#8dd3c7" stroke="black" points="740.08,-84.8 737.08,-88.8 716.08,-88.8 713.08,-84.8 577.92,-84.8 577.92,-48.8 740.08,-48.8 740.08,-84.8"/>
<text text-anchor="middle" x="659" y="-62.6" font-family="Times,serif" font-size="14.00">PopoverModule.forRoot()</text>
</g>
<!-- PopoverModule.forRoot()&#45;&gt;PriceSummaryModule -->
<g id="edge8" class="edge">
<title>PopoverModule.forRoot()&#45;&gt;PriceSummaryModule</title>
<path fill="none" stroke="black" d="M659,-84.81C659,-100.85 659,-121.8 659,-121.8 659,-121.8 812.54,-121.8 812.54,-121.8"/>
<polygon fill="black" stroke="black" points="812.54,-125.3 822.54,-121.8 812.54,-118.3 812.54,-125.3"/>
</g>
<!-- TooltipModule.forRoot() -->
<g id="node10" class="node">
<title>TooltipModule.forRoot()</title>
<polygon fill="#8dd3c7" stroke="black" points="559.64,-84.8 556.64,-88.8 535.64,-88.8 532.64,-84.8 402.36,-84.8 402.36,-48.8 559.64,-48.8 559.64,-84.8"/>
<text text-anchor="middle" x="481" y="-62.6" font-family="Times,serif" font-size="14.00">TooltipModule.forRoot()</text>
</g>
<!-- TooltipModule.forRoot()&#45;&gt;PriceSummaryModule -->
<g id="edge9" class="edge">
<title>TooltipModule.forRoot()&#45;&gt;PriceSummaryModule</title>
<path fill="none" stroke="black" d="M481,-85.07C481,-103.36 481,-128.8 481,-128.8 481,-128.8 812.53,-128.8 812.53,-128.8"/>
<polygon fill="black" stroke="black" points="812.53,-132.3 822.53,-128.8 812.53,-125.3 812.53,-132.3"/>
</g>
<!-- TranslateModule.forChild() -->
<g id="node11" class="node">
<title>TranslateModule.forChild()</title>
<polygon fill="#8dd3c7" stroke="black" points="383.89,-84.8 380.89,-88.8 359.89,-88.8 356.89,-84.8 212.11,-84.8 212.11,-48.8 383.89,-48.8 383.89,-84.8"/>
<text text-anchor="middle" x="298" y="-62.6" font-family="Times,serif" font-size="14.00">TranslateModule.forChild()</text>
</g>
<!-- TranslateModule.forChild()&#45;&gt;PriceSummaryModule -->
<g id="edge10" class="edge">
<title>TranslateModule.forChild()&#45;&gt;PriceSummaryModule</title>
<path fill="none" stroke="black" d="M298,-84.93C298,-105.37 298,-135.8 298,-135.8 298,-135.8 812.7,-135.8 812.7,-135.8"/>
<polygon fill="black" stroke="black" points="812.7,-139.3 822.7,-135.8 812.7,-132.3 812.7,-139.3"/>
</g>
</g>
</svg>
