<?xml version="1.0" encoding="UTF-8" standalone="no"?>
<!DOCTYPE svg PUBLIC "-//W3C//DTD SVG 1.1//EN"
 "http://www.w3.org/Graphics/SVG/1.1/DTD/svg11.dtd">
<!-- Generated by graphviz version 2.47.3 (20210619.1520)
 -->
<!-- Title: dependencies Pages: 1 -->
<svg width="1199pt" height="174pt"
 viewBox="0.00 0.00 1199.00 173.80" xmlns="http://www.w3.org/2000/svg" xmlns:xlink="http://www.w3.org/1999/xlink">
<g id="graph0" class="graph" transform="scale(1 1) rotate(0) translate(4 169.8)">
<title>dependencies</title>
<polygon fill="white" stroke="transparent" points="-4,4 -4,-169.8 1195,-169.8 1195,4 -4,4"/>
<text text-anchor="middle" x="595.5" y="-8.2" font-family="sans-serif" font-size="14.00">dependencies</text>
<g id="clust1" class="cluster">
<title>cluster_AssetsModule</title>
<polygon fill="none" stroke="black" stroke-dasharray="1,5" points="8,-32.8 8,-157.8 1183,-157.8 1183,-32.8 8,-32.8"/>
</g>
<g id="clust2" class="cluster">
<title>cluster_AssetsModule_declarations</title>
<polygon fill="none" stroke="black" points="812,-40.8 812,-92.8 1175,-92.8 1175,-40.8 812,-40.8"/>
</g>
<g id="clust5" class="cluster">
<title>cluster_AssetsModule_imports</title>
<polygon fill="none" stroke="black" points="16,-40.8 16,-92.8 804,-92.8 804,-40.8 16,-40.8"/>
</g>
<!-- AssetListComponent -->
<g id="node1" class="node">
<title>AssetListComponent</title>
<polygon fill="#ffffb3" stroke="black" points="1167.21,-84.8 1032.79,-84.8 1032.79,-48.8 1167.21,-48.8 1167.21,-84.8"/>
<text text-anchor="middle" x="1100" y="-62.6" font-family="Times,serif" font-size="14.00">AssetListComponent</text>
</g>
<!-- AssetsModule -->
<g id="node3" class="node">
<title>AssetsModule</title>
<polygon fill="#8dd3c7" stroke="black" points="586.1,-149.8 583.1,-153.8 562.1,-153.8 559.1,-149.8 489.9,-149.8 489.9,-113.8 586.1,-113.8 586.1,-149.8"/>
<text text-anchor="middle" x="538" y="-127.6" font-family="Times,serif" font-size="14.00">AssetsModule</text>
</g>
<!-- AssetListComponent&#45;&gt;AssetsModule -->
<g id="edge1" class="edge">
<title>AssetListComponent&#45;&gt;AssetsModule</title>
<path fill="none" stroke="black" d="M1100,-85.09C1100,-107.01 1100,-140.8 1100,-140.8 1100,-140.8 596.4,-140.8 596.4,-140.8"/>
<polygon fill="black" stroke="black" points="596.4,-137.3 586.4,-140.8 596.4,-144.3 596.4,-137.3"/>
</g>
<!-- ProductFamilyFilterComponent -->
<g id="node2" class="node">
<title>ProductFamilyFilterComponent</title>
<polygon fill="#ffffb3" stroke="black" points="1014.38,-84.8 819.62,-84.8 819.62,-48.8 1014.38,-48.8 1014.38,-84.8"/>
<text text-anchor="middle" x="917" y="-62.6" font-family="Times,serif" font-size="14.00">ProductFamilyFilterComponent</text>
</g>
<!-- ProductFamilyFilterComponent&#45;&gt;AssetsModule -->
<g id="edge2" class="edge">
<title>ProductFamilyFilterComponent&#45;&gt;AssetsModule</title>
<path fill="none" stroke="black" d="M917,-84.91C917,-104.14 917,-131.8 917,-131.8 917,-131.8 596.39,-131.8 596.39,-131.8"/>
<polygon fill="black" stroke="black" points="596.39,-128.3 586.39,-131.8 596.39,-135.3 596.39,-128.3"/>
</g>
<!-- AlertModule -->
<g id="node4" class="node">
<title>AlertModule</title>
<polygon fill="#8dd3c7" stroke="black" points="796.31,-84.8 793.31,-88.8 772.31,-88.8 769.31,-84.8 707.69,-84.8 707.69,-48.8 796.31,-48.8 796.31,-84.8"/>
<text text-anchor="middle" x="752" y="-62.6" font-family="Times,serif" font-size="14.00">AlertModule</text>
</g>
<!-- AlertModule&#45;&gt;AssetsModule -->
<g id="edge3" class="edge">
<title>AlertModule&#45;&gt;AssetsModule</title>
<path fill="none" stroke="black" d="M752,-84.83C752,-101.2 752,-122.8 752,-122.8 752,-122.8 596.29,-122.8 596.29,-122.8"/>
<polygon fill="black" stroke="black" points="596.29,-119.3 586.29,-122.8 596.29,-126.3 596.29,-119.3"/>
</g>
<!-- AssetsRoutingModule -->
<g id="node5" class="node">
<title>AssetsRoutingModule</title>
<polygon fill="#8dd3c7" stroke="black" points="689.71,-84.8 686.71,-88.8 665.71,-88.8 662.71,-84.8 548.29,-84.8 548.29,-48.8 689.71,-48.8 689.71,-84.8"/>
<text text-anchor="middle" x="619" y="-62.6" font-family="Times,serif" font-size="14.00">AssetsRoutingModule</text>
</g>
<!-- AssetsRoutingModule&#45;&gt;AssetsModule -->
<g id="edge4" class="edge">
<title>AssetsRoutingModule&#45;&gt;AssetsModule</title>
<path fill="none" stroke="black" d="M567.22,-84.91C567.22,-84.91 567.22,-103.79 567.22,-103.79"/>
<polygon fill="black" stroke="black" points="563.72,-103.79 567.22,-113.79 570.72,-103.79 563.72,-103.79"/>
</g>
<!-- ConstraintRuleModule -->
<g id="node6" class="node">
<title>ConstraintRuleModule</title>
<polygon fill="#8dd3c7" stroke="black" points="530.32,-84.8 527.32,-88.8 506.32,-88.8 503.32,-84.8 385.68,-84.8 385.68,-48.8 530.32,-48.8 530.32,-84.8"/>
<text text-anchor="middle" x="458" y="-62.6" font-family="Times,serif" font-size="14.00">ConstraintRuleModule</text>
</g>
<!-- ConstraintRuleModule&#45;&gt;AssetsModule -->
<g id="edge5" class="edge">
<title>ConstraintRuleModule&#45;&gt;AssetsModule</title>
<path fill="none" stroke="black" d="M510.06,-84.91C510.06,-84.91 510.06,-103.79 510.06,-103.79"/>
<polygon fill="black" stroke="black" points="506.56,-103.79 510.06,-113.79 513.56,-103.79 506.56,-103.79"/>
</g>
<!-- DataFilterModule -->
<g id="node7" class="node">
<title>DataFilterModule</title>
<polygon fill="#8dd3c7" stroke="black" points="368.31,-84.8 365.31,-88.8 344.31,-88.8 341.31,-84.8 251.69,-84.8 251.69,-48.8 368.31,-48.8 368.31,-84.8"/>
<text text-anchor="middle" x="310" y="-62.6" font-family="Times,serif" font-size="14.00">DataFilterModule</text>
</g>
<!-- DataFilterModule&#45;&gt;AssetsModule -->
<g id="edge6" class="edge">
<title>DataFilterModule&#45;&gt;AssetsModule</title>
<path fill="none" stroke="black" d="M310,-84.83C310,-101.2 310,-122.8 310,-122.8 310,-122.8 479.93,-122.8 479.93,-122.8"/>
<polygon fill="black" stroke="black" points="479.93,-126.3 489.93,-122.8 479.93,-119.3 479.93,-126.3"/>
</g>
<!-- PricingModule -->
<g id="node8" class="node">
<title>PricingModule</title>
<polygon fill="#8dd3c7" stroke="black" points="233.99,-84.8 230.99,-88.8 209.99,-88.8 206.99,-84.8 134.01,-84.8 134.01,-48.8 233.99,-48.8 233.99,-84.8"/>
<text text-anchor="middle" x="184" y="-62.6" font-family="Times,serif" font-size="14.00">PricingModule</text>
</g>
<!-- PricingModule&#45;&gt;AssetsModule -->
<g id="edge7" class="edge">
<title>PricingModule&#45;&gt;AssetsModule</title>
<path fill="none" stroke="black" d="M184,-84.91C184,-104.14 184,-131.8 184,-131.8 184,-131.8 479.89,-131.8 479.89,-131.8"/>
<polygon fill="black" stroke="black" points="479.89,-135.3 489.89,-131.8 479.89,-128.3 479.89,-135.3"/>
</g>
<!-- TableModule -->
<g id="node9" class="node">
<title>TableModule</title>
<polygon fill="#8dd3c7" stroke="black" points="115.92,-84.8 112.92,-88.8 91.92,-88.8 88.92,-84.8 24.08,-84.8 24.08,-48.8 115.92,-48.8 115.92,-84.8"/>
<text text-anchor="middle" x="70" y="-62.6" font-family="Times,serif" font-size="14.00">TableModule</text>
</g>
<!-- TableModule&#45;&gt;AssetsModule -->
<g id="edge8" class="edge">
<title>TableModule&#45;&gt;AssetsModule</title>
<path fill="none" stroke="black" d="M70,-85.09C70,-107.01 70,-140.8 70,-140.8 70,-140.8 479.68,-140.8 479.68,-140.8"/>
<polygon fill="black" stroke="black" points="479.68,-144.3 489.68,-140.8 479.68,-137.3 479.68,-144.3"/>
</g>
</g>
</svg>
