<?xml version="1.0" encoding="UTF-8" standalone="no"?>
<!DOCTYPE svg PUBLIC "-//W3C//DTD SVG 1.1//EN"
 "http://www.w3.org/Graphics/SVG/1.1/DTD/svg11.dtd">
<!-- Generated by graphviz version 2.47.3 (20210619.1520)
 -->
<!-- Title: dependencies Pages: 1 -->
<svg width="1393pt" height="247pt"
 viewBox="0.00 0.00 1393.00 246.80" xmlns="http://www.w3.org/2000/svg" xmlns:xlink="http://www.w3.org/1999/xlink">
<g id="graph0" class="graph" transform="scale(1 1) rotate(0) translate(4 242.8)">
<title>dependencies</title>
<polygon fill="white" stroke="transparent" points="-4,4 -4,-242.8 1389,-242.8 1389,4 -4,4"/>
<text text-anchor="middle" x="692.5" y="-8.2" font-family="sans-serif" font-size="14.00">dependencies</text>
<g id="clust1" class="cluster">
<title>cluster_ConstraintPopoverModule</title>
<polygon fill="none" stroke="black" stroke-dasharray="1,5" points="8,-32.8 8,-230.8 1377,-230.8 1377,-32.8 8,-32.8"/>
</g>
<g id="clust2" class="cluster">
<title>cluster_ConstraintPopoverModule_declarations</title>
<polygon fill="none" stroke="black" points="1207,-40.8 1207,-92.8 1369,-92.8 1369,-40.8 1207,-40.8"/>
</g>
<g id="clust5" class="cluster">
<title>cluster_ConstraintPopoverModule_exports</title>
<polygon fill="none" stroke="black" points="721,-170.8 721,-222.8 887,-222.8 887,-170.8 721,-170.8"/>
</g>
<g id="clust4" class="cluster">
<title>cluster_ConstraintPopoverModule_imports</title>
<polygon fill="none" stroke="black" points="264,-40.8 264,-92.8 1199,-92.8 1199,-40.8 264,-40.8"/>
</g>
<g id="clust7" class="cluster">
<title>cluster_ConstraintPopoverModule_providers</title>
<polygon fill="none" stroke="black" points="16,-40.8 16,-92.8 256,-92.8 256,-40.8 16,-40.8"/>
</g>
<!-- CRPopoverComponent -->
<g id="node1" class="node">
<title>CRPopoverComponent</title>
<polygon fill="#ffffb3" stroke="black" points="1361.16,-84.8 1214.84,-84.8 1214.84,-48.8 1361.16,-48.8 1361.16,-84.8"/>
<text text-anchor="middle" x="1288" y="-62.6" font-family="Times,serif" font-size="14.00">CRPopoverComponent</text>
</g>
<!-- ConstraintPopoverModule -->
<g id="node2" class="node">
<title>ConstraintPopoverModule</title>
<polygon fill="#8dd3c7" stroke="black" points="886.04,-149.8 883.04,-153.8 862.04,-153.8 859.04,-149.8 721.96,-149.8 721.96,-113.8 886.04,-113.8 886.04,-149.8"/>
<text text-anchor="middle" x="804" y="-127.6" font-family="Times,serif" font-size="14.00">ConstraintPopoverModule</text>
</g>
<!-- CRPopoverComponent&#45;&gt;ConstraintPopoverModule -->
<g id="edge1" class="edge">
<title>CRPopoverComponent&#45;&gt;ConstraintPopoverModule</title>
<path fill="none" stroke="black" d="M1288,-85.09C1288,-107.01 1288,-140.8 1288,-140.8 1288,-140.8 896.1,-140.8 896.1,-140.8"/>
<polygon fill="black" stroke="black" points="896.1,-137.3 886.1,-140.8 896.1,-144.3 896.1,-137.3"/>
</g>
<!-- CRPopoverComponent  -->
<g id="node10" class="node">
<title>CRPopoverComponent </title>
<polygon fill="#fb8072" stroke="black" points="879.16,-214.8 728.84,-214.8 728.84,-178.8 879.16,-178.8 879.16,-214.8"/>
<text text-anchor="middle" x="804" y="-192.6" font-family="Times,serif" font-size="14.00">CRPopoverComponent </text>
</g>
<!-- ConstraintPopoverModule&#45;&gt;CRPopoverComponent  -->
<g id="edge9" class="edge">
<title>ConstraintPopoverModule&#45;&gt;CRPopoverComponent </title>
<path fill="none" stroke="black" stroke-dasharray="5,2" d="M804,-149.91C804,-149.91 804,-168.79 804,-168.79"/>
<polygon fill="black" stroke="black" points="800.5,-168.79 804,-178.79 807.5,-168.79 800.5,-168.79"/>
</g>
<!-- CommonModule -->
<g id="node3" class="node">
<title>CommonModule</title>
<polygon fill="#8dd3c7" stroke="black" points="1190.67,-84.8 1187.67,-88.8 1166.67,-88.8 1163.67,-84.8 1079.33,-84.8 1079.33,-48.8 1190.67,-48.8 1190.67,-84.8"/>
<text text-anchor="middle" x="1135" y="-62.6" font-family="Times,serif" font-size="14.00">CommonModule</text>
</g>
<!-- CommonModule&#45;&gt;ConstraintPopoverModule -->
<g id="edge2" class="edge">
<title>CommonModule&#45;&gt;ConstraintPopoverModule</title>
<path fill="none" stroke="black" d="M1135,-84.91C1135,-104.14 1135,-131.8 1135,-131.8 1135,-131.8 896.25,-131.8 896.25,-131.8"/>
<polygon fill="black" stroke="black" points="896.25,-128.3 886.25,-131.8 896.25,-135.3 896.25,-128.3"/>
</g>
<!-- PriceModule -->
<g id="node4" class="node">
<title>PriceModule</title>
<polygon fill="#8dd3c7" stroke="black" points="1061.31,-84.8 1058.31,-88.8 1037.31,-88.8 1034.31,-84.8 972.69,-84.8 972.69,-48.8 1061.31,-48.8 1061.31,-84.8"/>
<text text-anchor="middle" x="1017" y="-62.6" font-family="Times,serif" font-size="14.00">PriceModule</text>
</g>
<!-- PriceModule&#45;&gt;ConstraintPopoverModule -->
<g id="edge3" class="edge">
<title>PriceModule&#45;&gt;ConstraintPopoverModule</title>
<path fill="none" stroke="black" d="M1017,-84.83C1017,-101.2 1017,-122.8 1017,-122.8 1017,-122.8 896.05,-122.8 896.05,-122.8"/>
<polygon fill="black" stroke="black" points="896.05,-119.3 886.05,-122.8 896.05,-126.3 896.05,-119.3"/>
</g>
<!-- IconModule -->
<g id="node5" class="node">
<title>IconModule</title>
<polygon fill="#8dd3c7" stroke="black" points="955.43,-84.8 952.43,-88.8 931.43,-88.8 928.43,-84.8 870.57,-84.8 870.57,-48.8 955.43,-48.8 955.43,-84.8"/>
<text text-anchor="middle" x="913" y="-62.6" font-family="Times,serif" font-size="14.00">IconModule</text>
</g>
<!-- IconModule&#45;&gt;ConstraintPopoverModule -->
<g id="edge4" class="edge">
<title>IconModule&#45;&gt;ConstraintPopoverModule</title>
<path fill="none" stroke="black" d="M878.53,-84.91C878.53,-84.91 878.53,-103.79 878.53,-103.79"/>
<polygon fill="black" stroke="black" points="875.03,-103.79 878.53,-113.79 882.03,-103.79 875.03,-103.79"/>
</g>
<!-- RouterModule -->
<g id="node6" class="node">
<title>RouterModule</title>
<polygon fill="#8dd3c7" stroke="black" points="852.65,-84.8 849.65,-88.8 828.65,-88.8 825.65,-84.8 755.35,-84.8 755.35,-48.8 852.65,-48.8 852.65,-84.8"/>
<text text-anchor="middle" x="804" y="-62.6" font-family="Times,serif" font-size="14.00">RouterModule</text>
</g>
<!-- RouterModule&#45;&gt;ConstraintPopoverModule -->
<g id="edge5" class="edge">
<title>RouterModule&#45;&gt;ConstraintPopoverModule</title>
<path fill="none" stroke="black" d="M804,-84.91C804,-84.91 804,-103.79 804,-103.79"/>
<polygon fill="black" stroke="black" points="800.5,-103.79 804,-113.79 807.5,-103.79 800.5,-103.79"/>
</g>
<!-- FormsModule -->
<g id="node7" class="node">
<title>FormsModule</title>
<polygon fill="#8dd3c7" stroke="black" points="737.83,-84.8 734.83,-88.8 713.83,-88.8 710.83,-84.8 642.17,-84.8 642.17,-48.8 737.83,-48.8 737.83,-84.8"/>
<text text-anchor="middle" x="690" y="-62.6" font-family="Times,serif" font-size="14.00">FormsModule</text>
</g>
<!-- FormsModule&#45;&gt;ConstraintPopoverModule -->
<g id="edge6" class="edge">
<title>FormsModule&#45;&gt;ConstraintPopoverModule</title>
<path fill="none" stroke="black" d="M729.7,-84.91C729.7,-84.91 729.7,-103.79 729.7,-103.79"/>
<polygon fill="black" stroke="black" points="726.2,-103.79 729.7,-113.79 733.2,-103.79 726.2,-103.79"/>
</g>
<!-- PopoverModule.forRoot() -->
<g id="node8" class="node">
<title>PopoverModule.forRoot()</title>
<polygon fill="#8dd3c7" stroke="black" points="624.08,-84.8 621.08,-88.8 600.08,-88.8 597.08,-84.8 461.92,-84.8 461.92,-48.8 624.08,-48.8 624.08,-84.8"/>
<text text-anchor="middle" x="543" y="-62.6" font-family="Times,serif" font-size="14.00">PopoverModule.forRoot()</text>
</g>
<!-- PopoverModule.forRoot()&#45;&gt;ConstraintPopoverModule -->
<g id="edge7" class="edge">
<title>PopoverModule.forRoot()&#45;&gt;ConstraintPopoverModule</title>
<path fill="none" stroke="black" d="M543,-84.83C543,-101.2 543,-122.8 543,-122.8 543,-122.8 711.78,-122.8 711.78,-122.8"/>
<polygon fill="black" stroke="black" points="711.78,-126.3 721.78,-122.8 711.78,-119.3 711.78,-126.3"/>
</g>
<!-- TranslateModule.forChild() -->
<g id="node9" class="node">
<title>TranslateModule.forChild()</title>
<polygon fill="#8dd3c7" stroke="black" points="443.89,-84.8 440.89,-88.8 419.89,-88.8 416.89,-84.8 272.11,-84.8 272.11,-48.8 443.89,-48.8 443.89,-84.8"/>
<text text-anchor="middle" x="358" y="-62.6" font-family="Times,serif" font-size="14.00">TranslateModule.forChild()</text>
</g>
<!-- TranslateModule.forChild()&#45;&gt;ConstraintPopoverModule -->
<g id="edge8" class="edge">
<title>TranslateModule.forChild()&#45;&gt;ConstraintPopoverModule</title>
<path fill="none" stroke="black" d="M358,-84.91C358,-104.14 358,-131.8 358,-131.8 358,-131.8 711.94,-131.8 711.94,-131.8"/>
<polygon fill="black" stroke="black" points="711.94,-135.3 721.94,-131.8 711.94,-128.3 711.94,-135.3"/>
</g>
<!-- ConstraintPopoverService -->
<g id="node11" class="node">
<title>ConstraintPopoverService</title>
<ellipse fill="#fdb462" stroke="black" cx="136" cy="-66.8" rx="112.32" ry="18"/>
<text text-anchor="middle" x="136" y="-62.6" font-family="Times,serif" font-size="14.00">ConstraintPopoverService</text>
</g>
<!-- ConstraintPopoverService&#45;&gt;ConstraintPopoverModule -->
<g id="edge10" class="edge">
<title>ConstraintPopoverService&#45;&gt;ConstraintPopoverModule</title>
<path fill="none" stroke="black" d="M136,-85.09C136,-107.01 136,-140.8 136,-140.8 136,-140.8 711.76,-140.8 711.76,-140.8"/>
<polygon fill="black" stroke="black" points="711.76,-144.3 721.76,-140.8 711.76,-137.3 711.76,-144.3"/>
</g>
</g>
</svg>
