<?xml version="1.0" encoding="UTF-8" standalone="no"?>
<!DOCTYPE svg PUBLIC "-//W3C//DTD SVG 1.1//EN"
 "http://www.w3.org/Graphics/SVG/1.1/DTD/svg11.dtd">
<!-- Generated by graphviz version 2.47.3 (20210619.1520)
 -->
<!-- Title: dependencies Pages: 1 -->
<svg width="1293pt" height="247pt"
 viewBox="0.00 0.00 1293.00 246.80" xmlns="http://www.w3.org/2000/svg" xmlns:xlink="http://www.w3.org/1999/xlink">
<g id="graph0" class="graph" transform="scale(1 1) rotate(0) translate(4 242.8)">
<title>dependencies</title>
<polygon fill="white" stroke="transparent" points="-4,4 -4,-242.8 1289,-242.8 1289,4 -4,4"/>
<text text-anchor="middle" x="642.5" y="-8.2" font-family="sans-serif" font-size="14.00">dependencies</text>
<g id="clust1" class="cluster">
<title>cluster_ApttusModule</title>
<polygon fill="none" stroke="black" stroke-dasharray="1,5" points="8,-32.8 8,-230.8 1277,-230.8 1277,-32.8 8,-32.8"/>
</g>
<g id="clust2" class="cluster">
<title>cluster_ApttusModule_declarations</title>
<polygon fill="none" stroke="black" points="964,-40.8 964,-92.8 1269,-92.8 1269,-40.8 964,-40.8"/>
</g>
<g id="clust7" class="cluster">
<title>cluster_ApttusModule_exports</title>
<polygon fill="none" stroke="black" points="648,-170.8 648,-222.8 1098,-222.8 1098,-170.8 648,-170.8"/>
</g>
<g id="clust6" class="cluster">
<title>cluster_ApttusModule_imports</title>
<polygon fill="none" stroke="black" points="502,-40.8 502,-92.8 956,-92.8 956,-40.8 502,-40.8"/>
</g>
<g id="clust9" class="cluster">
<title>cluster_ApttusModule_providers</title>
<polygon fill="none" stroke="black" points="16,-40.8 16,-92.8 494,-92.8 494,-40.8 16,-40.8"/>
</g>
<!-- ImagePipe -->
<g id="node1" class="node">
<title>ImagePipe</title>
<polygon fill="#ffffb3" stroke="black" points="1260.87,-84.8 1185.13,-84.8 1185.13,-48.8 1260.87,-48.8 1260.87,-84.8"/>
<text text-anchor="middle" x="1223" y="-62.6" font-family="Times,serif" font-size="14.00">ImagePipe</text>
</g>
<!-- ApttusModule -->
<g id="node4" class="node">
<title>ApttusModule</title>
<polygon fill="#8dd3c7" stroke="black" points="940.38,-149.8 937.38,-153.8 916.38,-153.8 913.38,-149.8 843.62,-149.8 843.62,-113.8 940.38,-113.8 940.38,-149.8"/>
<text text-anchor="middle" x="892" y="-127.6" font-family="Times,serif" font-size="14.00">ApttusModule</text>
</g>
<!-- ImagePipe&#45;&gt;ApttusModule -->
<g id="edge1" class="edge">
<title>ImagePipe&#45;&gt;ApttusModule</title>
<path fill="none" stroke="black" d="M1223,-84.93C1223,-105.37 1223,-135.8 1223,-135.8 1223,-135.8 950.48,-135.8 950.48,-135.8"/>
<polygon fill="black" stroke="black" points="950.48,-132.3 940.48,-135.8 950.48,-139.3 950.48,-132.3"/>
</g>
<!-- FileSizePipe -->
<g id="node2" class="node">
<title>FileSizePipe</title>
<polygon fill="#ffffb3" stroke="black" points="1167.27,-84.8 1080.73,-84.8 1080.73,-48.8 1167.27,-48.8 1167.27,-84.8"/>
<text text-anchor="middle" x="1124" y="-62.6" font-family="Times,serif" font-size="14.00">FileSizePipe</text>
</g>
<!-- FileSizePipe&#45;&gt;ApttusModule -->
<g id="edge2" class="edge">
<title>FileSizePipe&#45;&gt;ApttusModule</title>
<path fill="none" stroke="black" d="M1085.15,-85.07C1085.15,-103.36 1085.15,-128.8 1085.15,-128.8 1085.15,-128.8 950.74,-128.8 950.74,-128.8"/>
<polygon fill="black" stroke="black" points="950.74,-125.3 940.74,-128.8 950.74,-132.3 950.74,-125.3"/>
</g>
<!-- TruncatePipe -->
<g id="node3" class="node">
<title>TruncatePipe</title>
<polygon fill="#ffffb3" stroke="black" points="1062.14,-84.8 971.86,-84.8 971.86,-48.8 1062.14,-48.8 1062.14,-84.8"/>
<text text-anchor="middle" x="1017" y="-62.6" font-family="Times,serif" font-size="14.00">TruncatePipe</text>
</g>
<!-- TruncatePipe&#45;&gt;ApttusModule -->
<g id="edge3" class="edge">
<title>TruncatePipe&#45;&gt;ApttusModule</title>
<path fill="none" stroke="black" d="M981.91,-84.81C981.91,-100.85 981.91,-121.8 981.91,-121.8 981.91,-121.8 950.64,-121.8 950.64,-121.8"/>
<polygon fill="black" stroke="black" points="950.64,-118.3 940.64,-121.8 950.64,-125.3 950.64,-118.3"/>
</g>
<!-- ImagePipe  -->
<g id="node8" class="node">
<title>ImagePipe </title>
<polygon fill="#fb8072" stroke="black" points="1089.87,-214.8 1010.13,-214.8 1010.13,-178.8 1089.87,-178.8 1089.87,-214.8"/>
<text text-anchor="middle" x="1050" y="-192.6" font-family="Times,serif" font-size="14.00">ImagePipe </text>
</g>
<!-- ApttusModule&#45;&gt;ImagePipe  -->
<g id="edge7" class="edge">
<title>ApttusModule&#45;&gt;ImagePipe </title>
<path fill="none" stroke="black" stroke-dasharray="5,2" d="M940.46,-142.8C982.38,-142.8 1036.32,-142.8 1036.32,-142.8 1036.32,-142.8 1036.32,-168.52 1036.32,-168.52"/>
<polygon fill="black" stroke="black" points="1032.82,-168.52 1036.32,-178.52 1039.82,-168.52 1032.82,-168.52"/>
</g>
<!-- FileSizePipe  -->
<g id="node9" class="node">
<title>FileSizePipe </title>
<polygon fill="#fb8072" stroke="black" points="992.27,-214.8 901.73,-214.8 901.73,-178.8 992.27,-178.8 992.27,-214.8"/>
<text text-anchor="middle" x="947" y="-192.6" font-family="Times,serif" font-size="14.00">FileSizePipe </text>
</g>
<!-- ApttusModule&#45;&gt;FileSizePipe  -->
<g id="edge8" class="edge">
<title>ApttusModule&#45;&gt;FileSizePipe </title>
<path fill="none" stroke="black" stroke-dasharray="5,2" d="M921.15,-149.91C921.15,-149.91 921.15,-168.79 921.15,-168.79"/>
<polygon fill="black" stroke="black" points="917.65,-168.79 921.15,-178.79 924.65,-168.79 917.65,-168.79"/>
</g>
<!-- TruncatePipe  -->
<g id="node10" class="node">
<title>TruncatePipe </title>
<polygon fill="#fb8072" stroke="black" points="884.14,-214.8 789.86,-214.8 789.86,-178.8 884.14,-178.8 884.14,-214.8"/>
<text text-anchor="middle" x="837" y="-192.6" font-family="Times,serif" font-size="14.00">TruncatePipe </text>
</g>
<!-- ApttusModule&#45;&gt;TruncatePipe  -->
<g id="edge9" class="edge">
<title>ApttusModule&#45;&gt;TruncatePipe </title>
<path fill="none" stroke="black" stroke-dasharray="5,2" d="M863.81,-149.91C863.81,-149.91 863.81,-168.79 863.81,-168.79"/>
<polygon fill="black" stroke="black" points="860.31,-168.79 863.81,-178.79 867.31,-168.79 860.31,-168.79"/>
</g>
<!-- TranslateModule  -->
<g id="node11" class="node">
<title>TranslateModule </title>
<polygon fill="#fb8072" stroke="black" points="771.63,-214.8 656.37,-214.8 656.37,-178.8 771.63,-178.8 771.63,-214.8"/>
<text text-anchor="middle" x="714" y="-192.6" font-family="Times,serif" font-size="14.00">TranslateModule </text>
</g>
<!-- ApttusModule&#45;&gt;TranslateModule  -->
<g id="edge10" class="edge">
<title>ApttusModule&#45;&gt;TranslateModule </title>
<path fill="none" stroke="black" stroke-dasharray="5,2" d="M843.38,-142.8C797.47,-142.8 735.62,-142.8 735.62,-142.8 735.62,-142.8 735.62,-168.52 735.62,-168.52"/>
<polygon fill="black" stroke="black" points="732.12,-168.52 735.62,-178.52 739.12,-168.52 732.12,-168.52"/>
</g>
<!-- CommonModule -->
<g id="node5" class="node">
<title>CommonModule</title>
<polygon fill="#8dd3c7" stroke="black" points="947.67,-84.8 944.67,-88.8 923.67,-88.8 920.67,-84.8 836.33,-84.8 836.33,-48.8 947.67,-48.8 947.67,-84.8"/>
<text text-anchor="middle" x="892" y="-62.6" font-family="Times,serif" font-size="14.00">CommonModule</text>
</g>
<!-- CommonModule&#45;&gt;ApttusModule -->
<g id="edge4" class="edge">
<title>CommonModule&#45;&gt;ApttusModule</title>
<path fill="none" stroke="black" d="M892,-84.91C892,-84.91 892,-103.79 892,-103.79"/>
<polygon fill="black" stroke="black" points="888.5,-103.79 892,-113.79 895.5,-103.79 888.5,-103.79"/>
</g>
<!-- HttpClientModule -->
<g id="node6" class="node">
<title>HttpClientModule</title>
<polygon fill="#8dd3c7" stroke="black" points="818.16,-84.8 815.16,-88.8 794.16,-88.8 791.16,-84.8 699.84,-84.8 699.84,-48.8 818.16,-48.8 818.16,-84.8"/>
<text text-anchor="middle" x="759" y="-62.6" font-family="Times,serif" font-size="14.00">HttpClientModule</text>
</g>
<!-- HttpClientModule&#45;&gt;ApttusModule -->
<g id="edge5" class="edge">
<title>HttpClientModule&#45;&gt;ApttusModule</title>
<path fill="none" stroke="black" d="M804.13,-84.81C804.13,-100.85 804.13,-121.8 804.13,-121.8 804.13,-121.8 833.44,-121.8 833.44,-121.8"/>
<polygon fill="black" stroke="black" points="833.44,-125.3 843.44,-121.8 833.44,-118.3 833.44,-125.3"/>
</g>
<!-- TranslateModule.forChild() -->
<g id="node7" class="node">
<title>TranslateModule.forChild()</title>
<polygon fill="#8dd3c7" stroke="black" points="681.89,-84.8 678.89,-88.8 657.89,-88.8 654.89,-84.8 510.11,-84.8 510.11,-48.8 681.89,-48.8 681.89,-84.8"/>
<text text-anchor="middle" x="596" y="-62.6" font-family="Times,serif" font-size="14.00">TranslateModule.forChild()</text>
</g>
<!-- TranslateModule.forChild()&#45;&gt;ApttusModule -->
<g id="edge6" class="edge">
<title>TranslateModule.forChild()&#45;&gt;ApttusModule</title>
<path fill="none" stroke="black" d="M669.19,-85.07C669.19,-103.36 669.19,-128.8 669.19,-128.8 669.19,-128.8 833.38,-128.8 833.38,-128.8"/>
<polygon fill="black" stroke="black" points="833.38,-132.3 843.38,-128.8 833.38,-125.3 833.38,-132.3"/>
</g>
<!-- { provide: ErrorHandler, useClass: RavenErrorHandler } -->
<g id="node12" class="node">
<title>{ provide: ErrorHandler, useClass: RavenErrorHandler }</title>
<ellipse fill="#fdb462" stroke="black" cx="255" cy="-66.8" rx="231.13" ry="18"/>
<text text-anchor="middle" x="255" y="-62.6" font-family="Times,serif" font-size="14.00">{ provide: ErrorHandler, useClass: RavenErrorHandler }</text>
</g>
<!-- { provide: ErrorHandler, useClass: RavenErrorHandler }&#45;&gt;ApttusModule -->
<g id="edge11" class="edge">
<title>{ provide: ErrorHandler, useClass: RavenErrorHandler }&#45;&gt;ApttusModule</title>
<path fill="none" stroke="black" d="M255,-84.93C255,-105.37 255,-135.8 255,-135.8 255,-135.8 833.6,-135.8 833.6,-135.8"/>
<polygon fill="black" stroke="black" points="833.6,-139.3 843.6,-135.8 833.6,-132.3 833.6,-139.3"/>
</g>
</g>
</svg>
